<?xml version="1.0" encoding="iso-8859-1"?>
<!-- Generator: Adobe Illustrator 24.0.0, SVG Export Plug-In . SVG Version: 6.00 Build 0)  -->
<svg version="1.1" xmlns="http://www.w3.org/2000/svg" xmlns:xlink="http://www.w3.org/1999/xlink" x="0px" y="0px"
	 viewBox="0 0 640 200" style="enable-background:new 0 0 640 200;" xml:space="preserve">
<g id="emblem">
	<g>
		<linearGradient id="SVGID_1_" gradientUnits="userSpaceOnUse" x1="27.5203" y1="100" x2="218.4118" y2="100">
			<stop  offset="0" style="stop-color:#FFFFFF"/>
			<stop  offset="0.5" style="stop-color:#74DCFF"/>
			<stop  offset="0.9949" style="stop-color:#0076FF"/>
		</linearGradient>
		<path style="fill:url(#SVGID_1_);" d="M122.966,65.003C68.519,49.366,27.52,49.096,27.52,49.096V93.67v14.768v42.467
			c0,0,40.999-0.27,95.446-15.907c52.886-15.189,95.446-15.907,95.446-15.907v-10.652V93.67V80.911
			C218.412,80.911,175.852,80.192,122.966,65.003z"/>
	</g>
</g>
<g id="knowledge">
	<g>
		<path d="M240.303,105.874v13.794h-5.245V80.331h5.245v24.756l11.277-11.644h6.976l-12.326,11.959l13.27,14.266h-6.661
			L240.303,105.874z"/>
		<path d="M269.259,119.669h-5.245V93.444h5.245v4.143c1.626-3.042,4.511-4.668,7.972-4.668c5.718,0,9.966,3.672,9.966,11.382
			v15.368h-5.245V105.35c0-5.192-2.413-7.815-6.347-7.815s-6.347,2.623-6.347,7.815V119.669z"/>
		<path d="M292.761,106.556c0-8.025,5.664-13.637,13.269-13.637c7.606,0,13.27,5.612,13.27,13.637s-5.664,13.637-13.27,13.637
			C298.425,120.193,292.761,114.581,292.761,106.556z M314.055,106.556c0-5.297-3.461-8.811-8.025-8.811
			c-4.563,0-8.025,3.514-8.025,8.811c0,5.298,3.462,8.812,8.025,8.812C310.594,115.368,314.055,111.854,314.055,106.556z"/>
		<path d="M353.501,119.669h-6.609l-5.56-21.662l-5.612,21.662h-6.608l-7.081-26.225h5.035l5.402,21.661l5.507-21.661h6.662
			l5.507,21.661l5.402-21.661h5.035L353.501,119.669z"/>
		<path d="M365.255,119.669V80.331h5.245v39.338H365.255z"/>
		<path d="M402.024,108.34h-20.561c0.63,4.563,3.567,7.238,7.972,7.238c3.2,0,5.298-1.416,6.347-3.777h5.665
			c-1.626,5.402-6.189,8.392-12.221,8.392c-7.448,0-12.902-5.612-12.902-13.637s5.454-13.637,12.902-13.637
			s12.903,5.612,12.903,13.637C402.129,107.186,402.077,107.763,402.024,108.34z M381.516,104.563h15.42
			c-0.63-4.406-3.514-7.028-7.71-7.028C384.978,97.535,382.145,100.158,381.516,104.563z"/>
		<path d="M427.203,115.735c-2.046,2.78-5.088,4.458-8.602,4.458c-7.185,0-12.588-5.612-12.588-13.637s5.402-13.637,12.588-13.637
			c3.514,0,6.556,1.678,8.602,4.459V80.331h5.245v39.338h-5.245V115.735z M411.258,106.556c0,5.298,3.409,8.812,7.973,8.812
			c4.563,0,7.972-3.514,7.972-8.812c0-5.297-3.409-8.811-7.972-8.811C414.668,97.745,411.258,101.259,411.258,106.556z"/>
		<path d="M451.806,133.306c-6.871,0-11.959-4.564-12.903-11.329h5.298c0.682,3.934,3.514,6.504,7.605,6.504
			c4.825,0,7.658-3.567,7.658-8.602v-4.144c-2.046,2.78-5.088,4.458-8.602,4.458c-7.185,0-12.588-5.612-12.588-13.637
			s5.402-13.637,12.588-13.637c3.514,0,6.556,1.678,8.602,4.459v-3.934h5.245v26.435
			C464.709,127.851,458.992,133.306,451.806,133.306z M459.464,106.556c0-5.297-3.409-8.811-7.972-8.811
			c-4.564,0-7.973,3.514-7.973,8.811c0,5.298,3.409,8.812,7.973,8.812C456.055,115.368,459.464,111.854,459.464,106.556z"/>
		<path d="M496.236,108.34h-20.561c0.63,4.563,3.567,7.238,7.972,7.238c3.2,0,5.298-1.416,6.347-3.777h5.665
			c-1.626,5.402-6.189,8.392-12.221,8.392c-7.448,0-12.902-5.612-12.902-13.637s5.454-13.637,12.902-13.637
			s12.903,5.612,12.903,13.637C496.34,107.186,496.287,107.763,496.236,108.34z M475.727,104.563h15.42
			c-0.63-4.406-3.514-7.028-7.71-7.028C479.189,97.535,476.356,100.158,475.727,104.563z"/>
	</g>
</g>
<g id="seed">
	<g>
		<linearGradient id="SVGID_2_" gradientUnits="userSpaceOnUse" x1="506.5253" y1="106.5561" x2="607.3624" y2="106.5561">
			<stop  offset="0" style="stop-color:#00BAFF"/>
			<stop  offset="1" style="stop-color:#0076FF"/>
		</linearGradient>
		<path style="fill:url(#SVGID_2_);" d="M506.414,100.419c0-2.098,1.888-3.304,4.721-3.304c3.042,0,5.298,1.836,5.298,4.354h5.454
			c0-4.826-4.615-8.55-10.752-8.55c-5.665,0-10.018,2.938-10.018,7.71c0,10.543,15.893,5.508,15.893,11.854
			c0,2.36-1.888,3.566-5.088,3.566c-3.357,0-5.875-1.626-5.875-4.825h-5.454c0,5.718,4.877,8.969,11.329,8.969
			c6.084,0,10.49-2.99,10.49-7.92C522.412,101.573,506.414,106.242,506.414,100.419z"/>
		<linearGradient id="SVGID_3_" gradientUnits="userSpaceOnUse" x1="506.5253" y1="106.5561" x2="607.3624" y2="106.5561">
			<stop  offset="0" style="stop-color:#00BAFF"/>
			<stop  offset="1" style="stop-color:#0076FF"/>
		</linearGradient>
		<path style="fill:url(#SVGID_3_);" d="M539.566,92.919c-7.448,0-12.902,5.612-12.902,13.637c0,8.025,5.454,13.637,12.902,13.637
			c6.032,0,10.596-2.99,12.221-8.392h-5.665c-1.049,2.361-3.147,3.777-6.346,3.777c-4.406,0-7.343-2.675-7.972-7.238h20.561
			c0.053-0.577,0.105-1.154,0.105-1.784C552.469,98.531,547.014,92.919,539.566,92.919z M531.857,104.563
			c0.629-4.406,3.461-7.028,7.71-7.028c4.196,0,7.081,2.623,7.71,7.028H531.857z"/>
		<linearGradient id="SVGID_4_" gradientUnits="userSpaceOnUse" x1="506.5253" y1="106.5561" x2="607.3624" y2="106.5561">
			<stop  offset="0" style="stop-color:#00BAFF"/>
			<stop  offset="1" style="stop-color:#0076FF"/>
		</linearGradient>
		<path style="fill:url(#SVGID_4_);" d="M569.256,92.919c-7.448,0-12.902,5.612-12.902,13.637c0,8.025,5.454,13.637,12.902,13.637
			c6.032,0,10.596-2.99,12.221-8.392h-5.665c-1.049,2.361-3.147,3.777-6.346,3.777c-4.406,0-7.343-2.675-7.972-7.238h20.561
			c0.052-0.577,0.105-1.154,0.105-1.784C582.159,98.531,576.704,92.919,569.256,92.919z M561.547,104.563
			c0.629-4.406,3.461-7.028,7.71-7.028c4.196,0,7.081,2.623,7.71,7.028H561.547z"/>
		<linearGradient id="SVGID_5_" gradientUnits="userSpaceOnUse" x1="506.5253" y1="100.2622" x2="607.3624" y2="100.2622">
			<stop  offset="0" style="stop-color:#00BAFF"/>
			<stop  offset="1" style="stop-color:#0076FF"/>
		</linearGradient>
		<path style="fill:url(#SVGID_5_);" d="M607.235,80.331v17.047c-2.046-2.781-5.088-4.459-8.602-4.459
			c-7.185,0-12.588,5.612-12.588,13.637c0,8.025,5.402,13.637,12.588,13.637c3.514,0,6.556-1.678,8.602-4.458v3.934h5.245V80.331
			H607.235z M599.262,115.368c-4.564,0-7.973-3.514-7.973-8.812c0-5.297,3.409-8.811,7.973-8.811c4.563,0,7.972,3.514,7.972,8.811
			C607.235,111.854,603.825,115.368,599.262,115.368z"/>
	</g>
</g>
</svg>
