<?xml version="1.0" standalone="no"?>
<!DOCTYPE svg PUBLIC "-//W3C//DTD SVG 1.1//EN" "http://www.w3.org/Graphics/SVG/1.1/DTD/svg11.dtd" >
<svg xmlns="http://www.w3.org/2000/svg" xmlns:xlink="http://www.w3.org/1999/xlink" version="1.1">
<metadata></metadata>
<defs>
<font id="imagobold" horiz-adv-x="1193" >
<font-face units-per-em="2048" ascent="1638" descent="-410" />
<missing-glyph horiz-adv-x="555" />
<glyph horiz-adv-x="0" />
<glyph horiz-adv-x="682" />
<glyph unicode=" "  horiz-adv-x="555" />
<glyph unicode="&#x09;" horiz-adv-x="555" />
<glyph unicode="&#xa0;" horiz-adv-x="555" />
<glyph unicode="!" horiz-adv-x="555" d="M119 1327h364l-24 -897h-322zM131 0v303h336v-303h-336z" />
<glyph unicode="&#x22;" horiz-adv-x="811" d="M66 1413q0 54 37.5 87.5t97.5 33.5q64 0 98 -47q15 -21 18.5 -47t-0.5 -47l-96 -531h-55l-96 506q-4 32 -4 45zM492 1413q0 54 37.5 87.5t97.5 33.5q22 0 40 -5.5t29.5 -14t18.5 -16t13 -15.5l5 -8q14 -24 10 -82l-96 -531h-55l-96 506q-4 32 -4 45z" />
<glyph unicode="#" horiz-adv-x="1366" d="M86 438v203h279l24 195h-258v204h285l55 408h213l-57 -408h200l56 408h207l-56 -408h242v-204h-268l-29 -195h252v-203h-277l-63 -440h-207l64 440h-203l-62 -440h-209l62 440h-250zM569 641h205l27 195h-203z" />
<glyph unicode="$" horiz-adv-x="1110" d="M74 43v236q88 -45 200.5 -72t210.5 -27q46 0 86.5 6t84 21t69 48t25.5 81q0 49 -25 81.5t-74 59.5q-58 28 -114 49l-66 25q-51 19 -83 32t-78 35.5t-74.5 43t-61.5 51t-51 64t-30.5 78.5t-12.5 97q0 327 405 387v220h166v-216q71 -4 116 -8t105 -17.5t109 -35.5v-207 q-147 70 -330 80q-33 0 -54.5 -1t-57.5 -4.5t-60 -12.5t-48.5 -23.5t-37 -39.5t-12.5 -58q0 -82 104 -133q48 -23 84 -37l82 -31h2q162 -62 231 -106q171 -110 177 -301v-13q0 -164 -102.5 -271.5t-307.5 -135.5v-248h-166v242q-244 0 -411 61z" />
<glyph unicode="%" horiz-adv-x="1878" d="M55 874q0 41 0.5 62.5t3.5 65.5t9 70.5t18.5 66t29.5 64.5t45 53.5t62.5 44.5t83.5 27t107 11q95 0 173 -32.5t120 -100.5q28 -42 37.5 -108.5t9.5 -190.5q0 -73 -1.5 -119t-13 -116.5t-34.5 -110.5q-86 -151 -318 -151q-195 0 -274 118q-34 52 -46 131t-12 215zM291 866 q0 -78 2 -124.5t8 -92t18.5 -68t33.5 -36t53 -13.5q17 0 31 4.5t23.5 10.5t17.5 17.5t12.5 19t8.5 22.5t5 20.5t4 20.5l2 15q8 80 8 239q0 47 -0.5 72.5t-1.5 62t-4 56t-8 44t-13 37t-19 25t-26 17t-34 4.5q-74 0 -97.5 -77.5t-23.5 -275.5zM506 0l719 1327h143l-711 -1327 h-151zM1122 455v1q0 52 1 81.5t7.5 84.5t19.5 89t39 77t63.5 67.5t96 42t132.5 17.5q95 0 173 -32.5t120 -100.5q28 -42 37.5 -107.5t9.5 -187.5q0 -75 -1.5 -121t-13 -116t-34.5 -111q-86 -151 -318 -151q-195 0 -274 118q-34 51 -46 132t-12 217zM1358 444q0 -78 2 -124.5 t8 -91.5t18.5 -67.5t33.5 -36t53 -13.5q17 0 31 4.5t23.5 10t17.5 17.5t12.5 19t8.5 22t5 20.5t3 20.5l3 15q8 80 8 241q0 47 -0.5 72.5t-1.5 61.5t-4 55t-8 43.5t-13 36.5t-19 24t-26 16.5t-34 4.5q-74 0 -97.5 -76.5t-23.5 -274.5z" />
<glyph unicode="&#x26;" horiz-adv-x="1409" d="M41 418q0 76 27 143t57 106t85 77.5t77 49.5t67 31q5 3 8 4q-114 143 -114 283q0 142 111 238t307 96q183 0 286 -84.5t103 -212.5q0 -40 -11 -76t-26 -62.5t-44.5 -53t-51.5 -42.5t-63.5 -37.5t-63.5 -31t-68 -29.5l313 -381q19 40 25 75t6 130v102h250v-110 q0 -145 -24 -219.5t-101 -151.5l213 -260h-403l-70 84q-34 -21 -56 -32.5t-70.5 -31.5t-111 -30t-135.5 -10q-109 0 -205 26q-83 26 -146 71.5t-99 101.5t-54 115.5t-18 121.5zM332 469q0 -117 87 -204t228 -87q100 0 176 53l-356 451q-56 -37 -78 -60q-57 -63 -57 -153z M541 1133q0 -64 61 -160l27 -37q86 44 116 70q55 49 56 116q0 61 -37 96t-98 35q-55 0 -90 -33.5t-35 -86.5z" />
<glyph unicode="'" horiz-adv-x="425" d="M88 1413q0 59 41.5 90t91.5 31q63 0 101 -47q15 -20 17.5 -47t-1.5 -47l-96 -531h-56l-96 506q-2 16 -2 45z" />
<glyph unicode="(" horiz-adv-x="854" d="M133 526q0 117 3 196t12 170t27.5 154.5t48 126.5t76 110t108.5 83q87 50 184 65t231 15v-182q-88 0 -150 -16t-112 -66q-68 -68 -91.5 -198t-23.5 -435q0 -105 3 -178.5t12.5 -147t26.5 -120.5t44.5 -89.5t68 -66.5t95.5 -38t127 -15v-183q-7 0 -27 -1t-30 -1 q-112 0 -202 21t-155.5 58t-114 94t-79 123t-49.5 152.5t-26 174t-7 194.5z" />
<glyph unicode=")" horiz-adv-x="854" d="M29 -106h11q52 0 84 2.5t83.5 22t87.5 58.5q68 64 90.5 189.5t22.5 421.5q0 297 -27 416q-14 59 -37.5 104.5t-54 72.5t-61 45t-68.5 25.5t-65.5 10t-63.5 2.5v182q128 5 231 -14q88 -16 157.5 -51.5t117 -80.5t82 -109t54 -126t31 -142.5t14.5 -147t3 -150.5 q0 -88 -1.5 -151t-5.5 -135t-12.5 -124t-22 -108.5t-34 -98.5t-48 -83t-64.5 -74t-84 -60q-49 -29 -103 -46.5t-113.5 -24t-93 -8t-89.5 -1.5h-19z" />
<glyph unicode="*" horiz-adv-x="811" d="M66 1001l196 101l-196 92l81 149l185 -116l-15 219h170l-12 -219l184 121l86 -148l-200 -98l198 -98l-84 -148l-184 121l12 -221h-170l15 221l-182 -121z" />
<glyph unicode="+" horiz-adv-x="1366" d="M86 492v208h494v494h211v-494h489v-208h-489v-492h-211v492h-494z" />
<glyph unicode="," horiz-adv-x="512" d="M72 -301l168 301h-164v303h356v-293l-164 -311h-196z" />
<glyph unicode="-" horiz-adv-x="894" d="M84 403v256h727v-256h-727z" />
<glyph unicode="." horiz-adv-x="512" d="M82 0v303h348v-303h-348z" />
<glyph unicode="/" horiz-adv-x="894" d="M6 0l600 1446h283l-598 -1446h-285z" />
<glyph unicode="0" d="M86 666q0 75 2.5 127t11.5 125.5t31 135.5t57 111q129 178 426 178q143 0 234 -38q58 -24 101 -56t71.5 -74.5t46.5 -87.5t27.5 -108.5t12.5 -122.5t3 -143q0 -162 -10 -262q-3 -34 -5.5 -55t-10 -59.5t-18 -66t-29.5 -64.5t-44 -65t-62.5 -57t-84.5 -51 q-108 -51 -271 -51q-288 0 -403 174q-51 74 -68.5 189.5t-17.5 320.5zM424 657q0 -193 12 -315q23 -188 162 -188q40 0 70 16t45.5 35.5t26 52t13 49t5.5 43.5q14 106 14 355q0 174 -12 284q-24 185 -154 185q-137 0 -164 -175q-18 -123 -18 -342z" />
<glyph unicode="1" d="M203 1030v205q364 35 633 121v-1356h-351v1030h-282z" />
<glyph unicode="2" d="M53 0v188l176 148q249 212 373 354q65 72 103 141.5t38 153.5q0 85 -43 129.5t-118 44.5q-54 0 -93 -20q-98 -53 -98 -203v-39h-334q-5 111 31 193q112 253 526 253q27 0 49.5 -1t75.5 -8t94.5 -19.5t93 -39.5t85.5 -64.5t58 -98t24 -135.5q0 -85 -25 -158t-85.5 -149.5 t-141.5 -151t-211 -176.5l-123 -98l571 8v-252h-1026z" />
<glyph unicode="3" d="M43 399h328v-28q3 -102 42.5 -156.5t137.5 -54.5q40 0 80 14q106 46 106 209q0 124 -58.5 170.5t-184.5 46.5h-123v180h49q133 3 184 20q101 33 113 151q2 19 2 40q0 185 -162 185q-170 0 -170 -220v-34h-313v10q0 37 1 59.5t9.5 66t24.5 75t49.5 69.5t81.5 66 q120 75 352 75q73 0 136 -9t124 -32.5t104.5 -60.5t70 -97t26.5 -138q0 -123 -75.5 -198t-201.5 -101l-55 -9l51 -6q52 -8 91.5 -18.5t84.5 -34t74 -56t48.5 -86t19.5 -122.5q0 -393 -547 -393q-98 0 -168.5 9t-136.5 35.5t-106.5 72t-64.5 120.5t-24 180z" />
<glyph unicode="4" d="M63 258v186q97 194 162 329.5t103 218t151 333.5h318q-58 -119 -132.5 -275.5t-131 -273t-140.5 -284.5h299v471h299v-471h144v-234h-144v-258h-311v258h-617z" />
<glyph unicode="5" d="M100 326.5v37.5v11h346v-29t3 -36.5t8.5 -44.5t17.5 -41t28.5 -37.5t43.5 -24t61 -10.5q180 0 180 290q0 256 -167 256q-66 0 -111 -35t-64 -96h-307l33 758h905v-235h-620l-13 -295q21 17 36.5 27.5t52 29.5t88 29t112.5 10q211 0 316 -127q88 -109 88 -311 q0 -93 -22 -168t-62.5 -125.5t-91 -86t-114 -55t-124.5 -28t-129 -8.5q-231 0 -340 69q-32 18 -57.5 41.5t-41.5 45t-27 50.5t-16.5 48t-8.5 48.5t-3 42z" />
<glyph unicode="6" d="M86 573q0 227 20 361q26 150 76 223q20 30 53 59t84.5 59.5t129.5 49t169 18.5q79 0 175 -17t163 -60q46 -29 76 -65.5t42.5 -78.5t16 -72.5t3.5 -72.5h-314q0 35 -10.5 80.5t-36.5 75.5q-43 43 -110 43q-42 0 -75.5 -17t-51.5 -42.5t-27 -44.5t-12 -34q-27 -80 -27 -297 q31 23 47 34t56.5 32t89 31t106.5 10q101 0 177 -32t122 -81q41 -43 62.5 -103t25.5 -102t4 -102q0 -221 -139 -338q-130 -108 -381 -108q-140 0 -235 32q-68 22 -116 57t-86.5 97.5t-57.5 163t-19 241.5zM436 414q0 -102 27 -160q38 -107 141 -107q183 0 174 287 q-3 242 -164 242q-109 0 -151 -103q-27 -59 -27 -159z" />
<glyph unicode="7" d="M80 1077v248h1020v-248q-249 -507 -545 -1077h-385q205 371 298.5 548.5t266.5 528.5h-655z" />
<glyph unicode="8" d="M80 352q0 152 78 236q27 31 59 52.5t70.5 32.5t60.5 15.5t63 9.5q10 1 15 2q-58 7 -91.5 13t-79.5 25t-75 50q-69 77 -69 199q0 190 147 283q52 30 129.5 48t125.5 21.5t87 3.5q80 0 179.5 -16t172.5 -59q133 -86 133 -252q0 -136 -63 -205q-63 -74 -184 -100 q-11 -4 -54 -9l58 -8q50 -9 88 -21.5t74.5 -36.5t60 -58t37.5 -86t14 -119q0 -89 -24 -152q-51 -132 -187 -186q-126 -53 -311 -53q-114 0 -209 18q-147 31 -226 115t-79 237zM422 379q0 -24 1.5 -44t11 -58.5t26.5 -64.5t52.5 -46.5t84.5 -20.5q93 0 139 66q45 64 41 180 q0 42 -6 82q-10 47 -29 80q-43 65 -137 65q-42 0 -82 -18q-102 -51 -102 -221zM440 969q0 -14 1 -26t5 -36.5t14.5 -44t26.5 -39t44 -30.5t65 -11q82 0 121 56q37 51 37 153q0 78 -36 131.5t-114 53.5q-81 0 -125 -62q-39 -52 -39 -145z" />
<glyph unicode="9" d="M72 352h342q0 -202 155 -202q45 0 78.5 17t54 50.5t34 70.5t19 92t7.5 98t2 104q-35 -29 -65.5 -47.5t-93.5 -37t-138 -18.5q-186 0 -301 115q-40 42 -61.5 103.5t-25 102t-3.5 95.5q0 229 139 342q125 106 379 106q147 0 237 -34q104 -34 163.5 -99t86.5 -177.5 t27 -293.5q0 -220 -18 -352t-82 -221q-70 -96 -187.5 -140t-257.5 -44q-236 0 -358 79q-38 25 -64.5 56.5t-39.5 58t-20 63.5t-8 57t-1 56zM418 893q0 -244 162 -244q33 0 57 8q70 21 98 95q29 64 29 161q0 82 -25 158q-1 1 -5.5 12t-8.5 18.5t-12 20t-18.5 21t-24.5 17.5 t-33.5 13.5t-42.5 4.5q-184 0 -176 -285z" />
<glyph unicode=":" horiz-adv-x="555" d="M125 0v303h348v-303h-348zM125 721v303h348v-303h-348z" />
<glyph unicode=";" horiz-adv-x="555" d="M115 -301l168 301h-164v303h356v-293l-164 -311h-196zM125 721v303h350v-303h-350z" />
<glyph unicode="&#x3c;" horiz-adv-x="1366" d="M0 614v213l1366 625v-231l-1083 -500l1083 -498v-229z" />
<glyph unicode="=" horiz-adv-x="1366" d="M0 299v211h1366v-211h-1366zM0 684v211h1366v-211h-1366z" />
<glyph unicode="&#x3e;" horiz-adv-x="1366" d="M0 -6v229l1081 498l-1081 500v231l1366 -625v-213z" />
<glyph unicode="?" horiz-adv-x="1110" d="M43 903v58q0 58 5.5 99.5t33 97.5t78.5 97q66 52 171 75.5t214 23.5q213 0 342 -80q162 -101 162 -297q0 -151 -93 -256q-128 -139 -340 -158v-127h-321v266q67 2 121.5 10t108.5 27t90 49t58.5 79t22.5 114q0 96 -45.5 147.5t-122.5 51.5q-42 0 -71 -14.5t-44 -33.5 t-23 -51.5t-9.5 -55t-1.5 -56.5v-66h-336zM289 0v303h340v-303h-340z" />
<glyph unicode="@" horiz-adv-x="1835" d="M141 483q0 196 73.5 375.5t198 311t298.5 210t366 78.5q152 0 272.5 -48.5t194.5 -131t112 -187.5t38 -223q0 -140 -41 -275t-107.5 -234t-155 -159.5t-178.5 -60.5q-100 0 -153 80q-20 39 -23 78q-124 -156 -276 -156q-53 0 -100.5 19.5t-88 58.5t-64.5 106t-24 154 q0 147 57.5 281.5t160 219.5t221.5 85q44 0 81 -12t57 -24t42 -39.5t27 -36t20 -35.5l25 104h161l-67 -315q-58 -278 -58 -349q0 -34 15.5 -52.5t36.5 -18.5q38 0 87.5 47t93.5 122t74.5 183t30.5 217q0 103 -29 185t-76 133.5t-111 86t-129 48.5t-134 14q-153 0 -297.5 -67 t-252 -179.5t-172 -268.5t-64.5 -325q0 -131 40 -236t104 -171.5t150 -111t173 -63t178 -18.5q370 0 676 299l82 -104q-350 -332 -754 -332q-73 0 -147.5 11.5t-153 38t-149 65.5t-133.5 99t-108.5 134t-72.5 174t-27 215zM670 487q0 -95 44.5 -142.5t102.5 -47.5 q67 0 130.5 58t103 155.5t39.5 204.5q4 93 -43.5 143.5t-110.5 50.5q-59 0 -111 -41t-85 -104.5t-51.5 -136.5t-18.5 -140z" />
<glyph unicode="A" horiz-adv-x="1409" d="M-2 0l473 1446h524l416 -1446h-377l-131 477h-403l-150 -477h-352zM557 690h295l-100 371q-32 123 -39 147q-10 -37 -22.5 -77t-20.5 -70z" />
<glyph unicode="B" horiz-adv-x="1366" d="M133 0v1446h545q53 0 87 -0.5t85 -4t84.5 -10t76.5 -18.5t70.5 -29.5t57 -43.5t46 -59.5t27.5 -79.5t11 -101q0 -213 -187 -301q-5 -2 -22 -9t-27 -10q12 -3 32 -6t32 -6t22.5 -6t38 -15.5t49.5 -27.5t50 -43.5t47 -63t32 -86.5t13 -112q0 -108 -37 -189q-21 -46 -52 -82 t-63 -59.5t-76.5 -40t-80 -24.5t-88 -12.5t-85.5 -5.5t-86 -1h-602zM496 188l82 -2q39 0 60 0.5t56.5 2.5t55.5 6.5t48.5 13t44.5 20.5t35 30.5t29 43t16.5 57t6.5 72.5q0 47 -10 83.5t-25.5 60.5t-42.5 41.5t-52 26.5t-63 14.5t-67.5 6.5t-73.5 1h-100v-478zM496 846h110 q44 0 68.5 1t61 9.5t59.5 24.5q11 5 26.5 20t33 57.5t17.5 98.5q0 60 -20 106q-14 28 -35 46t-40.5 27.5t-55.5 14.5t-59.5 5.5t-73.5 0.5h-92v-411z" />
<glyph unicode="C" horiz-adv-x="1409" d="M94 700q0 98 7 178t26.5 162.5t51.5 145.5t83.5 120t121 93.5t167 58t217.5 21.5q93 0 171 -13.5t134.5 -34t101 -53.5t73 -64.5t49 -75t30.5 -76t15.5 -77t6.5 -69t1 -60.5h-363v26q0 81 -16 143q-19 71 -72 116t-139 45q-58 0 -103 -19.5t-75.5 -58.5t-51 -89.5 t-31.5 -122t-15.5 -144.5t-4.5 -168q0 -97 4.5 -166t20.5 -141t44 -116.5t77 -72.5t118 -28q230 0 250 327h377q-3 -42 -5.5 -69t-16 -81.5t-34.5 -95t-62.5 -89t-98.5 -84.5q-160 -101 -440 -101q-341 0 -486 178q-46 54 -75.5 126t-40.5 157.5t-14 139.5t-3 132z" />
<glyph unicode="D" horiz-adv-x="1492" d="M133 0v1446h625q63 0 102 -1.5t105 -9.5t113 -23.5t101.5 -46.5t94.5 -75q48 -54 78 -127t41.5 -160t14.5 -142t3 -134q0 -459 -207 -616q-90 -67 -213.5 -89t-308.5 -22h-549zM506 193l69 -3h70q110 4 156 17q61 14 104 43t67 70t35.5 80.5t18.5 91.5q14 115 14 241 q0 152 -16 246q-18 125 -72 186q-30 31 -66 50.5t-80.5 27t-72 9t-74.5 1.5h-153v-1060z" />
<glyph unicode="E" horiz-adv-x="1110" d="M133 0v1446h893v-225h-524v-359h479v-225h-479v-412h579v-225h-948z" />
<glyph unicode="F" horiz-adv-x="1067" d="M133 0v1446h883v-225h-510v-404h473v-225h-473v-592h-373z" />
<glyph unicode="G" horiz-adv-x="1449" d="M84 702q0 408 159.5 592.5t514.5 184.5q104 0 190 -15t160 -51t124.5 -92t79.5 -141t29 -195h-354q0 301 -233 301q-50 0 -91 -15.5t-68.5 -39t-49 -58t-33.5 -67t-20 -72t-10.5 -66.5t-4.5 -57q-10 -137 -10 -223q0 -100 7 -175t25.5 -144.5t50.5 -113t83 -69.5t121 -26 q116 0 186 67q32 29 48.5 69.5t19.5 67.5t4 76v127h-238v203h576v-770h-338v106q-76 -76 -169 -107.5t-214 -31.5q-91 0 -167.5 19.5t-125 51t-73.5 54t-42 45.5q-46 54 -75.5 127t-42 157t-16 144.5t-3.5 136.5z" />
<glyph unicode="H" horiz-adv-x="1449" d="M133 0v1446h375v-572h438v572h373v-1446h-373v649h-438v-649h-375z" />
<glyph unicode="I" horiz-adv-x="641" d="M133 0v1446h375v-1446h-375z" />
<glyph unicode="J" horiz-adv-x="937" d="M0 43v229q129 -63 223 -63q116 0 172 84q20 34 26.5 86t6.5 158v909h375v-873q0 -73 -1.5 -116.5t-9 -112t-27 -122.5t-50.5 -95q-119 -152 -387 -152q-184 0 -328 68z" />
<glyph unicode="K" horiz-adv-x="1366" d="M133 0v1446h356v-600l451 600h375l-434 -528l495 -918h-403l-342 614l-142 -170v-444h-356z" />
<glyph unicode="L" horiz-adv-x="1110" d="M133 0v1446h375v-1221h579v-225h-954z" />
<glyph unicode="M" horiz-adv-x="1961" d="M133 0l19 1448h550l226 -762q16 -65 55 -252q19 97 64 266l221 748h551l12 -1448h-348l-4 989v215q-37 -124 -58 -200l-305 -1004h-274l-310 1001l-24 91q-5 22 -15.5 59t-13.5 49q4 -61 4 -194l-10 -1006h-340z" />
<glyph unicode="N" horiz-adv-x="1492" d="M133 0v1446h430l361 -721q47 -93 66.5 -138.5t58.5 -150.5q0 57 -2.5 136.5t-2.5 134.5l-4 739h322v-1446h-420l-399 788q-31 60 -94 216q0 -41 2 -96t2 -95l8 -813h-328z" />
<glyph unicode="O" horiz-adv-x="1492" d="M84 657q0 95 3 160t17.5 158t40.5 157t76.5 134.5t121 113.5t178 71t243.5 28q367 0 520 -191q35 -43 59.5 -101.5t37 -111.5t19.5 -122.5t8 -112t1 -103.5q-1 -97 -8 -173.5t-26 -159.5t-49.5 -144.5t-81.5 -119t-119.5 -94t-166 -58t-219.5 -21.5q-159 0 -275.5 34 t-189 92t-115.5 148t-59 188.5t-16 227.5zM467 688q0 -74 2 -125.5t8 -111t17.5 -99.5t32 -79t49 -62t70.5 -37t95 -14q46 0 84 10t63.5 30.5t43 39t30.5 47.5t17.5 43t11.5 38q1 5 2 7q33 149 33 383q0 87 -3 148t-12.5 126t-28 107.5t-48 78t-74 52t-104.5 16.5 q-64 0 -112 -21.5t-77 -54.5t-48.5 -85t-28 -99t-13.5 -111q-10 -98 -10 -227z" />
<glyph unicode="P" horiz-adv-x="1280" d="M133 0v1446h592h80q226 0 338 -107t112 -342q0 -263 -143 -381q-39 -33 -88 -53t-111.5 -27.5t-101.5 -9.5t-106 -2h-199v-524h-373zM506 717h123q34 0 58 2t52.5 8t48.5 17.5t40 32t32 49t19.5 70.5t7.5 95t-8.5 95t-21 69t-34.5 46.5t-41 29t-49.5 15t-50.5 6.5t-53 1 h-123v-536z" />
<glyph unicode="Q" horiz-adv-x="1492" d="M82 690q0 57 1 88t4.5 97.5t14 115t27.5 109t46.5 112t68.5 93.5q164 174 514 174q179 0 305 -45q80 -29 138.5 -74t96.5 -101t60.5 -132.5t31.5 -160.5t9 -192q0 -139 -8 -221q-14 -130 -41 -213q-18 -60 -43.5 -105t-43.5 -64t-49 -46q114 -24 181 -111 q12 -15 22 -32.5t16.5 -31.5t12.5 -33t9 -30t6 -31.5t4 -27.5t3 -27.5t2 -23.5h-307l-6 43q-16 72 -55 117t-82 57q-6 3 -43 8q-69 -17 -98 -22q-89 -13 -166 -13q-163 0 -285 43q-74 27 -130 65t-93.5 88t-62 104t-37.5 125.5t-18 139.5t-5 158zM465 694q0 -51 4 -145 q2 -18 5 -51t6 -59.5t7 -51.5q4 -20 7 -32t12 -39t19.5 -44.5t30 -40.5t43 -37t59 -24t77.5 -10q54 0 97.5 17.5t68.5 39.5t44 54t25.5 50t12.5 39q35 120 35 381q0 213 -23 322q-5 25 -10 43t-23 55.5t-41.5 61.5t-68 43.5t-100.5 19.5q-45 0 -101 -16q-115 -46 -151 -197 q-35 -130 -35 -379z" />
<glyph unicode="R" horiz-adv-x="1366" d="M133 0v1446h662q85 0 151 -8.5t129.5 -32.5t105 -64t66.5 -107.5t25 -158.5q0 -64 -13.5 -116.5t-31 -87.5t-49 -63.5t-53.5 -43t-59 -27t-50.5 -15.5t-42.5 -9q70 -15 115.5 -39t76 -69.5t48.5 -97t38 -140.5l21 -82q28 -143 46.5 -193.5t55.5 -91.5h-385 q-37 32 -48.5 63t-41.5 173l-1.5 6t-1 5.5t-1.5 6.5l-12 63q-1 6 -6.5 28l-7 28t-6 24.5t-6.5 25t-6.5 21.5t-7 21.5t-7.5 18.5t-9.5 19.5t-10 16t-11.5 15.5q-27 33 -66.5 50.5t-65.5 20t-69 2.5h-106v-608h-365zM498 799h110q60 0 100.5 4.5t80.5 18.5t63 39t37 68.5 t14 104.5q0 55 -13 94.5t-35 63.5t-58.5 38t-76 18.5t-95.5 4.5h-127v-454z" />
<glyph unicode="S" horiz-adv-x="1280" d="M59 436l353 -4q0 -41 2 -67t16 -68.5t41 -71.5q59 -63 172 -63q108 0 165.5 56t57.5 149q0 20 -2.5 37.5t-9.5 32.5t-12.5 26.5t-20 23.5t-22.5 19.5t-28.5 17.5t-30.5 15t-36.5 15t-38 13.5t-42.5 14.5l-82 28q-172 57 -242 95q-155 85 -187 236q-10 45 -10 97 q0 71 16.5 130.5t42 101.5t64.5 76t76 55.5t85.5 36.5t84 22.5t80.5 11.5t65.5 4.5t47.5 0.5q81 0 184 -15q331 -55 331 -380q0 -13 -1 -27l-324 4q0 38 -2 63t-14.5 58.5t-36.5 56.5q-53 47 -146 47q-96 0 -151 -48t-55 -122q0 -29 7.5 -52.5t27 -43t36 -32.5t51 -27.5 t56 -22.5t65.5 -23l107 -34q48 -15 78.5 -26t78.5 -32t79 -42.5t67.5 -55.5t57.5 -72.5t35.5 -92.5t14.5 -116q0 -123 -43 -215q-122 -258 -524 -258q-117 0 -221 19q-74 14 -133 40t-96.5 55t-64.5 70.5t-40 73.5t-20 77.5t-8 70t-1 61.5z" />
<glyph unicode="T" horiz-adv-x="1110" d="M-2 1221v225h1114v-225h-371v-1221h-372v1221h-371z" />
<glyph unicode="U" horiz-adv-x="1449" d="M125 522v924h373v-911q1 -69 3 -105t14 -91.5t34.5 -83.5t67.5 -50.5t110 -22.5q32 0 60 6t46 13.5t35 19t24.5 19.5t16.5 18l9 10q28 40 36.5 101t10.5 166v911h360v-875q0 -159 -18 -239q-14 -62 -37.5 -111.5t-68.5 -98t-108.5 -81t-161.5 -52.5t-222 -20 q-297 0 -437 113q-35 29 -61.5 64t-42 76t-25 75t-13 81t-4.5 73t-1 71z" />
<glyph unicode="V" horiz-adv-x="1323" d="M8 1446h381l225 -914q27 -101 56 -260q16 85 57 250l223 924h365l-406 -1446h-495z" />
<glyph unicode="W" horiz-adv-x="1878" d="M-2 1446h358l150 -944q8 -52 16 -110.5t15 -106.5q11 66 43 207l217 954h301l194 -914q5 -30 13 -72t14.5 -79t13.5 -90q8 40 14.5 85.5t14.5 86.5l182 983h336l-289 -1446h-461l-143 684q-7 30 -12 55t-8 41.5t-7 44.5t-5.5 39.5t-6 51.5t-6.5 59q-31 -176 -53 -275 l-166 -700h-463z" />
<glyph unicode="X" horiz-adv-x="1323" d="M-8 0l469 772l-398 674h396l215 -402l223 402h377l-397 -662l454 -784h-393l-236 420q-8 14 -20 38.5t-20 37.5q-13 -31 -37 -72l-246 -424h-387z" />
<glyph unicode="Y" horiz-adv-x="1323" d="M-14 1446h407l242 -508q19 -41 47 -111q2 4 20.5 53.5t24.5 57.5l227 508h383l-485 -950v-496h-369v496z" />
<glyph unicode="Z" horiz-adv-x="1280" d="M45 0v205l748 1016h-666v225h1100v-217l-729 -1004h729v-225h-1182z" />
<glyph unicode="[" horiz-adv-x="811" d="M158 -289v1737h610v-174h-301v-1389h301v-174h-610z" />
<glyph unicode="\" horiz-adv-x="894" d="M6 1446h285l598 -1446h-285z" />
<glyph unicode="]" horiz-adv-x="811" d="M43 -115h301v1389h-301v174h610v-1737h-610v174z" />
<glyph unicode="^" horiz-adv-x="1492" d="M262 662l400 784h186l383 -784h-242l-237 503l-250 -503h-240z" />
<glyph unicode="_" horiz-adv-x="1024" d="M-20 -154h1064v-102h-1064v102z" />
<glyph unicode="`" horiz-adv-x="555" d="M31 1442h329l162 -303h-243z" />
<glyph unicode="a" horiz-adv-x="1150" d="M63 281q0 166 125 247q55 35 130 51.5t235 36.5l162 17v82q0 43 -5 72t-19 56t-43.5 40.5t-74.5 13.5q-88 0 -123 -50.5t-40 -144.5h-318q0 37 0.5 54t8.5 53t24 65q104 177 469 177q267 0 362 -84q32 -28 51.5 -61t26.5 -74.5t8.5 -65t1.5 -68.5v-491q0 -87 9 -131 q9 -46 34 -64v-12h-272q-34 0 -51.5 3t-33.5 14t-22 35t-6 65q-16 -19 -40 -39t-65.5 -46t-103.5 -42.5t-131 -16.5q-145 0 -222 81t-77 227zM397 307q0 -73 34 -116.5t106 -43.5q95 0 136.5 52.5t41.5 150.5v150q-142 -14 -166 -21q-152 -34 -152 -172z" />
<glyph unicode="b" d="M111 0v1446h329v-551q19 22 43.5 43t65.5 47.5t99 42.5t122 16q63 0 114 -15t87.5 -40.5t63.5 -64.5t43.5 -81t26.5 -95.5t13.5 -103.5t3.5 -109q0 -64 -4 -118t-14.5 -112.5t-28.5 -104.5t-48 -88.5t-70 -70.5t-97 -44.5t-127 -16.5q-198 0 -293 139v-119h-329zM440 393 q0 -241 168 -241q82 0 129 65q24 31 36 90.5t13.5 102.5t1.5 118q0 54 -2 92t-7 81t-16.5 71t-28.5 52.5t-44 36t-63 11.5q-48 0 -84 -20q-35 -17 -57 -43t-31.5 -59t-12 -58t-2.5 -59v-240z" />
<glyph unicode="c" horiz-adv-x="1110" d="M72 508q0 49 2.5 84t13.5 98t40.5 121.5t76.5 106.5q127 133 393 133q222 0 340 -88q135 -100 135 -306h-323q-3 72 -16 120.5t-48.5 83t-93.5 34.5q-100 0 -142 -96.5t-42 -294.5q0 -234 55 -314q45 -61 119 -61q78 0 123 66q35 49 43 172h325q-6 -110 -37 -177 q-105 -217 -463 -217q-243 0 -368 121q-46 44 -75.5 98t-40.5 116t-14 101.5t-3 98.5z" />
<glyph unicode="d" d="M72 496q0 97 9 172.5t35.5 148.5t70 121t116 77t170.5 29q57 0 101.5 -9.5t79.5 -31.5t53.5 -37.5t50.5 -47.5v528h327v-1446h-327v125q-78 -78 -149 -111.5t-175 -33.5q-90 0 -156.5 29.5t-105.5 76t-62 116.5t-30.5 138.5t-7.5 155.5zM406 516q0 -143 16 -213 q2 -17 9.5 -37.5t23.5 -48.5t49 -46.5t76 -18.5q44 0 76.5 15t51 37.5t29.5 58.5t14.5 66.5t4.5 73.5v263q0 92 -44.5 149t-121.5 57q-35 0 -72 -16q-25 -14 -40 -28.5t-34 -49.5t-28.5 -100.5t-9.5 -161.5z" />
<glyph unicode="e" horiz-adv-x="1150" d="M74 496q0 33 0.5 55.5t5.5 69t14 81t27.5 82t44 82t66 71.5t91.5 60.5t122.5 38.5t156.5 15q122 0 219 -31q65 -21 111 -52.5t73 -73.5t42 -81.5t26 -95.5q13 -73 13 -169q0 -28 -1 -59h-675v-70t4 -69t11 -69t20.5 -58.5t32.5 -50.5t48.5 -30.5t67.5 -12.5q80 0 123 49 q40 44 47 150h323q-2 -28 -5 -47t-12.5 -53t-24.5 -60.5t-43 -58t-66 -56.5q-135 -80 -348 -80q-250 0 -377 111q-137 121 -137 412zM414 631h346q0 264 -162 264q-45 0 -79.5 -20.5t-52.5 -47t-30 -66.5t-15 -64t-6 -54q-1 -9 -1 -12z" />
<glyph unicode="f" horiz-adv-x="641" d="M6 879v145h133v72q1 57 4 89.5t21.5 84t52.5 88.5q95 100 287 100q113 0 184 -31v-176q-49 21 -96 21q-33 0 -56 -10.5t-35.5 -25.5t-19.5 -40.5t-8.5 -47t-1.5 -54.5v-70h162v-145h-162v-879h-332v879h-133z" />
<glyph unicode="g" d="M72 496q0 91 9.5 165.5t37 148t71.5 123.5t117 80.5t170 30.5q49 0 92.5 -11t71 -24.5t53.5 -35.5t36.5 -34.5t25.5 -31.5v117h327v-911q0 -73 -3.5 -124.5t-13 -108t-29.5 -97t-51.5 -79t-79.5 -66t-113 -46.5q-103 -32 -254 -32q-260 0 -375 100q-31 27 -50 58t-26 67 t-8.5 57.5t-1.5 59.5v12h323q2 -18 3.5 -42t2 -33t3.5 -21t8 -23q42 -90 147 -90q50 0 86 19t55.5 45.5t30.5 70.5t14.5 77t4.5 83v129q-106 -131 -312 -131q-90 0 -156.5 26t-107 69.5t-65.5 109.5t-34 135.5t-9 157.5zM408 512q0 -52 1.5 -89t7 -81.5t17.5 -75t30 -57 t47.5 -40t68.5 -13.5q87 0 139 69q33 50 37 144v286q0 102 -31 150q-50 67 -129 67q-39 0 -69.5 -14.5t-50 -34.5t-33.5 -54.5t-20.5 -62t-10 -70t-4 -65t-0.5 -59.5z" />
<glyph unicode="h" d="M111 0v1446h329v-537q35 28 54 42t65.5 40.5t101.5 39.5t119 13q165 0 234 -87t69 -261v-696h-331v639q0 34 -1 53.5t-4.5 51.5t-12.5 50.5t-24 38.5t-40.5 29.5t-59.5 9.5q-86 0 -123 -44t-47 -134v-694h-329z" />
<glyph unicode="i" horiz-adv-x="555" d="M111 0v1024h331v-1024h-331zM111 1180v256h333v-256h-333z" />
<glyph unicode="j" horiz-adv-x="555" d="M-76 -221q28 -4 49 -4q35 0 68 14q50 23 61 72.5t11 177.5v985h331v-985v-44v-57q-2 -43 -10 -94t-24.5 -87t-46 -72t-71.5 -58t-104.5 -35.5t-142.5 -13.5t-121 6v195zM113 1180v256h329v-256h-329z" />
<glyph unicode="k" horiz-adv-x="1150" d="M111 0v1446h325v-828l316 406h338l-299 -340l370 -684h-358l-234 440l-133 -153v-287h-325z" />
<glyph unicode="l" horiz-adv-x="555" d="M111 0v1446h331v-1446h-331z" />
<glyph unicode="m" horiz-adv-x="1792" d="M113 0v1024h329v-119q30 27 52 43t65.5 42.5t97.5 40t115 13.5q204 0 268 -157q165 157 351 157q288 0 288 -311v-733h-329v668q-3 108 -23 145l-5 8q-6 8 -13.5 15.5t-19 16t-29.5 14t-39 5.5q-39 0 -74 -18q-29 -14 -47.5 -33t-26.5 -43t-10 -42t-2 -44v-692h-330v664 q0 23 -0.5 36.5t-3 38.5t-7 40.5t-14 35t-23 30.5t-35 19t-48.5 8q-44 0 -86 -22q-39 -26 -54.5 -60t-17.5 -83v-58v-649h-329z" />
<glyph unicode="n" d="M111 0v1024h329v-117q154 137 342 137q91 0 149 -26.5t85 -59.5q23 -25 37.5 -54t20.5 -68t7 -55.5t2 -61.5v-719h-329v625q0 85 -4 108q0 13 -2.5 27.5t-11 35.5t-23 37t-41.5 27.5t-62 11.5q-84 0 -127 -47t-43 -133v-692h-329z" />
<glyph unicode="o" d="M72 485q0 46 1 75t8.5 87t22 101t44 94t71.5 88q133 121 404 121q275 0 399 -146q100 -117 100 -377q0 -54 -2 -89.5t-11.5 -100t-35 -120.5t-65.5 -101q-134 -144 -412 -144q-138 0 -225 27q-74 20 -128.5 58.5t-86.5 84.5t-51.5 106t-26 115t-6.5 121zM408 502 q0 -69 6 -140q10 -104 37 -153q47 -81 145 -82q40 0 78 18q30 17 51 44.5t31.5 63.5t14.5 57t7 52q8 76 8 170q0 68 -6 136q-2 23 -3 33.5t-6.5 38.5t-12.5 44.5t-20.5 40.5t-30.5 37t-43.5 23t-59.5 10q-46 0 -86 -21q-24 -15 -42.5 -37t-28 -41.5t-17 -47.5t-9.5 -42.5 t-5 -37.5q-8 -91 -8 -166z" />
<glyph unicode="p" d="M111 -422v1446h329v-125q118 145 318 145q68 0 122 -16t91.5 -42.5t65.5 -67t44 -83.5t25.5 -99.5t12.5 -106t3 -111.5q0 -92 -10.5 -167t-38.5 -146t-72.5 -119t-116.5 -77t-167 -29q-61 0 -109 11.5t-81 34t-50 39t-37 41.5v-528h-329zM438 356q0 -83 41.5 -143.5 t122.5 -60.5q38 0 67.5 13.5t49 33t33 52.5t20.5 61t11 69t4.5 66t0.5 63q0 129 -16 211q-3 15 -7 29t-15.5 38t-27.5 41t-44.5 30t-63.5 13q-54 0 -90.5 -21t-54 -59t-24.5 -78t-7 -91v-267z" />
<glyph unicode="q" d="M72 498q0 63 4 117t15.5 111t30 102.5t48.5 86.5t70 69t97 44t126 16q194 0 291 -139v119h329v-1446h-329v537q-25 -25 -47 -42.5t-61.5 -41t-92.5 -36.5t-115 -13q-64 0 -117 16t-88.5 40t-63 58t-43 65.5t-25.5 67.5t-13.5 58t-5.5 43q-10 69 -10 168zM406 516 q0 -111 14 -203q28 -161 164 -161q50 0 85 18t52.5 51.5t25 72t7.5 87.5v252q0 241 -168 241q-49 0 -78 -20q-56 -30 -79 -101t-23 -237z" />
<glyph unicode="r" horiz-adv-x="768" d="M109 0v1024h331v-182q84 198 256 198q37 0 86 -18v-270q-86 47 -151 47q-97 0 -144 -60t-47 -161v-578h-331z" />
<glyph unicode="s" horiz-adv-x="1024" d="M57 296v11l305 -6q0 -92 39 -133q45 -41 127 -41q74 0 109 35t35 88q0 28 -10 50t-22.5 35t-39.5 25t-43.5 17t-52.5 14l-107 27q-7 2 -39 11t-42.5 12t-37 12.5t-40.5 16.5t-33.5 19t-34.5 25q-88 77 -88 205q0 102 39 166q98 166 391 166q90 0 176 -15q100 -20 146 -53 q37 -25 61.5 -56.5t34 -67t12 -59.5t2.5 -57l-289 5q0 15 -0.5 24.5t-3 27.5t-7.5 30t-15 27t-24.5 24t-37 15.5t-51.5 6.5q-64 0 -101.5 -31.5t-37.5 -80.5q0 -18 5.5 -33t12.5 -25.5t22.5 -21t26 -16.5t33.5 -14.5t35 -12t39 -11.5l82 -18q7 -2 40 -11t43.5 -12t37 -12 t40.5 -16t33.5 -18t34.5 -23q103 -83 103 -228q0 -91 -39 -165q-99 -181 -422 -181q-108 0 -185 17q-87 14 -147 53q-28 18 -49 40.5t-33 48t-19.5 45t-10 47t-3 39t-0.5 33.5z" />
<glyph unicode="t" horiz-adv-x="681" d="M4 881v145h129v201l330 65v-266h172v-145h-172v-490q0 -38 0.5 -56.5t3.5 -47.5t10.5 -43.5t20 -30.5t33 -22.5t49.5 -6.5q32 0 82 13v-179q-107 -32 -222 -32q-88 0 -149.5 23.5t-91.5 53t-46 86.5t-18 92.5t-2 102.5v6v531h-129z" />
<glyph unicode="u" d="M102 319v705h330v-621q0 -34 0.5 -53t3.5 -49.5t8 -48.5t16 -40t26.5 -33.5t39 -20t54.5 -8.5q158 0 168 182v692h329v-1024h-329v117q-153 -137 -345 -137q-161 0 -231 85t-70 254z" />
<glyph unicode="v" horiz-adv-x="1024" d="M-4 1024h344l147 -594q3 -9 7.5 -25t6 -22.5t5 -19.5t5.5 -23.5t4.5 -27t4.5 -36.5q11 72 31 146l168 602h309l-330 -1024h-385z" />
<glyph unicode="w" horiz-adv-x="1622" d="M6 1024h336l129 -594q21 -109 27 -149q3 14 28 131l162 612h281l143 -567q24 -109 37 -176q1 8 18 118l136 625h311l-264 -1024h-367l-135 510q-11 37 -33 137q-10 -64 -27 -121l-151 -526h-367z" />
<glyph unicode="x" horiz-adv-x="1024" d="M-4 0l334 522l-299 502h348l149 -281l152 281h307l-295 -481l336 -543h-356l-172 315l-185 -315h-319z" />
<glyph unicode="y" horiz-adv-x="1024" d="M-4 1024h346l190 -750l183 750h313l-350 -1090q-17 -53 -29 -86t-32 -76t-40.5 -69t-52.5 -54.5t-69.5 -43.5t-89.5 -25t-115 -10q-133 0 -219 22v226q80 -21 147 -21q47 0 79.5 16t47.5 44.5t20.5 49t8.5 48.5l2 29v30z" />
<glyph unicode="z" horiz-adv-x="980" d="M49 0v195l486 612h-449v217h846v-203l-477 -602h477v-219h-883z" />
<glyph unicode="{" horiz-adv-x="724" d="M63 545v78q31 7 53 18t45.5 35t37.5 70t18 112v217q0 53 2 84.5t9.5 74t26.5 76t50 60.5q53 48 140.5 63t291.5 15v-70q-48 -12 -81.5 -26.5t-57.5 -36.5t-38 -45.5t-21.5 -61.5t-10 -76.5t-2.5 -97.5v-198q0 -57 -32 -127q-6 -14 -13.5 -26.5t-17 -23t-16 -18 t-19.5 -15.5t-18 -11.5t-21 -10.5t-19.5 -8.5t-21.5 -8t-20 -7.5q2 -1 20 -7.5t21.5 -8t19.5 -8.5t21 -10.5t18 -11.5t19.5 -15.5t16 -18t17 -23t13.5 -26.5q32 -70 32 -127v-199q0 -59 2.5 -97.5t10 -76.5t21.5 -61.5t38 -45.5t57.5 -36.5t81.5 -26.5v-70q-204 0 -291.5 15 t-140.5 63q-31 27 -50 60.5t-26.5 76t-9.5 74t-2 84.5v217q-3 54 -14 94.5t-23.5 63.5t-36 41.5t-37.5 25.5t-43 19z" />
<glyph unicode="|" horiz-adv-x="468" d="M129 -512v2048h211v-2048h-211z" />
<glyph unicode="}" horiz-adv-x="724" d="M-12 -219q48 12 81.5 26.5t57.5 36.5t38 45.5t21.5 61.5t10 76.5t2.5 97.5v199q0 57 32 127q6 14 13.5 26.5t17 23t16 18t19.5 15.5t18 11.5t21 10.5t19.5 8.5t21.5 8t20 7.5q-2 1 -20 7.5t-21.5 8t-19.5 8.5t-21 10.5t-18 11.5t-19.5 15.5t-16 18t-17 23t-13.5 26.5 q-32 70 -32 127v198q0 59 -2.5 97.5t-10 76.5t-21.5 61.5t-38 45.5t-57.5 36.5t-81.5 26.5v70q204 0 291.5 -15t140.5 -63q31 -27 50 -60.5t26.5 -76t9.5 -74t2 -84.5v-217q2 -66 16.5 -112t39 -70t46 -35t52.5 -18v-78q-28 -12 -41.5 -18.5t-38.5 -25.5t-37.5 -42 t-23.5 -64t-13 -94v-217q0 -53 -2 -84.5t-9.5 -74t-26.5 -76t-50 -60.5q-53 -48 -140.5 -63t-291.5 -15v70z" />
<glyph unicode="~" horiz-adv-x="1492" d="M231 604q1 1 12.5 17t18 23.5t21.5 25t27.5 28t31.5 26t38.5 25t42.5 19t50 14t55 4.5q52 0 98 -14.5t122 -50.5l69 -33q103 -43 150 -43q97 0 200 127l95 -182q-148 -166 -301 -166q-49 0 -93 15t-118 50l-60 29q-99 47 -158 47q-58 0 -94 -26.5t-108 -112.5z" />
<glyph unicode="&#xa2;" horiz-adv-x="1110" d="M72 506q0 249 102.5 382t343.5 163v217h164v-217q41 -4 74 -9.5t75.5 -18.5t75.5 -31t66 -48t55 -68.5t35.5 -94t13.5 -122.5h-303q-3 42 -7 71t-15 64.5t-28 57t-47 36.5t-71 15q-44 0 -78.5 -14t-57 -35t-38.5 -55.5t-24 -65t-12.5 -75.5t-5.5 -74.5t-1 -73.5 q0 -42 0.5 -69.5t5 -71.5t12 -73t22.5 -63t36.5 -54t54 -34t74.5 -14q166 0 182 238h309q-16 -350 -403 -389v-246h-164v243q-245 23 -345.5 149.5t-100.5 379.5z" />
<glyph unicode="&#xa3;" d="M18 0v221q88 18 143.5 84.5t86.5 204.5h-174v170h202q32 189 66 283q107 295 394 361q85 19 186 19q107 0 215 -24v-234q-73 31 -162 31q-74 0 -127 -25.5t-100 -93.5q-16 -23 -30.5 -51.5t-23.5 -50.5t-19.5 -58t-14.5 -52t-13.5 -56t-11.5 -49h362v-170h-399 q-41 -133 -85 -184.5t-124 -83.5h748v-242h-1119z" />
<glyph unicode="&#xa5;" horiz-adv-x="1236" d="M0 1327h373l221 -467q27 -57 43 -102q5 13 14.5 35.5t14.5 35.5q2 5 6 15.5t6 15.5l209 467h350l-254 -498h182v-170h-268l-70 -135h338v-170h-372v-354h-338v354h-383v170h346l-72 135h-274v170h188z" />
<glyph unicode="&#xa8;" horiz-adv-x="555" d="M-29 1163v256h236v-256h-236zM346 1163v256h238v-256h-238z" />
<glyph unicode="&#xa9;" horiz-adv-x="1705" d="M125 723q0 151 57.5 286.5t155 232.5t232.5 153.5t286 56.5q150 0 284.5 -56t231.5 -152.5t154 -232.5t57 -290q0 -215 -117 -402q-91 -142 -255 -233.5t-359 -91.5q-141 0 -272.5 54t-232.5 148t-161.5 232t-60.5 295zM190 721q0 -177 87 -329t241 -242.5t338 -90.5 q131 0 251 49.5t210 135.5t144.5 210.5t56.5 266.5q0 134 -49.5 255.5t-135 212t-209.5 144t-266 53.5q-183 0 -336.5 -87.5t-242.5 -240.5t-89 -337zM373 725q0 213 138.5 356.5t358.5 143.5q64 0 122 -14t93 -29t77.5 -47.5t55 -44.5t46.5 -46l-146 -139q-28 28 -41.5 40 t-47.5 35.5t-73.5 34.5t-87.5 11q-129 0 -209.5 -84.5t-80.5 -214.5q0 -136 85 -217.5t209 -81.5q147 0 246 115l146 -135q-23 -25 -40 -41.5t-56 -45.5t-77 -46.5t-97 -31.5t-124 -14q-152 0 -266.5 67.5t-172.5 179.5t-58 249z" />
<glyph unicode="&#xab;" horiz-adv-x="1024" d="M27 528l231 412h279l-238 -412l238 -411h-279zM496 528l231 412h279l-238 -412l238 -411h-279z" />
<glyph unicode="&#xad;" horiz-adv-x="894" d="M84 403v256h727v-256h-727z" />
<glyph unicode="&#xae;" horiz-adv-x="1705" d="M125 723q0 153 58.5 289.5t157 232.5t232 151.5t279.5 55.5q208 0 376.5 -100t261.5 -267.5t93 -365.5q0 -149 -57.5 -283t-155 -231t-233 -154t-285.5 -57q-142 0 -274 54t-232.5 148t-160.5 231.5t-60 295.5zM190 723q0 -183 89 -336t241.5 -240.5t333.5 -87.5 q184 0 337 88.5t240 240.5t87 333q0 134 -50.5 256.5t-137 212t-210.5 143t-264 53.5q-138 0 -262 -52.5t-212 -141t-140 -211t-52 -258.5zM528 266v928h318q11 0 38.5 -0.5t37 -1t31 -1.5t31.5 -2t26 -3.5t28.5 -6t24.5 -8.5q80 -27 119 -89t39 -132q0 -46 -16 -84t-36 -60 t-49 -40t-44.5 -24t-31.5 -11q35 -18 52 -31.5t35.5 -51t29.5 -99.5q24 -153 42 -207q14 -41 34 -76h-223q-14 27 -24.5 65t-14 59.5t-10.5 76.5q-8 52 -12.5 75.5t-14.5 51t-20 37t-31.5 20t-47.5 13t-69 4.5h-47v-402h-195zM723 823h117q27 0 43.5 1t41.5 4t40 10.5 t30.5 19.5t23 32.5t7.5 47.5q0 66 -57 94q-26 8 -50 10t-108 2h-88v-221z" />
<glyph unicode="&#xb4;" horiz-adv-x="555" d="M4 1139l207 303h340l-301 -303h-246z" />
<glyph unicode="&#xb8;" horiz-adv-x="555" d="M76 -362q58 -5 80 -5q19 0 30.5 0.5t31.5 2.5t32.5 7t26 12.5t20 21.5t6.5 32q0 29 -15 46t-41.5 23t-63.5 7.5t-81 -0.5l13 260l108 -4l-6 -125q30 0 58 0.5t62.5 -9.5t63.5 -32q76 -58 76 -168q0 -44 -12 -78.5t-30 -57t-46.5 -38.5t-53.5 -24t-60 -12.5t-56 -5.5 t-51 -1q-42 0 -92 4v144z" />
<glyph unicode="&#xbb;" horiz-adv-x="1024" d="M18 117l238 411l-238 412h279l231 -412l-231 -411h-279zM487 117l238 411l-238 412h279l231 -412l-231 -411h-279z" />
<glyph unicode="&#xc1;" horiz-adv-x="1409" d="M-2 0l473 1446h524l416 -1446h-377l-131 477h-403l-150 -477h-352zM557 690h295l-100 371q-27 103 -37 147h-4q-9 -42 -22.5 -84t-18.5 -63zM567 1548l205 303h342l-301 -303h-246z" />
<glyph unicode="&#xc9;" horiz-adv-x="1110" d="M133 0v1446h893v-225h-524v-359h479v-225h-479v-412h579v-225h-948zM418 1548l205 303h342l-301 -303h-246z" />
<glyph unicode="&#xcd;" horiz-adv-x="641" d="M133 0v1446h375v-1446h-375zM182 1548l205 303h342l-301 -303h-246z" />
<glyph unicode="&#xd3;" horiz-adv-x="1492" d="M84 657q0 95 3 160t17.5 158t40.5 157t76.5 134.5t121 113.5t178 71t243.5 28q367 0 520 -191q35 -43 59.5 -101.5t37 -111.5t19.5 -122.5t8 -112t1 -103.5q-1 -97 -8 -173.5t-26 -159.5t-49.5 -144.5t-81.5 -119t-119.5 -94t-166 -58t-219.5 -21.5q-159 0 -275.5 34 t-189 92t-115.5 148t-59 188.5t-16 227.5zM467 688q0 -74 2 -125.5t8 -111t17.5 -99.5t32 -79t49 -62t70.5 -37t95 -14q46 0 84 10t63.5 30.5t43 39t30.5 47.5t17.5 43t11.5 38q1 5 2 7q33 149 33 383q0 87 -3 148t-12.5 126t-28 107.5t-48 78t-74 52t-104.5 16.5 q-64 0 -112 -21.5t-77 -54.5t-48.5 -85t-28 -99t-13.5 -111q-10 -98 -10 -227zM610 1548l205 303h342l-301 -303h-246z" />
<glyph unicode="&#xd6;" horiz-adv-x="1492" d="M84 657q0 95 3 160t17.5 158t40.5 157t76.5 134.5t121 113.5t178 71t243.5 28q367 0 520 -191q35 -43 59.5 -101.5t37 -111.5t19.5 -122.5t8 -112t1 -103.5q-1 -97 -8 -173.5t-26 -159.5t-49.5 -144.5t-81.5 -119t-119.5 -94t-166 -58t-219.5 -21.5q-159 0 -275.5 34 t-189 92t-115.5 148t-59 188.5t-16 227.5zM440 1573v254h236v-254h-236zM467 688q0 -74 2 -125.5t8 -111t17.5 -99.5t32 -79t49 -62t70.5 -37t95 -14q46 0 84 10t63.5 30.5t43 39t30.5 47.5t17.5 43t11.5 38q1 5 2 7q33 149 33 383q0 87 -3 148t-12.5 126t-28 107.5t-48 78 t-74 52t-104.5 16.5q-64 0 -112 -21.5t-77 -54.5t-48.5 -85t-28 -99t-13.5 -111q-10 -98 -10 -227zM817 1573v254h236v-254h-236z" />
<glyph unicode="&#xda;" horiz-adv-x="1449" d="M125 522v924h373v-911q1 -69 3 -105t14 -91.5t34.5 -83.5t67.5 -50.5t110 -22.5q32 0 60 6t46 13.5t35 19t24.5 19.5t16.5 18l9 10q28 40 36.5 101t10.5 166v911h360v-875q0 -159 -18 -239q-14 -62 -37.5 -111.5t-68.5 -98t-108.5 -81t-161.5 -52.5t-222 -20 q-297 0 -437 113q-35 29 -61.5 64t-42 76t-25 75t-13 81t-4.5 73t-1 71zM588 1548l205 303h342l-301 -303h-246z" />
<glyph unicode="&#xdc;" horiz-adv-x="1449" d="M125 522v924h373v-911q1 -69 3 -105t14 -91.5t34.5 -83.5t67.5 -50.5t110 -22.5q32 0 60 6t46 13.5t35 19t24.5 19.5t16.5 18l9 10q28 40 36.5 101t10.5 166v911h360v-875q0 -159 -18 -239q-14 -62 -37.5 -111.5t-68.5 -98t-108.5 -81t-161.5 -52.5t-222 -20 q-297 0 -437 113q-35 29 -61.5 64t-42 76t-25 75t-13 81t-4.5 73t-1 71zM424 1573v254h235v-254h-235zM801 1573v254h235v-254h-235z" />
<glyph unicode="&#xe1;" horiz-adv-x="1150" d="M63 281q0 166 125 247q55 35 130 51.5t235 36.5l162 17v82q0 43 -5 72t-19 56t-43.5 40.5t-74.5 13.5q-88 0 -123 -50.5t-40 -144.5h-318q0 37 0.5 54t8.5 53t24 65q104 177 469 177q267 0 362 -84q32 -28 51.5 -61t26.5 -74.5t8.5 -65t1.5 -68.5v-491q0 -87 9 -131 q9 -46 34 -64v-12h-272q-34 0 -51.5 3t-33.5 14t-22 35t-6 65q-16 -19 -40 -39t-65.5 -46t-103.5 -42.5t-131 -16.5q-145 0 -222 81t-77 227zM397 307q0 -73 34 -116.5t106 -43.5q95 0 136.5 52.5t41.5 150.5v150q-142 -14 -166 -21q-152 -34 -152 -172zM438 1139l207 303 h340l-301 -303h-246z" />
<glyph unicode="&#xe9;" horiz-adv-x="1150" d="M74 496q0 33 0.5 55.5t5.5 69t14 81t27.5 82t44 82t66 71.5t91.5 60.5t122.5 38.5t156.5 15q122 0 219 -31q65 -21 111 -52.5t73 -73.5t42 -81.5t26 -95.5q17 -94 12 -228h-675q0 -44 0.5 -70t4 -69t10.5 -69t20.5 -58.5t32.5 -50.5t48.5 -30.5t67.5 -12.5q80 0 123 49 q40 44 47 150h323q-2 -28 -5 -47t-12.5 -53t-24.5 -60.5t-43 -58t-66 -56.5q-135 -80 -348 -80q-250 0 -377 111q-137 121 -137 412zM414 631h346q0 264 -162 264q-45 0 -79.5 -20.5t-52.5 -47t-30 -66.5t-15 -64t-6 -54q-1 -9 -1 -12zM438 1139l207 303h340l-301 -303h-246 z" />
<glyph unicode="&#xed;" horiz-adv-x="555" d="M111 0v1024h331v-1024h-331zM137 1139l207 303h340l-301 -303h-246z" />
<glyph unicode="&#xf3;" d="M72 485q0 46 1 75t8.5 87t22 101t44 94t71.5 88q133 121 404 121q275 0 399 -146q100 -117 100 -377q0 -54 -2 -89.5t-11.5 -100t-35 -120.5t-65.5 -101q-134 -144 -412 -144q-138 0 -225 27q-74 20 -128.5 58.5t-86.5 84.5t-51.5 106t-26 115t-6.5 121zM408 502 q0 -69 6 -140q10 -104 37 -153q47 -81 145 -82q40 0 78 18q30 17 51 44.5t31.5 63.5t14.5 57t7 52q8 76 8 170q0 68 -6 136q-2 23 -3 33.5t-6.5 38.5t-12.5 44.5t-20.5 40.5t-30.5 37t-43.5 23t-59.5 10q-46 0 -86 -21q-24 -15 -42.5 -37t-28 -41.5t-17 -47.5t-9.5 -42.5 t-5 -37.5q-8 -91 -8 -166zM459 1139l207 303h340l-301 -303h-246z" />
<glyph unicode="&#xf6;" d="M72 485q0 292 130.5 429t420.5 137q268 0 383.5 -127.5t115.5 -395.5q0 -284 -122 -419.5t-404 -135.5q-268 0 -396 118.5t-128 393.5zM291 1163v256h235v-256h-235zM408 502q0 -69 6 -140q10 -104 37 -153q47 -81 145 -82q40 0 78 18q30 17 51 44.5t31.5 63.5t14.5 57 t7 52q8 76 8 170q0 40 -0.5 63.5t-4 67t-10 70t-19.5 61t-32 54t-48.5 33.5t-67.5 14q-46 0 -86 -21q-24 -15 -42.5 -37t-28 -41.5t-17 -47.5t-9.5 -42.5t-5 -37.5q-8 -91 -8 -166zM666 1163v256h237v-256h-237z" />
<glyph unicode="&#xfa;" d="M102 319v705h330v-621q0 -34 0.5 -53t3.5 -49.5t8 -48.5t16 -40t26.5 -33.5t39 -20t54.5 -8.5q158 0 168 182v692h329v-1024h-329v117q-153 -137 -345 -137q-161 0 -231 85t-70 254zM459 1139l207 303h340l-301 -303h-246z" />
<glyph unicode="&#xfc;" d="M102 319v705h330v-621q0 -34 0.5 -53t3.5 -49.5t8 -48.5t16 -40t26.5 -33.5t39 -20t54.5 -8.5q158 0 168 182v692h329v-1024h-329v117q-153 -137 -345 -137q-161 0 -231 85t-70 254zM291 1163v256h235v-256h-235zM666 1163v256h237v-256h-237z" />
<glyph unicode="&#x131;" horiz-adv-x="555" d="M111 0v1024h331v-1024h-331z" />
<glyph unicode="&#x141;" horiz-adv-x="1110" d="M8 412v200l125 107v727h375v-412l221 187v-201l-221 -191v-604h582v-225h-957v516z" />
<glyph unicode="&#x142;" horiz-adv-x="555" d="M6 467v182l105 86v711h331v-436l105 90v-180l-105 -91v-829h-331v553z" />
<glyph unicode="&#x152;" horiz-adv-x="2004" d="M84 688q0 52 0.5 78.5t3.5 86.5t8.5 99t17.5 96t29 98.5t44 87t61 79.5q77 77 202 116t252 39q82 0 156 -15.5t111 -31t88 -41.5v66h850v-225h-549v-359h504v-225h-504v-412h604v-225h-920v63q-52 -26 -90 -41t-116.5 -30t-171.5 -15q-102 0 -184 17t-142.5 47t-104.5 78 t-72.5 104.5t-46 132t-24 154.5t-6.5 178zM465 735q0 -121 6 -203q3 -62 10 -108.5t24.5 -98.5t44.5 -85.5t74.5 -55.5t110.5 -22q64 0 111 20.5t76 54.5t47 89t26 111.5t11 133.5q4 132 4 199q0 340 -86 440q-39 39 -82 55q-44 17 -97 17q-45 0 -83 -13t-65 -32t-48.5 -52 t-35 -63t-23.5 -75.5t-14.5 -78t-7 -82.5t-3 -77.5t-0.5 -73.5z" />
<glyph unicode="&#x153;" horiz-adv-x="1792" d="M72 487q0 48 1 78t8.5 87.5t21 99.5t42 92.5t68.5 87.5q132 119 373 119q71 0 127.5 -10t99.5 -32t65 -37.5t56 -43.5q136 123 344 123q247 0 360 -152q100 -133 88 -412h-659q0 -43 -2 -90.5t7.5 -95.5t25.5 -86t52.5 -62t88.5 -24q44 0 77 16.5t49.5 39t26 53 t11.5 50.5t2 40h324q-3 -26 -5.5 -44t-13.5 -55t-27.5 -65t-47.5 -61t-72 -56q-65 -39 -154 -56.5t-164 -17.5q-71 0 -128.5 10.5t-88 22t-59.5 35.5t-35.5 32.5t-24.5 32.5q-20 -25 -39 -42t-60 -41t-109.5 -37t-159.5 -13q-230 0 -351 125q-118 118 -118 389zM408 502 q0 -53 2 -91t7.5 -85t17.5 -79t31 -60.5t49.5 -43t70.5 -14.5q57 0 92.5 26.5t52.5 59.5q41 76 41 324q0 43 -1 72t-4.5 70t-10 68t-19.5 57t-31 47.5t-45.5 29.5t-62.5 12q-45 0 -78.5 -19t-55 -52t-34 -83.5t-17.5 -107.5t-5 -131zM1071 629h330q0 56 -6 98.5t-21.5 83 t-48 62.5t-80.5 22q-152 0 -173 -257q-1 -6 -1 -9z" />
<glyph unicode="&#x160;" horiz-adv-x="1280" d="M59 436l353 -4q0 -129 53 -199.5t178 -70.5q108 0 165.5 56t57.5 149q0 20 -2.5 37.5t-9.5 32.5t-12.5 26.5t-20 23.5t-22.5 19.5t-28.5 17.5t-30.5 15t-36.5 15t-38 13.5t-42.5 14.5l-82 28q-172 57 -242 95q-155 85 -187 236q-10 45 -10 97q0 71 16.5 130.5t42 101.5 t64.5 76t76 55.5t85.5 36.5t84 22.5t80.5 11.5t65.5 4.5t47.5 0.5q81 0 184 -15q344 -57 330 -407l-324 4q0 112 -45 168.5t-154 56.5q-96 0 -151 -48t-55 -122q0 -29 7.5 -52.5t27 -43t36 -32.5t51 -27.5t56 -22.5t65.5 -23l107 -34q48 -15 78.5 -26t78.5 -32t79 -42.5 t67.5 -55.5t57.5 -72.5t35.5 -92.5t14.5 -116q0 -125 -42.5 -217.5t-120.5 -147.5t-179 -81.5t-225 -26.5q-117 0 -221 19q-74 14 -133 40t-96.5 55t-64.5 70.5t-40 73.5t-20 77.5t-8 70t-1 61.5zM330 1851h209l102 -190l104 190h201l-170 -303h-268z" />
<glyph unicode="&#x161;" horiz-adv-x="1024" d="M57 307l305 -6q0 -92 39 -133q45 -41 127 -41q74 0 109 35t35 88q0 28 -10 50t-22.5 35t-39.5 25t-43.5 17t-52.5 14l-107 27q-62 17 -98 29.5t-83 37.5t-72.5 53.5t-43.5 75t-18 105.5q0 91 34.5 157.5t96 103.5t135.5 54t164 17q74 0 131.5 -6.5t116.5 -26t97 -52 t62.5 -89.5t24.5 -134l-289 5q0 15 -0.5 24.5t-3 27.5t-7.5 30t-15 27t-24.5 24t-37 15.5t-51.5 6.5q-64 0 -101.5 -31.5t-37.5 -80.5q0 -18 5.5 -33t12.5 -25.5t22.5 -21t26 -16.5t33.5 -14.5t35 -12t39 -11.5l82 -18q46 -13 75 -22t68 -24.5t63 -31t50.5 -39.5t41.5 -52 t24.5 -66.5t9.5 -84.5q0 -78 -25.5 -138.5t-68 -99t-103 -63.5t-125 -35t-139.5 -10q-108 0 -185 17q-137 22 -199.5 98t-62.5 219zM201 1442h207l104 -191l104 191h201l-172 -303h-266z" />
<glyph unicode="&#x178;" horiz-adv-x="1323" d="M-14 1446h407l242 -508q19 -41 47 -111q2 4 20.5 53.5t24.5 57.5l227 508h383l-485 -950v-496h-369v496zM354 1573v254h236v-254h-236zM731 1573v254h236v-254h-236z" />
<glyph unicode="&#x17d;" horiz-adv-x="1280" d="M45 0v205l748 1016h-666v225h1100v-217l-729 -1004h729v-225h-1182zM330 1851h209l102 -190l104 190h201l-170 -303h-268z" />
<glyph unicode="&#x17e;" horiz-adv-x="980" d="M49 0v195l486 612h-449v217h846v-203l-477 -602h477v-219h-883zM176 1442h207l104 -191l105 191h201l-172 -303h-267z" />
<glyph unicode="&#x2c6;" horiz-adv-x="555" d="M-31 1139l172 303h267l178 -303h-207l-103 190l-106 -190h-201z" />
<glyph unicode="&#x2da;" horiz-adv-x="555" d="M72 1337q0 90 61 148q62 59 150 59q86 0 142 -57t58 -144q0 -92 -61 -151t-146 -59q-87 0 -145.5 59.5t-58.5 144.5zM188 1337q0 -38 25 -63t63 -25q42 0 68 25.5t25 66.5q-2 37 -26.5 61.5t-61.5 24.5q-41 0 -67 -26.5t-26 -63.5z" />
<glyph unicode="&#x2dc;" horiz-adv-x="555" d="M-47 1147v67q0 79 2 106.5t12 49.5q33 76 121 76q30 0 59 -9t48 -19.5t59 -35.5l53 -36l23 -16q23 -15 38.5 -23.5t22.5 -8.5q11 0 17.5 5t9.5 18.5t3.5 25t0.5 37.5v52h180v-68q0 -60 -0.5 -81.5t-5.5 -48.5t-16 -44q-4 -8 -14 -19.5t-39 -25.5t-66 -14q-44 0 -80 16.5 t-102 58.5l-56 37q-44 31 -63 31q-11 0 -17.5 -5t-9.5 -18.5t-3.5 -25t-0.5 -37.5v-45h-176z" />
<glyph unicode="&#x2000;" horiz-adv-x="925" />
<glyph unicode="&#x2001;" horiz-adv-x="1851" />
<glyph unicode="&#x2002;" horiz-adv-x="925" />
<glyph unicode="&#x2003;" horiz-adv-x="1851" />
<glyph unicode="&#x2004;" horiz-adv-x="617" />
<glyph unicode="&#x2005;" horiz-adv-x="462" />
<glyph unicode="&#x2006;" horiz-adv-x="308" />
<glyph unicode="&#x2007;" horiz-adv-x="308" />
<glyph unicode="&#x2008;" horiz-adv-x="231" />
<glyph unicode="&#x2009;" horiz-adv-x="370" />
<glyph unicode="&#x200a;" horiz-adv-x="102" />
<glyph unicode="&#x2010;" horiz-adv-x="894" d="M84 403v256h727v-256h-727z" />
<glyph unicode="&#x2011;" horiz-adv-x="894" d="M84 403v256h727v-256h-727z" />
<glyph unicode="&#x2012;" horiz-adv-x="894" d="M84 403v256h727v-256h-727z" />
<glyph unicode="&#x2013;" d="M84 403v256h1026v-256h-1026z" />
<glyph unicode="&#x2014;" horiz-adv-x="1492" d="M84 403v256h1325v-256h-1325z" />
<glyph unicode="&#x2018;" horiz-adv-x="512" d="M82 842v293l162 311h200l-168 -301h162v-303h-356z" />
<glyph unicode="&#x2019;" horiz-adv-x="512" d="M68 842l168 301h-162v303h356v-293l-162 -311h-200z" />
<glyph unicode="&#x201a;" horiz-adv-x="512" d="M72 -301l168 301h-164v303h356v-293l-162 -311h-198z" />
<glyph unicode="&#x201c;" horiz-adv-x="980" d="M82 842v293l162 311h200l-168 -301h162v-303h-356zM535 842v293l161 311h201l-168 -301h162v-303h-356z" />
<glyph unicode="&#x201d;" horiz-adv-x="980" d="M84 842l168 301h-162v303h356v-293l-161 -311h-201zM537 842l168 301h-162v303h356v-293l-162 -311h-200z" />
<glyph unicode="&#x201e;" horiz-adv-x="980" d="M84 -301l168 301h-162v303h356v-293l-161 -311h-201zM537 -301l168 301h-162v303h356v-293l-162 -311h-200z" />
<glyph unicode="&#x2022;" horiz-adv-x="681" d="M49 723q0 118 86 204.5t209 86.5q127 0 208 -84t81 -207t-78.5 -208t-206.5 -85q-131 0 -215 87.5t-84 205.5z" />
<glyph unicode="&#x2026;" horiz-adv-x="2048" d="M203 127q0 61 40.5 100t96.5 39q60 0 100 -38t41 -99q0 -60 -38.5 -100.5t-98.5 -40.5q-53 0 -97 37t-44 102zM885 125q0 62 40 101.5t101 39.5q56 0 96 -38t41 -99q0 -55 -37.5 -98t-101.5 -43q-54 0 -96.5 37.5t-42.5 99.5zM1567 125q0 62 40 101.5t101 39.5 q56 0 96 -38t41 -99q0 -55 -37.5 -98t-101.5 -43q-54 0 -96.5 37.5t-42.5 99.5z" />
<glyph unicode="&#x202f;" horiz-adv-x="370" />
<glyph unicode="&#x2039;" horiz-adv-x="555" d="M29 528l231 412h279l-238 -412l238 -411h-279z" />
<glyph unicode="&#x203a;" horiz-adv-x="555" d="M18 117l238 411l-238 412h279l231 -412l-231 -411h-279z" />
<glyph unicode="&#x205f;" horiz-adv-x="462" />
<glyph unicode="&#x2122;" horiz-adv-x="1406" d="M16 1327v119h570v-119h-209v-561h-146v561h-215zM643 766v680h188l164 -514l156 514h190v-680h-141l6 391l8 139l-30 -112l-127 -418h-129l-131 420l-31 108l10 -137l8 -391h-141z" />
<glyph unicode="&#x25fc;" horiz-adv-x="1024" d="M0 0v1024h1024v-1024h-1024z" />
</font>
</defs>
</svg>
