<?xml version="1.0" standalone="no"?>
<!DOCTYPE svg PUBLIC "-//W3C//DTD SVG 1.1//EN" "http://www.w3.org/Graphics/SVG/1.1/DTD/svg11.dtd" >
<svg xmlns="http://www.w3.org/2000/svg" xmlns:xlink="http://www.w3.org/1999/xlink" version="1.1">
<metadata>
Created by FontForge 20170731 at Fri Jan 11 16:26:37 2013
 By Aleksey,,,
URW Software, Copyright 2012 by URW
</metadata>
<defs>
<font id="TeleGroteskHeadline-Ultra" horiz-adv-x="382" vert-adv-y="2048" >
  <font-face 
    font-family="TeleGrotesk Headline Ultra"
    font-weight="800"
    font-stretch="normal"
    units-per-em="2048"
    panose-1="0 0 0 0 0 0 0 0 0 0"
    ascent="1679"
    descent="-369"
    cap-height="1365"
    bbox="-167 -512 2600 1816"
    underline-thickness="187"
    underline-position="-482"
    unicode-range="U+0020-2265"
  />
<missing-glyph vert-adv-y="2457" 
d="M38 0v1365h306v-1365h-306zM306 38v1289h-230v-1289h230z" />
    <glyph glyph-name=".notdef" vert-adv-y="2457" 
d="M38 0v1365h306v-1365h-306zM306 38v1289h-230v-1289h230z" />
    <glyph glyph-name="glyph1" horiz-adv-x="0" vert-adv-y="0" 
 />
    <glyph glyph-name="glyph2" vert-adv-y="2457" 
 />
    <glyph glyph-name="space" unicode=" " horiz-adv-x="388" vert-adv-y="2457" 
 />
    <glyph glyph-name="space" unicode="&#xa0;" horiz-adv-x="388" vert-adv-y="2457" 
 />
    <glyph glyph-name="exclam" unicode="!" horiz-adv-x="567" vert-adv-y="2457" 
d="M418 1365v-364l-67 -585h-135l-66 581v368h268zM433 294v-294h-300v294h300z" />
    <glyph glyph-name="quotedbl" unicode="&#x22;" horiz-adv-x="824" vert-adv-y="2457" 
d="M322 845h-201l-56 520h313zM703 845h-201l-56 520h313z" />
    <glyph glyph-name="numbersign" unicode="#" horiz-adv-x="1181" vert-adv-y="2457" 
d="M83 412v160h200l35 243h-178v160h200l55 390h195l-55 -390h187l55 390h196l-55 -390h179v-160h-202l-34 -243h180v-160h-202l-58 -412h-196l58 412h-187l-58 -412h-195l58 412h-178zM700 815h-187l-34 -243h187z" />
    <glyph glyph-name="dollar" unicode="$" horiz-adv-x="1076" vert-adv-y="2457" 
d="M455 1447h160v-98q329 -51 377 -344h-259q-15 98 -118 132v-321q410 -132 410 -424q0 -229 -218 -330q-81 -38 -192 -50v-94h-160v95q-165 24 -264 118q-117 111 -140 281h268q23 -132 136 -179v362q-105 39 -158 67q-207 112 -207 333q0 122 66 210q49 66 118.5 100.5
t180.5 47.5v94zM615 225q57 16 89 45q54 49 54 119q0 102 -143 167v-331zM455 1145q-123 -35 -123 -142q0 -49 27 -81.5t96 -65.5v289z" />
    <glyph glyph-name="percent" unicode="%" horiz-adv-x="1822" vert-adv-y="2457" 
d="M389 1383q149 0 246 -106q109 -120 109 -321q0 -174 -82 -290q-99 -139 -273 -139q-179 0 -279 142q-80 114 -80 292q0 195 104 311q100 111 255 111zM388 1211q-73 0 -113 -67q-45 -76 -45 -184q0 -119 45 -194q40 -67 114 -67q69 0 107 62q48 78 48 197
q0 114 -43 183.5t-113 69.5zM707 0h-179l588 1365h176zM1436 837q148 0 246 -106q109 -118 109 -321q0 -174 -82 -290q-99 -139 -273 -139q-178 0 -279 142q-80 114 -80 292q0 195 104 311q100 111 255 111zM1435 665q-73 0 -113 -67q-45 -76 -45 -184q0 -119 45 -194
q40 -67 114 -67q69 0 107 62q48 78 48 197q0 114 -43 183.5t-113 69.5z" />
    <glyph glyph-name="ampersand" unicode="&#x26;" horiz-adv-x="1148" vert-adv-y="2457" 
d="M1124 0h-275l-37 51q-127 -80 -304 -80q-198 0 -321 103q-136 113 -136 292q0 82 33.5 161.5t92.5 138.5q40 41 119 100q-49 70 -67 101q-59 100 -59 209q0 139 97 228.5t249 89.5q151 0 246 -86q92 -84 92 -207q0 -100 -54 -180.5t-199 -195.5l227 -314q22 70 25 156
h234q-22 -210 -116 -355zM425 588q-97 -86 -97 -204q0 -100 60 -160q56 -56 146 -56q81 0 158 49zM478 898q132 102 132 208q0 46 -27.5 76.5t-69.5 30.5q-46 0 -74 -36t-28 -96q0 -85 67 -183z" />
    <glyph glyph-name="quotesingle" unicode="'" horiz-adv-x="443" vert-adv-y="2457" 
d="M322 845h-201l-56 520h313z" />
    <glyph glyph-name="parenleft" unicode="(" horiz-adv-x="584" vert-adv-y="2457" 
d="M492 -215h-209q-107 191 -163.5 411t-56.5 443q0 305 102 603q56 165 116 263h208q-9 -23 -48 -119q-61 -146 -95 -342t-34 -397q0 -471 180 -862z" />
    <glyph glyph-name="parenright" unicode=")" horiz-adv-x="584" vert-adv-y="2457" 
d="M92 -215q180 392 180 862q0 333 -93 639q-2 6 -84 219h207q98 -159 158.5 -398.5t60.5 -467.5q0 -223 -56.5 -442.5t-164.5 -411.5h-208z" />
    <glyph glyph-name="asterisk" unicode="*" horiz-adv-x="840" vert-adv-y="2457" 
d="M770 1055l-233 -73l147 -196l-123 -93l-145 202l-144 -200l-124 93l154 194l-233 73l48 146l228 -83l-4 247h157l-8 -247l229 83z" />
    <glyph glyph-name="plus" unicode="+" horiz-adv-x="1045" vert-adv-y="2457" 
d="M51 783h374v348h195v-348h373v-187h-373v-348h-195v348h-374v187z" />
    <glyph glyph-name="comma" unicode="," horiz-adv-x="567" vert-adv-y="2457" 
d="M433 294v-228q0 -122 -29 -194t-98 -123q-72 -54 -173 -68v143q120 32 127 176h-127v294h300z" />
    <glyph glyph-name="hyphen" unicode="-" horiz-adv-x="473" vert-adv-y="2457" 
d="M463 755v-246h-453v246h453z" />
    <glyph glyph-name="hyphen" unicode="&#x2011;" horiz-adv-x="473" vert-adv-y="2457" 
d="M463 755v-246h-453v246h453z" />
    <glyph glyph-name="hyphen" unicode="&#xad;" horiz-adv-x="473" vert-adv-y="2457" 
d="M463 755v-246h-453v246h453z" />
    <glyph glyph-name="period" unicode="." horiz-adv-x="567" vert-adv-y="2457" 
d="M433 294v-294h-300v294h300z" />
    <glyph glyph-name="slash" unicode="/" horiz-adv-x="793" vert-adv-y="2457" 
d="M301 0h-226l420 1365h222z" />
    <glyph glyph-name="zero" unicode="0" horiz-adv-x="996" vert-adv-y="2457" 
d="M500 1394q132 0 233 -84q197 -162 197 -634q0 -326 -108 -506q-118 -199 -320 -199q-229 0 -346 231q-90 176 -90 483q0 333 109 513q120 196 325 196zM496 1169q-161 0 -161 -486q0 -249 40.5 -368t124.5 -119q161 0 161 482q0 253 -40 372t-125 119z" />
    <glyph glyph-name="one" unicode="1" horiz-adv-x="664" vert-adv-y="2457" 
d="M261 0v960q-41 -36 -83 -48.5t-127 -13.5v206q129 4 187 59.5t86 201.5h206v-1365h-269z" />
    <glyph glyph-name="two" unicode="2" horiz-adv-x="973" vert-adv-y="2457" 
d="M893 241v-241h-845q4 221 71 357q43 89 108.5 154t234.5 186q98 71 141 138.5t43 150.5q0 76 -42.5 122.5t-112.5 46.5q-65 0 -105 -50t-47 -140h-266q11 171 105 288q116 143 314 143q193 0 307 -117q105 -107 105 -277q0 -149 -72.5 -253t-275.5 -243
q-127 -88 -171.5 -140.5t-53.5 -124.5h562z" />
    <glyph glyph-name="three" unicode="3" horiz-adv-x="990" vert-adv-y="2457" 
d="M336 996h-261q5 154 81 253q111 145 329 145q181 0 289 -105q105 -103 105 -267q0 -108 -44 -184t-128 -112q80 -27 129 -84q83 -97 83 -247q0 -181 -120 -301q-123 -123 -327 -123q-193 0 -308 106q-117 108 -117 304h263q1 -84 42 -130t117 -46q79 0 123 56
q46 58 46 152q0 100 -50.5 148.5t-154.5 48.5h-40v197h63q71 0 116 54t45 140q0 78 -39.5 123t-106.5 45q-130 0 -135 -173z" />
    <glyph glyph-name="four" unicode="4" horiz-adv-x="1014" vert-adv-y="2457" 
d="M802 0h-261v294h-475v250l486 821h250v-850h141v-221h-141v-294zM541 515v473l-252 -473h252z" />
    <glyph glyph-name="five" unicode="5" horiz-adv-x="1011" vert-adv-y="2457" 
d="M196 1365h661v-238h-450l-42 -281q83 69 196 69q159 0 262 -105q117 -119 117 -335q0 -232 -141 -377q-123 -127 -311 -127q-185 0 -299.5 100.5t-122.5 270.5h269q8 -70 47.5 -108t103.5 -38q81 0 129 69.5t48 187.5q0 104 -37 177q-42 85 -134 85q-50 0 -84 -25.5
t-67 -86.5h-240z" />
    <glyph glyph-name="six" unicode="6" horiz-adv-x="1011" vert-adv-y="2457" 
d="M913 1056h-261q-27 129 -122 129q-166 0 -192 -386q93 117 232 117q162 0 266 -123q110 -129 110 -336q0 -228 -135 -365q-119 -121 -288 -121q-215 0 -334 178t-119 499q0 383 144 580q122 166 320 166q157 0 257 -89t122 -249zM514 711q-76 0 -120 -87
q-39 -77 -39 -171q0 -112 46 -185.5t117 -73.5q68 0 113.5 73.5t45.5 182.5q0 107 -44 181q-46 80 -119 80z" />
    <glyph glyph-name="seven" unicode="7" horiz-adv-x="839" vert-adv-y="2457" 
d="M33 1365h783v-225q-97 -140 -149 -240t-97 -234q-92 -274 -111 -666h-280q6 322 156 702q110 282 220 413h-522v250z" />
    <glyph glyph-name="eight" unicode="8" horiz-adv-x="1026" vert-adv-y="2457" 
d="M294 732q-179 80 -179 301q0 173 126 272q115 89 274 89q171 0 288 -103q108 -94 108 -255q0 -107 -46 -185t-133 -119q224 -84 224 -345q0 -188 -122 -301q-122 -115 -322 -115q-196 0 -319 108t-123 298q0 132 59 225t165 130zM512 1189q-62 0 -98 -41
q-46 -52 -46 -139q0 -90 40 -142.5t108 -52.5q58 0 93 40q49 56 49 154q0 85 -38.5 133t-107.5 48zM511 630q-74 0 -121.5 -62.5t-47.5 -160.5q0 -103 47.5 -165t126.5 -62q82 0 126 70q42 66 42 152q0 95 -43 159q-46 69 -130 69z" />
    <glyph glyph-name="nine" unicode="9" horiz-adv-x="1011" vert-adv-y="2457" 
d="M98 309h261q27 -128 123 -128q103 0 151 153q32 101 40 233q-92 -117 -232 -117q-162 0 -267 123q-109 129 -109 337q0 227 133 363q117 121 284 121q217 0 338 -182t121 -508q0 -377 -144 -570q-121 -163 -319 -163q-158 0 -258 89t-122 249zM494 1171q-68 0 -114 -72.5
t-46 -178.5q0 -108 44 -185q45 -80 119 -80q77 0 120 88q39 77 39 173q0 109 -46.5 182t-115.5 73z" />
    <glyph glyph-name="colon" unicode=":" horiz-adv-x="567" vert-adv-y="2457" 
d="M433 942v-294h-300v294h300zM433 294v-294h-300v294h300z" />
    <glyph glyph-name="semicolon" unicode=";" horiz-adv-x="567" vert-adv-y="2457" 
d="M433 294v-228q0 -122 -29 -194t-98 -123q-72 -54 -173 -68v143q120 32 127 176h-127v294h300zM433 942v-294h-300v294h300z" />
    <glyph glyph-name="semicolon" unicode="&#x37e;" horiz-adv-x="567" vert-adv-y="2457" 
d="M433 294v-228q0 -122 -29 -194t-98 -123q-72 -54 -173 -68v143q120 32 127 176h-127v294h300zM433 942v-294h-300v294h300z" />
    <glyph glyph-name="less" unicode="&#x3c;" horiz-adv-x="1044" vert-adv-y="2457" 
d="M966 1277v-304l-564 -290l564 -291v-303l-887 467v256z" />
    <glyph glyph-name="equal" unicode="=" horiz-adv-x="1045" vert-adv-y="2457" 
d="M51 954h942v-187h-942v187zM51 612h942v-187h-942v187z" />
    <glyph glyph-name="greater" unicode="&#x3e;" horiz-adv-x="1044" vert-adv-y="2457" 
d="M79 1277l887 -466v-255l-887 -467v303l564 291l-564 290v304z" />
    <glyph glyph-name="question" unicode="?" horiz-adv-x="977" vert-adv-y="2457" 
d="M97 927l1 15q7 171 76 280q111 176 335 176q178 0 283 -110q106 -111 106 -282q0 -104 -43.5 -184t-144.5 -164q-49 -40 -69 -71.5t-30 -83.5q-4 -26 -5 -89h-234q1 9 1 16q2 164 35 235q24 52 134 159q51 50 70.5 90t19.5 96q0 69 -34.5 110.5t-91.5 41.5
q-147 0 -156 -235h-253zM639 294v-294h-300v294h300z" />
    <glyph glyph-name="at" unicode="@" horiz-adv-x="1529" vert-adv-y="2457" 
d="M972 982h183l-80 -403q-6 -28 -6 -79q0 -25 22 -25q56 0 126 74q110 116 110 294q0 187 -130 303t-330 116q-253 0 -430 -187q-181 -192 -181 -480q0 -216 118 -348q130 -146 382 -146q194 0 360 73q18 8 105 50l53 -136q-62 -30 -82 -38q-194 -83 -444 -83
q-316 0 -491 167q-181 173 -181 458q0 231 123 435q114 189 315 286q168 83 351 83q251 0 425 -139q199 -159 199 -414q0 -174 -97 -317q-62 -90 -146.5 -140t-174.5 -50q-91 0 -147 66q-93 -76 -197 -76q-119 0 -193 84q-69 80 -69 208q0 163 102 280q92 106 234 106
q95 0 164 -61zM827 864q-79 0 -128 -83q-43 -70 -43 -156q0 -70 28.5 -112.5t74.5 -42.5q80 0 128 90q38 71 38 161q0 66 -26.5 104.5t-71.5 38.5z" />
    <glyph glyph-name="A" unicode="A" horiz-adv-x="1177" vert-adv-y="2457" 
d="M439 1365h300l432 -1365h-305l-85 305h-389l-86 -305h-300zM455 526h265l-132 471z" />
    <glyph glyph-name="A" unicode="a" horiz-adv-x="1177" vert-adv-y="2457" 
d="M439 1365h300l432 -1365h-305l-85 305h-389l-86 -305h-300zM455 526h265l-132 471z" />
    <glyph glyph-name="B" unicode="B" horiz-adv-x="1167" vert-adv-y="2457" 
d="M117 0v1365h487q122 0 198 -19.5t132 -65.5q112 -91 112 -248q0 -201 -196 -292q249 -84 249 -338q0 -222 -168 -333q-105 -69 -281 -69h-533zM410 813h131q108 0 154 33q62 46 62 130q0 94 -75 134q-40 22 -141 22h-131v-319zM410 233h158q123 0 174 41q64 51 64 148
q0 113 -85 159q-50 27 -165 27h-146v-375z" />
    <glyph glyph-name="B" unicode="b" horiz-adv-x="1167" vert-adv-y="2457" 
d="M117 0v1365h487q122 0 198 -19.5t132 -65.5q112 -91 112 -248q0 -201 -196 -292q249 -84 249 -338q0 -222 -168 -333q-105 -69 -281 -69h-533zM410 813h131q108 0 154 33q62 46 62 130q0 94 -75 134q-40 22 -141 22h-131v-319zM410 233h158q123 0 174 41q64 51 64 148
q0 113 -85 159q-50 27 -165 27h-146v-375z" />
    <glyph glyph-name="C" unicode="C" horiz-adv-x="1221" vert-adv-y="2457" 
d="M877 529h293q-16 -217 -122 -363q-145 -199 -408 -199q-249 0 -395 171q-177 209 -177 541q0 326 171 530q157 187 408 187q269 0 419 -216q85 -123 96 -274l-290 -1q-13 80 -43 130q-64 111 -186 111q-136 0 -208 -129q-74 -134 -74 -335q0 -204 77 -340
q70 -125 202 -125q103 0 161 76.5t76 235.5z" />
    <glyph glyph-name="C" unicode="c" horiz-adv-x="1221" vert-adv-y="2457" 
d="M877 529h293q-16 -217 -122 -363q-145 -199 -408 -199q-249 0 -395 171q-177 209 -177 541q0 326 171 530q157 187 408 187q269 0 419 -216q85 -123 96 -274l-290 -1q-13 80 -43 130q-64 111 -186 111q-136 0 -208 -129q-74 -134 -74 -335q0 -204 77 -340
q70 -125 202 -125q103 0 161 76.5t76 235.5z" />
    <glyph glyph-name="D" unicode="D" horiz-adv-x="1238" vert-adv-y="2457" 
d="M117 0v1365h421q278 0 437 -148q195 -180 195 -530q0 -342 -184 -530q-100 -103 -231 -134q-93 -23 -218 -23h-420zM410 250h131q156 0 227 74q109 115 109 364q0 206 -92 323q-81 104 -252 104h-123v-865z" />
    <glyph glyph-name="D" unicode="d" horiz-adv-x="1238" vert-adv-y="2457" 
d="M117 0v1365h421q278 0 437 -148q195 -180 195 -530q0 -342 -184 -530q-100 -103 -231 -134q-93 -23 -218 -23h-420zM410 250h131q156 0 227 74q109 115 109 364q0 206 -92 323q-81 104 -252 104h-123v-865z" />
    <glyph glyph-name="E" unicode="E" horiz-adv-x="1085" vert-adv-y="2457" 
d="M117 0v1365h871v-250h-578v-292h528v-238h-528v-335h590v-250h-883z" />
    <glyph glyph-name="E" unicode="e" horiz-adv-x="1085" vert-adv-y="2457" 
d="M117 0v1365h871v-250h-578v-292h528v-238h-528v-335h590v-250h-883z" />
    <glyph glyph-name="F" unicode="F" horiz-adv-x="996" vert-adv-y="2457" 
d="M117 0v1365h826v-250h-537v-318h465v-238h-465v-559h-289z" />
    <glyph glyph-name="F" unicode="f" horiz-adv-x="996" vert-adv-y="2457" 
d="M117 0v1365h826v-250h-537v-318h465v-238h-465v-559h-289z" />
    <glyph glyph-name="G" unicode="G" horiz-adv-x="1271" vert-adv-y="2457" 
d="M1171 0h-215v154q-81 -105 -155.5 -146t-182.5 -41q-257 0 -406 207q-144 200 -144 501q0 302 151 504q162 218 431 218q229 0 377 -170q59 -69 88 -139.5t41 -173.5l-285 -1q-15 85 -48 135q-63 99 -177 99q-138 0 -212 -131q-73 -127 -73 -337q0 -224 82 -351
q75 -115 210 -115q111 0 176.5 79t76.5 224h-245v221h510v-737z" />
    <glyph glyph-name="G" unicode="g" horiz-adv-x="1271" vert-adv-y="2457" 
d="M1171 0h-215v154q-81 -105 -155.5 -146t-182.5 -41q-257 0 -406 207q-144 200 -144 501q0 302 151 504q162 218 431 218q229 0 377 -170q59 -69 88 -139.5t41 -173.5l-285 -1q-15 85 -48 135q-63 99 -177 99q-138 0 -212 -131q-73 -127 -73 -337q0 -224 82 -351
q75 -115 210 -115q111 0 176.5 79t76.5 224h-245v221h510v-737z" />
    <glyph glyph-name="H" unicode="H" horiz-adv-x="1254" vert-adv-y="2457" 
d="M117 0v1365h293v-519h435v519h293v-1365h-293v596h-435v-596h-293z" />
    <glyph glyph-name="H" unicode="h" horiz-adv-x="1254" vert-adv-y="2457" 
d="M117 0v1365h293v-519h435v519h293v-1365h-293v596h-435v-596h-293z" />
    <glyph glyph-name="I" unicode="I" horiz-adv-x="526" vert-adv-y="2457" 
d="M117 0v1365h293v-1365h-293z" />
    <glyph glyph-name="I" unicode="&#x131;" horiz-adv-x="526" vert-adv-y="2457" 
d="M117 0v1365h293v-1365h-293z" />
    <glyph glyph-name="I" unicode="i" horiz-adv-x="526" vert-adv-y="2457" 
d="M117 0v1365h293v-1365h-293z" />
    <glyph glyph-name="J" unicode="J" horiz-adv-x="654" vert-adv-y="2457" 
d="M10 -19v233q60 -15 100 -15q103 0 136 112q15 54 15 236v818h293v-846q0 -146 -16 -232t-55 -150q-103 -170 -344 -170q-58 0 -129 14z" />
    <glyph glyph-name="J" unicode="&#x237;" horiz-adv-x="654" vert-adv-y="2457" 
d="M10 -19v233q60 -15 100 -15q103 0 136 112q15 54 15 236v818h293v-846q0 -146 -16 -232t-55 -150q-103 -170 -344 -170q-58 0 -129 14z" />
    <glyph glyph-name="J" unicode="j" horiz-adv-x="654" vert-adv-y="2457" 
d="M10 -19v233q60 -15 100 -15q103 0 136 112q15 54 15 236v818h293v-846q0 -146 -16 -232t-55 -150q-103 -170 -344 -170q-58 0 -129 14z" />
    <glyph glyph-name="K" unicode="K" horiz-adv-x="1180" vert-adv-y="2457" 
d="M117 0v1365h293v-516l406 516h327l-465 -563l503 -802h-328l-360 576l-83 -100v-476h-293z" />
    <glyph glyph-name="K" unicode="&#x138;" horiz-adv-x="1180" vert-adv-y="2457" 
d="M117 0v1365h293v-516l406 516h327l-465 -563l503 -802h-328l-360 576l-83 -100v-476h-293z" />
    <glyph glyph-name="K" unicode="k" horiz-adv-x="1180" vert-adv-y="2457" 
d="M117 0v1365h293v-516l406 516h327l-465 -563l503 -802h-328l-360 576l-83 -100v-476h-293z" />
    <glyph glyph-name="L" unicode="L" horiz-adv-x="1007" vert-adv-y="2457" 
d="M117 0v1365h293v-1111h536v-254h-829z" />
    <glyph glyph-name="L" unicode="l" horiz-adv-x="1007" vert-adv-y="2457" 
d="M117 0v1365h293v-1111h536v-254h-829z" />
    <glyph glyph-name="M" unicode="M" horiz-adv-x="1505" vert-adv-y="2457" 
d="M117 0v1365h397l243 -935l237 935h394v-1365h-281v949l-233 -949h-238l-238 937v-937h-281z" />
    <glyph glyph-name="M" unicode="m" horiz-adv-x="1505" vert-adv-y="2457" 
d="M117 0v1365h397l243 -935l237 935h394v-1365h-281v949l-233 -949h-238l-238 937v-937h-281z" />
    <glyph glyph-name="N" unicode="N" horiz-adv-x="1238" vert-adv-y="2457" 
d="M117 0v1365l296 1l428 -879v878h281v-1365h-293l-431 877v-877h-281z" />
    <glyph glyph-name="N" unicode="n" horiz-adv-x="1238" vert-adv-y="2457" 
d="M117 0v1365l296 1l428 -879v878h281v-1365h-293l-431 877v-877h-281z" />
    <glyph glyph-name="O" unicode="O" horiz-adv-x="1299" vert-adv-y="2457" 
d="M653 1396q243 0 400 -176q179 -199 179 -538q0 -290 -135 -485q-80 -115 -202 -176q-109 -54 -242 -54q-290 0 -453 235q-132 190 -132 490q0 326 171 520q162 184 414 184zM651 1146q-136 0 -210 -127q-80 -138 -80 -329q0 -210 79 -346q33 -57 92 -92t122 -35
q60 0 113.5 31.5t86.5 86.5q85 141 85 351q0 198 -78 333q-74 127 -210 127z" />
    <glyph glyph-name="O" unicode="o" horiz-adv-x="1299" vert-adv-y="2457" 
d="M653 1396q243 0 400 -176q179 -199 179 -538q0 -290 -135 -485q-80 -115 -202 -176q-109 -54 -242 -54q-290 0 -453 235q-132 190 -132 490q0 326 171 520q162 184 414 184zM651 1146q-136 0 -210 -127q-80 -138 -80 -329q0 -210 79 -346q33 -57 92 -92t122 -35
q60 0 113.5 31.5t86.5 86.5q85 141 85 351q0 198 -78 333q-74 127 -210 127z" />
    <glyph glyph-name="P" unicode="P" horiz-adv-x="1101" vert-adv-y="2457" 
d="M117 0v1365h433q162 0 247 -30q125 -46 194 -159q59 -98 59 -238q0 -235 -167 -360q-116 -88 -328 -88h-145v-490h-293zM410 728h142q117 0 162 55q43 53 43 141q0 100 -61 151q-47 40 -158 40h-128v-387z" />
    <glyph glyph-name="P" unicode="p" horiz-adv-x="1101" vert-adv-y="2457" 
d="M117 0v1365h433q162 0 247 -30q125 -46 194 -159q59 -98 59 -238q0 -235 -167 -360q-116 -88 -328 -88h-145v-490h-293zM410 728h142q117 0 162 55q43 53 43 141q0 100 -61 151q-47 40 -158 40h-128v-387z" />
    <glyph glyph-name="Q" unicode="Q" horiz-adv-x="1299" vert-adv-y="2457" 
d="M1206 15l-140 -138l-159 168q-130 -78 -270 -78q-179 0 -324 115q-245 193 -245 601q0 332 171 529q160 184 413 184q245 0 401 -176q179 -201 179 -537q0 -159 -42 -279.5t-135 -231.5zM718 525l156 -163q65 145 65 321q0 199 -78 336q-72 127 -210 127
q-136 0 -210 -127q-80 -137 -80 -335q0 -209 79 -350q33 -59 92 -95t123 -36q39 0 86 19l-159 169z" />
    <glyph glyph-name="Q" unicode="q" horiz-adv-x="1299" vert-adv-y="2457" 
d="M1206 15l-140 -138l-159 168q-130 -78 -270 -78q-179 0 -324 115q-245 193 -245 601q0 332 171 529q160 184 413 184q245 0 401 -176q179 -201 179 -537q0 -159 -42 -279.5t-135 -231.5zM718 525l156 -163q65 145 65 321q0 199 -78 336q-72 127 -210 127
q-136 0 -210 -127q-80 -137 -80 -335q0 -209 79 -350q33 -59 92 -95t123 -36q39 0 86 19l-159 169z" />
    <glyph glyph-name="R" unicode="R" horiz-adv-x="1215" vert-adv-y="2457" 
d="M117 0v1365h525q206 0 319 -90q129 -103 129 -291q0 -117 -50.5 -204.5t-145.5 -134.5q86 -30 129 -104q27 -45 38 -108.5t23 -238.5q6 -80 15 -117.5t32 -76.5h-302q-15 36 -19 64.5t-15 189.5q-8 101 -23.5 154.5t-45.5 84.5q-43 43 -148 43h-168v-536h-293zM410 757
h161q133 0 183 56q43 49 43 136q0 95 -53 139t-167 44h-167v-375z" />
    <glyph glyph-name="R" unicode="r" horiz-adv-x="1215" vert-adv-y="2457" 
d="M117 0v1365h525q206 0 319 -90q129 -103 129 -291q0 -117 -50.5 -204.5t-145.5 -134.5q86 -30 129 -104q27 -45 38 -108.5t23 -238.5q6 -80 15 -117.5t32 -76.5h-302q-15 36 -19 64.5t-15 189.5q-8 101 -23.5 154.5t-45.5 84.5q-43 43 -148 43h-168v-536h-293zM410 757
h161q133 0 183 56q43 49 43 136q0 95 -53 139t-167 44h-167v-375z" />
    <glyph glyph-name="S" unicode="S" horiz-adv-x="1062" vert-adv-y="2457" 
d="M51 399h295q12 -80 37 -119q52 -80 150 -80q79 0 128 47t49 123q0 79 -67 134q-28 23 -57.5 36.5t-124.5 47.5q-168 59 -243 118q-149 118 -149 309q0 164 104 267q116 114 321 114q197 0 317 -101t146 -290h-286q-10 79 -50 115q-48 42 -129 42q-72 0 -112.5 -36.5
t-40.5 -101.5q0 -72 53.5 -114t212.5 -94q173 -56 268 -131q138 -110 138 -296t-128 -302q-133 -120 -355 -120q-265 0 -395 199q-66 102 -82 233z" />
    <glyph glyph-name="S" unicode="s" horiz-adv-x="1062" vert-adv-y="2457" 
d="M51 399h295q12 -80 37 -119q52 -80 150 -80q79 0 128 47t49 123q0 79 -67 134q-28 23 -57.5 36.5t-124.5 47.5q-168 59 -243 118q-149 118 -149 309q0 164 104 267q116 114 321 114q197 0 317 -101t146 -290h-286q-10 79 -50 115q-48 42 -129 42q-72 0 -112.5 -36.5
t-40.5 -101.5q0 -72 53.5 -114t212.5 -94q173 -56 268 -131q138 -110 138 -296t-128 -302q-133 -120 -355 -120q-265 0 -395 199q-66 102 -82 233z" />
    <glyph glyph-name="T" unicode="T" horiz-adv-x="1047" vert-adv-y="2457" 
d="M376 0v1115h-331v250h957v-250h-333v-1115h-293z" />
    <glyph glyph-name="T" unicode="t" horiz-adv-x="1047" vert-adv-y="2457" 
d="M376 0v1115h-331v250h957v-250h-333v-1115h-293z" />
    <glyph glyph-name="U" unicode="U" horiz-adv-x="1217" vert-adv-y="2457" 
d="M100 1365h281v-795q0 -195 54 -272q58 -81 178 -81q130 0 177 111q33 76 33 243v794h293v-779q0 -184 -26 -279q-45 -163 -162 -252q-116 -88 -321 -88q-294 0 -421 198q-47 74 -66.5 170t-19.5 255v775z" />
    <glyph glyph-name="U" unicode="u" horiz-adv-x="1217" vert-adv-y="2457" 
d="M100 1365h281v-795q0 -195 54 -272q58 -81 178 -81q130 0 177 111q33 76 33 243v794h293v-779q0 -184 -26 -279q-45 -163 -162 -252q-116 -88 -321 -88q-294 0 -421 198q-47 74 -66.5 170t-19.5 255v775z" />
    <glyph glyph-name="V" unicode="V" horiz-adv-x="1089" vert-adv-y="2457" 
d="M705 0h-326l-373 1365h308l235 -984l235 984h299z" />
    <glyph glyph-name="V" unicode="v" horiz-adv-x="1089" vert-adv-y="2457" 
d="M705 0h-326l-373 1365h308l235 -984l235 984h299z" />
    <glyph glyph-name="W" unicode="W" horiz-adv-x="1563" vert-adv-y="2457" 
d="M10 1365h294l162 -936l176 936h279l174 -938l165 938h292l-308 -1365h-293l-172 927l-169 -927h-296z" />
    <glyph glyph-name="W" unicode="w" horiz-adv-x="1563" vert-adv-y="2457" 
d="M10 1365h294l162 -936l176 936h279l174 -938l165 938h292l-308 -1365h-293l-172 927l-169 -927h-296z" />
    <glyph glyph-name="X" unicode="X" horiz-adv-x="1111" vert-adv-y="2457" 
d="M25 1365h332l204 -415l207 415h316l-365 -651l399 -714h-339l-227 450l-233 -450h-325l402 714z" />
    <glyph glyph-name="X" unicode="x" horiz-adv-x="1111" vert-adv-y="2457" 
d="M25 1365h332l204 -415l207 415h316l-365 -651l399 -714h-339l-227 450l-233 -450h-325l402 714z" />
    <glyph glyph-name="Y" unicode="Y" horiz-adv-x="1152" vert-adv-y="2457" 
d="M6 1365h326l246 -540l246 540h321l-423 -837v-528h-293v532z" />
    <glyph glyph-name="Y" unicode="y" horiz-adv-x="1152" vert-adv-y="2457" 
d="M6 1365h326l246 -540l246 540h321l-423 -837v-528h-293v532z" />
    <glyph glyph-name="Z" unicode="Z" horiz-adv-x="1077" vert-adv-y="2457" 
d="M43 0v238l613 877h-569v250h924v-222l-620 -889h638v-254h-986z" />
    <glyph glyph-name="Z" unicode="z" horiz-adv-x="1077" vert-adv-y="2457" 
d="M43 0v238l613 877h-569v250h924v-222l-620 -889h638v-254h-986z" />
    <glyph glyph-name="bracketleft" unicode="[" horiz-adv-x="601" vert-adv-y="2457" 
d="M530 1505v-197h-203v-1326h203v-197h-433v1720h433z" />
    <glyph glyph-name="backslash" unicode="\" horiz-adv-x="793" vert-adv-y="2457" 
d="M491 0l-416 1365h222l420 -1365h-226z" />
    <glyph glyph-name="bracketright" unicode="]" horiz-adv-x="601" vert-adv-y="2457" 
d="M71 1505h433v-1720h-433v197h203v1326h-203v197z" />
    <glyph glyph-name="asciicircum" unicode="^" horiz-adv-x="1044" vert-adv-y="2457" 
d="M312 718h-270l311 655h339l311 -655h-270l-210 449z" />
    <glyph glyph-name="underscore" unicode="_" horiz-adv-x="1044" vert-adv-y="2457" 
d="M51 -109h942v-187h-942v187z" />
    <glyph glyph-name="grave" unicode="`" horiz-adv-x="1045" vert-adv-y="2457" 
d="M251 1365h221l183 -273h-205z" />
    <glyph glyph-name="braceleft" unicode="{" horiz-adv-x="601" vert-adv-y="2457" 
d="M558 1505v-197h-54q-92 0 -121 -30t-29 -126v-269q0 -96 -25.5 -146.5t-94.5 -92.5q68 -40 94 -92.5t26 -149.5v-262q0 -68 9.5 -97t35.5 -43q35 -19 105 -18h54v-197h-83q-186 -2 -256 49q-50 36 -72.5 92t-22.5 147v319q0 83 -25.5 123.5t-88.5 54.5v162q61 14 87.5 52
t26.5 112v331q0 166 97 231q72 49 254 47h83z" />
    <glyph glyph-name="bar" unicode="|" horiz-adv-x="1044" vert-adv-y="2457" 
d="M369 1396h307v-1434h-307v1434z" />
    <glyph glyph-name="braceright" unicode="}" horiz-adv-x="601" vert-adv-y="2457" 
d="M43 -215v197h53q92 -1 121 29.5t29 128.5v262q0 97 26.5 149.5t93.5 92.5q-69 42 -94.5 92.5t-25.5 146.5v269q0 61 -7.5 88t-28.5 44q-31 24 -114 24h-53v197h83q181 2 253 -47q97 -64 97 -231v-331q0 -74 26.5 -112t88.5 -52v-162q-63 -14 -89 -54.5t-26 -123.5v-319
q0 -91 -22.5 -147t-72.5 -92q-70 -51 -255 -49h-83z" />
    <glyph glyph-name="asciitilde" unicode="~" horiz-adv-x="1386" vert-adv-y="2457" 
d="M349 1131l-149 124q40 98 87 161q89 118 216 118q47 0 95 -16t196 -80q59 -26 102 -26q76 0 145 127l149 -124q-48 -112 -94 -169q-88 -112 -211 -112q-38 0 -75.5 12.5t-200.5 81.5q-73 30 -116 30q-41 0 -72.5 -27.5t-71.5 -99.5z" />
    <glyph glyph-name="exclamdown" unicode="&#xa1;" horiz-adv-x="534" vert-adv-y="2457" 
d="M401 0h-268v369l66 581h135l67 -586v-364zM416 1071h-300v294h300v-294z" />
    <glyph glyph-name="cent" unicode="&#xa2;" horiz-adv-x="990" vert-adv-y="2457" 
d="M574 997v-614q98 44 116 198h257q-23 -178 -134 -283q-91 -86 -239 -105v-152h-132v153q-116 16 -199 75q-188 137 -188 416q0 209 104 343.5t283 156.5v139h132v-139q164 -21 260.5 -113.5t110.5 -241.5l-262 -1q-21 131 -109 168zM442 988q-133 -73 -133 -300
q0 -115 32 -187.5t101 -111.5v599z" />
    <glyph glyph-name="sterling" unicode="&#xa3;" horiz-adv-x="941" vert-adv-y="2457" 
d="M28 533v199h147q-11 17 -33 48q-89 131 -89 261q0 161 125 262q109 89 278 89q262 0 360 -181q46 -86 49 -198h-253q-5 146 -155 146q-70 0 -107 -39q-39 -43 -39 -104q0 -75 77 -189q43 -64 62 -95h285v-199h-237q-8 -89 -38.5 -146.5t-140.5 -189.5q91 63 138 63
q29 0 81 -40q30 -23 58 -23q80 0 91 120h216q-9 -153 -64 -239q-68 -107 -197 -107q-68 0 -156 43q-69 33 -132 33q-55 0 -92.5 -13t-117.5 -61l-107 172q212 144 212 333q0 22 -4 55h-217z" />
    <glyph glyph-name="currency" unicode="&#xa4;" horiz-adv-x="1481" vert-adv-y="2457" 
d="M101 221l204 205q-78 129 -78 270q0 125 84 273l-211 208l158 158l213 -212q86 45 143.5 62t127.5 17q69 0 123.5 -16t141.5 -62l212 209l156 -156l-206 -205q86 -141 86 -279q0 -120 -78 -266l205 -205l-156 -158l-204 204q-135 -86 -270 -86q-137 0 -290 86l-205 -203z
M745 946q-105 0 -178 -73q-73 -72 -73 -177q0 -103 73 -177q72 -73 175 -73t175 73q73 73 73 177q0 106 -73 177q-75 73 -172 73z" />
    <glyph glyph-name="yen" unicode="&#xa5;" horiz-adv-x="1152" vert-adv-y="2457" 
d="M710 0h-268v227h-292v177h292v96h-292v177h292l-350 688h307l180 -396l180 396h301l-348 -688h289v-177h-291v-96h291v-177h-291v-227z" />
    <glyph glyph-name="brokenbar" unicode="&#xa6;" horiz-adv-x="1044" vert-adv-y="2457" 
d="M369 1396h307v-580h-307v580zM369 543h307v-581h-307v581z" />
    <glyph glyph-name="section" unicode="&#xa7;" horiz-adv-x="1030" vert-adv-y="2457" 
d="M870 1047h-225q-8 151 -119 151q-51 0 -82 -33.5t-31 -88.5q0 -51 27.5 -82.5t121.5 -86.5q242 -142 311 -210q84 -81 84 -213q0 -101 -43.5 -175.5t-128.5 -118.5q89 -96 89 -218q0 -151 -105 -248q-101 -93 -262 -93q-167 0 -261 98t-93 271h224q1 -5 2 -13
q13 -150 122 -150q53 0 85.5 38t32.5 101q0 52 -34 95q-41 50 -228 161q-182 109 -231 186q-53 84 -53 187q0 99 46 171t129 104q-70 83 -70 193q0 131 85 220q99 103 263 103q154 0 247.5 -95t96.5 -254zM368 753q-73 -30 -73 -123q0 -40 15.5 -66.5t57.5 -58.5
q61 -47 170 -116q46 -29 60 -40q40 -29 61 -39q32 15 53 54t21 84q0 43 -18 70t-69 60q-16 10 -59 40q-50 34 -150 94q-53 33 -69 41z" />
    <glyph glyph-name="dieresis" unicode="&#xa8;" horiz-adv-x="1044" vert-adv-y="2457" 
d="M812 1324v-246h-238v246h238zM470 1324v-246h-237v246h237z" />
    <glyph glyph-name="copyright" unicode="&#xa9;" horiz-adv-x="1432" vert-adv-y="2457" 
d="M850 607h199q-7 -99 -35 -162q-85 -191 -293 -191q-152 0 -243 104q-108 125 -108 323q0 194 104 317q97 113 252 113q134 0 222 -86.5t96 -225.5l-197 -1q-24 141 -124 141q-73 0 -111 -68q-42 -75 -42 -188q0 -117 41 -187t109 -70q58 0 88.5 43t41.5 138zM724 1254
q-212 0 -358 -164q-68 -75 -107 -178q-43 -112 -43 -231q0 -112 38.5 -217.5t107.5 -185.5q145 -167 353 -167q212 0 359 171q143 166 143 399q0 238 -146 406q-63 73 -143 114q-100 53 -204 53zM726 1386q181 0 338 -113q144 -104 222 -273q68 -151 68 -319
q0 -285 -183 -491q-186 -210 -456 -210q-265 0 -449 205q-85 94 -134 218q-53 135 -53 277q0 204 99 379q92 162 249 250q138 77 299 77z" />
    <glyph glyph-name="ordfeminine" unicode="&#xaa;" horiz-adv-x="599" vert-adv-y="2457" 
d="M591 939v-127q-41 -26 -82 -26q-67 0 -109 51q-67 -61 -171 -61q-81 0 -133 40q-63 49 -63 133q0 63 37 109.5t101 65.5q58 17 190 21v38q0 71 -61 71q-32 0 -46 -16.5t-17 -59.5h-184q8 205 248 205q139 0 203 -66q28 -29 36.5 -62.5t8.5 -114.5v-183q0 -32 14 -32
q10 0 28 14zM361 1041q-76 -6 -105.5 -23t-29.5 -56q0 -47 43 -47q38 0 65 32.5t27 79.5v14z" />
    <glyph glyph-name="guillemotleft" unicode="&#xab;" horiz-adv-x="790" vert-adv-y="2457" 
d="M365 1016v-249l-147 -140l147 -134v-243l-273 255v249zM678 1013v-248l-145 -136l145 -135v-240l-272 254v247z" />
    <glyph glyph-name="logicalnot" unicode="&#xac;" horiz-adv-x="1044" vert-adv-y="2457" 
d="M668 0v327h-589v267h887v-594h-298z" />
    <glyph glyph-name="registered" unicode="&#xae;" horiz-adv-x="1432" vert-adv-y="2457" 
d="M724 1254q-212 0 -358 -164q-68 -75 -107 -178q-43 -112 -43 -231q0 -111 38.5 -217t107.5 -186q145 -167 353 -167q212 0 359 171q143 166 143 399q0 238 -146 406q-64 73 -143 114q-99 53 -204 53zM726 1386q181 0 338 -113q144 -104 222 -273q68 -151 68 -319
q0 -285 -183 -491q-186 -210 -456 -210q-265 0 -449 205q-85 94 -134 218q-53 135 -53 277q0 204 99 379q92 162 249 250q138 77 299 77zM413 273v819h323q126 0 197 -55q81 -64 81 -180q0 -126 -97 -195q50 -30 67 -78t27 -184q3 -52 8.5 -69.5t29.5 -57.5h-211
q-13 30 -16 47t-8 112q-5 88 -29 119.5t-87 31.5h-85v-310h-200zM613 739h81q63 0 91.5 23.5t28.5 74.5q0 49 -27 70.5t-89 21.5h-85v-190z" />
    <glyph glyph-name="macron" unicode="&#xaf;" horiz-adv-x="1044" vert-adv-y="2457" 
d="M798 1277v-146h-552v146h552z" />
    <glyph glyph-name="macron" unicode="&#x2c9;" horiz-adv-x="1044" vert-adv-y="2457" 
d="M798 1277v-146h-552v146h552z" />
    <glyph glyph-name="degree" unicode="&#xb0;" horiz-adv-x="1044" vert-adv-y="2457" 
d="M524 1375q136 0 232 -101q87 -91 87 -224q0 -132 -96 -226q-93 -92 -223 -92q-143 0 -239 105q-83 91 -83 216q0 151 109 243q94 79 213 79zM521 1229q-64 0 -111 -46q-56 -55 -56 -129q0 -73 49.5 -124.5t119.5 -51.5q68 0 118.5 51t50.5 120q0 76 -49.5 128t-121.5 52z
" />
    <glyph glyph-name="plusminus" unicode="&#xb1;" horiz-adv-x="1044" vert-adv-y="2457" 
d="M51 870h374v347h195v-347h373v-187h-373v-348h-195v348h-374v187zM51 187h942v-187h-942v187z" />
    <glyph glyph-name="twosuperior" unicode="&#xb2;" horiz-adv-x="588" vert-adv-y="2457" 
d="M546 713v-167h-526q3 145 43 227q27 53 67 92t140 110q103 73 103 157q0 38 -21 61t-55 23q-72 0 -79 -110h-184q6 117 66 189q73 88 196 88q115 0 185.5 -66.5t70.5 -175.5q0 -91 -44.5 -153.5t-166.5 -145.5q-110 -73 -124 -129h329z" />
    <glyph glyph-name="threesuperior" unicode="&#xb3;" horiz-adv-x="605" vert-adv-y="2457" 
d="M225 1124h-181q2 107 51 169q70 89 205 89q112 0 180 -65q66 -63 66 -165q0 -112 -82 -170q106 -60 106 -193q0 -111 -75 -184q-77 -76 -203 -76q-90 0 -155.5 39t-92.5 110q-16 41 -16 116h182q0 -102 81 -102q40 0 63 28.5t23 78.5q0 100 -108 100h-37v143h51
q36 0 58.5 27t22.5 71q0 84 -72 84q-65 0 -67 -100z" />
    <glyph glyph-name="acute" unicode="&#xb4;" horiz-adv-x="1045" vert-adv-y="2457" 
d="M794 1365l-199 -273h-205l184 273h220z" />
    <glyph glyph-name="mu" unicode="&#xb5;" horiz-adv-x="1022" vert-adv-y="2457" 
d="M377 -28v-327h-281v1297h281v-557q0 -98 19 -138q29 -63 96 -63q89 0 128 101q21 53 21 193v464h281v-942h-271v87q-93 -116 -244 -116q-8 0 -30 1z" />
    <glyph glyph-name="paragraph" unicode="&#xb6;" horiz-adv-x="1205" vert-adv-y="2457" 
d="M473 -38v691q-19 -1 -26 -1q-132 0 -222 80q-109 96 -109 271q0 103 40.5 183.5t113.5 124.5q90 54 266 54h481v-115h-93v-1288h-161v1288h-129v-1288h-161z" />
    <glyph glyph-name="periodcentered" unicode="&#xb7;" horiz-adv-x="567" vert-adv-y="2457" 
d="M433 748v-294h-300v294h300z" />
    <glyph glyph-name="periodcentered" unicode="&#x22c5;" horiz-adv-x="567" vert-adv-y="2457" 
d="M433 748v-294h-300v294h300z" />
    <glyph glyph-name="periodcentered" unicode="&#x387;" horiz-adv-x="567" vert-adv-y="2457" 
d="M433 748v-294h-300v294h300z" />
    <glyph glyph-name="cedilla" unicode="&#xb8;" horiz-adv-x="1044" vert-adv-y="2457" 
d="M387 0h117l-40 -108q24 12 59 12q82 0 132.5 -41t50.5 -107q0 -75 -56.5 -120.5t-149.5 -45.5q-76 0 -127.5 30.5t-59.5 80.5h129q7 -31 51 -31q68 0 68 77q0 37 -18.5 58.5t-49.5 21.5q-37 0 -48 -27h-129z" />
    <glyph glyph-name="onesuperior" unicode="&#xb9;" horiz-adv-x="456" vert-adv-y="2457" 
d="M144 546v550q-35 -30 -104 -30q-7 0 -20 1v146q82 3 117.5 35.5t46.5 116.5h146v-819h-186z" />
    <glyph glyph-name="ordmasculine" unicode="&#xba;" horiz-adv-x="606" vert-adv-y="2457" 
d="M304 1383q124 0 201 -81q78 -83 78 -226q0 -139 -83 -223q-76 -77 -196 -77q-128 0 -206 86q-75 83 -75 218q0 132 73 214q80 89 208 89zM302 1242q-39 0 -62.5 -44t-23.5 -118q0 -77 23.5 -120t64.5 -43q39 0 62.5 43.5t23.5 117.5q0 77 -23.5 120.5t-64.5 43.5z" />
    <glyph glyph-name="guillemotright" unicode="&#xbb;" horiz-adv-x="790" vert-adv-y="2457" 
d="M425 1016l274 -262v-248l-274 -256v242l147 135l-147 139v250zM113 1013l270 -257v-248l-270 -254v240l144 135l-144 135v249z" />
    <glyph glyph-name="onequarter" unicode="&#xbc;" horiz-adv-x="1398" vert-adv-y="2457" 
d="M144 546v550q-35 -30 -104 -30q-7 0 -20 1v146q82 3 117.5 35.5t46.5 116.5h146v-819h-186zM440 0h-172l588 1365h169zM1286 0h-181v171h-280v163l293 485h168v-492h84v-156h-84v-171zM1105 327v206l-112 -206h112z" />
    <glyph glyph-name="onehalf" unicode="&#xbd;" horiz-adv-x="1425" vert-adv-y="2457" 
d="M144 546v550q-35 -30 -104 -30q-7 0 -20 1v146q82 3 117.5 35.5t46.5 116.5h146v-819h-186zM440 0h-172l588 1365h169zM1383 167v-167h-526q3 146 43 227q27 53 66.5 92t140.5 111q56 39 79.5 75.5t23.5 81.5q0 37 -21 60.5t-55 23.5q-72 0 -79 -111h-184q7 130 77 204
t185 74t185.5 -67t70.5 -175q0 -91 -44.5 -154.5t-166.5 -145.5q-66 -45 -90.5 -70t-33.5 -59h329z" />
    <glyph glyph-name="threequarters" unicode="&#xbe;" horiz-adv-x="1603" vert-adv-y="2457" 
d="M645 0h-172l587 1365h169zM1491 0h-181v171h-280v163l293 485h168v-492h84v-156h-84v-171zM1310 327v206l-112 -206h112zM225 1124h-181q2 107 51 169q70 89 205 89q112 0 180 -65q66 -63 66 -165q0 -112 -82 -170q106 -60 106 -193q0 -111 -75 -184q-77 -76 -203 -76
q-90 0 -155.5 39t-92.5 110q-16 41 -16 116h182q0 -102 81 -102q40 0 63 28.5t23 78.5q0 100 -108 100h-37v143h51q36 0 58.5 27t22.5 71q0 84 -72 84q-65 0 -67 -100z" />
    <glyph glyph-name="questiondown" unicode="&#xbf;" horiz-adv-x="977" vert-adv-y="2457" 
d="M880 439v-15q-8 -171 -76 -280q-111 -177 -336 -177q-178 0 -283 110q-106 111 -106 283q0 104 43 183.5t146 163.5q49 41 68.5 72t29.5 84q5 25 5 88h234v-16q-2 -154 -36 -235q-24 -52 -134 -159q-51 -50 -70.5 -90t-19.5 -96q0 -69 34.5 -110.5t92.5 -41.5
q147 0 155 236h253zM338 1071v294h300v-294h-300z" />
    <glyph glyph-name="agrave" unicode="&#xc0;" horiz-adv-x="1177" vert-adv-y="2457" 
d="M439 1365h300l432 -1365h-305l-85 305h-389l-86 -305h-300zM455 526h265l-132 471zM304 1720h248l183 -246h-232z" />
    <glyph glyph-name="agrave" unicode="&#xe0;" horiz-adv-x="1177" vert-adv-y="2457" 
d="M439 1365h300l432 -1365h-305l-85 305h-389l-86 -305h-300zM455 526h265l-132 471zM304 1720h248l183 -246h-232z" />
    <glyph glyph-name="aacute" unicode="&#xc1;" horiz-adv-x="1177" vert-adv-y="2457" 
d="M439 1365h300l432 -1365h-305l-85 305h-389l-86 -305h-300zM455 526h265l-132 471zM873 1720l-198 -246h-233l184 246h247z" />
    <glyph glyph-name="aacute" unicode="&#xe1;" horiz-adv-x="1177" vert-adv-y="2457" 
d="M439 1365h300l432 -1365h-305l-85 305h-389l-86 -305h-300zM455 526h265l-132 471zM873 1720l-198 -246h-233l184 246h247z" />
    <glyph glyph-name="acircumflex" unicode="&#xc2;" horiz-adv-x="1177" vert-adv-y="2457" 
d="M439 1365h300l432 -1365h-305l-85 305h-389l-86 -305h-300zM455 526h265l-132 471zM896 1475h-225l-86 121l-88 -121h-216l191 259h233z" />
    <glyph glyph-name="acircumflex" unicode="&#xe2;" horiz-adv-x="1177" vert-adv-y="2457" 
d="M439 1365h300l432 -1365h-305l-85 305h-389l-86 -305h-300zM455 526h265l-132 471zM896 1475h-225l-86 121l-88 -121h-216l191 259h233z" />
    <glyph glyph-name="atilde" unicode="&#xc3;" horiz-adv-x="1177" vert-adv-y="2457" 
d="M439 1365h300l432 -1365h-305l-85 305h-389l-86 -305h-300zM455 526h265l-132 471zM898 1734q-38 -253 -204 -253q-26 0 -40 4.5t-74 31.5q-92 40 -107 40q-43 0 -59 -82h-134q1 10 2 15q15 103 70 169.5t125 66.5q44 0 118 -35q76 -35 106 -35q22 0 35.5 16t28.5 62h133
z" />
    <glyph glyph-name="atilde" unicode="&#xe3;" horiz-adv-x="1177" vert-adv-y="2457" 
d="M439 1365h300l432 -1365h-305l-85 305h-389l-86 -305h-300zM455 526h265l-132 471zM898 1734q-38 -253 -204 -253q-26 0 -40 4.5t-74 31.5q-92 40 -107 40q-43 0 -59 -82h-134q1 10 2 15q15 103 70 169.5t125 66.5q44 0 118 -35q76 -35 106 -35q22 0 35.5 16t28.5 62h133
z" />
    <glyph glyph-name="Adieresis" unicode="&#xc4;" horiz-adv-x="1177" vert-adv-y="2457" 
d="M439 1365h300l432 -1365h-305l-85 305h-389l-86 -305h-300zM455 526h265l-132 471zM878 1693v-246h-238v246h238zM536 1693v-246h-237v246h237z" />
    <glyph glyph-name="Adieresis" unicode="&#xe4;" horiz-adv-x="1177" vert-adv-y="2457" 
d="M439 1365h300l432 -1365h-305l-85 305h-389l-86 -305h-300zM455 526h265l-132 471zM878 1693v-246h-238v246h238zM536 1693v-246h-237v246h237z" />
    <glyph glyph-name="Aring" unicode="&#xc5;" horiz-adv-x="1177" vert-adv-y="2457" 
d="M439 1365h300l432 -1365h-305l-85 305h-389l-86 -305h-300zM455 526h265l-132 471zM591 1710q-37 0 -62 -26t-25 -63t24.5 -63t59.5 -26q36 0 61 26t25 63q0 36 -24.5 62.5t-58.5 26.5zM592 1816q81 0 140 -57t59 -138q0 -80 -59 -137t-143 -57q-85 0 -143 57
q-59 57 -59 137q0 81 59.5 138t145.5 57z" />
    <glyph glyph-name="Aring" unicode="&#xe5;" horiz-adv-x="1177" vert-adv-y="2457" 
d="M439 1365h300l432 -1365h-305l-85 305h-389l-86 -305h-300zM455 526h265l-132 471zM591 1710q-37 0 -62 -26t-25 -63t24.5 -63t59.5 -26q36 0 61 26t25 63q0 36 -24.5 62.5t-58.5 26.5zM592 1816q81 0 140 -57t59 -138q0 -80 -59 -137t-143 -57q-85 0 -143 57
q-59 57 -59 137q0 81 59.5 138t145.5 57z" />
    <glyph glyph-name="AE" unicode="&#xc6;" horiz-adv-x="1631" vert-adv-y="2457" 
d="M730 305h-331l-114 -305h-287l545 1365h990v-250h-537v-292h487v-238h-487v-335h549v-250h-815v305zM730 526v596h-24l-224 -596h248z" />
    <glyph glyph-name="AE" unicode="&#xe6;" horiz-adv-x="1631" vert-adv-y="2457" 
d="M730 305h-331l-114 -305h-287l545 1365h990v-250h-537v-292h487v-238h-487v-335h549v-250h-815v305zM730 526v596h-24l-224 -596h248z" />
    <glyph glyph-name="Ccedilla" unicode="&#xc7;" horiz-adv-x="1221" vert-adv-y="2457" 
d="M877 529h293q-16 -217 -122 -363q-145 -199 -404 -199q-8 0 -30 1l-27 -72q23 10 52 10q87 0 140 -41.5t53 -108.5q0 -75 -57.5 -120.5t-152.5 -45.5q-76 0 -127.5 30.5t-59.5 80.5h130q7 -31 51 -31q66 0 66 79q0 78 -67 78q-36 0 -47 -27h-126l66 181q-114 27 -201 97
q-115 93 -179 259q-60 154 -60 342q0 326 171 530q157 187 408 187q269 0 419 -216q85 -123 96 -274l-290 -1q-13 80 -43 130q-64 111 -186 111q-136 0 -208 -129q-74 -134 -74 -335q0 -204 77 -340q70 -125 202 -125q103 0 161 76.5t76 235.5z" />
    <glyph glyph-name="Ccedilla" unicode="&#xe7;" horiz-adv-x="1221" vert-adv-y="2457" 
d="M877 529h293q-16 -217 -122 -363q-145 -199 -404 -199q-8 0 -30 1l-27 -72q23 10 52 10q87 0 140 -41.5t53 -108.5q0 -75 -57.5 -120.5t-152.5 -45.5q-76 0 -127.5 30.5t-59.5 80.5h130q7 -31 51 -31q66 0 66 79q0 78 -67 78q-36 0 -47 -27h-126l66 181q-114 27 -201 97
q-115 93 -179 259q-60 154 -60 342q0 326 171 530q157 187 408 187q269 0 419 -216q85 -123 96 -274l-290 -1q-13 80 -43 130q-64 111 -186 111q-136 0 -208 -129q-74 -134 -74 -335q0 -204 77 -340q70 -125 202 -125q103 0 161 76.5t76 235.5z" />
    <glyph glyph-name="egrave" unicode="&#xc8;" horiz-adv-x="1085" vert-adv-y="2457" 
d="M117 0v1365h871v-250h-578v-292h528v-238h-528v-335h590v-250h-883zM284 1720h248l183 -246h-232z" />
    <glyph glyph-name="egrave" unicode="&#xe8;" horiz-adv-x="1085" vert-adv-y="2457" 
d="M117 0v1365h871v-250h-578v-292h528v-238h-528v-335h590v-250h-883zM284 1720h248l183 -246h-232z" />
    <glyph glyph-name="Eacute" unicode="&#xc9;" horiz-adv-x="1085" vert-adv-y="2457" 
d="M117 0v1365h871v-250h-578v-292h528v-238h-528v-335h590v-250h-883zM828 1720l-198 -246h-233l184 246h247z" />
    <glyph glyph-name="Eacute" unicode="&#xe9;" horiz-adv-x="1085" vert-adv-y="2457" 
d="M117 0v1365h871v-250h-578v-292h528v-238h-528v-335h590v-250h-883zM828 1720l-198 -246h-233l184 246h247z" />
    <glyph glyph-name="ecircumflex" unicode="&#xca;" horiz-adv-x="1085" vert-adv-y="2457" 
d="M117 0v1365h871v-250h-578v-292h528v-238h-528v-335h590v-250h-883zM866 1475h-225l-86 121l-88 -121h-216l191 259h233z" />
    <glyph glyph-name="ecircumflex" unicode="&#xea;" horiz-adv-x="1085" vert-adv-y="2457" 
d="M117 0v1365h871v-250h-578v-292h528v-238h-528v-335h590v-250h-883zM866 1475h-225l-86 121l-88 -121h-216l191 259h233z" />
    <glyph glyph-name="edieresis" unicode="&#xcb;" horiz-adv-x="1085" vert-adv-y="2457" 
d="M117 0v1365h871v-250h-578v-292h528v-238h-528v-335h590v-250h-883zM848 1693v-246h-238v246h238zM506 1693v-246h-237v246h237z" />
    <glyph glyph-name="edieresis" unicode="&#xeb;" horiz-adv-x="1085" vert-adv-y="2457" 
d="M117 0v1365h871v-250h-578v-292h528v-238h-528v-335h590v-250h-883zM848 1693v-246h-238v246h238zM506 1693v-246h-237v246h237z" />
    <glyph glyph-name="igrave" unicode="&#xcc;" horiz-adv-x="526" vert-adv-y="2457" 
d="M117 0v1365h293v-1365h-293zM-26 1720h248l183 -246h-232z" />
    <glyph glyph-name="igrave" unicode="&#xec;" horiz-adv-x="526" vert-adv-y="2457" 
d="M117 0v1365h293v-1365h-293zM-26 1720h248l183 -246h-232z" />
    <glyph glyph-name="iacute" unicode="&#xcd;" horiz-adv-x="526" vert-adv-y="2457" 
d="M117 0v1365h293v-1365h-293zM543 1720l-198 -246h-233l184 246h247z" />
    <glyph glyph-name="iacute" unicode="&#xed;" horiz-adv-x="526" vert-adv-y="2457" 
d="M117 0v1365h293v-1365h-293zM543 1720l-198 -246h-233l184 246h247z" />
    <glyph glyph-name="icircumflex" unicode="&#xce;" horiz-adv-x="526" vert-adv-y="2457" 
d="M117 0v1365h293v-1365h-293zM576 1475h-225l-86 121l-88 -121h-216l191 259h233z" />
    <glyph glyph-name="icircumflex" unicode="&#xee;" horiz-adv-x="526" vert-adv-y="2457" 
d="M117 0v1365h293v-1365h-293zM576 1475h-225l-86 121l-88 -121h-216l191 259h233z" />
    <glyph glyph-name="idieresis" unicode="&#xcf;" horiz-adv-x="526" vert-adv-y="2457" 
d="M117 0v1365h293v-1365h-293zM522 1693v-246h-205v246h205zM214 1693v-246h-204v246h204z" />
    <glyph glyph-name="idieresis" unicode="&#xef;" horiz-adv-x="526" vert-adv-y="2457" 
d="M117 0v1365h293v-1365h-293zM522 1693v-246h-205v246h205zM214 1693v-246h-204v246h204z" />
    <glyph glyph-name="Eth" unicode="&#xd0;" horiz-adv-x="1238" vert-adv-y="2457" 
d="M10 585v238h107v542h421q277 0 437 -148q195 -180 195 -530q0 -342 -184 -530q-100 -103 -231 -134q-93 -23 -219 -23h-419v585h-107zM410 250h131q156 0 227 74q109 114 109 364q0 206 -92 323q-82 104 -253 104h-122v-292h223v-238h-223v-335z" />
    <glyph glyph-name="Eth" unicode="&#x111;" horiz-adv-x="1238" vert-adv-y="2457" 
d="M10 585v238h107v542h421q277 0 437 -148q195 -180 195 -530q0 -342 -184 -530q-100 -103 -231 -134q-93 -23 -219 -23h-419v585h-107zM410 250h131q156 0 227 74q109 114 109 364q0 206 -92 323q-82 104 -253 104h-122v-292h223v-238h-223v-335z" />
    <glyph glyph-name="Eth" unicode="&#x110;" horiz-adv-x="1238" vert-adv-y="2457" 
d="M10 585v238h107v542h421q277 0 437 -148q195 -180 195 -530q0 -342 -184 -530q-100 -103 -231 -134q-93 -23 -219 -23h-419v585h-107zM410 250h131q156 0 227 74q109 114 109 364q0 206 -92 323q-82 104 -253 104h-122v-292h223v-238h-223v-335z" />
    <glyph glyph-name="Eth" unicode="&#xf0;" horiz-adv-x="1238" vert-adv-y="2457" 
d="M10 585v238h107v542h421q277 0 437 -148q195 -180 195 -530q0 -342 -184 -530q-100 -103 -231 -134q-93 -23 -219 -23h-419v585h-107zM410 250h131q156 0 227 74q109 114 109 364q0 206 -92 323q-82 104 -253 104h-122v-292h223v-238h-223v-335z" />
    <glyph glyph-name="Ntilde" unicode="&#xd1;" horiz-adv-x="1238" vert-adv-y="2457" 
d="M117 0v1365l296 1l428 -879v878h281v-1365h-293l-431 877v-877h-281zM928 1734q-38 -253 -204 -253q-26 0 -40 4.5t-74 31.5q-92 40 -107 40q-43 0 -59 -82h-134q1 10 2 15q15 103 70 169.5t125 66.5q44 0 118 -35q76 -35 106 -35q22 0 35.5 16t28.5 62h133z" />
    <glyph glyph-name="Ntilde" unicode="&#xf1;" horiz-adv-x="1238" vert-adv-y="2457" 
d="M117 0v1365l296 1l428 -879v878h281v-1365h-293l-431 877v-877h-281zM928 1734q-38 -253 -204 -253q-26 0 -40 4.5t-74 31.5q-92 40 -107 40q-43 0 -59 -82h-134q1 10 2 15q15 103 70 169.5t125 66.5q44 0 118 -35q76 -35 106 -35q22 0 35.5 16t28.5 62h133z" />
    <glyph glyph-name="ograve" unicode="&#xd2;" horiz-adv-x="1299" vert-adv-y="2457" 
d="M653 1396q243 0 400 -176q179 -199 179 -538q0 -290 -135 -485q-80 -115 -202 -176q-109 -54 -242 -54q-290 0 -453 235q-132 190 -132 490q0 326 171 520q162 184 414 184zM651 1146q-136 0 -210 -127q-80 -138 -80 -329q0 -210 79 -346q33 -57 92 -92t122 -35
q60 0 113.5 31.5t86.5 86.5q85 141 85 351q0 198 -78 333q-74 127 -210 127zM364 1720h248l183 -246h-232z" />
    <glyph glyph-name="ograve" unicode="&#xf2;" horiz-adv-x="1299" vert-adv-y="2457" 
d="M653 1396q243 0 400 -176q179 -199 179 -538q0 -290 -135 -485q-80 -115 -202 -176q-109 -54 -242 -54q-290 0 -453 235q-132 190 -132 490q0 326 171 520q162 184 414 184zM651 1146q-136 0 -210 -127q-80 -138 -80 -329q0 -210 79 -346q33 -57 92 -92t122 -35
q60 0 113.5 31.5t86.5 86.5q85 141 85 351q0 198 -78 333q-74 127 -210 127zM364 1720h248l183 -246h-232z" />
    <glyph glyph-name="oacute" unicode="&#xd3;" horiz-adv-x="1299" vert-adv-y="2457" 
d="M653 1396q243 0 400 -176q179 -199 179 -538q0 -290 -135 -485q-80 -115 -202 -176q-109 -54 -242 -54q-290 0 -453 235q-132 190 -132 490q0 326 171 520q162 184 414 184zM651 1146q-136 0 -210 -127q-80 -138 -80 -329q0 -210 79 -346q33 -57 92 -92t122 -35
q60 0 113.5 31.5t86.5 86.5q85 141 85 351q0 198 -78 333q-74 127 -210 127zM913 1720l-198 -246h-233l184 246h247z" />
    <glyph glyph-name="oacute" unicode="&#xf3;" horiz-adv-x="1299" vert-adv-y="2457" 
d="M653 1396q243 0 400 -176q179 -199 179 -538q0 -290 -135 -485q-80 -115 -202 -176q-109 -54 -242 -54q-290 0 -453 235q-132 190 -132 490q0 326 171 520q162 184 414 184zM651 1146q-136 0 -210 -127q-80 -138 -80 -329q0 -210 79 -346q33 -57 92 -92t122 -35
q60 0 113.5 31.5t86.5 86.5q85 141 85 351q0 198 -78 333q-74 127 -210 127zM913 1720l-198 -246h-233l184 246h247z" />
    <glyph glyph-name="ocircumflex" unicode="&#xd4;" horiz-adv-x="1299" vert-adv-y="2457" 
d="M653 1396q243 0 400 -176q179 -199 179 -538q0 -290 -135 -485q-80 -115 -202 -176q-109 -54 -242 -54q-290 0 -453 235q-132 190 -132 490q0 326 171 520q162 184 414 184zM651 1146q-136 0 -210 -127q-80 -138 -80 -329q0 -210 79 -346q33 -57 92 -92t122 -35
q60 0 113.5 31.5t86.5 86.5q85 141 85 351q0 198 -78 333q-74 127 -210 127zM966 1475h-225l-86 121l-88 -121h-216l191 259h233z" />
    <glyph glyph-name="ocircumflex" unicode="&#xf4;" horiz-adv-x="1299" vert-adv-y="2457" 
d="M653 1396q243 0 400 -176q179 -199 179 -538q0 -290 -135 -485q-80 -115 -202 -176q-109 -54 -242 -54q-290 0 -453 235q-132 190 -132 490q0 326 171 520q162 184 414 184zM651 1146q-136 0 -210 -127q-80 -138 -80 -329q0 -210 79 -346q33 -57 92 -92t122 -35
q60 0 113.5 31.5t86.5 86.5q85 141 85 351q0 198 -78 333q-74 127 -210 127zM966 1475h-225l-86 121l-88 -121h-216l191 259h233z" />
    <glyph glyph-name="otilde" unicode="&#xd5;" horiz-adv-x="1299" vert-adv-y="2457" 
d="M653 1396q243 0 400 -176q179 -199 179 -538q0 -290 -135 -485q-80 -115 -202 -176q-109 -54 -242 -54q-290 0 -453 235q-132 190 -132 490q0 326 171 520q162 184 414 184zM651 1146q-136 0 -210 -127q-80 -138 -80 -329q0 -210 79 -346q33 -57 92 -92t122 -35
q60 0 113.5 31.5t86.5 86.5q85 141 85 351q0 198 -78 333q-74 127 -210 127zM968 1734q-38 -253 -204 -253q-26 0 -40 4.5t-74 31.5q-92 40 -107 40q-43 0 -59 -82h-134q1 10 2 15q15 103 70 169.5t125 66.5q44 0 118 -35q76 -35 106 -35q22 0 35.5 16t28.5 62h133z" />
    <glyph glyph-name="otilde" unicode="&#xf5;" horiz-adv-x="1299" vert-adv-y="2457" 
d="M653 1396q243 0 400 -176q179 -199 179 -538q0 -290 -135 -485q-80 -115 -202 -176q-109 -54 -242 -54q-290 0 -453 235q-132 190 -132 490q0 326 171 520q162 184 414 184zM651 1146q-136 0 -210 -127q-80 -138 -80 -329q0 -210 79 -346q33 -57 92 -92t122 -35
q60 0 113.5 31.5t86.5 86.5q85 141 85 351q0 198 -78 333q-74 127 -210 127zM968 1734q-38 -253 -204 -253q-26 0 -40 4.5t-74 31.5q-92 40 -107 40q-43 0 -59 -82h-134q1 10 2 15q15 103 70 169.5t125 66.5q44 0 118 -35q76 -35 106 -35q22 0 35.5 16t28.5 62h133z" />
    <glyph glyph-name="Odieresis" unicode="&#xd6;" horiz-adv-x="1299" vert-adv-y="2457" 
d="M653 1396q243 0 400 -176q179 -199 179 -538q0 -290 -135 -485q-80 -115 -202 -176q-109 -54 -242 -54q-290 0 -453 235q-132 190 -132 490q0 326 171 520q162 184 414 184zM651 1146q-136 0 -210 -127q-80 -138 -80 -329q0 -210 79 -346q33 -57 92 -92t122 -35
q60 0 113.5 31.5t86.5 86.5q85 141 85 351q0 198 -78 333q-74 127 -210 127zM939 1693v-246h-238v246h238zM597 1693v-246h-237v246h237z" />
    <glyph glyph-name="Odieresis" unicode="&#xf6;" horiz-adv-x="1299" vert-adv-y="2457" 
d="M653 1396q243 0 400 -176q179 -199 179 -538q0 -290 -135 -485q-80 -115 -202 -176q-109 -54 -242 -54q-290 0 -453 235q-132 190 -132 490q0 326 171 520q162 184 414 184zM651 1146q-136 0 -210 -127q-80 -138 -80 -329q0 -210 79 -346q33 -57 92 -92t122 -35
q60 0 113.5 31.5t86.5 86.5q85 141 85 351q0 198 -78 333q-74 127 -210 127zM939 1693v-246h-238v246h238zM597 1693v-246h-237v246h237z" />
    <glyph glyph-name="multiply" unicode="&#xd7;" horiz-adv-x="1045" vert-adv-y="2457" 
d="M789 1089l132 -133l-267 -267l267 -267l-132 -132l-267 267l-267 -267l-132 132l267 267l-267 267l132 133l267 -267z" />
    <glyph glyph-name="Oslash" unicode="&#xd8;" horiz-adv-x="1299" vert-adv-y="2457" 
d="M324 -33h-206l115 192q-165 198 -165 523q0 334 171 531q160 184 412 184q154 0 282 -76l46 76h203l-115 -192q165 -201 165 -523q0 -290 -135 -485q-80 -115 -202 -175q-109 -55 -243 -55q-153 0 -283 75zM790 1101q-64 46 -138 46q-137 0 -211 -127q-80 -138 -80 -335
q0 -136 42 -259zM513 265q71 -48 140 -48q60 0 114 31.5t87 86.5q85 140 85 352q0 135 -41 250z" />
    <glyph glyph-name="Oslash" unicode="&#xf8;" horiz-adv-x="1299" vert-adv-y="2457" 
d="M324 -33h-206l115 192q-165 198 -165 523q0 334 171 531q160 184 412 184q154 0 282 -76l46 76h203l-115 -192q165 -201 165 -523q0 -290 -135 -485q-80 -115 -202 -175q-109 -55 -243 -55q-153 0 -283 75zM790 1101q-64 46 -138 46q-137 0 -211 -127q-80 -138 -80 -335
q0 -136 42 -259zM513 265q71 -48 140 -48q60 0 114 31.5t87 86.5q85 140 85 352q0 135 -41 250z" />
    <glyph glyph-name="ugrave" unicode="&#xd9;" horiz-adv-x="1217" vert-adv-y="2457" 
d="M100 1365h281v-795q0 -195 54 -272q58 -81 178 -81q130 0 177 111q33 76 33 243v794h293v-779q0 -184 -26 -279q-45 -163 -162 -252q-116 -88 -321 -88q-294 0 -421 198q-47 74 -66.5 170t-19.5 255v775zM324 1720h248l183 -246h-232z" />
    <glyph glyph-name="ugrave" unicode="&#xf9;" horiz-adv-x="1217" vert-adv-y="2457" 
d="M100 1365h281v-795q0 -195 54 -272q58 -81 178 -81q130 0 177 111q33 76 33 243v794h293v-779q0 -184 -26 -279q-45 -163 -162 -252q-116 -88 -321 -88q-294 0 -421 198q-47 74 -66.5 170t-19.5 255v775zM324 1720h248l183 -246h-232z" />
    <glyph glyph-name="uacute" unicode="&#xda;" horiz-adv-x="1217" vert-adv-y="2457" 
d="M100 1365h281v-795q0 -195 54 -272q58 -81 178 -81q130 0 177 111q33 76 33 243v794h293v-779q0 -184 -26 -279q-45 -163 -162 -252q-116 -88 -321 -88q-294 0 -421 198q-47 74 -66.5 170t-19.5 255v775zM893 1720l-198 -246h-233l184 246h247z" />
    <glyph glyph-name="uacute" unicode="&#xfa;" horiz-adv-x="1217" vert-adv-y="2457" 
d="M100 1365h281v-795q0 -195 54 -272q58 -81 178 -81q130 0 177 111q33 76 33 243v794h293v-779q0 -184 -26 -279q-45 -163 -162 -252q-116 -88 -321 -88q-294 0 -421 198q-47 74 -66.5 170t-19.5 255v775zM893 1720l-198 -246h-233l184 246h247z" />
    <glyph glyph-name="ucircumflex" unicode="&#xdb;" horiz-adv-x="1217" vert-adv-y="2457" 
d="M100 1365h281v-795q0 -195 54 -272q58 -81 178 -81q130 0 177 111q33 76 33 243v794h293v-779q0 -184 -26 -279q-45 -163 -162 -252q-116 -88 -321 -88q-294 0 -421 198q-47 74 -66.5 170t-19.5 255v775zM916 1475h-225l-86 121l-88 -121h-216l191 259h233z" />
    <glyph glyph-name="ucircumflex" unicode="&#xfb;" horiz-adv-x="1217" vert-adv-y="2457" 
d="M100 1365h281v-795q0 -195 54 -272q58 -81 178 -81q130 0 177 111q33 76 33 243v794h293v-779q0 -184 -26 -279q-45 -163 -162 -252q-116 -88 -321 -88q-294 0 -421 198q-47 74 -66.5 170t-19.5 255v775zM916 1475h-225l-86 121l-88 -121h-216l191 259h233z" />
    <glyph glyph-name="Udieresis" unicode="&#xdc;" horiz-adv-x="1217" vert-adv-y="2457" 
d="M100 1365h281v-795q0 -195 54 -272q58 -81 178 -81q130 0 177 111q33 76 33 243v794h293v-779q0 -184 -26 -279q-45 -163 -162 -252q-116 -88 -321 -88q-294 0 -421 198q-47 74 -66.5 170t-19.5 255v775zM898 1693v-246h-238v246h238zM556 1693v-246h-237v246h237z" />
    <glyph glyph-name="Udieresis" unicode="&#xfc;" horiz-adv-x="1217" vert-adv-y="2457" 
d="M100 1365h281v-795q0 -195 54 -272q58 -81 178 -81q130 0 177 111q33 76 33 243v794h293v-779q0 -184 -26 -279q-45 -163 -162 -252q-116 -88 -321 -88q-294 0 -421 198q-47 74 -66.5 170t-19.5 255v775zM898 1693v-246h-238v246h238zM556 1693v-246h-237v246h237z" />
    <glyph glyph-name="Yacute" unicode="&#xdd;" horiz-adv-x="1152" vert-adv-y="2457" 
d="M6 1365h326l246 -540l246 540h321l-423 -837v-528h-293v532zM860 1720l-198 -246h-233l184 246h247z" />
    <glyph glyph-name="Yacute" unicode="&#xfd;" horiz-adv-x="1152" vert-adv-y="2457" 
d="M6 1365h326l246 -540l246 540h321l-423 -837v-528h-293v532zM860 1720l-198 -246h-233l184 246h247z" />
    <glyph glyph-name="Thorn" unicode="&#xde;" horiz-adv-x="1090" vert-adv-y="2457" 
d="M117 0v1365h293v-232h113q162 0 246 -30q126 -46 195 -159q59 -98 59 -238q0 -235 -167 -360q-116 -88 -328 -88h-118v-258h-293zM410 496h115q117 0 162 55q43 53 43 141q0 100 -61 151q-47 40 -158 40h-101v-387z" />
    <glyph glyph-name="Thorn" unicode="&#xfe;" horiz-adv-x="1090" vert-adv-y="2457" 
d="M117 0v1365h293v-232h113q162 0 246 -30q126 -46 195 -159q59 -98 59 -238q0 -235 -167 -360q-116 -88 -328 -88h-118v-258h-293zM410 496h115q117 0 162 55q43 53 43 141q0 100 -61 151q-47 40 -158 40h-101v-387z" />
    <glyph glyph-name="divide" unicode="&#xf7;" horiz-adv-x="1044" vert-adv-y="2457" 
d="M622 1131v-229h-200v229h200zM622 477v-229h-200v229h200zM51 783h942v-187h-942v187z" />
    <glyph glyph-name="ydieresis" unicode="&#xff;" horiz-adv-x="1152" vert-adv-y="2457" 
d="M6 1365h326l246 -540l246 540h321l-423 -837v-528h-293v532zM868 1693v-246h-238v246h238zM526 1693v-246h-237v246h237z" />
    <glyph glyph-name="ydieresis" unicode="&#x178;" horiz-adv-x="1152" vert-adv-y="2457" 
d="M6 1365h326l246 -540l246 540h321l-423 -837v-528h-293v532zM868 1693v-246h-238v246h238zM526 1693v-246h-237v246h237z" />
    <glyph glyph-name="Amacron" unicode="&#x100;" horiz-adv-x="1177" vert-adv-y="2457" 
d="M439 1365h300l432 -1365h-305l-85 305h-389l-86 -305h-300zM455 526h265l-132 471zM882 1658v-157h-587v157h587z" />
    <glyph glyph-name="Amacron" unicode="&#x101;" horiz-adv-x="1177" vert-adv-y="2457" 
d="M439 1365h300l432 -1365h-305l-85 305h-389l-86 -305h-300zM455 526h265l-132 471zM882 1658v-157h-587v157h587z" />
    <glyph glyph-name="Abreve" unicode="&#x102;" horiz-adv-x="1177" vert-adv-y="2457" 
d="M439 1365h300l432 -1365h-305l-85 305h-389l-86 -305h-300zM455 526h265l-132 471zM296 1720h139q28 -107 154 -107t153 107h139q-2 -68 -24 -112q-68 -141 -268 -141q-220 0 -278 164q-12 34 -15 89z" />
    <glyph glyph-name="Abreve" unicode="&#x103;" horiz-adv-x="1177" vert-adv-y="2457" 
d="M439 1365h300l432 -1365h-305l-85 305h-389l-86 -305h-300zM455 526h265l-132 471zM296 1720h139q28 -107 154 -107t153 107h139q-2 -68 -24 -112q-68 -141 -268 -141q-220 0 -278 164q-12 34 -15 89z" />
    <glyph glyph-name="Aogonek" unicode="&#x104;" horiz-adv-x="1177" vert-adv-y="2457" 
d="M1167 0q-91 -80 -91 -165q0 -91 94 -91q20 0 71 16v-119l-10 -3q-58 -19 -106 -19q-93 0 -151 50t-58 130q0 53 26.5 98.5t90.5 102.5h-167l-85 305h-389l-86 -305h-300l433 1365h300l432 -1365h-4zM455 526h265l-132 471z" />
    <glyph glyph-name="Aogonek" unicode="&#x105;" horiz-adv-x="1177" vert-adv-y="2457" 
d="M1167 0q-91 -80 -91 -165q0 -91 94 -91q20 0 71 16v-119l-10 -3q-58 -19 -106 -19q-93 0 -151 50t-58 130q0 53 26.5 98.5t90.5 102.5h-167l-85 305h-389l-86 -305h-300l433 1365h300l432 -1365h-4zM455 526h265l-132 471z" />
    <glyph glyph-name="Cacute" unicode="&#x106;" horiz-adv-x="1221" vert-adv-y="2457" 
d="M877 529h293q-16 -217 -122 -363q-145 -199 -408 -199q-249 0 -395 171q-177 209 -177 541q0 326 171 530q157 187 408 187q269 0 419 -216q85 -123 96 -274l-290 -1q-13 80 -43 130q-64 111 -186 111q-136 0 -208 -129q-74 -134 -74 -335q0 -204 77 -340
q70 -125 202 -125q103 0 161 76.5t76 235.5zM895 1720l-198 -246h-233l184 246h247z" />
    <glyph glyph-name="Cacute" unicode="&#x107;" horiz-adv-x="1221" vert-adv-y="2457" 
d="M877 529h293q-16 -217 -122 -363q-145 -199 -408 -199q-249 0 -395 171q-177 209 -177 541q0 326 171 530q157 187 408 187q269 0 419 -216q85 -123 96 -274l-290 -1q-13 80 -43 130q-64 111 -186 111q-136 0 -208 -129q-74 -134 -74 -335q0 -204 77 -340
q70 -125 202 -125q103 0 161 76.5t76 235.5zM895 1720l-198 -246h-233l184 246h247z" />
    <glyph glyph-name="Ccircumflex" unicode="&#x108;" horiz-adv-x="1221" vert-adv-y="2457" 
d="M877 529h293q-16 -217 -122 -363q-145 -199 -408 -199q-249 0 -395 171q-177 209 -177 541q0 326 171 530q157 187 408 187q269 0 419 -216q85 -123 96 -274l-290 -1q-13 80 -43 130q-64 111 -186 111q-136 0 -208 -129q-74 -134 -74 -335q0 -204 77 -340
q70 -125 202 -125q103 0 161 76.5t76 235.5zM951 1475h-225l-86 121l-88 -121h-216l191 259h233z" />
    <glyph glyph-name="Ccircumflex" unicode="&#x109;" horiz-adv-x="1221" vert-adv-y="2457" 
d="M877 529h293q-16 -217 -122 -363q-145 -199 -408 -199q-249 0 -395 171q-177 209 -177 541q0 326 171 530q157 187 408 187q269 0 419 -216q85 -123 96 -274l-290 -1q-13 80 -43 130q-64 111 -186 111q-136 0 -208 -129q-74 -134 -74 -335q0 -204 77 -340
q70 -125 202 -125q103 0 161 76.5t76 235.5zM951 1475h-225l-86 121l-88 -121h-216l191 259h233z" />
    <glyph glyph-name="Cdotaccent" unicode="&#x10a;" horiz-adv-x="1221" vert-adv-y="2457" 
d="M877 529h293q-16 -217 -122 -363q-145 -199 -408 -199q-249 0 -395 171q-177 209 -177 541q0 326 171 530q157 187 408 187q269 0 419 -216q85 -123 96 -274l-290 -1q-13 80 -43 130q-64 111 -186 111q-136 0 -208 -129q-74 -134 -74 -335q0 -204 77 -340
q70 -125 202 -125q103 0 161 76.5t76 235.5zM748 1693v-246h-237v246h237z" />
    <glyph glyph-name="Cdotaccent" unicode="&#x10b;" horiz-adv-x="1221" vert-adv-y="2457" 
d="M877 529h293q-16 -217 -122 -363q-145 -199 -408 -199q-249 0 -395 171q-177 209 -177 541q0 326 171 530q157 187 408 187q269 0 419 -216q85 -123 96 -274l-290 -1q-13 80 -43 130q-64 111 -186 111q-136 0 -208 -129q-74 -134 -74 -335q0 -204 77 -340
q70 -125 202 -125q103 0 161 76.5t76 235.5zM748 1693v-246h-237v246h237z" />
    <glyph glyph-name="Ccaron" unicode="&#x10c;" horiz-adv-x="1221" vert-adv-y="2457" 
d="M877 529h293q-16 -217 -122 -363q-145 -199 -408 -199q-249 0 -395 171q-177 209 -177 541q0 326 171 530q157 187 408 187q269 0 419 -216q85 -123 96 -274l-290 -1q-13 80 -43 130q-64 111 -186 111q-136 0 -208 -129q-74 -134 -74 -335q0 -204 77 -340
q70 -125 202 -125q103 0 161 76.5t76 235.5zM934 1734l-190 -259h-234l-191 259h215l89 -121l86 121h225z" />
    <glyph glyph-name="Ccaron" unicode="&#x10d;" horiz-adv-x="1221" vert-adv-y="2457" 
d="M877 529h293q-16 -217 -122 -363q-145 -199 -408 -199q-249 0 -395 171q-177 209 -177 541q0 326 171 530q157 187 408 187q269 0 419 -216q85 -123 96 -274l-290 -1q-13 80 -43 130q-64 111 -186 111q-136 0 -208 -129q-74 -134 -74 -335q0 -204 77 -340
q70 -125 202 -125q103 0 161 76.5t76 235.5zM934 1734l-190 -259h-234l-191 259h215l89 -121l86 121h225z" />
    <glyph glyph-name="Dcaron" unicode="&#x10e;" horiz-adv-x="1238" vert-adv-y="2457" 
d="M117 0v1365h421q278 0 437 -148q195 -180 195 -530q0 -342 -184 -530q-100 -103 -231 -134q-93 -23 -218 -23h-420zM410 250h131q156 0 227 74q109 115 109 364q0 206 -92 323q-81 104 -252 104h-123v-865zM877 1734l-190 -259h-234l-191 259h215l89 -121l86 121h225z
" />
    <glyph glyph-name="Dcaron" unicode="&#x10f;" horiz-adv-x="1238" vert-adv-y="2457" 
d="M117 0v1365h421q278 0 437 -148q195 -180 195 -530q0 -342 -184 -530q-100 -103 -231 -134q-93 -23 -218 -23h-420zM410 250h131q156 0 227 74q109 115 109 364q0 206 -92 323q-81 104 -252 104h-123v-865zM877 1734l-190 -259h-234l-191 259h215l89 -121l86 121h225z
" />
    <glyph glyph-name="Emacron" unicode="&#x112;" horiz-adv-x="1085" vert-adv-y="2457" 
d="M117 0v1365h871v-250h-578v-292h528v-238h-528v-335h590v-250h-883zM837 1658v-157h-587v157h587z" />
    <glyph glyph-name="Emacron" unicode="&#x113;" horiz-adv-x="1085" vert-adv-y="2457" 
d="M117 0v1365h871v-250h-578v-292h528v-238h-528v-335h590v-250h-883zM837 1658v-157h-587v157h587z" />
    <glyph glyph-name="Ebreve" unicode="&#x114;" horiz-adv-x="1085" vert-adv-y="2457" 
d="M117 0v1365h871v-250h-578v-292h528v-238h-528v-335h590v-250h-883zM251 1720h139q28 -107 154 -107t153 107h139q-2 -68 -24 -112q-68 -141 -268 -141q-220 0 -278 164q-12 34 -15 89z" />
    <glyph glyph-name="Ebreve" unicode="&#x115;" horiz-adv-x="1085" vert-adv-y="2457" 
d="M117 0v1365h871v-250h-578v-292h528v-238h-528v-335h590v-250h-883zM251 1720h139q28 -107 154 -107t153 107h139q-2 -68 -24 -112q-68 -141 -268 -141q-220 0 -278 164q-12 34 -15 89z" />
    <glyph glyph-name="Edotaccent" unicode="&#x116;" horiz-adv-x="1085" vert-adv-y="2457" 
d="M117 0v1365h871v-250h-578v-292h528v-238h-528v-335h590v-250h-883zM662 1693v-246h-237v246h237z" />
    <glyph glyph-name="Edotaccent" unicode="&#x117;" horiz-adv-x="1085" vert-adv-y="2457" 
d="M117 0v1365h871v-250h-578v-292h528v-238h-528v-335h590v-250h-883zM662 1693v-246h-237v246h237z" />
    <glyph glyph-name="Eogonek" unicode="&#x118;" horiz-adv-x="1086" vert-adv-y="2457" 
d="M992 0q-91 -76 -91 -165q0 -91 94 -91q20 0 71 16v-119l-10 -3q-57 -19 -106 -19q-93 0 -151 50t-58 130q0 97 117 201h-741v1365h871v-250h-578v-292h528v-238h-528v-335h590v-250h-8z" />
    <glyph glyph-name="Eogonek" unicode="&#x119;" horiz-adv-x="1086" vert-adv-y="2457" 
d="M992 0q-91 -76 -91 -165q0 -91 94 -91q20 0 71 16v-119l-10 -3q-57 -19 -106 -19q-93 0 -151 50t-58 130q0 97 117 201h-741v1365h871v-250h-578v-292h528v-238h-528v-335h590v-250h-8z" />
    <glyph glyph-name="Ecaron" unicode="&#x11a;" horiz-adv-x="1085" vert-adv-y="2457" 
d="M117 0v1365h871v-250h-578v-292h528v-238h-528v-335h590v-250h-883zM851 1734l-190 -259h-234l-191 259h215l89 -121l86 121h225z" />
    <glyph glyph-name="Ecaron" unicode="&#x11b;" horiz-adv-x="1085" vert-adv-y="2457" 
d="M117 0v1365h871v-250h-578v-292h528v-238h-528v-335h590v-250h-883zM851 1734l-190 -259h-234l-191 259h215l89 -121l86 121h225z" />
    <glyph glyph-name="Gcircumflex" unicode="&#x11c;" horiz-adv-x="1271" vert-adv-y="2457" 
d="M1171 0h-215v154q-81 -105 -155.5 -146t-182.5 -41q-257 0 -406 207q-144 200 -144 501q0 302 151 504q162 218 431 218q229 0 377 -170q59 -69 88 -139.5t41 -173.5l-285 -1q-15 85 -48 135q-63 99 -177 99q-138 0 -212 -131q-73 -127 -73 -337q0 -224 82 -351
q75 -115 210 -115q111 0 176.5 79t76.5 224h-245v221h510v-737zM951 1475h-225l-86 121l-88 -121h-216l191 259h233z" />
    <glyph glyph-name="Gcircumflex" unicode="&#x11d;" horiz-adv-x="1271" vert-adv-y="2457" 
d="M1171 0h-215v154q-81 -105 -155.5 -146t-182.5 -41q-257 0 -406 207q-144 200 -144 501q0 302 151 504q162 218 431 218q229 0 377 -170q59 -69 88 -139.5t41 -173.5l-285 -1q-15 85 -48 135q-63 99 -177 99q-138 0 -212 -131q-73 -127 -73 -337q0 -224 82 -351
q75 -115 210 -115q111 0 176.5 79t76.5 224h-245v221h510v-737zM951 1475h-225l-86 121l-88 -121h-216l191 259h233z" />
    <glyph glyph-name="Gbreve" unicode="&#x11e;" horiz-adv-x="1271" vert-adv-y="2457" 
d="M1171 0h-215v154q-81 -105 -155.5 -146t-182.5 -41q-257 0 -406 207q-144 200 -144 501q0 302 151 504q162 218 431 218q229 0 377 -170q59 -69 88 -139.5t41 -173.5l-285 -1q-15 85 -48 135q-63 99 -177 99q-138 0 -212 -131q-73 -127 -73 -337q0 -224 82 -351
q75 -115 210 -115q111 0 176.5 79t76.5 224h-245v221h510v-737zM343 1720h139q28 -107 154 -107t153 107h139q-2 -68 -24 -112q-68 -141 -268 -141q-220 0 -278 164q-12 34 -15 89z" />
    <glyph glyph-name="Gbreve" unicode="&#x11f;" horiz-adv-x="1271" vert-adv-y="2457" 
d="M1171 0h-215v154q-81 -105 -155.5 -146t-182.5 -41q-257 0 -406 207q-144 200 -144 501q0 302 151 504q162 218 431 218q229 0 377 -170q59 -69 88 -139.5t41 -173.5l-285 -1q-15 85 -48 135q-63 99 -177 99q-138 0 -212 -131q-73 -127 -73 -337q0 -224 82 -351
q75 -115 210 -115q111 0 176.5 79t76.5 224h-245v221h510v-737zM343 1720h139q28 -107 154 -107t153 107h139q-2 -68 -24 -112q-68 -141 -268 -141q-220 0 -278 164q-12 34 -15 89z" />
    <glyph glyph-name="Gdotaccent" unicode="&#x120;" horiz-adv-x="1271" vert-adv-y="2457" 
d="M1171 0h-215v154q-81 -105 -155.5 -146t-182.5 -41q-257 0 -406 207q-144 200 -144 501q0 302 151 504q162 218 431 218q229 0 377 -170q59 -69 88 -139.5t41 -173.5l-285 -1q-15 85 -48 135q-63 99 -177 99q-138 0 -212 -131q-73 -127 -73 -337q0 -224 82 -351
q75 -115 210 -115q111 0 176.5 79t76.5 224h-245v221h510v-737zM756 1693v-246h-237v246h237z" />
    <glyph glyph-name="Gdotaccent" unicode="&#x121;" horiz-adv-x="1271" vert-adv-y="2457" 
d="M1171 0h-215v154q-81 -105 -155.5 -146t-182.5 -41q-257 0 -406 207q-144 200 -144 501q0 302 151 504q162 218 431 218q229 0 377 -170q59 -69 88 -139.5t41 -173.5l-285 -1q-15 85 -48 135q-63 99 -177 99q-138 0 -212 -131q-73 -127 -73 -337q0 -224 82 -351
q75 -115 210 -115q111 0 176.5 79t76.5 224h-245v221h510v-737zM756 1693v-246h-237v246h237z" />
    <glyph glyph-name="Gcommaaccent" unicode="&#x122;" horiz-adv-x="1271" vert-adv-y="2457" 
d="M1171 0h-215v154q-81 -105 -155.5 -146t-182.5 -41q-257 0 -406 207q-144 200 -144 501q0 302 151 504q162 218 431 218q229 0 377 -170q59 -69 88 -139.5t41 -173.5l-285 -1q-15 85 -48 135q-63 99 -177 99q-138 0 -212 -131q-73 -127 -73 -337q0 -224 82 -351
q75 -115 210 -115q111 0 176.5 79t76.5 224h-245v221h510v-737zM749 -95v-147q0 -110 -32 -155q-51 -72 -192 -78v89q65 7 87 26t28 73h-115v192h224z" />
    <glyph glyph-name="Gcommaaccent" unicode="&#x123;" horiz-adv-x="1271" vert-adv-y="2457" 
d="M1171 0h-215v154q-81 -105 -155.5 -146t-182.5 -41q-257 0 -406 207q-144 200 -144 501q0 302 151 504q162 218 431 218q229 0 377 -170q59 -69 88 -139.5t41 -173.5l-285 -1q-15 85 -48 135q-63 99 -177 99q-138 0 -212 -131q-73 -127 -73 -337q0 -224 82 -351
q75 -115 210 -115q111 0 176.5 79t76.5 224h-245v221h510v-737zM749 -95v-147q0 -110 -32 -155q-51 -72 -192 -78v89q65 7 87 26t28 73h-115v192h224z" />
    <glyph glyph-name="Hcircumflex" unicode="&#x124;" horiz-adv-x="1254" vert-adv-y="2457" 
d="M117 0v1365h293v-519h435v519h293v-1365h-293v596h-435v-596h-293zM936 1475h-225l-86 121l-88 -121h-216l191 259h233z" />
    <glyph glyph-name="Hcircumflex" unicode="&#x125;" horiz-adv-x="1254" vert-adv-y="2457" 
d="M117 0v1365h293v-519h435v519h293v-1365h-293v596h-435v-596h-293zM936 1475h-225l-86 121l-88 -121h-216l191 259h233z" />
    <glyph glyph-name="Hbar" unicode="&#x126;" horiz-adv-x="1287" vert-adv-y="2457" 
d="M133 986h-109v157h109v222h293v-222h435v222h293v-222h109v-157h-109v-986h-293v596h-435v-596h-293v986zM426 986v-140h435v140h-435z" />
    <glyph glyph-name="Hbar" unicode="&#x127;" horiz-adv-x="1287" vert-adv-y="2457" 
d="M133 986h-109v157h109v222h293v-222h435v222h293v-222h109v-157h-109v-986h-293v596h-435v-596h-293v986zM426 986v-140h435v140h-435z" />
    <glyph glyph-name="Itilde" unicode="&#x128;" horiz-adv-x="526" vert-adv-y="2457" 
d="M117 0v1365h293v-1365h-293zM576 1734q-38 -253 -204 -253q-26 0 -40 4.5t-74 31.5q-92 40 -107 40q-43 0 -59 -82h-134q1 10 2 15q15 103 70 169.5t125 66.5q44 0 118 -35q76 -35 106 -35q22 0 35.5 16t28.5 62h133z" />
    <glyph glyph-name="Itilde" unicode="&#x129;" horiz-adv-x="526" vert-adv-y="2457" 
d="M117 0v1365h293v-1365h-293zM576 1734q-38 -253 -204 -253q-26 0 -40 4.5t-74 31.5q-92 40 -107 40q-43 0 -59 -82h-134q1 10 2 15q15 103 70 169.5t125 66.5q44 0 118 -35q76 -35 106 -35q22 0 35.5 16t28.5 62h133z" />
    <glyph glyph-name="Imacron" unicode="&#x12a;" horiz-adv-x="526" vert-adv-y="2457" 
d="M157 0v1365h293v-1365h-293zM597 1658v-157h-587v157h587z" />
    <glyph glyph-name="Imacron" unicode="&#x12b;" horiz-adv-x="526" vert-adv-y="2457" 
d="M157 0v1365h293v-1365h-293zM597 1658v-157h-587v157h587z" />
    <glyph glyph-name="Ibreve" unicode="&#x12c;" horiz-adv-x="526" vert-adv-y="2457" 
d="M117 0v1365h293v-1365h-293zM-31 1720h139q28 -107 154 -107t153 107h139q-2 -68 -24 -112q-68 -141 -268 -141q-220 0 -278 164q-12 34 -15 89z" />
    <glyph glyph-name="Ibreve" unicode="&#x12d;" horiz-adv-x="526" vert-adv-y="2457" 
d="M117 0v1365h293v-1365h-293zM-31 1720h139q28 -107 154 -107t153 107h139q-2 -68 -24 -112q-68 -141 -268 -141q-220 0 -278 164q-12 34 -15 89z" />
    <glyph glyph-name="Iogonek" unicode="&#x12e;" horiz-adv-x="526" vert-adv-y="2457" 
d="M407 0q-91 -79 -91 -165q0 -91 94 -91q20 0 70 16l1 -119l-11 -3q-57 -19 -105 -19q-93 0 -151 50t-58 130q0 97 117 201h-156v1365h293v-1365h-3z" />
    <glyph glyph-name="Iogonek" unicode="&#x12f;" horiz-adv-x="526" vert-adv-y="2457" 
d="M407 0q-91 -79 -91 -165q0 -91 94 -91q20 0 70 16l1 -119l-11 -3q-57 -19 -105 -19q-93 0 -151 50t-58 130q0 97 117 201h-156v1365h293v-1365h-3z" />
    <glyph glyph-name="Idotaccent" unicode="&#x130;" horiz-adv-x="526" vert-adv-y="2457" 
d="M117 0v1365h293v-1365h-293zM382 1693v-246h-237v246h237z" />
    <glyph glyph-name="IJ" unicode="&#x132;" horiz-adv-x="1126" vert-adv-y="2457" 
d="M117 0v1365h293v-1365h-293zM482 -19v233q60 -15 99 -15q104 0 136 112q15 53 15 236v818h293v-846q0 -146 -16 -232t-55 -150q-103 -170 -344 -170q-58 0 -128 14z" />
    <glyph glyph-name="Jcircumflex" unicode="&#x134;" horiz-adv-x="654" vert-adv-y="2457" 
d="M10 -19v233q60 -15 100 -15q103 0 136 112q15 54 15 236v818h293v-846q0 -146 -16 -232t-55 -150q-103 -170 -344 -170q-58 0 -129 14zM716 1475h-225l-86 121l-88 -121h-216l191 259h233z" />
    <glyph glyph-name="Jcircumflex" unicode="&#x135;" horiz-adv-x="654" vert-adv-y="2457" 
d="M10 -19v233q60 -15 100 -15q103 0 136 112q15 54 15 236v818h293v-846q0 -146 -16 -232t-55 -150q-103 -170 -344 -170q-58 0 -129 14zM716 1475h-225l-86 121l-88 -121h-216l191 259h233z" />
    <glyph glyph-name="Kcommaaccent" unicode="&#x136;" horiz-adv-x="1180" vert-adv-y="2457" 
d="M117 0v1365h293v-516l406 516h327l-465 -563l503 -802h-328l-360 576l-83 -100v-476h-293zM721 -95v-147q0 -110 -32 -155q-51 -72 -192 -78v89q65 7 87 26t28 73h-115v192h224z" />
    <glyph glyph-name="Kcommaaccent" unicode="&#x137;" horiz-adv-x="1180" vert-adv-y="2457" 
d="M117 0v1365h293v-516l406 516h327l-465 -563l503 -802h-328l-360 576l-83 -100v-476h-293zM721 -95v-147q0 -110 -32 -155q-51 -72 -192 -78v89q65 7 87 26t28 73h-115v192h224z" />
    <glyph glyph-name="Lacute" unicode="&#x139;" horiz-adv-x="1007" vert-adv-y="2457" 
d="M117 0v1365h293v-1111h536v-254h-829zM789 1720l-198 -246h-233l184 246h247z" />
    <glyph glyph-name="Lacute" unicode="&#x13a;" horiz-adv-x="1007" vert-adv-y="2457" 
d="M117 0v1365h293v-1111h536v-254h-829zM789 1720l-198 -246h-233l184 246h247z" />
    <glyph glyph-name="Lcommaaccent" unicode="&#x13b;" horiz-adv-x="1007" vert-adv-y="2457" 
d="M117 0v1365h293v-1111h536v-254h-829zM634 -95v-147q0 -110 -32 -155q-51 -72 -192 -78v89q65 7 87 26t28 73h-115v192h224z" />
    <glyph glyph-name="Lcommaaccent" unicode="&#x13c;" horiz-adv-x="1007" vert-adv-y="2457" 
d="M117 0v1365h293v-1111h536v-254h-829zM634 -95v-147q0 -110 -32 -155q-51 -72 -192 -78v89q65 7 87 26t28 73h-115v192h224z" />
    <glyph glyph-name="Lcaron" unicode="&#x13d;" horiz-adv-x="1007" vert-adv-y="2457" 
d="M117 0v1365h293v-1111h536v-254h-829zM839 1365v-147q0 -110 -32 -155q-51 -72 -192 -78v89q65 7 87 26t28 73h-115v192h224z" />
    <glyph glyph-name="Lcaron" unicode="&#x13e;" horiz-adv-x="1007" vert-adv-y="2457" 
d="M117 0v1365h293v-1111h536v-254h-829zM839 1365v-147q0 -110 -32 -155q-51 -72 -192 -78v89q65 7 87 26t28 73h-115v192h224z" />
    <glyph glyph-name="Ldot" unicode="&#x13f;" horiz-adv-x="1007" vert-adv-y="2457" 
d="M117 0v1365h293v-1111h536v-254h-829zM737 825v-246h-237v246h237z" />
    <glyph glyph-name="Ldot" unicode="&#x140;" horiz-adv-x="1007" vert-adv-y="2457" 
d="M117 0v1365h293v-1111h536v-254h-829zM737 825v-246h-237v246h237z" />
    <glyph glyph-name="Lslash" unicode="&#x141;" horiz-adv-x="1007" vert-adv-y="2457" 
d="M10 385v234l106 79v667h293v-468l195 141v-234l-195 -141v-409h537v-254h-830v464z" />
    <glyph glyph-name="Lslash" unicode="&#x142;" horiz-adv-x="1007" vert-adv-y="2457" 
d="M10 385v234l106 79v667h293v-468l195 141v-234l-195 -141v-409h537v-254h-830v464z" />
    <glyph glyph-name="Nacute" unicode="&#x143;" horiz-adv-x="1238" vert-adv-y="2457" 
d="M117 0v1365l296 1l428 -879v878h281v-1365h-293l-431 877v-877h-281zM904 1720l-198 -246h-233l184 246h247z" />
    <glyph glyph-name="Nacute" unicode="&#x144;" horiz-adv-x="1238" vert-adv-y="2457" 
d="M117 0v1365l296 1l428 -879v878h281v-1365h-293l-431 877v-877h-281zM904 1720l-198 -246h-233l184 246h247z" />
    <glyph glyph-name="Ncommaaccent" unicode="&#x145;" horiz-adv-x="1238" vert-adv-y="2457" 
d="M117 0v1365l296 1l428 -879v878h281v-1365h-293l-431 877v-877h-281zM749 -95v-147q0 -110 -32 -155q-51 -72 -192 -78v89q65 7 87 26t28 73h-115v192h224z" />
    <glyph glyph-name="Ncommaaccent" unicode="&#x146;" horiz-adv-x="1238" vert-adv-y="2457" 
d="M117 0v1365l296 1l428 -879v878h281v-1365h-293l-431 877v-877h-281zM749 -95v-147q0 -110 -32 -155q-51 -72 -192 -78v89q65 7 87 26t28 73h-115v192h224z" />
    <glyph glyph-name="Ncaron" unicode="&#x147;" horiz-adv-x="1238" vert-adv-y="2457" 
d="M117 0v1365l296 1l428 -879v878h281v-1365h-293l-431 877v-877h-281zM927 1734l-190 -259h-234l-191 259h215l89 -121l86 121h225z" />
    <glyph glyph-name="Ncaron" unicode="&#x148;" horiz-adv-x="1238" vert-adv-y="2457" 
d="M117 0v1365l296 1l428 -879v878h281v-1365h-293l-431 877v-877h-281zM927 1734l-190 -259h-234l-191 259h215l89 -121l86 121h225z" />
    <glyph glyph-name="Eng" unicode="&#x14a;" horiz-adv-x="1249" vert-adv-y="2457" 
d="M117 1365h293v-175q55 79 99 115q98 83 235 83q144 0 251 -91q77 -66 110 -171.5t33 -288.5v-518q0 -226 -75 -324q-104 -137 -305 -137q-73 0 -164 29v251q54 -30 99 -30q85 0 122 68q30 56 30 246v444q0 138 -32 191q-49 81 -167 81q-125 0 -180.5 -93.5t-55.5 -302.5
v-742h-293v1365z" />
    <glyph glyph-name="Eng" unicode="&#x14b;" horiz-adv-x="1249" vert-adv-y="2457" 
d="M117 1365h293v-175q55 79 99 115q98 83 235 83q144 0 251 -91q77 -66 110 -171.5t33 -288.5v-518q0 -226 -75 -324q-104 -137 -305 -137q-73 0 -164 29v251q54 -30 99 -30q85 0 122 68q30 56 30 246v444q0 138 -32 191q-49 81 -167 81q-125 0 -180.5 -93.5t-55.5 -302.5
v-742h-293v1365z" />
    <glyph glyph-name="Omacron" unicode="&#x14c;" horiz-adv-x="1299" vert-adv-y="2457" 
d="M653 1396q243 0 400 -176q179 -199 179 -538q0 -290 -135 -485q-80 -115 -202 -176q-109 -54 -242 -54q-290 0 -453 235q-132 190 -132 490q0 326 171 520q162 184 414 184zM651 1146q-136 0 -210 -127q-80 -138 -80 -329q0 -210 79 -346q33 -57 92 -92t122 -35
q60 0 113.5 31.5t86.5 86.5q85 141 85 351q0 198 -78 333q-74 127 -210 127zM943 1658v-157h-587v157h587z" />
    <glyph glyph-name="Omacron" unicode="&#x14d;" horiz-adv-x="1299" vert-adv-y="2457" 
d="M653 1396q243 0 400 -176q179 -199 179 -538q0 -290 -135 -485q-80 -115 -202 -176q-109 -54 -242 -54q-290 0 -453 235q-132 190 -132 490q0 326 171 520q162 184 414 184zM651 1146q-136 0 -210 -127q-80 -138 -80 -329q0 -210 79 -346q33 -57 92 -92t122 -35
q60 0 113.5 31.5t86.5 86.5q85 141 85 351q0 198 -78 333q-74 127 -210 127zM943 1658v-157h-587v157h587z" />
    <glyph glyph-name="Obreve" unicode="&#x14e;" horiz-adv-x="1299" vert-adv-y="2457" 
d="M653 1396q243 0 400 -176q179 -199 179 -538q0 -290 -135 -485q-80 -115 -202 -176q-109 -54 -242 -54q-290 0 -453 235q-132 190 -132 490q0 326 171 520q162 184 414 184zM651 1146q-136 0 -210 -127q-80 -138 -80 -329q0 -210 79 -346q33 -57 92 -92t122 -35
q60 0 113.5 31.5t86.5 86.5q85 141 85 351q0 198 -78 333q-74 127 -210 127zM357 1720h139q28 -107 154 -107t153 107h139q-2 -68 -24 -112q-68 -141 -268 -141q-220 0 -278 164q-12 34 -15 89z" />
    <glyph glyph-name="Obreve" unicode="&#x14f;" horiz-adv-x="1299" vert-adv-y="2457" 
d="M653 1396q243 0 400 -176q179 -199 179 -538q0 -290 -135 -485q-80 -115 -202 -176q-109 -54 -242 -54q-290 0 -453 235q-132 190 -132 490q0 326 171 520q162 184 414 184zM651 1146q-136 0 -210 -127q-80 -138 -80 -329q0 -210 79 -346q33 -57 92 -92t122 -35
q60 0 113.5 31.5t86.5 86.5q85 141 85 351q0 198 -78 333q-74 127 -210 127zM357 1720h139q28 -107 154 -107t153 107h139q-2 -68 -24 -112q-68 -141 -268 -141q-220 0 -278 164q-12 34 -15 89z" />
    <glyph glyph-name="Ohungarumlaut" unicode="&#x150;" horiz-adv-x="1299" vert-adv-y="2457" 
d="M653 1396q243 0 400 -176q179 -199 179 -538q0 -290 -135 -485q-80 -115 -202 -176q-109 -54 -242 -54q-290 0 -453 235q-132 190 -132 490q0 326 171 520q162 184 414 184zM651 1146q-136 0 -210 -127q-80 -138 -80 -329q0 -210 79 -346q33 -57 92 -92t122 -35
q60 0 113.5 31.5t86.5 86.5q85 141 85 351q0 198 -78 333q-74 127 -210 127zM730 1720l-198 -246h-233l184 246h247zM1140 1720l-199 -246h-232l183 246h248z" />
    <glyph glyph-name="Ohungarumlaut" unicode="&#x151;" horiz-adv-x="1299" vert-adv-y="2457" 
d="M653 1396q243 0 400 -176q179 -199 179 -538q0 -290 -135 -485q-80 -115 -202 -176q-109 -54 -242 -54q-290 0 -453 235q-132 190 -132 490q0 326 171 520q162 184 414 184zM651 1146q-136 0 -210 -127q-80 -138 -80 -329q0 -210 79 -346q33 -57 92 -92t122 -35
q60 0 113.5 31.5t86.5 86.5q85 141 85 351q0 198 -78 333q-74 127 -210 127zM730 1720l-198 -246h-233l184 246h247zM1140 1720l-199 -246h-232l183 246h248z" />
    <glyph glyph-name="OE" unicode="&#x152;" horiz-adv-x="1801" vert-adv-y="2457" 
d="M1704 1365v-250h-551v-292h501v-238h-501v-335h562v-250h-814v111q-119 -144 -295 -144q-166 0 -305 115q-233 194 -233 601q0 334 163 530q78 93 191 143q92 41 190 41q168 0 289 -145v113h803zM637 1147q-129 0 -200 -127q-76 -138 -76 -329q0 -210 75 -347
q32 -57 88 -92t116 -35q57 0 108 31.5t82 86.5q81 141 81 351q0 199 -74 333q-70 128 -200 128z" />
    <glyph glyph-name="OE" unicode="&#x153;" horiz-adv-x="1801" vert-adv-y="2457" 
d="M1704 1365v-250h-551v-292h501v-238h-501v-335h562v-250h-814v111q-119 -144 -295 -144q-166 0 -305 115q-233 194 -233 601q0 334 163 530q78 93 191 143q92 41 190 41q168 0 289 -145v113h803zM637 1147q-129 0 -200 -127q-76 -138 -76 -329q0 -210 75 -347
q32 -57 88 -92t116 -35q57 0 108 31.5t82 86.5q81 141 81 351q0 199 -74 333q-70 128 -200 128z" />
    <glyph glyph-name="Racute" unicode="&#x154;" horiz-adv-x="1215" vert-adv-y="2457" 
d="M117 0v1365h525q206 0 319 -90q129 -103 129 -291q0 -117 -50.5 -204.5t-145.5 -134.5q86 -30 129 -104q27 -45 38 -108.5t23 -238.5q6 -80 15 -117.5t32 -76.5h-302q-15 36 -19 64.5t-15 189.5q-8 101 -23.5 154.5t-45.5 84.5q-43 43 -148 43h-168v-536h-293zM410 757
h161q133 0 183 56q43 49 43 136q0 95 -53 139t-167 44h-167v-375zM893 1720l-198 -246h-233l184 246h247z" />
    <glyph glyph-name="Racute" unicode="&#x155;" horiz-adv-x="1215" vert-adv-y="2457" 
d="M117 0v1365h525q206 0 319 -90q129 -103 129 -291q0 -117 -50.5 -204.5t-145.5 -134.5q86 -30 129 -104q27 -45 38 -108.5t23 -238.5q6 -80 15 -117.5t32 -76.5h-302q-15 36 -19 64.5t-15 189.5q-8 101 -23.5 154.5t-45.5 84.5q-43 43 -148 43h-168v-536h-293zM410 757
h161q133 0 183 56q43 49 43 136q0 95 -53 139t-167 44h-167v-375zM893 1720l-198 -246h-233l184 246h247z" />
    <glyph glyph-name="Rcommaaccent" unicode="&#x156;" horiz-adv-x="1215" vert-adv-y="2457" 
d="M117 0v1365h525q206 0 319 -90q129 -103 129 -291q0 -117 -50.5 -204.5t-145.5 -134.5q86 -30 129 -104q27 -45 38 -108.5t23 -238.5q6 -80 15 -117.5t32 -76.5h-302q-15 36 -19 64.5t-15 189.5q-8 101 -23.5 154.5t-45.5 84.5q-43 43 -148 43h-168v-536h-293zM410 757
h161q133 0 183 56q43 49 43 136q0 95 -53 139t-167 44h-167v-375zM719 -95v-147q0 -110 -32 -155q-51 -72 -192 -78v89q65 7 87 26t28 73h-115v192h224z" />
    <glyph glyph-name="Rcommaaccent" unicode="&#x157;" horiz-adv-x="1215" vert-adv-y="2457" 
d="M117 0v1365h525q206 0 319 -90q129 -103 129 -291q0 -117 -50.5 -204.5t-145.5 -134.5q86 -30 129 -104q27 -45 38 -108.5t23 -238.5q6 -80 15 -117.5t32 -76.5h-302q-15 36 -19 64.5t-15 189.5q-8 101 -23.5 154.5t-45.5 84.5q-43 43 -148 43h-168v-536h-293zM410 757
h161q133 0 183 56q43 49 43 136q0 95 -53 139t-167 44h-167v-375zM719 -95v-147q0 -110 -32 -155q-51 -72 -192 -78v89q65 7 87 26t28 73h-115v192h224z" />
    <glyph glyph-name="Rcaron" unicode="&#x158;" horiz-adv-x="1215" vert-adv-y="2457" 
d="M117 0v1365h525q206 0 319 -90q129 -103 129 -291q0 -117 -50.5 -204.5t-145.5 -134.5q86 -30 129 -104q27 -45 38 -108.5t23 -238.5q6 -80 15 -117.5t32 -76.5h-302q-15 36 -19 64.5t-15 189.5q-8 101 -23.5 154.5t-45.5 84.5q-43 43 -148 43h-168v-536h-293zM410 757
h161q133 0 183 56q43 49 43 136q0 95 -53 139t-167 44h-167v-375zM916 1734l-190 -259h-234l-191 259h215l89 -121l86 121h225z" />
    <glyph glyph-name="Rcaron" unicode="&#x159;" horiz-adv-x="1215" vert-adv-y="2457" 
d="M117 0v1365h525q206 0 319 -90q129 -103 129 -291q0 -117 -50.5 -204.5t-145.5 -134.5q86 -30 129 -104q27 -45 38 -108.5t23 -238.5q6 -80 15 -117.5t32 -76.5h-302q-15 36 -19 64.5t-15 189.5q-8 101 -23.5 154.5t-45.5 84.5q-43 43 -148 43h-168v-536h-293zM410 757
h161q133 0 183 56q43 49 43 136q0 95 -53 139t-167 44h-167v-375zM916 1734l-190 -259h-234l-191 259h215l89 -121l86 121h225z" />
    <glyph glyph-name="Sacute" unicode="&#x15a;" horiz-adv-x="1062" vert-adv-y="2457" 
d="M51 399h295q12 -80 37 -119q52 -80 150 -80q79 0 128 47t49 123q0 79 -67 134q-28 23 -57.5 36.5t-124.5 47.5q-168 59 -243 118q-149 118 -149 309q0 164 104 267q116 114 321 114q197 0 317 -101t146 -290h-286q-10 79 -50 115q-48 42 -129 42q-72 0 -112.5 -36.5
t-40.5 -101.5q0 -72 53.5 -114t212.5 -94q173 -56 268 -131q138 -110 138 -296t-128 -302q-133 -120 -355 -120q-265 0 -395 199q-66 102 -82 233zM826 1720l-198 -246h-233l184 246h247z" />
    <glyph glyph-name="Sacute" unicode="&#x15b;" horiz-adv-x="1062" vert-adv-y="2457" 
d="M51 399h295q12 -80 37 -119q52 -80 150 -80q79 0 128 47t49 123q0 79 -67 134q-28 23 -57.5 36.5t-124.5 47.5q-168 59 -243 118q-149 118 -149 309q0 164 104 267q116 114 321 114q197 0 317 -101t146 -290h-286q-10 79 -50 115q-48 42 -129 42q-72 0 -112.5 -36.5
t-40.5 -101.5q0 -72 53.5 -114t212.5 -94q173 -56 268 -131q138 -110 138 -296t-128 -302q-133 -120 -355 -120q-265 0 -395 199q-66 102 -82 233zM826 1720l-198 -246h-233l184 246h247z" />
    <glyph glyph-name="Scircumflex" unicode="&#x15c;" horiz-adv-x="1062" vert-adv-y="2457" 
d="M51 399h295q12 -80 37 -119q52 -80 150 -80q79 0 128 47t49 123q0 79 -67 134q-28 23 -57.5 36.5t-124.5 47.5q-168 59 -243 118q-149 118 -149 309q0 164 104 267q116 114 321 114q197 0 317 -101t146 -290h-286q-10 79 -50 115q-48 42 -129 42q-72 0 -112.5 -36.5
t-40.5 -101.5q0 -72 53.5 -114t212.5 -94q173 -56 268 -131q138 -110 138 -296t-128 -302q-133 -120 -355 -120q-265 0 -395 199q-66 102 -82 233zM829 1475h-225l-86 121l-88 -121h-216l191 259h233z" />
    <glyph glyph-name="Scircumflex" unicode="&#x15d;" horiz-adv-x="1062" vert-adv-y="2457" 
d="M51 399h295q12 -80 37 -119q52 -80 150 -80q79 0 128 47t49 123q0 79 -67 134q-28 23 -57.5 36.5t-124.5 47.5q-168 59 -243 118q-149 118 -149 309q0 164 104 267q116 114 321 114q197 0 317 -101t146 -290h-286q-10 79 -50 115q-48 42 -129 42q-72 0 -112.5 -36.5
t-40.5 -101.5q0 -72 53.5 -114t212.5 -94q173 -56 268 -131q138 -110 138 -296t-128 -302q-133 -120 -355 -120q-265 0 -395 199q-66 102 -82 233zM829 1475h-225l-86 121l-88 -121h-216l191 259h233z" />
    <glyph glyph-name="Scedilla" unicode="&#x15e;" horiz-adv-x="1083" vert-adv-y="2457" 
d="M51 412h295q14 -85 41 -128q57 -85 164 -85q89 0 137 54q42 46 42 116q0 79 -67 134q-29 23 -57 36t-125 48q-168 60 -242 119q-149 117 -149 309q0 164 104 267q115 114 320 114q197 0 317 -101t147 -290h-287q-10 79 -50 115q-47 42 -128 42q-72 0 -112.5 -36.5
t-40.5 -101.5q0 -73 53.5 -114.5t212.5 -93.5q172 -56 267 -132q138 -110 138 -296q0 -145 -83 -252q-129 -167 -404 -169l-27 -71q23 10 53 10q89 0 143 -41.5t54 -108.5q0 -75 -58.5 -120.5t-155.5 -45.5q-78 0 -131 30.5t-61 80.5h133q8 -31 52 -31q68 0 68 78
q0 79 -68 79q-38 0 -48 -27h-129l66 177q-159 30 -261 145.5t-123 289.5z" />
    <glyph glyph-name="Scedilla" unicode="&#x15f;" horiz-adv-x="1083" vert-adv-y="2457" 
d="M51 412h295q14 -85 41 -128q57 -85 164 -85q89 0 137 54q42 46 42 116q0 79 -67 134q-29 23 -57 36t-125 48q-168 60 -242 119q-149 117 -149 309q0 164 104 267q115 114 320 114q197 0 317 -101t147 -290h-287q-10 79 -50 115q-47 42 -128 42q-72 0 -112.5 -36.5
t-40.5 -101.5q0 -73 53.5 -114.5t212.5 -93.5q172 -56 267 -132q138 -110 138 -296q0 -145 -83 -252q-129 -167 -404 -169l-27 -71q23 10 53 10q89 0 143 -41.5t54 -108.5q0 -75 -58.5 -120.5t-155.5 -45.5q-78 0 -131 30.5t-61 80.5h133q8 -31 52 -31q68 0 68 78
q0 79 -68 79q-38 0 -48 -27h-129l66 177q-159 30 -261 145.5t-123 289.5z" />
    <glyph glyph-name="Scaron" unicode="&#x160;" horiz-adv-x="1062" vert-adv-y="2457" 
d="M51 399h295q12 -80 37 -119q52 -80 150 -80q79 0 128 47t49 123q0 79 -67 134q-28 23 -57.5 36.5t-124.5 47.5q-168 59 -243 118q-149 118 -149 309q0 164 104 267q116 114 321 114q197 0 317 -101t146 -290h-286q-10 79 -50 115q-48 42 -129 42q-72 0 -112.5 -36.5
t-40.5 -101.5q0 -72 53.5 -114t212.5 -94q173 -56 268 -131q138 -110 138 -296t-128 -302q-133 -120 -355 -120q-265 0 -395 199q-66 102 -82 233zM849 1734l-190 -259h-234l-191 259h215l89 -121l86 121h225z" />
    <glyph glyph-name="Scaron" unicode="&#x161;" horiz-adv-x="1062" vert-adv-y="2457" 
d="M51 399h295q12 -80 37 -119q52 -80 150 -80q79 0 128 47t49 123q0 79 -67 134q-28 23 -57.5 36.5t-124.5 47.5q-168 59 -243 118q-149 118 -149 309q0 164 104 267q116 114 321 114q197 0 317 -101t146 -290h-286q-10 79 -50 115q-48 42 -129 42q-72 0 -112.5 -36.5
t-40.5 -101.5q0 -72 53.5 -114t212.5 -94q173 -56 268 -131q138 -110 138 -296t-128 -302q-133 -120 -355 -120q-265 0 -395 199q-66 102 -82 233zM849 1734l-190 -259h-234l-191 259h215l89 -121l86 121h225z" />
    <glyph glyph-name="Tcommaaccent" unicode="&#x162;" horiz-adv-x="1047" vert-adv-y="2457" 
d="M376 0v1115h-331v250h957v-250h-333v-1115h-293zM638 -95v-147q0 -110 -32 -155q-51 -72 -192 -78v89q65 7 87 26t28 73h-115v192h224z" />
    <glyph glyph-name="Tcommaaccent" unicode="&#x21b;" horiz-adv-x="1047" vert-adv-y="2457" 
d="M376 0v1115h-331v250h957v-250h-333v-1115h-293zM638 -95v-147q0 -110 -32 -155q-51 -72 -192 -78v89q65 7 87 26t28 73h-115v192h224z" />
    <glyph glyph-name="Tcommaaccent" unicode="&#x21a;" horiz-adv-x="1047" vert-adv-y="2457" 
d="M376 0v1115h-331v250h957v-250h-333v-1115h-293zM638 -95v-147q0 -110 -32 -155q-51 -72 -192 -78v89q65 7 87 26t28 73h-115v192h224z" />
    <glyph glyph-name="Tcommaaccent" unicode="&#x163;" horiz-adv-x="1047" vert-adv-y="2457" 
d="M376 0v1115h-331v250h957v-250h-333v-1115h-293zM638 -95v-147q0 -110 -32 -155q-51 -72 -192 -78v89q65 7 87 26t28 73h-115v192h224z" />
    <glyph glyph-name="Tcaron" unicode="&#x164;" horiz-adv-x="1047" vert-adv-y="2457" 
d="M376 0v1115h-331v250h957v-250h-333v-1115h-293zM831 1734l-190 -259h-234l-191 259h215l89 -121l86 121h225z" />
    <glyph glyph-name="Tcaron" unicode="&#x165;" horiz-adv-x="1047" vert-adv-y="2457" 
d="M376 0v1115h-331v250h957v-250h-333v-1115h-293zM831 1734l-190 -259h-234l-191 259h215l89 -121l86 121h225z" />
    <glyph glyph-name="Tbar" unicode="&#x166;" horiz-adv-x="1047" vert-adv-y="2457" 
d="M376 794h-129v146h129v175h-331v250h957v-250h-333v-175h130v-146h-130v-794h-293v794z" />
    <glyph glyph-name="Tbar" unicode="&#x167;" horiz-adv-x="1047" vert-adv-y="2457" 
d="M376 794h-129v146h129v175h-331v250h957v-250h-333v-175h130v-146h-130v-794h-293v794z" />
    <glyph glyph-name="Utilde" unicode="&#x168;" horiz-adv-x="1217" vert-adv-y="2457" 
d="M100 1365h281v-795q0 -195 54 -272q58 -81 178 -81q130 0 177 111q33 76 33 243v794h293v-779q0 -184 -26 -279q-45 -163 -162 -252q-116 -88 -321 -88q-294 0 -421 198q-47 74 -66.5 170t-19.5 255v775zM937 1734q-38 -253 -204 -253q-26 0 -40 4.5t-74 31.5
q-92 40 -107 40q-43 0 -59 -82h-134q1 10 2 15q15 103 70 169.5t125 66.5q44 0 118 -35q76 -35 106 -35q22 0 35.5 16t28.5 62h133z" />
    <glyph glyph-name="Utilde" unicode="&#x169;" horiz-adv-x="1217" vert-adv-y="2457" 
d="M100 1365h281v-795q0 -195 54 -272q58 -81 178 -81q130 0 177 111q33 76 33 243v794h293v-779q0 -184 -26 -279q-45 -163 -162 -252q-116 -88 -321 -88q-294 0 -421 198q-47 74 -66.5 170t-19.5 255v775zM937 1734q-38 -253 -204 -253q-26 0 -40 4.5t-74 31.5
q-92 40 -107 40q-43 0 -59 -82h-134q1 10 2 15q15 103 70 169.5t125 66.5q44 0 118 -35q76 -35 106 -35q22 0 35.5 16t28.5 62h133z" />
    <glyph glyph-name="Umacron" unicode="&#x16a;" horiz-adv-x="1217" vert-adv-y="2457" 
d="M100 1365h281v-795q0 -195 54 -272q58 -81 178 -81q130 0 177 111q33 76 33 243v794h293v-779q0 -184 -26 -279q-45 -163 -162 -252q-116 -88 -321 -88q-294 0 -421 198q-47 74 -66.5 170t-19.5 255v775zM901 1658v-157h-587v157h587z" />
    <glyph glyph-name="Umacron" unicode="&#x16b;" horiz-adv-x="1217" vert-adv-y="2457" 
d="M100 1365h281v-795q0 -195 54 -272q58 -81 178 -81q130 0 177 111q33 76 33 243v794h293v-779q0 -184 -26 -279q-45 -163 -162 -252q-116 -88 -321 -88q-294 0 -421 198q-47 74 -66.5 170t-19.5 255v775zM901 1658v-157h-587v157h587z" />
    <glyph glyph-name="Ubreve" unicode="&#x16c;" horiz-adv-x="1217" vert-adv-y="2457" 
d="M100 1365h281v-795q0 -195 54 -272q58 -81 178 -81q130 0 177 111q33 76 33 243v794h293v-779q0 -184 -26 -279q-45 -163 -162 -252q-116 -88 -321 -88q-294 0 -421 198q-47 74 -66.5 170t-19.5 255v775zM315 1720h139q28 -107 154 -107t153 107h139q-2 -68 -24 -112
q-68 -141 -268 -141q-220 0 -278 164q-12 34 -15 89z" />
    <glyph glyph-name="Ubreve" unicode="&#x16d;" horiz-adv-x="1217" vert-adv-y="2457" 
d="M100 1365h281v-795q0 -195 54 -272q58 -81 178 -81q130 0 177 111q33 76 33 243v794h293v-779q0 -184 -26 -279q-45 -163 -162 -252q-116 -88 -321 -88q-294 0 -421 198q-47 74 -66.5 170t-19.5 255v775zM315 1720h139q28 -107 154 -107t153 107h139q-2 -68 -24 -112
q-68 -141 -268 -141q-220 0 -278 164q-12 34 -15 89z" />
    <glyph glyph-name="Uring" unicode="&#x16e;" horiz-adv-x="1217" vert-adv-y="2457" 
d="M100 1365h281v-795q0 -195 54 -272q58 -81 178 -81q130 0 177 111q33 76 33 243v794h293v-779q0 -184 -26 -279q-45 -163 -162 -252q-116 -88 -321 -88q-294 0 -421 198q-47 74 -66.5 170t-19.5 255v775zM610 1710q-37 0 -62 -26t-25 -63t24.5 -63t59.5 -26q36 0 61 26
t25 63q0 36 -24.5 62.5t-58.5 26.5zM611 1816q81 0 140 -57t59 -138q0 -80 -59 -137t-143 -57q-85 0 -143 57q-59 57 -59 137q0 81 59.5 138t145.5 57z" />
    <glyph glyph-name="Uring" unicode="&#x16f;" horiz-adv-x="1217" vert-adv-y="2457" 
d="M100 1365h281v-795q0 -195 54 -272q58 -81 178 -81q130 0 177 111q33 76 33 243v794h293v-779q0 -184 -26 -279q-45 -163 -162 -252q-116 -88 -321 -88q-294 0 -421 198q-47 74 -66.5 170t-19.5 255v775zM610 1710q-37 0 -62 -26t-25 -63t24.5 -63t59.5 -26q36 0 61 26
t25 63q0 36 -24.5 62.5t-58.5 26.5zM611 1816q81 0 140 -57t59 -138q0 -80 -59 -137t-143 -57q-85 0 -143 57q-59 57 -59 137q0 81 59.5 138t145.5 57z" />
    <glyph glyph-name="Uhungarumlaut" unicode="&#x170;" horiz-adv-x="1217" vert-adv-y="2457" 
d="M100 1365h281v-795q0 -195 54 -272q58 -81 178 -81q130 0 177 111q33 76 33 243v794h293v-779q0 -184 -26 -279q-45 -163 -162 -252q-116 -88 -321 -88q-294 0 -421 198q-47 74 -66.5 170t-19.5 255v775zM688 1720l-198 -246h-233l184 246h247zM1098 1720l-199 -246h-232
l183 246h248z" />
    <glyph glyph-name="Uhungarumlaut" unicode="&#x171;" horiz-adv-x="1217" vert-adv-y="2457" 
d="M100 1365h281v-795q0 -195 54 -272q58 -81 178 -81q130 0 177 111q33 76 33 243v794h293v-779q0 -184 -26 -279q-45 -163 -162 -252q-116 -88 -321 -88q-294 0 -421 198q-47 74 -66.5 170t-19.5 255v775zM688 1720l-198 -246h-233l184 246h247zM1098 1720l-199 -246h-232
l183 246h248z" />
    <glyph glyph-name="Uogonek" unicode="&#x172;" horiz-adv-x="1217" vert-adv-y="2457" 
d="M832 2q-93 -83 -93 -167q0 -42 25 -66.5t69 -24.5q20 0 71 16v-119l-10 -3q-58 -19 -106 -19q-92 0 -150.5 50t-58.5 129q0 94 83 171q-25 -2 -56 -2q-293 0 -420 198q-47 74 -66.5 170t-19.5 255v775h281v-795q0 -195 54 -272q58 -81 178 -81q130 0 177 111
q33 76 33 243v794h293v-779q0 -184 -26 -279q-64 -232 -258 -305z" />
    <glyph glyph-name="Uogonek" unicode="&#x173;" horiz-adv-x="1217" vert-adv-y="2457" 
d="M832 2q-93 -83 -93 -167q0 -42 25 -66.5t69 -24.5q20 0 71 16v-119l-10 -3q-58 -19 -106 -19q-92 0 -150.5 50t-58.5 129q0 94 83 171q-25 -2 -56 -2q-293 0 -420 198q-47 74 -66.5 170t-19.5 255v775h281v-795q0 -195 54 -272q58 -81 178 -81q130 0 177 111
q33 76 33 243v794h293v-779q0 -184 -26 -279q-64 -232 -258 -305z" />
    <glyph glyph-name="Wcircumflex" unicode="&#x174;" horiz-adv-x="1563" vert-adv-y="2457" 
d="M10 1365h294l162 -936l176 936h279l174 -938l165 938h292l-308 -1365h-293l-172 927l-169 -927h-296zM1091 1475h-225l-86 121l-88 -121h-216l191 259h233z" />
    <glyph glyph-name="Wcircumflex" unicode="&#x175;" horiz-adv-x="1563" vert-adv-y="2457" 
d="M10 1365h294l162 -936l176 936h279l174 -938l165 938h292l-308 -1365h-293l-172 927l-169 -927h-296zM1091 1475h-225l-86 121l-88 -121h-216l191 259h233z" />
    <glyph glyph-name="Ycircumflex" unicode="&#x176;" horiz-adv-x="1152" vert-adv-y="2457" 
d="M6 1365h326l246 -540l246 540h321l-423 -837v-528h-293v532zM886 1475h-225l-86 121l-88 -121h-216l191 259h233z" />
    <glyph glyph-name="Ycircumflex" unicode="&#x177;" horiz-adv-x="1152" vert-adv-y="2457" 
d="M6 1365h326l246 -540l246 540h321l-423 -837v-528h-293v532zM886 1475h-225l-86 121l-88 -121h-216l191 259h233z" />
    <glyph glyph-name="Zacute" unicode="&#x179;" horiz-adv-x="1077" vert-adv-y="2457" 
d="M43 0v238l613 877h-569v250h924v-222l-620 -889h638v-254h-986zM823 1720l-198 -246h-233l184 246h247z" />
    <glyph glyph-name="Zacute" unicode="&#x17a;" horiz-adv-x="1077" vert-adv-y="2457" 
d="M43 0v238l613 877h-569v250h924v-222l-620 -889h638v-254h-986zM823 1720l-198 -246h-233l184 246h247z" />
    <glyph glyph-name="Zdotaccent" unicode="&#x17b;" horiz-adv-x="1077" vert-adv-y="2457" 
d="M43 0v238l613 877h-569v250h924v-222l-620 -889h638v-254h-986zM657 1693v-246h-237v246h237z" />
    <glyph glyph-name="Zdotaccent" unicode="&#x17c;" horiz-adv-x="1077" vert-adv-y="2457" 
d="M43 0v238l613 877h-569v250h924v-222l-620 -889h638v-254h-986zM657 1693v-246h-237v246h237z" />
    <glyph glyph-name="Zcaron" unicode="&#x17d;" horiz-adv-x="1077" vert-adv-y="2457" 
d="M43 0v238l613 877h-569v250h924v-222l-620 -889h638v-254h-986zM846 1734l-190 -259h-234l-191 259h215l89 -121l86 121h225z" />
    <glyph glyph-name="Zcaron" unicode="&#x17e;" horiz-adv-x="1077" vert-adv-y="2457" 
d="M43 0v238l613 877h-569v250h924v-222l-620 -889h638v-254h-986zM846 1734l-190 -259h-234l-191 259h215l89 -121l86 121h225z" />
    <glyph glyph-name="florin" unicode="&#x192;" horiz-adv-x="658" vert-adv-y="2457" 
d="M174 758h-132v184h158l12 84q15 109 38 170t65 104q94 97 274 97q4 0 116 -7l-29 -204q-43 6 -72 6q-53 0 -74 -28t-33 -114l-16 -108h153v-184h-179l-137 -976h-281z" />
    <glyph glyph-name="uni01CD" unicode="&#x1cd;" horiz-adv-x="1177" vert-adv-y="2457" 
d="M439 1365h300l432 -1365h-305l-85 305h-389l-86 -305h-300zM455 526h265l-132 471zM893 1734l-190 -259h-234l-191 259h215l89 -121l86 121h225z" />
    <glyph glyph-name="uni01CD" unicode="&#x1ce;" horiz-adv-x="1177" vert-adv-y="2457" 
d="M439 1365h300l432 -1365h-305l-85 305h-389l-86 -305h-300zM455 526h265l-132 471zM893 1734l-190 -259h-234l-191 259h215l89 -121l86 121h225z" />
    <glyph glyph-name="uni01D3" unicode="&#x1d3;" horiz-adv-x="1217" vert-adv-y="2457" 
d="M100 1365h281v-795q0 -195 54 -272q58 -81 178 -81q130 0 177 111q33 76 33 243v794h293v-779q0 -184 -26 -279q-45 -163 -162 -252q-116 -88 -321 -88q-294 0 -421 198q-47 74 -66.5 170t-19.5 255v775zM916 1734l-190 -259h-234l-191 259h215l89 -121l86 121h225z" />
    <glyph glyph-name="uni01D3" unicode="&#x1d4;" horiz-adv-x="1217" vert-adv-y="2457" 
d="M100 1365h281v-795q0 -195 54 -272q58 -81 178 -81q130 0 177 111q33 76 33 243v794h293v-779q0 -184 -26 -279q-45 -163 -162 -252q-116 -88 -321 -88q-294 0 -421 198q-47 74 -66.5 170t-19.5 255v775zM916 1734l-190 -259h-234l-191 259h215l89 -121l86 121h225z" />
    <glyph glyph-name="Gcaron" unicode="&#x1e6;" horiz-adv-x="1271" vert-adv-y="2457" 
d="M1171 0h-215v154q-81 -105 -155.5 -146t-182.5 -41q-257 0 -406 207q-144 200 -144 501q0 302 151 504q162 218 431 218q229 0 377 -170q59 -69 88 -139.5t41 -173.5l-285 -1q-15 85 -48 135q-63 99 -177 99q-138 0 -212 -131q-73 -127 -73 -337q0 -224 82 -351
q75 -115 210 -115q111 0 176.5 79t76.5 224h-245v221h510v-737zM944 1734l-190 -259h-234l-191 259h215l89 -121l86 121h225z" />
    <glyph glyph-name="Gcaron" unicode="&#x1e7;" horiz-adv-x="1271" vert-adv-y="2457" 
d="M1171 0h-215v154q-81 -105 -155.5 -146t-182.5 -41q-257 0 -406 207q-144 200 -144 501q0 302 151 504q162 218 431 218q229 0 377 -170q59 -69 88 -139.5t41 -173.5l-285 -1q-15 85 -48 135q-63 99 -177 99q-138 0 -212 -131q-73 -127 -73 -337q0 -224 82 -351
q75 -115 210 -115q111 0 176.5 79t76.5 224h-245v221h510v-737zM944 1734l-190 -259h-234l-191 259h215l89 -121l86 121h225z" />
    <glyph glyph-name="uni01F4" unicode="&#x1f4;" horiz-adv-x="1271" vert-adv-y="2457" 
d="M1171 0h-215v154q-81 -105 -155.5 -146t-182.5 -41q-257 0 -406 207q-144 200 -144 501q0 302 151 504q162 218 431 218q229 0 377 -170q59 -69 88 -139.5t41 -173.5l-285 -1q-15 85 -48 135q-63 99 -177 99q-138 0 -212 -131q-73 -127 -73 -337q0 -224 82 -351
q75 -115 210 -115q111 0 176.5 79t76.5 224h-245v221h510v-737zM920 1720l-198 -246h-233l184 246h247z" />
    <glyph glyph-name="uni01F4" unicode="&#x1f5;" horiz-adv-x="1271" vert-adv-y="2457" 
d="M1171 0h-215v154q-81 -105 -155.5 -146t-182.5 -41q-257 0 -406 207q-144 200 -144 501q0 302 151 504q162 218 431 218q229 0 377 -170q59 -69 88 -139.5t41 -173.5l-285 -1q-15 85 -48 135q-63 99 -177 99q-138 0 -212 -131q-73 -127 -73 -337q0 -224 82 -351
q75 -115 210 -115q111 0 176.5 79t76.5 224h-245v221h510v-737zM920 1720l-198 -246h-233l184 246h247z" />
    <glyph glyph-name="Scommaaccent" unicode="&#x218;" horiz-adv-x="1062" vert-adv-y="2457" 
d="M51 399h295q12 -80 37 -119q52 -80 150 -80q79 0 128 47t49 123q0 79 -67 134q-28 23 -57.5 36.5t-124.5 47.5q-168 59 -243 118q-149 118 -149 309q0 164 104 267q116 114 321 114q197 0 317 -101t146 -290h-286q-10 79 -50 115q-48 42 -129 42q-72 0 -112.5 -36.5
t-40.5 -101.5q0 -72 53.5 -114t212.5 -94q173 -56 268 -131q138 -110 138 -296t-128 -302q-133 -120 -355 -120q-265 0 -395 199q-66 102 -82 233zM646 -95v-147q0 -110 -32 -155q-51 -72 -192 -78v89q65 7 87 26t28 73h-115v192h224z" />
    <glyph glyph-name="Scommaaccent" unicode="&#x219;" horiz-adv-x="1062" vert-adv-y="2457" 
d="M51 399h295q12 -80 37 -119q52 -80 150 -80q79 0 128 47t49 123q0 79 -67 134q-28 23 -57.5 36.5t-124.5 47.5q-168 59 -243 118q-149 118 -149 309q0 164 104 267q116 114 321 114q197 0 317 -101t146 -290h-286q-10 79 -50 115q-48 42 -129 42q-72 0 -112.5 -36.5
t-40.5 -101.5q0 -72 53.5 -114t212.5 -94q173 -56 268 -131q138 -110 138 -296t-128 -302q-133 -120 -355 -120q-265 0 -395 199q-66 102 -82 233zM646 -95v-147q0 -110 -32 -155q-51 -72 -192 -78v89q65 7 87 26t28 73h-115v192h224z" />
    <glyph glyph-name="Adotaccent" unicode="&#x226;" horiz-adv-x="1177" vert-adv-y="2457" 
d="M439 1365h300l432 -1365h-305l-85 305h-389l-86 -305h-300zM455 526h265l-132 471zM707 1693v-246h-237v246h237z" />
    <glyph glyph-name="Adotaccent" unicode="&#x227;" horiz-adv-x="1177" vert-adv-y="2457" 
d="M439 1365h300l432 -1365h-305l-85 305h-389l-86 -305h-300zM455 526h265l-132 471zM707 1693v-246h-237v246h237z" />
    <glyph glyph-name="afii57929" unicode="&#x2bc;" horiz-adv-x="567" vert-adv-y="2457" 
d="M433 1365v-228q0 -122 -29 -194t-98 -124q-72 -53 -173 -68v144q120 32 127 176h-127v294h300z" />
    <glyph glyph-name="circumflex" unicode="&#x2c6;" horiz-adv-x="1044" vert-adv-y="2457" 
d="M818 1092h-205l-95 147l-95 -147h-197l182 273h228z" />
    <glyph glyph-name="caron" unicode="&#x2c7;" horiz-adv-x="1044" vert-adv-y="2457" 
d="M226 1365h205l95 -147l96 147h196l-182 -273h-228z" />
    <glyph glyph-name="breve" unicode="&#x2d8;" horiz-adv-x="1044" vert-adv-y="2457" 
d="M255 1365h133q26 -120 134 -120q109 0 134 120h134q-3 -73 -22 -120q-62 -153 -246 -153q-201 0 -254 178q-11 36 -13 95z" />
    <glyph glyph-name="dotaccent" unicode="&#x2d9;" horiz-adv-x="1044" vert-adv-y="2457" 
d="M641 1324v-246h-237v246h237z" />
    <glyph glyph-name="ring" unicode="&#x2da;" horiz-adv-x="1044" vert-adv-y="2457" 
d="M524 1349q-37 0 -62 -26.5t-25 -64.5q0 -37 24.5 -63.5t60.5 -26.5q35 0 60 26.5t25 63.5t-24.5 64t-58.5 27zM525 1459q83 0 143 -58q60 -59 60 -143q0 -82 -59 -140q-60 -60 -147 -60q-86 0 -146 58q-60 59 -60 142q0 84 60.5 142.5t148.5 58.5z" />
    <glyph glyph-name="ogonek" unicode="&#x2db;" horiz-adv-x="1044" vert-adv-y="2457" 
d="M682 3q-94 -86 -94 -168q0 -91 94 -91q20 0 71 16v-119l-10 -3q-58 -19 -106 -19q-93 0 -151 50t-58 130q0 98 120 204h134z" />
    <glyph glyph-name="tilde" unicode="&#x2dc;" horiz-adv-x="1044" vert-adv-y="2457" 
d="M812 1359q-34 -254 -187 -254q-36 0 -65.5 11t-101.5 53q-26 15 -45 15q-39 0 -54 -85h-126q15 120 64.5 188t122.5 68q45 0 111 -35q70 -38 99 -39q33 -2 56 78h126z" />
    <glyph glyph-name="hungarumlaut" unicode="&#x2dd;" horiz-adv-x="1045" vert-adv-y="2457" 
d="M589 1365l-199 -273h-205l184 273h220zM999 1365l-199 -273h-205l183 273h221z" />
    <glyph glyph-name="afii10023" unicode="&#x401;" horiz-adv-x="1085" vert-adv-y="2457" 
d="M117 0v1365h871v-250h-578v-292h528v-238h-528v-335h590v-250h-883zM833 1693v-246h-238v246h238zM491 1693v-246h-237v246h237z" />
    <glyph glyph-name="afii10023" unicode="&#x451;" horiz-adv-x="1085" vert-adv-y="2457" 
d="M117 0v1365h871v-250h-578v-292h528v-238h-528v-335h590v-250h-883zM833 1693v-246h-238v246h238zM491 1693v-246h-237v246h237z" />
    <glyph glyph-name="afii10051" unicode="&#x402;" horiz-adv-x="1281" vert-adv-y="2457" 
d="M573 855q95 116 248 116q171 0 266 -126q116 -155 116 -421q0 -138 -31.5 -258t-86.5 -197q-107 -147 -290 -147q-53 0 -125 18v213q47 -14 75 -14q81 0 129 98t48 264q0 172 -48 266.5t-135 94.5q-166 0 -166 -256v-506h-293v1115h-235v250h957v-250h-429v-260z" />
    <glyph glyph-name="afii10051" unicode="&#x452;" horiz-adv-x="1281" vert-adv-y="2457" 
d="M573 855q95 116 248 116q171 0 266 -126q116 -155 116 -421q0 -138 -31.5 -258t-86.5 -197q-107 -147 -290 -147q-53 0 -125 18v213q47 -14 75 -14q81 0 129 98t48 264q0 172 -48 266.5t-135 94.5q-166 0 -166 -256v-506h-293v1115h-235v250h957v-250h-429v-260z" />
    <glyph glyph-name="afii10052" unicode="&#x403;" horiz-adv-x="997" vert-adv-y="2457" 
d="M117 1365h829v-254h-536v-1111h-293v1365zM827 1720l-198 -246h-233l184 246h247z" />
    <glyph glyph-name="afii10052" unicode="&#x453;" horiz-adv-x="997" vert-adv-y="2457" 
d="M117 1365h829v-254h-536v-1111h-293v1365zM827 1720l-198 -246h-233l184 246h247z" />
    <glyph glyph-name="afii10053" unicode="&#x404;" horiz-adv-x="1221" vert-adv-y="2457" 
d="M372 823h423v-238h-429q9 -98 44 -184q74 -184 231 -184q102 0 160 76.5t77 235.5h292q-16 -217 -122 -363q-145 -199 -408 -199q-249 0 -395 171q-177 209 -177 541q0 325 171 530q157 187 408 187q270 0 419 -216q86 -124 96 -274l-289 -1q-14 80 -43 130
q-65 111 -187 111q-106 0 -175.5 -83t-95.5 -240z" />
    <glyph glyph-name="afii10053" unicode="&#x454;" horiz-adv-x="1221" vert-adv-y="2457" 
d="M372 823h423v-238h-429q9 -98 44 -184q74 -184 231 -184q102 0 160 76.5t77 235.5h292q-16 -217 -122 -363q-145 -199 -408 -199q-249 0 -395 171q-177 209 -177 541q0 325 171 530q157 187 408 187q270 0 419 -216q86 -124 96 -274l-289 -1q-14 80 -43 130
q-65 111 -187 111q-106 0 -175.5 -83t-95.5 -240z" />
    <glyph glyph-name="afii10054" unicode="&#x405;" horiz-adv-x="1062" vert-adv-y="2457" 
d="M51 399h295q12 -80 37 -119q52 -80 150 -80q79 0 128 47t49 123q0 79 -67 134q-28 23 -57.5 36.5t-124.5 47.5q-168 59 -243 118q-149 118 -149 309q0 164 104 267q116 114 321 114q197 0 317 -101t146 -290h-286q-10 79 -50 115q-48 42 -129 42q-72 0 -112.5 -36.5
t-40.5 -101.5q0 -72 53.5 -114t212.5 -94q173 -56 268 -131q138 -110 138 -296t-128 -302q-133 -120 -355 -120q-265 0 -395 199q-66 102 -82 233z" />
    <glyph glyph-name="afii10054" unicode="&#x455;" horiz-adv-x="1062" vert-adv-y="2457" 
d="M51 399h295q12 -80 37 -119q52 -80 150 -80q79 0 128 47t49 123q0 79 -67 134q-28 23 -57.5 36.5t-124.5 47.5q-168 59 -243 118q-149 118 -149 309q0 164 104 267q116 114 321 114q197 0 317 -101t146 -290h-286q-10 79 -50 115q-48 42 -129 42q-72 0 -112.5 -36.5
t-40.5 -101.5q0 -72 53.5 -114t212.5 -94q173 -56 268 -131q138 -110 138 -296t-128 -302q-133 -120 -355 -120q-265 0 -395 199q-66 102 -82 233z" />
    <glyph glyph-name="afii10055" unicode="&#x406;" horiz-adv-x="526" vert-adv-y="2457" 
d="M117 0v1365h293v-1365h-293z" />
    <glyph glyph-name="afii10055" unicode="&#x4cf;" horiz-adv-x="526" vert-adv-y="2457" 
d="M117 0v1365h293v-1365h-293z" />
    <glyph glyph-name="afii10055" unicode="&#x4c0;" horiz-adv-x="526" vert-adv-y="2457" 
d="M117 0v1365h293v-1365h-293z" />
    <glyph glyph-name="afii10055" unicode="&#x456;" horiz-adv-x="526" vert-adv-y="2457" 
d="M117 0v1365h293v-1365h-293z" />
    <glyph glyph-name="afii10056" unicode="&#x407;" horiz-adv-x="532" vert-adv-y="2457" 
d="M120 0v1365h293v-1365h-293zM522 1693v-246h-205v246h205zM214 1693v-246h-204v246h204z" />
    <glyph glyph-name="afii10056" unicode="&#x4b7;" horiz-adv-x="532" vert-adv-y="2457" 
d="M120 0v1365h293v-1365h-293zM522 1693v-246h-205v246h205zM214 1693v-246h-204v246h204z" />
    <glyph glyph-name="afii10056" unicode="&#x457;" horiz-adv-x="532" vert-adv-y="2457" 
d="M120 0v1365h293v-1365h-293zM522 1693v-246h-205v246h205zM214 1693v-246h-204v246h204z" />
    <glyph glyph-name="afii10057" unicode="&#x408;" horiz-adv-x="654" vert-adv-y="2457" 
d="M10 -19v233q60 -15 100 -15q103 0 136 112q15 54 15 236v818h293v-846q0 -146 -16 -232t-55 -150q-103 -170 -344 -170q-58 0 -129 14z" />
    <glyph glyph-name="afii10057" unicode="&#x458;" horiz-adv-x="654" vert-adv-y="2457" 
d="M10 -19v233q60 -15 100 -15q103 0 136 112q15 54 15 236v818h293v-846q0 -146 -16 -232t-55 -150q-103 -170 -344 -170q-58 0 -129 14z" />
    <glyph glyph-name="afii10058" unicode="&#x409;" horiz-adv-x="1727" vert-adv-y="2457" 
d="M1089 1365v-490h118q121 0 205 -25.5t149 -83.5q141 -125 141 -339q0 -222 -148 -339q-61 -48 -140.5 -68t-211.5 -20h-406v1115h-279l-78 -711q-16 -151 -45 -222q-48 -117 -132.5 -162.5t-251.5 -45.5v232q70 4 100 46.5t43 156.5l104 956h832zM1089 637v-387h101
q66 0 104 11t64 38q51 52 51 142q0 100 -50.5 148t-154.5 48h-115z" />
    <glyph glyph-name="afii10058" unicode="&#x459;" horiz-adv-x="1727" vert-adv-y="2457" 
d="M1089 1365v-490h118q121 0 205 -25.5t149 -83.5q141 -125 141 -339q0 -222 -148 -339q-61 -48 -140.5 -68t-211.5 -20h-406v1115h-279l-78 -711q-16 -151 -45 -222q-48 -117 -132.5 -162.5t-251.5 -45.5v232q70 4 100 46.5t43 156.5l104 956h832zM1089 637v-387h101
q66 0 104 11t64 38q51 52 51 142q0 100 -50.5 148t-154.5 48h-115z" />
    <glyph glyph-name="afii10059" unicode="&#x40a;" horiz-adv-x="1747" vert-adv-y="2457" 
d="M818 861v504h293v-504h118q121 0 205 -25t148 -81q142 -124 142 -335q0 -218 -148 -334q-61 -47 -140.5 -66.5t-211.5 -19.5h-406v617h-408v-617h-293v1365h293v-504h408zM1111 617v-367h101q66 0 104 10.5t64 36.5q51 50 51 137q0 94 -50 138.5t-155 44.5h-115z" />
    <glyph glyph-name="afii10059" unicode="&#x45a;" horiz-adv-x="1747" vert-adv-y="2457" 
d="M818 861v504h293v-504h118q121 0 205 -25t148 -81q142 -124 142 -335q0 -218 -148 -334q-61 -47 -140.5 -66.5t-211.5 -19.5h-406v617h-408v-617h-293v1365h293v-504h408zM1111 617v-367h101q66 0 104 10.5t64 36.5q51 50 51 137q0 94 -50 138.5t-155 44.5h-115z" />
    <glyph glyph-name="afii10060" unicode="&#x40b;" horiz-adv-x="1210" vert-adv-y="2457" 
d="M573 855q95 116 244 116q172 0 252 -126q49 -78 49 -244v-601h-281v557q0 99 -18 138q-30 63 -97 63q-50 0 -87.5 -35.5t-50.5 -95.5q-11 -51 -11 -159v-468h-293v1115h-235v250h957v-250h-429v-260z" />
    <glyph glyph-name="afii10060" unicode="&#x45b;" horiz-adv-x="1210" vert-adv-y="2457" 
d="M573 855q95 116 244 116q172 0 252 -126q49 -78 49 -244v-601h-281v557q0 99 -18 138q-30 63 -97 63q-50 0 -87.5 -35.5t-50.5 -95.5q-11 -51 -11 -159v-468h-293v1115h-235v250h957v-250h-429v-260z" />
    <glyph glyph-name="afii10061" unicode="&#x40c;" horiz-adv-x="1211" vert-adv-y="2457" 
d="M115 0v1365h286v-571h46l397 571h306l-456 -662l505 -703h-306l-440 601h-52v-601h-286zM890 1720l-198 -246h-233l184 246h247z" />
    <glyph glyph-name="afii10061" unicode="&#x45c;" horiz-adv-x="1211" vert-adv-y="2457" 
d="M115 0v1365h286v-571h46l397 571h306l-456 -662l505 -703h-306l-440 601h-52v-601h-286zM890 1720l-198 -246h-233l184 246h247z" />
    <glyph glyph-name="uni040D" unicode="&#x40d;" horiz-adv-x="1238" vert-adv-y="2457" 
d="M117 1365h281v-809l443 716v93h281v-1365h-281v810l-443 -723v-88l-281 1v1365zM343 1720h248l183 -246h-232z" />
    <glyph glyph-name="uni040D" unicode="&#x450;" horiz-adv-x="1238" vert-adv-y="2457" 
d="M117 1365h281v-809l443 716v93h281v-1365h-281v810l-443 -723v-88l-281 1v1365zM343 1720h248l183 -246h-232z" />
    <glyph glyph-name="afii10062" unicode="&#x40e;" horiz-adv-x="1129" vert-adv-y="2457" 
d="M160 -19v233q60 -15 100 -15q57 0 91 31.5t77 124.5l-418 1010h326l240 -713l240 713h320l-439 -1089q-70 -173 -160 -241t-249 -68q-57 0 -128 14zM291 1720h139q28 -107 154 -107t153 107h139q-2 -68 -24 -112q-68 -141 -268 -141q-220 0 -278 164q-12 34 -15 89z" />
    <glyph glyph-name="afii10062" unicode="&#x45e;" horiz-adv-x="1129" vert-adv-y="2457" 
d="M160 -19v233q60 -15 100 -15q57 0 91 31.5t77 124.5l-418 1010h326l240 -713l240 713h320l-439 -1089q-70 -173 -160 -241t-249 -68q-57 0 -128 14zM291 1720h139q28 -107 154 -107t153 107h139q-2 -68 -24 -112q-68 -141 -268 -141q-220 0 -278 164q-12 34 -15 89z" />
    <glyph glyph-name="afii10145" unicode="&#x40f;" horiz-adv-x="1254" vert-adv-y="2457" 
d="M481 0h-364v1365h293v-1115h435v1115h293v-1365h-364v-205h-293v205z" />
    <glyph glyph-name="afii10145" unicode="&#x45f;" horiz-adv-x="1254" vert-adv-y="2457" 
d="M481 0h-364v1365h293v-1115h435v1115h293v-1365h-364v-205h-293v205z" />
    <glyph glyph-name="afii10017" unicode="&#x410;" horiz-adv-x="1177" vert-adv-y="2457" 
d="M439 1365h300l432 -1365h-305l-85 305h-389l-86 -305h-300zM455 526h265l-132 471z" />
    <glyph glyph-name="afii10017" unicode="&#x430;" horiz-adv-x="1177" vert-adv-y="2457" 
d="M439 1365h300l432 -1365h-305l-85 305h-389l-86 -305h-300zM455 526h265l-132 471z" />
    <glyph glyph-name="afii10018" unicode="&#x411;" horiz-adv-x="1101" vert-adv-y="2457" 
d="M410 1111v-236h145q122 0 205.5 -25.5t148.5 -83.5q141 -125 141 -339q0 -222 -148 -339q-61 -48 -140.5 -68t-211.5 -20h-433v1365h829v-254h-536zM410 637v-387h128q66 0 104 11t65 38q50 52 50 142q0 100 -50 148t-155 48h-142z" />
    <glyph glyph-name="afii10018" unicode="&#x431;" horiz-adv-x="1101" vert-adv-y="2457" 
d="M410 1111v-236h145q122 0 205.5 -25.5t148.5 -83.5q141 -125 141 -339q0 -222 -148 -339q-61 -48 -140.5 -68t-211.5 -20h-433v1365h829v-254h-536zM410 637v-387h128q66 0 104 11t65 38q50 52 50 142q0 100 -50 148t-155 48h-142z" />
    <glyph glyph-name="afii10019" unicode="&#x412;" horiz-adv-x="1167" vert-adv-y="2457" 
d="M117 0v1365h487q122 0 198 -19.5t132 -65.5q112 -91 112 -248q0 -201 -196 -292q249 -84 249 -338q0 -222 -168 -333q-105 -69 -281 -69h-533zM410 813h131q108 0 154 33q62 46 62 130q0 94 -75 134q-40 22 -141 22h-131v-319zM410 233h158q123 0 174 41q64 51 64 148
q0 113 -85 159q-50 27 -165 27h-146v-375z" />
    <glyph glyph-name="afii10019" unicode="&#x432;" horiz-adv-x="1167" vert-adv-y="2457" 
d="M117 0v1365h487q122 0 198 -19.5t132 -65.5q112 -91 112 -248q0 -201 -196 -292q249 -84 249 -338q0 -222 -168 -333q-105 -69 -281 -69h-533zM410 813h131q108 0 154 33q62 46 62 130q0 94 -75 134q-40 22 -141 22h-131v-319zM410 233h158q123 0 174 41q64 51 64 148
q0 113 -85 159q-50 27 -165 27h-146v-375z" />
    <glyph glyph-name="afii10020" unicode="&#x413;" horiz-adv-x="997" vert-adv-y="2457" 
d="M117 1365h829v-254h-536v-1111h-293v1365z" />
    <glyph glyph-name="afii10020" unicode="&#x433;" horiz-adv-x="997" vert-adv-y="2457" 
d="M117 1365h829v-254h-536v-1111h-293v1365z" />
    <glyph glyph-name="afii10021" unicode="&#x414;" horiz-adv-x="1278" vert-adv-y="2457" 
d="M1153 250h109v-455h-293v205h-679v-205h-293v455h49q67 0 98.5 44.5t44.5 158.5l104 912h860v-1115zM860 250v865h-306l-78 -666q-16 -134 -56 -199h440z" />
    <glyph glyph-name="afii10021" unicode="&#x434;" horiz-adv-x="1278" vert-adv-y="2457" 
d="M1153 250h109v-455h-293v205h-679v-205h-293v455h49q67 0 98.5 44.5t44.5 158.5l104 912h860v-1115zM860 250v865h-306l-78 -666q-16 -134 -56 -199h440z" />
    <glyph glyph-name="afii10022" unicode="&#x415;" horiz-adv-x="1085" vert-adv-y="2457" 
d="M117 0v1365h871v-250h-578v-292h528v-238h-528v-335h590v-250h-883z" />
    <glyph glyph-name="afii10022" unicode="&#x435;" horiz-adv-x="1085" vert-adv-y="2457" 
d="M117 0v1365h871v-250h-578v-292h528v-238h-528v-335h590v-250h-883z" />
    <glyph glyph-name="afii10024" unicode="&#x416;" horiz-adv-x="1875" vert-adv-y="2457" 
d="M795 0v601h-52l-440 -601h-306l505 703l-456 662h305l397 -571h47v571h286v-571h46l397 571h306l-456 -662l504 -703h-305l-441 601h-51v-601h-286z" />
    <glyph glyph-name="afii10024" unicode="&#x436;" horiz-adv-x="1875" vert-adv-y="2457" 
d="M795 0v601h-52l-440 -601h-306l505 703l-456 662h305l397 -571h47v571h286v-571h46l397 571h306l-456 -662l504 -703h-305l-441 601h-51v-601h-286z" />
    <glyph glyph-name="afii10025" unicode="&#x417;" horiz-adv-x="1166" vert-adv-y="2457" 
d="M426 585v238h154q98 0 155.5 45t57.5 121q0 72 -52 114.5t-141 42.5q-210 0 -252 -241l-289 1q12 172 120 307q146 183 444 183q201 0 327 -93q136 -101 136 -286q0 -120 -69.5 -204.5t-184.5 -105.5q255 -69 255 -312q0 -174 -128 -296q-138 -132 -361 -132
q-305 0 -450 236q-83 136 -97 326h292q21 -181 94 -253q61 -59 150 -59q95 0 151 54t56 139q0 175 -226 175h-142z" />
    <glyph glyph-name="afii10025" unicode="&#x437;" horiz-adv-x="1166" vert-adv-y="2457" 
d="M426 585v238h154q98 0 155.5 45t57.5 121q0 72 -52 114.5t-141 42.5q-210 0 -252 -241l-289 1q12 172 120 307q146 183 444 183q201 0 327 -93q136 -101 136 -286q0 -120 -69.5 -204.5t-184.5 -105.5q255 -69 255 -312q0 -174 -128 -296q-138 -132 -361 -132
q-305 0 -450 236q-83 136 -97 326h292q21 -181 94 -253q61 -59 150 -59q95 0 151 54t56 139q0 175 -226 175h-142z" />
    <glyph glyph-name="afii10026" unicode="&#x418;" horiz-adv-x="1238" vert-adv-y="2457" 
d="M117 1365h281v-809l443 716v93h281v-1365h-281v810l-443 -723v-88l-281 1v1365z" />
    <glyph glyph-name="afii10026" unicode="&#x438;" horiz-adv-x="1238" vert-adv-y="2457" 
d="M117 1365h281v-809l443 716v93h281v-1365h-281v810l-443 -723v-88l-281 1v1365z" />
    <glyph glyph-name="afii10027" unicode="&#x419;" horiz-adv-x="1238" vert-adv-y="2457" 
d="M117 1365h281v-809l443 716v93h281v-1365h-281v810l-443 -723v-88l-281 1v1365zM336 1720h139q28 -107 154 -107t153 107h139q-2 -68 -24 -112q-68 -141 -268 -141q-220 0 -278 164q-12 34 -15 89z" />
    <glyph glyph-name="afii10027" unicode="&#x439;" horiz-adv-x="1238" vert-adv-y="2457" 
d="M117 1365h281v-809l443 716v93h281v-1365h-281v810l-443 -723v-88l-281 1v1365zM336 1720h139q28 -107 154 -107t153 107h139q-2 -68 -24 -112q-68 -141 -268 -141q-220 0 -278 164q-12 34 -15 89z" />
    <glyph glyph-name="afii10028" unicode="&#x41a;" horiz-adv-x="1211" vert-adv-y="2457" 
d="M115 0v1365h286v-571h46l397 571h306l-456 -662l505 -703h-306l-440 601h-52v-601h-286z" />
    <glyph glyph-name="afii10028" unicode="&#x43a;" horiz-adv-x="1211" vert-adv-y="2457" 
d="M115 0v1365h286v-571h46l397 571h306l-456 -662l505 -703h-306l-440 601h-52v-601h-286z" />
    <glyph glyph-name="afii10029" unicode="&#x41b;" horiz-adv-x="1234" vert-adv-y="2457" 
d="M518 1115l-78 -711q-17 -152 -46 -222q-48 -117 -132.5 -162.5t-251.5 -45.5v231q70 4 100.5 47t42.5 157l104 956h860v-1365h-293v1115h-306z" />
    <glyph glyph-name="afii10029" unicode="&#x43b;" horiz-adv-x="1234" vert-adv-y="2457" 
d="M518 1115l-78 -711q-17 -152 -46 -222q-48 -117 -132.5 -162.5t-251.5 -45.5v231q70 4 100.5 47t42.5 157l104 956h860v-1365h-293v1115h-306z" />
    <glyph glyph-name="afii10030" unicode="&#x41c;" horiz-adv-x="1505" vert-adv-y="2457" 
d="M117 0v1365h397l243 -935l237 935h394v-1365h-281v949l-233 -949h-238l-238 937v-937h-281z" />
    <glyph glyph-name="afii10030" unicode="&#x43c;" horiz-adv-x="1505" vert-adv-y="2457" 
d="M117 0v1365h397l243 -935l237 935h394v-1365h-281v949l-233 -949h-238l-238 937v-937h-281z" />
    <glyph glyph-name="afii10031" unicode="&#x41d;" horiz-adv-x="1254" vert-adv-y="2457" 
d="M117 0v1365h293v-519h435v519h293v-1365h-293v596h-435v-596h-293z" />
    <glyph glyph-name="afii10031" unicode="&#x43d;" horiz-adv-x="1254" vert-adv-y="2457" 
d="M117 0v1365h293v-519h435v519h293v-1365h-293v596h-435v-596h-293z" />
    <glyph glyph-name="afii10032" unicode="&#x41e;" horiz-adv-x="1299" vert-adv-y="2457" 
d="M653 1396q243 0 400 -176q179 -199 179 -538q0 -290 -135 -485q-80 -115 -202 -176q-109 -54 -242 -54q-290 0 -453 235q-132 190 -132 490q0 326 171 520q162 184 414 184zM651 1146q-136 0 -210 -127q-80 -138 -80 -329q0 -210 79 -346q33 -57 92 -92t122 -35
q60 0 113.5 31.5t86.5 86.5q85 141 85 351q0 198 -78 333q-74 127 -210 127z" />
    <glyph glyph-name="afii10032" unicode="&#x43e;" horiz-adv-x="1299" vert-adv-y="2457" 
d="M653 1396q243 0 400 -176q179 -199 179 -538q0 -290 -135 -485q-80 -115 -202 -176q-109 -54 -242 -54q-290 0 -453 235q-132 190 -132 490q0 326 171 520q162 184 414 184zM651 1146q-136 0 -210 -127q-80 -138 -80 -329q0 -210 79 -346q33 -57 92 -92t122 -35
q60 0 113.5 31.5t86.5 86.5q85 141 85 351q0 198 -78 333q-74 127 -210 127z" />
    <glyph glyph-name="afii10033" unicode="&#x41f;" horiz-adv-x="1254" vert-adv-y="2457" 
d="M1138 1365v-1365h-293v1115h-435v-1115h-293v1365h1021z" />
    <glyph glyph-name="afii10033" unicode="&#x43f;" horiz-adv-x="1254" vert-adv-y="2457" 
d="M1138 1365v-1365h-293v1115h-435v-1115h-293v1365h1021z" />
    <glyph glyph-name="afii10034" unicode="&#x420;" horiz-adv-x="1101" vert-adv-y="2457" 
d="M117 0v1365h433q162 0 247 -30q125 -46 194 -159q59 -98 59 -238q0 -235 -167 -360q-116 -88 -328 -88h-145v-490h-293zM410 728h142q117 0 162 55q43 53 43 141q0 100 -61 151q-47 40 -158 40h-128v-387z" />
    <glyph glyph-name="afii10034" unicode="&#x440;" horiz-adv-x="1101" vert-adv-y="2457" 
d="M117 0v1365h433q162 0 247 -30q125 -46 194 -159q59 -98 59 -238q0 -235 -167 -360q-116 -88 -328 -88h-145v-490h-293zM410 728h142q117 0 162 55q43 53 43 141q0 100 -61 151q-47 40 -158 40h-128v-387z" />
    <glyph glyph-name="afii10035" unicode="&#x421;" horiz-adv-x="1221" vert-adv-y="2457" 
d="M877 529h293q-16 -217 -122 -363q-145 -199 -408 -199q-249 0 -395 171q-177 209 -177 541q0 326 171 530q157 187 408 187q269 0 419 -216q85 -123 96 -274l-290 -1q-13 80 -43 130q-64 111 -186 111q-136 0 -208 -129q-74 -134 -74 -335q0 -204 77 -340
q70 -125 202 -125q103 0 161 76.5t76 235.5z" />
    <glyph glyph-name="afii10035" unicode="&#x441;" horiz-adv-x="1221" vert-adv-y="2457" 
d="M877 529h293q-16 -217 -122 -363q-145 -199 -408 -199q-249 0 -395 171q-177 209 -177 541q0 326 171 530q157 187 408 187q269 0 419 -216q85 -123 96 -274l-290 -1q-13 80 -43 130q-64 111 -186 111q-136 0 -208 -129q-74 -134 -74 -335q0 -204 77 -340
q70 -125 202 -125q103 0 161 76.5t76 235.5z" />
    <glyph glyph-name="afii10036" unicode="&#x422;" horiz-adv-x="1047" vert-adv-y="2457" 
d="M376 0v1115h-331v250h957v-250h-333v-1115h-293z" />
    <glyph glyph-name="afii10036" unicode="&#x442;" horiz-adv-x="1047" vert-adv-y="2457" 
d="M376 0v1115h-331v250h957v-250h-333v-1115h-293z" />
    <glyph glyph-name="afii10037" unicode="&#x423;" horiz-adv-x="1129" vert-adv-y="2457" 
d="M160 -19v233q60 -15 100 -15q57 0 91 31.5t77 124.5l-418 1010h326l240 -713l240 713h320l-439 -1089q-70 -173 -160 -241t-249 -68q-57 0 -128 14z" />
    <glyph glyph-name="afii10037" unicode="&#x443;" horiz-adv-x="1129" vert-adv-y="2457" 
d="M160 -19v233q60 -15 100 -15q57 0 91 31.5t77 124.5l-418 1010h326l240 -713l240 713h320l-439 -1089q-70 -173 -160 -241t-249 -68q-57 0 -128 14z" />
    <glyph glyph-name="afii10038" unicode="&#x424;" horiz-adv-x="1665" vert-adv-y="2457" 
d="M979 1365v-149q209 -12 339 -78q140 -71 211 -196q64 -113 64 -260q0 -202 -120 -338q-155 -177 -494 -197v-147h-293v147q-209 13 -339 79q-140 71 -211 196q-64 113 -64 260q0 202 120 338q155 176 494 196v149h293zM686 398v568q-321 -25 -321 -284t321 -284zM979 398
q321 25 321 284t-321 284v-568z" />
    <glyph glyph-name="afii10038" unicode="&#x444;" horiz-adv-x="1665" vert-adv-y="2457" 
d="M979 1365v-149q209 -12 339 -78q140 -71 211 -196q64 -113 64 -260q0 -202 -120 -338q-155 -177 -494 -197v-147h-293v147q-209 13 -339 79q-140 71 -211 196q-64 113 -64 260q0 202 120 338q155 176 494 196v149h293zM686 398v568q-321 -25 -321 -284t321 -284zM979 398
q321 25 321 284t-321 284v-568z" />
    <glyph glyph-name="afii10039" unicode="&#x425;" horiz-adv-x="1111" vert-adv-y="2457" 
d="M25 1365h332l204 -415l207 415h316l-365 -651l399 -714h-339l-227 450l-233 -450h-325l402 714z" />
    <glyph glyph-name="afii10039" unicode="&#x445;" horiz-adv-x="1111" vert-adv-y="2457" 
d="M25 1365h332l204 -415l207 415h316l-365 -651l399 -714h-339l-227 450l-233 -450h-325l402 714z" />
    <glyph glyph-name="afii10040" unicode="&#x426;" horiz-adv-x="1264" vert-adv-y="2457" 
d="M1138 250h109v-455h-293v205h-837v1365h293v-1115h435v1115h293v-1115z" />
    <glyph glyph-name="afii10040" unicode="&#x446;" horiz-adv-x="1264" vert-adv-y="2457" 
d="M1138 250h109v-455h-293v205h-837v1365h293v-1115h435v1115h293v-1115z" />
    <glyph glyph-name="afii10041" unicode="&#x427;" horiz-adv-x="1274" vert-adv-y="2457" 
d="M864 467q-104 -58 -256 -58q-206 0 -345 101q-129 94 -155 269q-8 51 -8 136v450h281v-484q0 -111 60 -163q70 -59 203 -59q157 0 200 110q20 50 20 143v453h293v-1365h-293v467z" />
    <glyph glyph-name="afii10041" unicode="&#x447;" horiz-adv-x="1274" vert-adv-y="2457" 
d="M864 467q-104 -58 -256 -58q-206 0 -345 101q-129 94 -155 269q-8 51 -8 136v450h281v-484q0 -111 60 -163q70 -59 203 -59q157 0 200 110q20 50 20 143v453h293v-1365h-293v467z" />
    <glyph glyph-name="afii10042" unicode="&#x428;" horiz-adv-x="1764" vert-adv-y="2457" 
d="M1648 0h-1531v1365h293v-1115h326v1115h293v-1115h326v1115h293v-1365z" />
    <glyph glyph-name="afii10042" unicode="&#x448;" horiz-adv-x="1764" vert-adv-y="2457" 
d="M1648 0h-1531v1365h293v-1115h326v1115h293v-1115h326v1115h293v-1365z" />
    <glyph glyph-name="afii10043" unicode="&#x429;" horiz-adv-x="1774" vert-adv-y="2457" 
d="M1648 250h109v-455h-293v205h-1347v1365h293v-1115h326v1115h293v-1115h326v1115h293v-1115z" />
    <glyph glyph-name="afii10043" unicode="&#x449;" horiz-adv-x="1774" vert-adv-y="2457" 
d="M1648 250h109v-455h-293v205h-1347v1365h293v-1115h326v1115h293v-1115h326v1115h293v-1115z" />
    <glyph glyph-name="afii10044" unicode="&#x42a;" horiz-adv-x="1258" vert-adv-y="2457" 
d="M274 1111h-250v254h543v-490h145q122 0 206 -25.5t148 -83.5q141 -125 141 -339q0 -222 -148 -339q-60 -48 -140 -68t-212 -20h-433v1111zM567 637v-387h128q66 0 104 11t65 38q50 52 50 142q0 100 -50 148t-155 48h-142z" />
    <glyph glyph-name="afii10044" unicode="&#x44a;" horiz-adv-x="1258" vert-adv-y="2457" 
d="M274 1111h-250v254h543v-490h145q122 0 206 -25.5t148 -83.5q141 -125 141 -339q0 -222 -148 -339q-60 -48 -140 -68t-212 -20h-433v1111zM567 637v-387h128q66 0 104 11t65 38q50 52 50 142q0 100 -50 148t-155 48h-142z" />
    <glyph glyph-name="afii10045" unicode="&#x42b;" horiz-adv-x="1539" vert-adv-y="2457" 
d="M117 1365h293v-490h145q122 0 206 -25.5t148 -83.5q141 -125 141 -339q0 -222 -148 -339q-61 -48 -140.5 -68t-211.5 -20h-433v1365zM410 637v-387h128q66 0 104 11t65 38q50 52 50 142q0 100 -50 148t-155 48h-142zM1129 0v1365h293v-1365h-293z" />
    <glyph glyph-name="afii10045" unicode="&#x44b;" horiz-adv-x="1539" vert-adv-y="2457" 
d="M117 1365h293v-490h145q122 0 206 -25.5t148 -83.5q141 -125 141 -339q0 -222 -148 -339q-61 -48 -140.5 -68t-211.5 -20h-433v1365zM410 637v-387h128q66 0 104 11t65 38q50 52 50 142q0 100 -50 148t-155 48h-142zM1129 0v1365h293v-1365h-293z" />
    <glyph glyph-name="afii10046" unicode="&#x42c;" horiz-adv-x="1101" vert-adv-y="2457" 
d="M117 1365h293v-490h145q122 0 206 -25.5t148 -83.5q141 -125 141 -339q0 -222 -148 -339q-61 -48 -140.5 -68t-211.5 -20h-433v1365zM410 637v-387h128q66 0 104 11t65 38q50 52 50 142q0 100 -50 148t-155 48h-142z" />
    <glyph glyph-name="afii10046" unicode="&#x44c;" horiz-adv-x="1101" vert-adv-y="2457" 
d="M117 1365h293v-490h145q122 0 206 -25.5t148 -83.5q141 -125 141 -339q0 -222 -148 -339q-61 -48 -140.5 -68t-211.5 -20h-433v1365zM410 637v-387h128q66 0 104 11t65 38q50 52 50 142q0 100 -50 148t-155 48h-142z" />
    <glyph glyph-name="afii10047" unicode="&#x42d;" horiz-adv-x="1221" vert-adv-y="2457" 
d="M849 823q-14 83 -41 147q-74 176 -230 176q-92 0 -150.5 -61.5t-79.5 -179.5l-289 1q12 172 120 307q148 183 395 183q251 0 408 -187q171 -205 171 -530q0 -332 -178 -541q-145 -171 -394 -171q-287 0 -433 236q-83 136 -97 326h292q16 -137 63 -213q61 -99 174 -99
q111 0 185 99t90 269h-429v238h423z" />
    <glyph glyph-name="afii10047" unicode="&#x44d;" horiz-adv-x="1221" vert-adv-y="2457" 
d="M849 823q-14 83 -41 147q-74 176 -230 176q-92 0 -150.5 -61.5t-79.5 -179.5l-289 1q12 172 120 307q148 183 395 183q251 0 408 -187q171 -205 171 -530q0 -332 -178 -541q-145 -171 -394 -171q-287 0 -433 236q-83 136 -97 326h292q16 -137 63 -213q61 -99 174 -99
q111 0 185 99t90 269h-429v238h423z" />
    <glyph glyph-name="afii10048" unicode="&#x42e;" horiz-adv-x="1775" vert-adv-y="2457" 
d="M556 846q27 168 93 277q84 140 221 212q117 61 258 61q245 0 401 -176q179 -200 179 -537q0 -291 -135 -486q-80 -115 -202 -176q-109 -54 -243 -54q-225 0 -381 151q-175 170 -200 478h-137v-596h-293v1365h293v-519h146zM1127 1146q-136 0 -210 -127q-80 -138 -80 -328
q0 -210 79 -347q33 -57 92 -92t122 -35q60 0 113.5 31.5t86.5 86.5q85 141 85 351q0 199 -78 333q-74 127 -210 127z" />
    <glyph glyph-name="afii10048" unicode="&#x44e;" horiz-adv-x="1775" vert-adv-y="2457" 
d="M556 846q27 168 93 277q84 140 221 212q117 61 258 61q245 0 401 -176q179 -200 179 -537q0 -291 -135 -486q-80 -115 -202 -176q-109 -54 -243 -54q-225 0 -381 151q-175 170 -200 478h-137v-596h-293v1365h293v-519h146zM1127 1146q-136 0 -210 -127q-80 -138 -80 -328
q0 -210 79 -347q33 -57 92 -92t122 -35q60 0 113.5 31.5t86.5 86.5q85 141 85 351q0 199 -78 333q-74 127 -210 127z" />
    <glyph glyph-name="afii10049" unicode="&#x42f;" horiz-adv-x="1215" vert-adv-y="2457" 
d="M1098 0h-293v536h-168q-77 0 -117.5 -20.5t-63.5 -72.5q-17 -36 -24.5 -91t-21.5 -236q-5 -69 -24 -116h-302q23 39 32 77t15 117q13 184 25.5 250t45.5 113q42 61 119 88q-74 37 -119 96q-77 102 -77 243q0 181 117.5 281t330.5 100h525v-1365zM805 757v375h-167
q-112 0 -157 -36q-63 -50 -63 -147q0 -100 54 -146t172 -46h161z" />
    <glyph glyph-name="afii10049" unicode="&#x44f;" horiz-adv-x="1215" vert-adv-y="2457" 
d="M1098 0h-293v536h-168q-77 0 -117.5 -20.5t-63.5 -72.5q-17 -36 -24.5 -91t-21.5 -236q-5 -69 -24 -116h-302q23 39 32 77t15 117q13 184 25.5 250t45.5 113q42 61 119 88q-74 37 -119 96q-77 102 -77 243q0 181 117.5 281t330.5 100h525v-1365zM805 757v375h-167
q-112 0 -157 -36q-63 -50 -63 -147q0 -100 54 -146t172 -46h161z" />
    <glyph glyph-name="afii10050" unicode="&#x490;" horiz-adv-x="997" vert-adv-y="2457" 
d="M946 1488v-377h-536v-1111h-293v1365h536v123h293z" />
    <glyph glyph-name="afii10050" unicode="&#x491;" horiz-adv-x="997" vert-adv-y="2457" 
d="M946 1488v-377h-536v-1111h-293v1365h536v123h293z" />
    <glyph glyph-name="Fdotaccent" unicode="&#x1e1e;" horiz-adv-x="996" vert-adv-y="2457" 
d="M117 0v1365h826v-250h-537v-318h465v-238h-465v-559h-289zM617 1693v-246h-237v246h237z" />
    <glyph glyph-name="Fdotaccent" unicode="&#x1e1f;" horiz-adv-x="996" vert-adv-y="2457" 
d="M117 0v1365h826v-250h-537v-318h465v-238h-465v-559h-289zM617 1693v-246h-237v246h237z" />
    <glyph glyph-name="Wgrave" unicode="&#x1e80;" horiz-adv-x="1563" vert-adv-y="2457" 
d="M10 1365h294l162 -936l176 936h279l174 -938l165 938h292l-308 -1365h-293l-172 927l-169 -927h-296zM591 1720h248l183 -246h-232z" />
    <glyph glyph-name="Wgrave" unicode="&#x1e81;" horiz-adv-x="1563" vert-adv-y="2457" 
d="M10 1365h294l162 -936l176 936h279l174 -938l165 938h292l-308 -1365h-293l-172 927l-169 -927h-296zM591 1720h248l183 -246h-232z" />
    <glyph glyph-name="Wacute" unicode="&#x1e82;" horiz-adv-x="1563" vert-adv-y="2457" 
d="M10 1365h294l162 -936l176 936h279l174 -938l165 938h292l-308 -1365h-293l-172 927l-169 -927h-296zM961 1720l-198 -246h-233l184 246h247z" />
    <glyph glyph-name="Wacute" unicode="&#x1e83;" horiz-adv-x="1563" vert-adv-y="2457" 
d="M10 1365h294l162 -936l176 936h279l174 -938l165 938h292l-308 -1365h-293l-172 927l-169 -927h-296zM961 1720l-198 -246h-233l184 246h247z" />
    <glyph glyph-name="Wdieresis" unicode="&#x1e84;" horiz-adv-x="1563" vert-adv-y="2457" 
d="M10 1365h294l162 -936l176 936h279l174 -938l165 938h292l-308 -1365h-293l-172 927l-169 -927h-296zM1073 1693v-246h-238v246h238zM731 1693v-246h-237v246h237z" />
    <glyph glyph-name="Ygrave" unicode="&#x1ef2;" horiz-adv-x="1152" vert-adv-y="2457" 
d="M6 1365h326l246 -540l246 540h321l-423 -837v-528h-293v532zM375 1720h248l183 -246h-232z" />
    <glyph glyph-name="Ygrave" unicode="&#x1ef3;" horiz-adv-x="1152" vert-adv-y="2457" 
d="M6 1365h326l246 -540l246 540h321l-423 -837v-528h-293v532zM375 1720h248l183 -246h-232z" />
    <glyph glyph-name="endash" unicode="&#x2012;" horiz-adv-x="1017" vert-adv-y="2457" 
d="M905 755v-246h-793v246h793z" />
    <glyph glyph-name="endash" unicode="&#x2013;" horiz-adv-x="1017" vert-adv-y="2457" 
d="M905 755v-246h-793v246h793z" />
    <glyph glyph-name="emdash" unicode="&#x2014;" horiz-adv-x="1507" vert-adv-y="2457" 
d="M1410 755v-246h-1310v246h1310z" />
    <glyph glyph-name="emdash" unicode="&#x2015;" horiz-adv-x="1507" vert-adv-y="2457" 
d="M1410 755v-246h-1310v246h1310z" />
    <glyph glyph-name="underscoredbl" unicode="&#x2017;" horiz-adv-x="1044" vert-adv-y="2457" 
d="M10 -117h1024v-97h-1024v97zM10 -356h1024v-98h-1024v98z" />
    <glyph glyph-name="quoteleft" unicode="&#x2018;" horiz-adv-x="567" vert-adv-y="2457" 
d="M133 772v229q0 121 29 193t98 124q72 54 173 68v-144q-120 -33 -127 -176h127v-294h-300z" />
    <glyph glyph-name="quoteright" unicode="&#x2019;" horiz-adv-x="567" vert-adv-y="2457" 
d="M433 1365v-228q0 -122 -29 -194t-98 -124q-72 -53 -173 -68v144q120 32 127 176h-127v294h300z" />
    <glyph glyph-name="quotesinglbase" unicode="&#x201a;" horiz-adv-x="455" vert-adv-y="2457" 
d="M377 294v-228q0 -122 -29 -194t-98 -123q-72 -54 -173 -68v143q120 32 127 176h-127v294h300z" />
    <glyph glyph-name="quotedblleft" unicode="&#x201c;" horiz-adv-x="963" vert-adv-y="2457" 
d="M133 772v229q0 121 29 193t98 124q72 54 173 68v-144q-120 -33 -127 -176h127v-294h-300zM529 772v229q0 121 29 193t98 124q72 53 173 68v-144q-120 -32 -127 -176h127v-294h-300z" />
    <glyph glyph-name="quotedblright" unicode="&#x201d;" horiz-adv-x="963" vert-adv-y="2457" 
d="M433 1365v-228q0 -122 -29 -194t-98 -124q-72 -53 -173 -68v144q120 32 127 176h-127v294h300zM829 1365v-228q0 -122 -28.5 -194t-98.5 -124q-72 -53 -173 -68v144q120 32 127 176h-127v294h300z" />
    <glyph glyph-name="quotedblbase" unicode="&#x201e;" horiz-adv-x="851" vert-adv-y="2457" 
d="M377 294v-228q0 -122 -29 -194t-98 -123q-72 -54 -173 -68v143q120 32 127 176h-127v294h300zM773 294v-228q0 -122 -28.5 -194t-98.5 -123q-72 -54 -173 -68v143q120 32 127 176h-127v294h300z" />
    <glyph glyph-name="dagger" unicode="&#x2020;" horiz-adv-x="1013" vert-adv-y="2457" 
d="M923 1002v-236h-298v-766h-240v766h-294v236h294v363h240v-363h298z" />
    <glyph glyph-name="daggerdbl" unicode="&#x2021;" horiz-adv-x="1013" vert-adv-y="2457" 
d="M923 1031v-230h-298v-277h298v-230h-298v-294h-240v294h-294v230h294v277h-294v230h294v334h240v-334h298z" />
    <glyph glyph-name="bullet" unicode="&#x2022;" horiz-adv-x="1334" vert-adv-y="2457" 
d="M913 926v-492h-492v492h492z" />
    <glyph glyph-name="ellipsis" unicode="&#x2026;" horiz-adv-x="1651" vert-adv-y="2457" 
d="M433 294v-294h-300v294h300zM975 294v-294h-300v294h300zM1517 294v-294h-300v294h300z" />
    <glyph glyph-name="perthousand" unicode="&#x2030;" horiz-adv-x="2630" vert-adv-y="2457" 
d="M389 1383q149 0 246 -106q109 -120 109 -321q0 -174 -82 -290q-99 -139 -273 -139q-179 0 -279 142q-80 114 -80 292q0 195 104 311q100 111 255 111zM388 1211q-73 0 -113 -67q-45 -76 -45 -184q0 -119 45 -194q40 -67 114 -67q69 0 107 62q48 78 48 197
q0 114 -43 183.5t-113 69.5zM707 0h-179l588 1365h176zM1436 837q148 0 246 -106q109 -118 109 -321q0 -174 -82 -290q-99 -139 -273 -139q-178 0 -279 142q-80 114 -80 292q0 195 104 311q100 111 255 111zM1435 665q-73 0 -113 -67q-45 -76 -45 -184q0 -119 45 -194
q40 -67 114 -67q69 0 107 62q48 78 48 197q0 114 -43 183.5t-113 69.5zM2245 837q149 0 246 -106q109 -120 109 -321q0 -174 -82 -290q-99 -139 -273 -139q-178 0 -279 142q-80 114 -80 292q0 195 104 311q100 111 255 111zM2244 665q-73 0 -113 -67q-45 -76 -45 -184
q0 -119 45 -194q40 -67 114 -67q69 0 107 62q48 78 48 197q0 114 -43 183.5t-113 69.5z" />
    <glyph glyph-name="guilsinglleft" unicode="&#x2039;" horiz-adv-x="476" vert-adv-y="2457" 
d="M363 1014v-248l-144 -136l144 -137v-241l-271 252v252z" />
    <glyph glyph-name="guilsinglright" unicode="&#x203a;" horiz-adv-x="476" vert-adv-y="2457" 
d="M113 1014l271 -257v-252l-271 -253v241l144 137l-144 136v248z" />
    <glyph glyph-name="uni203E" unicode="&#x203e;" horiz-adv-x="1044" vert-adv-y="2457" 
d="M51 1662h942v-187h-942v187z" />
    <glyph glyph-name="fraction" unicode="&#x2044;" horiz-adv-x="422" vert-adv-y="2457" 
d="M5 0h-172l588 1365h169z" />
    <glyph glyph-name="franc" unicode="&#x20a3;" horiz-adv-x="1436" vert-adv-y="2457" 
d="M117 0v1365h819v-236h-537v-264h343v-224h-343v-641h-282zM851 0v865h271v-119q93 148 233 148q34 0 68 -9v-244q-53 15 -89 15q-123 0 -174 -122q-28 -66 -28 -214v-320h-281z" />
    <glyph glyph-name="lira" unicode="&#x20a4;" horiz-adv-x="941" vert-adv-y="2457" 
d="M395 816h340v-199h-243q5 -26 6 -53h237v-199h-287q-23 -41 -129 -168q91 63 138 63q29 0 81 -40q30 -23 58 -23q80 0 91 120h216q-9 -153 -64 -239q-68 -107 -197 -107q-68 0 -156 43q-69 33 -132 33q-55 0 -92.5 -13t-117.5 -61l-107 172q138 94 191 220h-200v199h212
q-5 23 -14 53h-198v199h91q-66 113 -66 225q0 161 125 262q109 89 278 89q262 0 360 -181q46 -86 49 -198h-253q-5 146 -155 146q-70 0 -107 -39q-39 -43 -39 -104q0 -77 84 -200z" />
    <glyph glyph-name="peseta" unicode="&#x20a7;" horiz-adv-x="2218" vert-adv-y="2457" 
d="M117 0v1365h433q162 0 247 -30q125 -46 194 -159q59 -98 59 -238q0 -235 -167 -360q-116 -88 -328 -88h-145v-490h-293zM410 728h142q117 0 162 55q43 53 43 141q0 100 -61 151q-47 40 -158 40h-128v-387zM1061 610v142h107v49l152 202h74v-251h131v-142h-131v-358
q2 -60 6 -77q10 -35 63 -35q22 0 54 10v-161q-69 -14 -130 -14q-136 0 -185 73q-21 30 -27.5 70.5t-6.5 140.5v351h-107zM1556 223h210q13 -105 111 -105q42 0 67 21t25 58q0 41 -30 64.5t-125 55.5q-127 44 -168 74q-83 62 -83 158q0 104 76 165t207 61q171 0 254 -105
q38 -48 50 -116h-210q-20 73 -87 73q-72 0 -72 -67q0 -45 51 -72q24 -12 123 -44q94 -30 145 -68q81 -61 81 -166q0 -109 -80.5 -174t-217.5 -65q-191 0 -276 119q-41 59 -51 133z" />
    <glyph glyph-name="Euro" unicode="&#x20ac;" horiz-adv-x="1234" vert-adv-y="2457" 
d="M203 460h-177l78 171h78q-1 34 -1 46l1 37v7h-144l78 171h85q11 55 30 109q71 201 223 307q124 86 302 86q213 0 393 -128l-94 -222q-92 71 -155.5 98t-141.5 27q-117 0 -181.5 -63t-101.5 -214h506l-72 -171h-458q-1 -31 -1 -42q0 -19 2 -48h419l-72 -171h-320
q21 -78 49 -133q65 -131 227 -131q69 0 122 22.5t130 84.5l159 -155q-53 -45 -86 -69q-147 -108 -344 -108q-339 0 -486 336q-31 71 -47 153z" />
    <glyph glyph-name="uni2101" unicode="&#x2101;" horiz-adv-x="1694" vert-adv-y="2457" 
d="M270 1365h195l259 -819h-207l-50 177h-202l-50 -177h-205zM310 881h113l-56 201zM1056 260h200l3 -18q16 -97 92 -97q40 0 64 22.5t24 60.5q0 39 -26.5 61t-107.5 51q-99 35 -144 71q-92 73 -92 190q0 102 65 166q71 70 195 70q181 0 253 -137q21 -40 32 -119h-196
q-5 42 -14 56q-22 35 -76 35q-73 0 -73 -65q0 -36 28.5 -57t114.5 -49q102 -33 160 -79q85 -68 85 -183q0 -113 -79 -185q-82 -73 -216 -73q-126 0 -200.5 71t-91.5 208zM732 0h-172l588 1365h169z" />
    <glyph glyph-name="afii61289" unicode="&#x2113;" horiz-adv-x="1044" vert-adv-y="2457" 
d="M521 550q-66 -338 -66 -425q0 -52 37 -52q53 0 104 112q16 37 38 37q27 0 27 -31q0 -49 -54 -122q-72 -98 -156 -98q-63 0 -99.5 48t-36.5 132q0 70 20 261q-84 -79 -101 -79q-10 0 -19 10.5t-9 21.5q0 20 41 57q43 37 103 106q72 380 166 616q98 245 237 245
q58 0 93 -45t35 -121q0 -173 -125 -383q-70 -118 -235 -290zM544 683q133 146 196 289q59 135 59 242q0 41 -13 66t-35 25t-45 -25t-38 -66q-58 -162 -124 -531z" />
    <glyph glyph-name="afii61352" unicode="&#x2116;" horiz-adv-x="1803" vert-adv-y="2457" 
d="M117 0v1365l296 1l428 -879v878h281v-1365h-293l-431 877v-877h-281zM1494 979q127 0 205 -84q80 -85 80 -236q0 -147 -85 -234q-77 -79 -200 -79q-130 0 -209 88q-77 87 -77 229q0 138 75 224q80 92 211 92zM1493 792q-33 0 -52.5 -35t-19.5 -94q0 -61 19.5 -95.5
t53.5 -34.5q33 0 52.5 35t19.5 94q0 61 -19.5 95.5t-53.5 34.5zM1208 278h571v-211h-571v211z" />
    <glyph glyph-name="trademark" unicode="&#x2122;" horiz-adv-x="1502" vert-adv-y="2457" 
d="M212 546v647h-195v172h592v-172h-197v-647h-200zM665 546v819h258l133 -502l129 502h257v-819h-193v453l-113 -453h-162l-116 450v-450h-193z" />
    <glyph glyph-name="uni2126" unicode="&#x2126;" horiz-adv-x="1299" vert-adv-y="2457" 
d="M78 0v251h207q-217 181 -217 496q0 281 176 471q165 178 404 178q244 0 411 -181q172 -186 172 -468q0 -316 -217 -496h207v-251h-496v232q88 57 137 148q76 141 76 320q0 186 -82 317q-80 127 -203 127q-129 0 -211 -127q-81 -127 -81 -318q0 -163 54.5 -282t159.5 -185
v-232h-497z" />
    <glyph glyph-name="partialdiff" unicode="&#x2202;" horiz-adv-x="1013" vert-adv-y="2457" 
d="M303 1297l132 97q138 -81 263 -229q112 -132 182 -311q77 -197 77 -386q0 -235 -134 -372q-122 -125 -316 -125q-206 0 -330 140q-122 136 -122 361q0 217 118 353q126 146 332 146q26 0 52 -9q-96 203 -254 335zM505 774q-78 0 -123.5 -81.5t-45.5 -220.5
q0 -140 44 -221q45 -83 127 -83q78 0 123.5 81t45.5 219q0 140 -43 219q-46 87 -128 87z" />
    <glyph glyph-name="emptyset" unicode="&#x2205;" horiz-adv-x="1287" vert-adv-y="2457" 
d="M909 1365l98 -51l-98 -181q231 -161 231 -416q0 -141 -75 -262q-65 -105 -170 -167q-119 -69 -263 -69q-94 0 -162 33l-128 -251l-100 51l126 249q-221 162 -221 414q0 228 171 376q140 121 328 121q82 0 166 -29zM524 353q66 -18 119 -18q168 0 283 123q100 108 100 257
q0 97 -44.5 181t-119.5 131zM759 1079q-57 17 -110 17q-184 0 -299 -138q-89 -107 -89 -242q0 -183 159 -310z" />
    <glyph glyph-name="Delta" unicode="&#x2206;" horiz-adv-x="1177" vert-adv-y="2457" 
d="M439 1365h300l432 -1365h-1165zM588 997l-220 -776h437z" />
    <glyph glyph-name="product" unicode="&#x220f;" horiz-adv-x="1386" vert-adv-y="2457" 
d="M50 1536h1287v-232h-148v-1584h148v-232h-541v232h134v1584h-473v-1584h131v-232h-538v232h150v1584h-150v232z" />
    <glyph glyph-name="summation" unicode="&#x2211;" horiz-adv-x="1386" vert-adv-y="2457" 
d="M1280 1536v-520h-261l-31 254h-585l496 -726l-494 -790h602l17 263h275v-529h-1220v306l478 750l-478 686v306h1201z" />
    <glyph glyph-name="minus" unicode="&#x2212;" horiz-adv-x="1044" vert-adv-y="2457" 
d="M51 783h942v-187h-942v187z" />
    <glyph glyph-name="uni2218" unicode="&#x2218;" horiz-adv-x="1044" vert-adv-y="2457" 
d="M527 982q112 0 194 -83q83 -84 83 -203q0 -118 -82 -202q-83 -84 -199 -84t-198 83q-84 84 -84 203q0 121 84 203q84 83 202 83zM525 885q-79 0 -133 -55q-55 -55 -55 -134q0 -78 54.5 -133.5t131.5 -55.5t131 55.5t54 133.5q0 80 -55 134q-55 55 -128 55z" />
    <glyph glyph-name="uni2218" unicode="&#x25e6;" horiz-adv-x="1044" vert-adv-y="2457" 
d="M527 982q112 0 194 -83q83 -84 83 -203q0 -118 -82 -202q-83 -84 -199 -84t-198 83q-84 84 -84 203q0 121 84 203q84 83 202 83zM525 885q-79 0 -133 -55q-55 -55 -55 -134q0 -78 54.5 -133.5t131.5 -55.5t131 55.5t54 133.5q0 80 -55 134q-55 55 -128 55z" />
    <glyph glyph-name="radical" unicode="&#x221a;" horiz-adv-x="1386" vert-adv-y="2457" 
d="M1375 1693v-239h-347l-376 -1454h-336l-126 528h-180v239h345l59 -222q14 -55 44 -289h16q27 174 54.5 306t83.5 347l204 784h559z" />
    <glyph glyph-name="infinity" unicode="&#x221e;" horiz-adv-x="1386" vert-adv-y="2457" 
d="M697 564q-48 -59 -88 -96q-105 -96 -243 -96q-144 0 -236 98q-84 89 -84 228q0 142 91 231q91 90 228 90q177 0 323 -191q146 190 331 190q153 0 245 -106q75 -87 75 -217q0 -141 -88 -230q-91 -92 -231 -92q-93 0 -168 44.5t-155 146.5zM792 696q97 -144 199 -144
q60 0 100.5 41t40.5 102t-41 102t-101 41q-101 0 -198 -142zM593 695q-53 79 -99 112t-102 33q-61 0 -100 -40.5t-39 -104.5q0 -62 40 -102.5t101 -40.5q55 0 101 33t98 110z" />
    <glyph glyph-name="integral" unicode="&#x222b;" horiz-adv-x="1045" vert-adv-y="2457" 
d="M109 -491l49 273q50 -20 86 -20q39 0 69.5 18t41.5 48q8 22 10 57.5t2 165.5v869q0 178 4 248t17 122q29 114 129.5 180t244.5 66q61 0 173 -21l-49 -273q-51 20 -89 20q-73 0 -102 -54q-18 -33 -18 -141v-1044q0 -205 -19 -283q-27 -107 -130 -179q-100 -71 -288 -71
q-55 0 -108 14q-13 3 -23 5z" />
    <glyph glyph-name="similar" unicode="&#x223c;" horiz-adv-x="1044" vert-adv-y="2457" 
d="M120 540l-90 59q33 72 75 129q81 109 206 109q78 0 229 -71q90 -41 125.5 -53t72.5 -12q58 0 97.5 30t86.5 109l93 -54q-56 -113 -114 -163q-81 -69 -182 -69q-44 0 -96.5 18.5t-190.5 80.5q-81 37 -132 37q-53 0 -94.5 -34.5t-85.5 -115.5z" />
    <glyph glyph-name="uni2243" unicode="&#x2243;" horiz-adv-x="1044" vert-adv-y="2457" 
d="M176 713l-149 104q43 102 86 160q90 119 217 119q67 0 219 -67q130 -57 174 -57q43 0 75.5 25t69.5 85l149 -105q-50 -116 -97 -173q-86 -107 -205 -107q-40 0 -79.5 13t-195.5 79q-76 32 -121 32q-74 0 -143 -108zM1017 616v-211h-990v211h990z" />
    <glyph glyph-name="approxequal" unicode="&#x2248;" horiz-adv-x="1044" vert-adv-y="2457" 
d="M176 713l-149 104q43 102 86 160q90 119 217 119q67 0 219 -67q130 -57 174 -57q43 0 75.5 25t69.5 85l149 -105q-50 -116 -97 -173q-86 -107 -205 -107q-40 0 -79.5 13t-195.5 79q-76 32 -121 32q-74 0 -143 -108zM176 271l-149 105q43 102 86 159q90 119 218 119
q67 0 218 -65q129 -56 176 -56q41 0 73.5 24.5t69.5 82.5l149 -104q-51 -117 -97 -174q-86 -107 -204 -107q-41 0 -79.5 12.5t-196.5 78.5q-76 32 -121 32q-74 0 -143 -107z" />
    <glyph glyph-name="notequal" unicode="&#x2260;" horiz-adv-x="1045" vert-adv-y="2457" 
d="M367 235l-161 93l56 97h-211v187h319l89 155h-408v187h516l110 190l162 -93l-56 -97h210v-187h-318l-89 -155h407v-187h-515z" />
    <glyph glyph-name="lessequal" unicode="&#x2264;" horiz-adv-x="1044" vert-adv-y="2457" 
d="M966 1318v-285l-554 -180l554 -178v-285l-887 336v256zM966 334v-267h-887v267h887z" />
    <glyph glyph-name="greaterequal" unicode="&#x2265;" horiz-adv-x="1044" vert-adv-y="2457" 
d="M79 1318l887 -336v-256l-887 -336v285l554 178l-554 180v285zM79 334h887v-267h-887v267z" />
    <glyph glyph-name="glyph68" vert-adv-y="2457" 
 />
    <glyph glyph-name="glyph69" vert-adv-y="2457" 
 />
    <glyph glyph-name="glyph70" vert-adv-y="2457" 
 />
    <glyph glyph-name="glyph71" vert-adv-y="2457" 
 />
    <glyph glyph-name="glyph72" vert-adv-y="2457" 
 />
    <glyph glyph-name="glyph73" vert-adv-y="2457" 
 />
    <glyph glyph-name="glyph74" vert-adv-y="2457" 
 />
    <glyph glyph-name="glyph75" vert-adv-y="2457" 
 />
    <glyph glyph-name="glyph76" vert-adv-y="2457" 
 />
    <glyph glyph-name="glyph77" vert-adv-y="2457" 
 />
    <glyph glyph-name="glyph78" vert-adv-y="2457" 
 />
    <glyph glyph-name="glyph79" vert-adv-y="2457" 
 />
    <glyph glyph-name="glyph80" vert-adv-y="2457" 
 />
    <glyph glyph-name="glyph81" vert-adv-y="2457" 
 />
    <glyph glyph-name="glyph82" vert-adv-y="2457" 
 />
    <glyph glyph-name="glyph83" vert-adv-y="2457" 
 />
    <glyph glyph-name="glyph84" vert-adv-y="2457" 
 />
    <glyph glyph-name="glyph85" vert-adv-y="2457" 
 />
    <glyph glyph-name="glyph86" vert-adv-y="2457" 
 />
    <glyph glyph-name="glyph87" vert-adv-y="2457" 
 />
    <glyph glyph-name="glyph88" vert-adv-y="2457" 
 />
    <glyph glyph-name="glyph89" vert-adv-y="2457" 
 />
    <glyph glyph-name="glyph90" vert-adv-y="2457" 
 />
    <glyph glyph-name="glyph91" vert-adv-y="2457" 
 />
    <glyph glyph-name="glyph92" vert-adv-y="2457" 
 />
    <glyph glyph-name="glyph93" vert-adv-y="2457" 
 />
    <glyph glyph-name="glyph108" vert-adv-y="2457" 
 />
    <glyph glyph-name="glyph110" vert-adv-y="2457" 
 />
    <glyph glyph-name="glyph111" vert-adv-y="2457" 
 />
    <glyph glyph-name="glyph112" vert-adv-y="2457" 
 />
    <glyph glyph-name="glyph120" vert-adv-y="2457" 
 />
    <glyph glyph-name="glyph124" vert-adv-y="2457" 
 />
    <glyph glyph-name="glyph129" vert-adv-y="2457" 
 />
    <glyph glyph-name="glyph137" vert-adv-y="2457" 
 />
    <glyph glyph-name="glyph155" vert-adv-y="2457" 
 />
    <glyph glyph-name="glyph160" vert-adv-y="2457" 
 />
    <glyph glyph-name="glyph161" vert-adv-y="2457" 
 />
    <glyph glyph-name="glyph172" horiz-adv-x="996" vert-adv-y="996" 
 />
    <glyph glyph-name="glyph173" vert-adv-y="2457" 
 />
    <glyph glyph-name="glyph174" vert-adv-y="2457" 
 />
    <glyph glyph-name="glyph175" vert-adv-y="2457" 
 />
    <glyph glyph-name="glyph177" vert-adv-y="2457" 
 />
    <glyph glyph-name="glyph185" vert-adv-y="2457" 
 />
    <glyph glyph-name="glyph187" vert-adv-y="2457" 
 />
    <glyph glyph-name="glyph192" vert-adv-y="2457" 
 />
    <glyph glyph-name="glyph193" vert-adv-y="2457" 
 />
    <glyph glyph-name="glyph199" vert-adv-y="2457" 
 />
    <glyph glyph-name="glyph200" vert-adv-y="2457" 
 />
    <glyph glyph-name="glyph201" vert-adv-y="2457" 
 />
    <glyph glyph-name="glyph202" vert-adv-y="2457" 
 />
    <glyph glyph-name="glyph203" vert-adv-y="2457" 
 />
    <glyph glyph-name="glyph204" vert-adv-y="2457" 
 />
    <glyph glyph-name="glyph205" vert-adv-y="2457" 
 />
    <glyph glyph-name="glyph206" vert-adv-y="2457" 
 />
    <glyph glyph-name="glyph207" vert-adv-y="2457" 
 />
    <glyph glyph-name="glyph208" vert-adv-y="2457" 
 />
    <glyph glyph-name="glyph209" vert-adv-y="2457" 
 />
    <glyph glyph-name="glyph210" vert-adv-y="2457" 
 />
    <glyph glyph-name="glyph211" vert-adv-y="2457" 
 />
    <glyph glyph-name="glyph212" vert-adv-y="2457" 
 />
    <glyph glyph-name="glyph213" vert-adv-y="2457" 
 />
    <glyph glyph-name="glyph214" vert-adv-y="2457" 
 />
    <glyph glyph-name="glyph215" vert-adv-y="2457" 
 />
    <glyph glyph-name="eight.fitted" horiz-adv-x="1021" vert-adv-y="2457" 
d="M292 732q-179 80 -179 301q0 173 126 272q115 89 274 89q171 0 288 -103q108 -94 108 -255q0 -107 -46 -185t-133 -119q224 -84 224 -345q0 -188 -122 -301q-122 -115 -322 -115q-196 0 -319 108t-123 298q0 132 59 225t165 130zM510 1189q-62 0 -98 -41
q-46 -52 -46 -139q0 -90 40 -142.5t108 -52.5q58 0 93 40q49 56 49 154q0 85 -38.5 133t-107.5 48zM509 630q-74 0 -121.5 -62.5t-47.5 -160.5q0 -103 47.5 -165t126.5 -62q82 0 126 70q42 66 42 152q0 95 -43 159q-46 69 -130 69z" />
    <glyph glyph-name="nine.fitted" horiz-adv-x="1021" vert-adv-y="2457" 
d="M101 309h261q27 -128 123 -128q103 0 151 153q32 101 40 233q-92 -117 -232 -117q-162 0 -267 123q-109 129 -109 337q0 227 133 363q117 121 284 121q217 0 338 -182t121 -508q0 -377 -144 -570q-121 -163 -319 -163q-158 0 -258 89t-122 249zM497 1171
q-68 0 -114 -72.5t-46 -178.5q0 -108 44 -185q45 -80 119 -80q77 0 120 88q39 77 39 173q0 109 -46.5 182t-115.5 73z" />
    <glyph glyph-name="zero.fitted" horiz-adv-x="1021" vert-adv-y="2457" 
d="M512 1394q132 0 233 -84q197 -162 197 -634q0 -326 -108 -506q-118 -199 -320 -199q-229 0 -346 231q-90 176 -90 483q0 333 109 513q120 196 325 196zM508 1169q-161 0 -161 -486q0 -249 40.5 -368t124.5 -119q161 0 161 482q0 253 -40 372t-125 119z" />
    <glyph glyph-name="three.fitted" horiz-adv-x="1021" vert-adv-y="2457" 
d="M357 996h-261q5 154 81 253q111 145 329 145q181 0 289 -105q105 -103 105 -267q0 -108 -44 -184t-128 -112q80 -27 129 -84q83 -97 83 -247q0 -181 -120 -301q-123 -123 -327 -123q-193 0 -308 106q-117 108 -117 304h263q1 -84 42 -130t117 -46q79 0 123 56
q46 58 46 152q0 100 -50.5 148.5t-154.5 48.5h-40v197h63q71 0 116 54t45 140q0 78 -39.5 123t-106.5 45q-130 0 -135 -173z" />
    <glyph glyph-name="two.fitted" horiz-adv-x="1021" vert-adv-y="2457" 
d="M915 241v-241h-845q4 221 71 357q43 89 108.5 154t234.5 186q98 71 141 138.5t43 150.5q0 76 -42.5 122.5t-112.5 46.5q-65 0 -105 -50t-47 -140h-266q11 171 105 288q116 143 314 143q193 0 307 -117q105 -107 105 -277q0 -149 -72.5 -253t-275.5 -243
q-127 -88 -171.5 -140.5t-53.5 -124.5h562z" />
    <glyph glyph-name="one.fitted" horiz-adv-x="1021" vert-adv-y="2457" 
d="M391 0v960q-41 -36 -83 -48.5t-127 -13.5v206q129 4 187 59.5t86 201.5h206v-1365h-269z" />
    <glyph glyph-name="Dieresis" horiz-adv-x="1177" vert-adv-y="2457" 
d="M878 1693v-246h-238v246h238zM536 1693v-246h-237v246h237z" />
    <glyph glyph-name="Dotaccent" horiz-adv-x="1177" vert-adv-y="2457" 
d="M708 1693v-246h-237v246h237z" />
    <glyph glyph-name="Ring" horiz-adv-x="1177" vert-adv-y="2457" 
d="M591 1710q-37 0 -62 -26t-25 -63t24.5 -63t59.5 -26q36 0 61 26t25 63q0 36 -24.5 62.5t-58.5 26.5zM592 1816q81 0 140 -57t59 -138q0 -80 -59 -137t-143 -57q-85 0 -143 57q-59 57 -59 137q0 81 59.5 138t145.5 57z" />
    <glyph glyph-name="Acute" horiz-adv-x="1177" vert-adv-y="2457" 
d="M873 1720l-198 -246h-233l184 246h247z" />
    <glyph glyph-name="Grave" horiz-adv-x="1177" vert-adv-y="2457" 
d="M304 1720h248l183 -246h-232z" />
    <glyph glyph-name="Circumflex" horiz-adv-x="1177" vert-adv-y="2457" 
d="M896 1475h-225l-86 121l-88 -121h-216l191 259h233z" />
    <glyph glyph-name="Caron" horiz-adv-x="1083" vert-adv-y="2457" 
d="M849 1734l-190 -259h-234l-191 259h215l89 -121l86 121h225z" />
    <glyph glyph-name="Breve" horiz-adv-x="1177" vert-adv-y="2457" 
d="M296 1720h139q28 -107 154 -107t153 107h139q-2 -68 -24 -112q-68 -141 -268 -141q-220 0 -278 164q-12 34 -15 89z" />
    <glyph glyph-name="Tilde" horiz-adv-x="1177" vert-adv-y="2457" 
d="M898 1734q-38 -253 -204 -253q-26 0 -40 4.5t-74 31.5q-92 40 -107 40q-43 0 -59 -82h-134q1 10 2 15q15 103 70 169.5t125 66.5q44 0 118 -35q76 -35 106 -35q22 0 35.5 16t28.5 62h133z" />
    <glyph glyph-name="Comma.high" horiz-adv-x="1007" vert-adv-y="2457" 
d="M839 1365v-147q0 -110 -32 -155q-51 -72 -192 -78v89q65 7 87 26t28 73h-115v192h224z" />
    <glyph glyph-name="Hungarumlaut" horiz-adv-x="1217" vert-adv-y="2457" 
d="M688 1720l-198 -246h-233l184 246h247zM1098 1720l-199 -246h-232l183 246h248z" />
    <glyph glyph-name="Cedilla" horiz-adv-x="1044" vert-adv-y="2457" 
d="M387 0h117l-40 -108q24 12 59 12q82 0 132.5 -41t50.5 -107q0 -75 -56.5 -120.5t-149.5 -45.5q-76 0 -127.5 30.5t-59.5 80.5h129q7 -31 51 -31q68 0 68 77q0 37 -18.5 58.5t-49.5 21.5q-37 0 -48 -27h-129z" />
    <glyph glyph-name="Ogonek" horiz-adv-x="1044" vert-adv-y="2457" 
d="M682 3q-94 -86 -94 -168q0 -91 94 -91q20 0 71 16v-119l-10 -3q-58 -19 -106 -19q-93 0 -151 50t-58 130q0 98 120 204h134z" />
    <glyph glyph-name="Macron" horiz-adv-x="1177" vert-adv-y="2457" 
d="M882 1658v-157h-587v157h587z" />
    <glyph glyph-name="Commaaccent" horiz-adv-x="1047" vert-adv-y="2457" 
d="M638 -95v-147q0 -110 -32 -155q-51 -72 -192 -78v89q65 7 87 26t28 73h-115v192h224z" />
    <glyph glyph-name="four.fitted" horiz-adv-x="1021" vert-adv-y="2457" 
d="M806 0h-261v294h-475v250l486 821h250v-850h141v-221h-141v-294zM545 515v473l-252 -473h252z" />
    <glyph glyph-name="Dieresis.alt" horiz-adv-x="532" vert-adv-y="2457" 
d="M522 1693v-246h-205v246h205zM214 1693v-246h-204v246h204z" />
    <glyph glyph-name="five.fitted" horiz-adv-x="1021" vert-adv-y="2457" 
d="M189 1365h661v-238h-450l-42 -281q83 69 196 69q159 0 262 -105q117 -119 117 -335q0 -232 -141 -377q-123 -127 -311 -127q-185 0 -299.5 100.5t-122.5 270.5h269q8 -70 47.5 -108t103.5 -38q81 0 129 69.5t48 187.5q0 104 -37 177q-42 85 -134 85q-50 0 -84 -25.5
t-67 -86.5h-240z" />
    <glyph glyph-name="six.fitted" horiz-adv-x="1021" vert-adv-y="2457" 
d="M919 1056h-261q-27 129 -122 129q-166 0 -192 -386q93 117 232 117q162 0 266 -123q110 -129 110 -336q0 -228 -135 -365q-119 -121 -288 -121q-215 0 -334 178t-119 499q0 383 144 580q122 166 320 166q157 0 257 -89t122 -249zM520 711q-76 0 -120 -87
q-39 -77 -39 -171q0 -112 46 -185.5t117 -73.5q68 0 113.5 73.5t45.5 182.5q0 107 -44 181q-46 80 -119 80z" />
    <glyph glyph-name="seven.fitted" horiz-adv-x="1021" vert-adv-y="2457" 
d="M119 1365h783v-225q-97 -140 -149 -240t-97 -234q-92 -274 -111 -666h-280q6 322 156 702q110 282 220 413h-522v250z" />
    </font>
</defs>
</svg>
