<?xml version="1.0" standalone="no"?>
<!DOCTYPE svg PUBLIC "-//W3C//DTD SVG 1.1//EN" "http://www.w3.org/Graphics/SVG/1.1/DTD/svg11.dtd" >
<svg xmlns="http://www.w3.org/2000/svg" xmlns:xlink="http://www.w3.org/1999/xlink" version="1.1">
<metadata>
Created by FontForge 20170731 at Mon Aug 16 18:50:45 2021
 By Aleksey,,,
Copyright (C) 2001, 2008 Hoefler &#38; Frere-Jones. http://www.typography.com
</metadata>
<defs>
<font id="GothamNarrow-Medium" horiz-adv-x="722" >
  <font-face 
    font-family="Gotham Narrow Medium"
    font-weight="350"
    font-stretch="condensed"
    units-per-em="2048"
    panose-1="0 0 0 0 0 0 0 0 0 0"
    ascent="1638"
    descent="-410"
    x-height="1085"
    cap-height="1434"
    bbox="-403 -522 2173 2017"
    underline-thickness="102"
    underline-position="-307"
    unicode-range="U+0020-FB04"
  />
<missing-glyph horiz-adv-x="1024" 
d="M0 -410v2048h1024v-2048h-1024zM145 1536l367 -799l367 799h-734zM102 -156l353 770l-353 770v-1540zM922 1384l-353 -770l353 -770v1540zM512 492l-367 -799h734z" />
    <glyph glyph-name="f_f" unicode="ff" horiz-adv-x="1347" 
d="M852 0v887h-117v192h117v84q0 167 84 248q78 78 225 78q90 0 164 -23v-194q-70 18 -113 18q-129 0 -129 -149v-62h240v-192h-238v-887h-233zM180 0v887h-121v192h121v84q0 168 80 248q81 78 227 78q90 0 164 -23v-194q-67 18 -112 18q-129 0 -129 -149v-62h237v-192h-235
v-887h-232z" />
    <glyph glyph-name="fi" unicode="fi" horiz-adv-x="1191" 
d="M180 0v887h-121v192h121v84q0 168 80 248q81 78 227 78q90 0 164 -23v-194q-67 18 -112 18q-129 0 -129 -149v-62h239v-192h-237v-887h-232zM817 0v1085h232v-1085h-232zM811 1243v227h246v-227h-246z" />
    <glyph glyph-name="fl" unicode="fl" horiz-adv-x="1191" 
d="M180 0v887h-121v192h121v84q0 168 80 248q81 78 227 78q90 0 164 -23v-194q-67 18 -112 18q-129 0 -129 -149v-62h239v-192h-237v-887h-232zM817 0v1479h232v-1479h-232z" />
    <glyph glyph-name="f_f_i" unicode="ffi" horiz-adv-x="1863" 
d="M852 0v887h-117v192h117v84q0 167 84 248q78 78 225 78q90 0 164 -23v-194q-70 18 -113 18q-129 0 -129 -149v-62h240v-192h-238v-887h-233zM180 0v887h-121v192h121v84q0 168 80 248q81 78 227 78q90 0 164 -23v-194q-67 18 -112 18q-129 0 -129 -149v-62h237v-192h-235
v-887h-232zM1491 0v1085h231v-1085h-231zM1483 1243v227h246v-227h-246z" />
    <glyph glyph-name="f_f_l" unicode="ffl" horiz-adv-x="1863" 
d="M852 0v887h-117v192h117v84q0 167 84 248q78 78 225 78q90 0 164 -23v-194q-70 18 -113 18q-129 0 -129 -149v-62h240v-192h-238v-887h-233zM180 0v887h-121v192h121v84q0 168 80 248q81 78 227 78q90 0 164 -23v-194q-67 18 -112 18q-129 0 -129 -149v-62h237v-192h-235
v-887h-232zM1491 0v1479h231v-1479h-231z" />
    <glyph glyph-name=".notdef" horiz-adv-x="1024" 
d="M0 -410v2048h1024v-2048h-1024zM145 1536l367 -799l367 799h-734zM102 -156l353 770l-353 770v-1540zM922 1384l-353 -770l353 -770v1540zM512 492l-367 -799h734z" />
    <glyph glyph-name=".null" horiz-adv-x="0" 
 />
    <glyph glyph-name="nonmarkingreturn" horiz-adv-x="682" 
 />
    <glyph glyph-name="space" unicode=" " horiz-adv-x="528" 
 />
    <glyph glyph-name="exclam" unicode="!" horiz-adv-x="565" 
d="M219 444l-74 918v72h275v-72l-74 -918h-127zM152 0v272h262v-272h-262z" />
    <glyph glyph-name="quotedbl" unicode="&#x22;" horiz-adv-x="888" 
d="M518 823l33 611h258v-13l-178 -598h-113zM113 823l34 611h259v-13l-179 -598h-114z" />
    <glyph glyph-name="numbersign" unicode="#" horiz-adv-x="1239" 
d="M1108 537v-203h-211l-49 -334h-193l47 334h-282l-47 -334h-193l47 334h-161v203h192l53 368h-182v203h211l47 326h195l-47 -326h282l47 326h193l-47 -326h161v-203h-192l-53 -368h182zM502 909l-56 -377h289l56 377h-289z" />
    <glyph glyph-name="dollar" unicode="$" horiz-adv-x="1134" 
d="M1012 1278l-123 -176q-124 99 -234 123v-404q205 -78 294 -177.5t89 -250.5v-4q0 -158 -104 -262.5t-275 -126.5v-205h-163v205q-248 26 -426 195l131 174q144 -135 299 -162v422q-201 77 -289 172t-88 248v2q0 154 102.5 257.5t270.5 125.5v127h163v-129
q199 -21 353 -154zM811 383q0 61 -34 104.5t-122 83.5v-366q74 15 115 61t41 113v4zM352 1063q0 -60 32 -101t116 -81v350q-72 -15 -110 -59.5t-38 -106.5v-2z" />
    <glyph glyph-name="percent" unicode="%" horiz-adv-x="1554" 
d="M387 713q-134 0 -218.5 102.5t-84.5 257.5v14q0 155 85.5 258t219.5 103t218.5 -102t84.5 -256v-15q0 -156 -85 -259t-220 -103zM387 1296q-61 0 -97 -58t-36 -151v-10q0 -95 38 -154t97 -59q62 0 97.5 58.5t35.5 152.5v8q0 95 -37.5 154t-97.5 59zM721 756l432 678h182
l-499 -758l-435 -676h-180zM1165 -14q-134 0 -218.5 101.5t-84.5 256.5v14q0 157 85 260t220 103q134 0 218.5 -103t84.5 -258v-14q0 -155 -85 -257.5t-220 -102.5zM1167 137q62 0 97.5 57.5t35.5 151.5v10q0 94 -37.5 153.5t-97.5 59.5q-61 0 -97 -58.5t-36 -152.5v-8
q0 -95 38 -154t97 -59z" />
    <glyph glyph-name="ampersand" unicode="&#x26;" horiz-adv-x="1259" 
d="M1040 -27l-159 183q-168 -176 -389 -176q-184 0 -305 110.5t-121 288.5v6q0 263 280 412q-63 88 -92 161t-29 148v8q0 142 103 242t270 100q154 0 251 -94.5t97 -235.5v-6q0 -129 -73 -220.5t-211 -158.5l221 -264q53 94 118 260l183 -75q-77 -210 -166 -343l196 -225z
M545 877q192 91 192 233v4q0 68 -40 111t-103 43q-67 0 -109.5 -46t-42.5 -114v-4q0 -54 23 -104.5t80 -122.5zM518 178q120 0 238 121l-287 346q-84 -47 -125 -113t-41 -137v-6q0 -93 60 -152t155 -59z" />
    <glyph glyph-name="quotesingle" unicode="'" horiz-adv-x="485" 
d="M113 823l34 611h261v-13l-181 -598h-114z" />
    <glyph glyph-name="parenleft" unicode="(" horiz-adv-x="802" 
d="M637 -283q-259 133 -390.5 354t-131.5 519q0 297 131.5 517t390.5 355l92 -151q-197 -127 -291 -304.5t-94 -416.5t94 -416.5t291 -304.5z" />
    <glyph glyph-name="parenright" unicode=")" horiz-adv-x="802" 
d="M168 -283l-92 152q196 127 289.5 304.5t93.5 416.5t-93.5 416.5t-289.5 304.5l92 151q258 -135 390 -355.5t132 -516.5q0 -298 -132 -519t-390 -354z" />
    <glyph glyph-name="asterisk" unicode="*" horiz-adv-x="796" 
d="M328 797l28 245l-190 -145l-72 123l219 96l-219 98l72 123l190 -145l-28 246h141l-29 -246l189 145l73 -123l-219 -98l219 -96l-73 -123l-189 145l29 -245h-141z" />
    <glyph glyph-name="plus" unicode="+" horiz-adv-x="1134" 
d="M459 264v350h-346v213h346v351h219v-351h344v-213h-344v-350h-219z" />
    <glyph glyph-name="comma" unicode="," horiz-adv-x="507" 
d="M86 -297l-27 100q184 36 168 197h-104v272h262v-229q0 -160 -74 -241t-225 -99z" />
    <glyph glyph-name="hyphen" unicode="-" horiz-adv-x="778" 
d="M104 512v229h570v-229h-570z" />
    <glyph glyph-name="period" unicode="." horiz-adv-x="507" 
d="M123 0v272h262v-272h-262z" />
    <glyph glyph-name="slash" unicode="/" horiz-adv-x="927" 
d="M-41 -244l782 1860h201l-782 -1860h-201z" />
    <glyph glyph-name="zero" unicode="0" horiz-adv-x="1284" 
d="M641 -23q-164 0 -287 91t-188.5 255.5t-65.5 381.5v22q0 216 66.5 381t190.5 256.5t288 91.5q245 0 393 -199.5t148 -527.5v-22q0 -216 -66.5 -381.5t-190.5 -257t-288 -91.5zM645 195q135 0 216 137.5t81 374.5v16q0 237 -83 376.5t-218 139.5t-217 -137.5t-82 -374.5
v-16q0 -239 83 -377.5t220 -138.5z" />
    <glyph glyph-name="one" unicode="1" horiz-adv-x="714" 
d="M311 0v1196l-225 -68l-39 205l332 111h168v-1444h-236z" />
    <glyph glyph-name="two" unicode="2" horiz-adv-x="1095" 
d="M88 0v188l438 469q126 130 174 209t48 164q0 94 -59.5 149.5t-149.5 55.5q-82 0 -148 -44t-139 -140l-158 145q93 129 204 193.5t261 64.5q190 0 310 -110.5t120 -292.5v-4q0 -96 -33.5 -178t-92.5 -155.5t-173 -187.5l-287 -311h592v-215h-907z" />
    <glyph glyph-name="three" unicode="3" horiz-adv-x="1091" 
d="M520 -23q-281 0 -459 197l148 168q135 -149 309 -149q101 0 168.5 63t67.5 164v6q0 109 -87.5 169t-238.5 60h-72l-30 150l348 416h-543v213h840v-187l-363 -416q78 -12 144 -40.5t120.5 -75t85.5 -119t31 -162.5v-6q0 -200 -131.5 -325.5t-337.5 -125.5z" />
    <glyph glyph-name="four" unicode="4" horiz-adv-x="1214" 
d="M729 0v311h-635l-33 172l682 959h211v-932h179v-199h-179v-311h-225zM324 510h405v575z" />
    <glyph glyph-name="five" unicode="5" horiz-adv-x="1105" 
d="M518 -23q-251 0 -442 181l135 176q153 -137 305 -137q116 0 186 69.5t70 186.5v4q0 112 -73.5 176.5t-190.5 64.5q-109 0 -217 -53l-139 92l38 697h758v-217h-557l-22 -340q101 32 190 32q93 0 173 -27t142.5 -80t98 -139.5t35.5 -197.5v-4q0 -219 -136.5 -351.5
t-353.5 -132.5z" />
    <glyph glyph-name="six" unicode="6" horiz-adv-x="1177" 
d="M602 -23q-207 0 -336 129q-82 83 -124 213t-42 343v14q0 365 145.5 572.5t409.5 207.5q197 0 367 -131l-117 -188q-129 102 -256 102q-75 0 -134 -36.5t-95.5 -100.5t-56 -144.5t-21.5 -173.5q121 131 301 131q89 0 167 -28.5t138.5 -83t95.5 -141t35 -193.5v-4
q0 -214 -136.5 -351t-340.5 -137zM600 186q112 0 178 74.5t66 192.5v4q0 117 -68 187.5t-180 70.5t-180 -71.5t-68 -186.5v-4q0 -118 69 -192.5t183 -74.5z" />
    <glyph glyph-name="seven" unicode="7" horiz-adv-x="1081" 
d="M184 0l551 1217h-624v217h882v-179l-551 -1255h-258z" />
    <glyph glyph-name="eight" unicode="8" horiz-adv-x="1138" 
d="M569 -20q-213 0 -350 112t-137 295v6q0 244 233 350q-192 106 -192 320v8q0 166 127 274.5t319 108.5q193 0 319 -108t126 -275v-8q0 -216 -193 -320q236 -112 236 -346v-8q0 -186 -137.5 -297.5t-350.5 -111.5zM569 829q95 0 157 61t62 157v4q0 90 -61.5 148t-157.5 58
t-157.5 -57t-61.5 -149v-4q0 -95 62.5 -156.5t156.5 -61.5zM569 178q116 0 185 62.5t69 162.5v5q0 102 -72 164.5t-182 62.5q-111 0 -183.5 -62.5t-72.5 -164.5v-5q0 -99 70 -162t186 -63z" />
    <glyph glyph-name="nine" unicode="9" horiz-adv-x="1175" 
d="M526 195q98 0 169 63.5t104.5 161t36.5 217.5q-117 -133 -299 -133q-192 0 -315.5 120t-123.5 332v7q0 215 134.5 354t340.5 139q207 0 338 -131q80 -80 123 -211.5t43 -341.5v-14q0 -370 -147.5 -575.5t-407.5 -205.5q-208 0 -389 144l119 188q136 -114 274 -114z
M580 705q113 0 180 74t67 192v2q0 123 -68 198.5t-184 75.5q-112 0 -177.5 -76.5t-65.5 -197.5v-4q0 -121 67.5 -192.5t180.5 -71.5z" />
    <glyph glyph-name="colon" unicode=":" horiz-adv-x="528" 
d="M133 813v272h262v-272h-262zM133 0v272h262v-272h-262z" />
    <glyph glyph-name="semicolon" unicode=";" horiz-adv-x="528" 
d="M133 813v272h262v-272h-262zM96 -297l-26 100q184 36 168 197h-105v272h262v-229q0 -160 -74 -241t-225 -99z" />
    <glyph glyph-name="less" unicode="&#x3c;" horiz-adv-x="1134" 
d="M983 188l-868 428v209l868 428v-235l-633 -295l633 -297v-238z" />
    <glyph glyph-name="equal" unicode="=" horiz-adv-x="1134" 
d="M125 844v219h885v-219h-885zM125 379v219h885v-219h-885z" />
    <glyph glyph-name="greater" unicode="&#x3e;" horiz-adv-x="1134" 
d="M154 188v236l632 295l-632 297v237l866 -428v-209z" />
    <glyph glyph-name="question" unicode="?" horiz-adv-x="968" 
d="M358 444l-34 340l10 11q164 15 247 77t83 164v4q0 86 -59 139.5t-156 53.5q-148 0 -279 -135l-135 159q178 193 424 193q198 0 319 -110t121 -291v-5q0 -88 -28 -158t-79 -118t-114.5 -79.5t-142.5 -49.5l-21 -195h-156zM303 0v272h262v-272h-262z" />
    <glyph glyph-name="at" unicode="@" horiz-adv-x="1796" 
d="M899 -315q-171 0 -320.5 63.5t-256 174t-168 266.5t-60.5 335q0 186 63.5 356.5t172.5 297.5t265 202.5t331 75.5q162 0 307.5 -62.5t247.5 -166t161.5 -241.5t59.5 -286q0 -253 -108.5 -407t-270.5 -154q-106 0 -172.5 43t-95.5 113q-126 -156 -287 -156
q-134 0 -222.5 94.5t-88.5 253.5q0 147 58.5 275t154.5 202t204 74q168 0 248 -153l25 125l188 -31l-90 -516q-12 -59 -12 -105q0 -61 34.5 -95t98.5 -34q106 0 180 132t74 341q0 131 -52 254t-142 217t-221.5 150.5t-280.5 56.5q-160 0 -301 -70t-238.5 -187t-154 -273.5
t-56.5 -325.5q0 -220 92.5 -394t258.5 -272t376 -98q129 0 234 30t211 93l38 -63q-224 -135 -485 -135zM825 307q83 0 146 66q47 47 77.5 131t30.5 166q0 89 -48.5 141.5t-123.5 52.5q-84 0 -149 -65q-46 -49 -75.5 -133.5t-29.5 -163.5q0 -94 47 -144.5t125 -50.5z" />
    <glyph glyph-name="A" unicode="A" horiz-adv-x="1380" 
d="M49 0l526 1442h230l526 -1442h-248l-118 338h-557l-119 -338h-240zM481 549h410l-205 575z" />
    <glyph glyph-name="B" unicode="B" horiz-adv-x="1273" 
d="M156 0v1434h512q243 0 366 -123q96 -96 96 -242v-6q0 -220 -210 -322q130 -45 201 -125.5t71 -216.5v-8q0 -186 -138.5 -288.5t-371.5 -102.5h-526zM893 1026v4q0 91 -63.5 141t-178.5 50h-262v-398h248q119 0 187.5 52.5t68.5 150.5zM954 420q0 95 -71.5 149t-204.5 54
h-289v-410h299q124 0 195 53t71 150v4z" />
    <glyph glyph-name="C" unicode="C" horiz-adv-x="1263" 
d="M731 -20q-277 0 -453 201.5t-176 527.5v14q0 214 82.5 381t228.5 258.5t330 91.5q142 0 248.5 -45.5t202.5 -132.5l-143 -182q-71 66 -144.5 102.5t-163.5 36.5q-171 0 -283 -142t-112 -368v-8q0 -230 112 -372t283 -142q95 0 168 38t150 111l139 -168
q-97 -100 -210.5 -151t-258.5 -51z" />
    <glyph glyph-name="D" unicode="D" horiz-adv-x="1376" 
d="M156 0v1434h438q306 0 493 -195.5t187 -511.5v-16q0 -208 -84 -369.5t-239 -251.5t-357 -90h-438zM592 1219h-199v-1004h199q198 0 317 133t119 361v12q0 230 -119 364t-317 134z" />
    <glyph glyph-name="E" unicode="E" horiz-adv-x="1163" 
d="M156 0v1434h903v-215h-668v-390h592v-215h-592v-399h678v-215h-913z" />
    <glyph glyph-name="F" unicode="F" horiz-adv-x="1130" 
d="M156 0v1434h899v-220h-662v-403h586v-217h-586v-594h-237z" />
    <glyph glyph-name="G" unicode="G" horiz-adv-x="1372" 
d="M758 -20q-293 0 -474.5 199.5t-181.5 527.5v16q0 209 83.5 375.5t234 261t340.5 94.5q142 0 248.5 -39.5t205.5 -122.5l-141 -188q-69 63 -142.5 96t-174.5 33q-176 0 -292 -143t-116 -365v-12q0 -239 116.5 -377.5t303.5 -138.5q149 0 254 75v316h-301v209h526v-643
q-219 -174 -489 -174z" />
    <glyph glyph-name="H" unicode="H" horiz-adv-x="1347" 
d="M156 0v1434h237v-603h563v603h238v-1434h-238v610h-563v-610h-237z" />
    <glyph glyph-name="I" unicode="I" horiz-adv-x="571" 
d="M168 0v1434h238v-1434h-238z" />
    <glyph glyph-name="J" unicode="J" horiz-adv-x="972" 
d="M410 -18q-124 0 -220 51t-159 139l149 164q49 -66 102 -98.5t121 -32.5q89 0 140 60t51 181v988h242v-996q0 -226 -121 -344q-112 -112 -305 -112z" />
    <glyph glyph-name="K" unicode="K" horiz-adv-x="1282" 
d="M156 0v1434h237v-705l555 705h287l-500 -617l522 -817h-282l-404 629l-178 -215v-414h-237z" />
    <glyph glyph-name="L" unicode="L" horiz-adv-x="1069" 
d="M156 0v1434h237v-1215h615v-219h-852z" />
    <glyph glyph-name="M" unicode="M" horiz-adv-x="1542" 
d="M156 0v1434h247l369 -660l367 660h250v-1434h-236v1014l-381 -664h-6l-379 660v-1010h-231z" />
    <glyph glyph-name="N" unicode="N" horiz-adv-x="1394" 
d="M156 0v1434h221l631 -957v957h231v-1434h-201l-649 985v-985h-233z" />
    <glyph glyph-name="O" unicode="O" horiz-adv-x="1474" 
d="M735 -23q-184 0 -328.5 93t-224.5 259t-80 376v20q0 211 80.5 377.5t226 260t330.5 93.5q184 0 328.5 -93t224.5 -258.5t80 -375.5v-20q0 -211 -80.5 -378t-226 -260.5t-330.5 -93.5zM739 197q170 0 278.5 141t108.5 371v14q0 229 -110 371.5t-281 142.5
q-170 0 -278.5 -141t-108.5 -371v-14q0 -228 110.5 -371t280.5 -143z" />
    <glyph glyph-name="P" unicode="P" horiz-adv-x="1191" 
d="M156 0v1434h458q236 0 376 -128.5t140 -349.5v-4q0 -154 -71.5 -265t-189.5 -165.5t-269 -56.5h-207v-465h-237zM393 680h207q135 0 212 73t77 195v2q0 128 -76 197.5t-213 69.5h-207v-537z" />
    <glyph glyph-name="Q" unicode="Q" horiz-adv-x="1478" 
d="M1399 119l-146 -160l-151 141q-161 -123 -365 -123q-185 0 -330 93t-225 259t-80 376v20q0 211 80.5 377.5t226 260t330.5 93.5q184 0 328.5 -93t224.5 -258.5t80 -375.5v-20q0 -261 -129 -455zM743 195q115 0 195 57l-213 190l145 160l199 -190q57 123 57 295v18
q0 229 -109.5 370.5t-281.5 141.5q-170 0 -278.5 -140t-108.5 -370v-18q0 -233 110.5 -373.5t284.5 -140.5z" />
    <glyph glyph-name="R" unicode="R" horiz-adv-x="1277" 
d="M156 0v1434h518q247 0 383 -136q119 -119 119 -315v-8q0 -159 -80 -265.5t-217 -154.5l338 -555h-275l-305 508q-4 -2 -14 -2h-230v-506h-237zM393 719h256q136 0 211.5 67t75.5 181v4q0 120 -74 183t-209 63h-260v-498z" />
    <glyph glyph-name="S" unicode="S" horiz-adv-x="1124" 
d="M571 -18q-293 0 -518 206l144 179q89 -81 179.5 -125.5t196.5 -44.5q102 0 164 51t62 131v2q0 48 -21 82.5t-81.5 72t-172.5 78.5q-109 41 -180.5 79t-127 89t-80.5 115.5t-25 149.5v4q0 177 127 289t327 112q260 0 451 -168l-135 -182q-165 135 -322 135q-95 0 -152 -47
t-57 -119v-2q0 -77 59 -128t238 -120q206 -79 297.5 -174.5t91.5 -247.5v-4q0 -187 -130.5 -300t-334.5 -113z" />
    <glyph glyph-name="T" unicode="T" horiz-adv-x="1124" 
d="M442 0v1212h-376v222h991v-222h-377v-1212h-238z" />
    <glyph glyph-name="U" unicode="U" horiz-adv-x="1341" 
d="M668 -23q-245 0 -388 147.5t-143 422.5v887h238v-885q0 -171 78.5 -261.5t218.5 -90.5q138 0 216.5 88.5t78.5 255.5v893h235v-879q0 -283 -142.5 -430.5t-391.5 -147.5z" />
    <glyph glyph-name="V" unicode="V" horiz-adv-x="1310" 
d="M547 -8l-498 1442h258l352 -1084l353 1084h250l-496 -1442h-219z" />
    <glyph glyph-name="W" unicode="W" horiz-adv-x="1968" 
d="M475 -8l-416 1442h252l281 -1041l293 1045h205l292 -1045l281 1041h246l-418 -1442h-215l-293 1012l-293 -1012h-215z" />
    <glyph glyph-name="X" unicode="X" horiz-adv-x="1280" 
d="M936 1434h264l-422 -701l443 -733h-273l-311 547l-311 -547h-265l439 731l-420 703h270l291 -516z" />
    <glyph glyph-name="Y" unicode="Y" horiz-adv-x="1255" 
d="M510 0v571l-483 863h272l332 -621l334 621h264l-481 -861v-573h-238z" />
    <glyph glyph-name="Z" unicode="Z" horiz-adv-x="1214" 
d="M109 0v176l704 1045h-682v213h979v-177l-704 -1044h704v-213h-1001z" />
    <glyph glyph-name="bracketleft" unicode="[" horiz-adv-x="821" 
d="M166 -266v1700h553v-179h-334v-1343h334v-178h-553z" />
    <glyph glyph-name="backslash" unicode="\" horiz-adv-x="927" 
d="M768 -244l-782 1860h200l783 -1860h-201z" />
    <glyph glyph-name="bracketright" unicode="]" horiz-adv-x="821" 
d="M102 -266v178h334v1343h-334v179h553v-1700h-553z" />
    <glyph glyph-name="asciicircum" unicode="^" horiz-adv-x="987" 
d="M145 1022l263 408h170l262 -408h-174l-174 262l-177 -262h-170z" />
    <glyph glyph-name="underscore" unicode="_" horiz-adv-x="1138" 
d="M-4 -324v183h1147v-183h-1147z" />
    <glyph glyph-name="grave" unicode="`" horiz-adv-x="1024" 
d="M514 1206l-233 226l206 96l197 -322h-170z" />
    <glyph glyph-name="a" unicode="a" horiz-adv-x="1048" 
d="M401 -20q-141 0 -236 89t-95 242v11q0 170 104 259t281 89q123 0 250 -43v45q0 108 -61.5 164.5t-172.5 56.5q-118 0 -262 -66l-66 185q175 86 359 86q211 0 319 -111q109 -109 109 -313v-674h-228v133q-105 -153 -301 -153zM471 154q100 -2 168 58.5t68 152.5v108
q-90 39 -201 39q-100 0 -155.5 -48t-55.5 -134v-4q0 -79 49 -124.5t127 -47.5z" />
    <glyph glyph-name="b" unicode="b" horiz-adv-x="1187" 
d="M680 -20q-192 0 -318 184v-164h-231v1479h231v-568q59 90 134.5 142.5t183.5 52.5q83 0 158 -35t134.5 -101t94.5 -173t35 -240v-29q0 -132 -35 -238.5t-94 -173t-134 -101.5t-159 -35zM616 184q109 0 180.5 94.5t71.5 253.5v19q0 159 -72.5 254.5t-179.5 95.5
q-108 0 -183 -96.5t-75 -251.5v-21q0 -155 75 -251.5t183 -96.5z" />
    <glyph glyph-name="c" unicode="c" horiz-adv-x="985" 
d="M569 -23q-213 0 -350 154.5t-137 396.5v21q0 242 141 399.5t355 157.5q111 0 193 -37.5t155 -110.5l-129 -170q-50 52 -101 80.5t-118 28.5q-114 0 -188.5 -98.5t-74.5 -251.5v-10q0 -158 75 -255.5t194 -97.5q65 0 116 28.5t105 82.5l125 -154q-147 -164 -361 -164z" />
    <glyph glyph-name="d" unicode="d" horiz-adv-x="1187" 
d="M508 -20q-83 0 -158 35t-134.5 101t-94.5 172.5t-35 239.5v27q0 133 35 240t94 174t134 102t159 35q108 0 183 -50t134 -134v557h232v-1479h-232v174q-59 -90 -134 -142t-183 -52zM571 184q108 0 183 96.5t75 251.5v21q0 155 -75 251.5t-183 96.5q-109 0 -180.5 -95
t-71.5 -255v-16q0 -159 72.5 -255t179.5 -96z" />
    <glyph glyph-name="e" unicode="e" horiz-adv-x="1073" 
d="M578 -23q-214 0 -355 151.5t-141 401.5v17q0 244 131.5 401.5t331.5 157.5q144 0 247 -75.5t153 -203t50 -292.5q0 -47 -2 -80h-680q15 -133 90.5 -207t184.5 -74q132 0 250 115l120 -144q-158 -168 -380 -168zM311 614h459q-9 134 -68 215.5t-157 81.5q-96 0 -159 -80
t-75 -217z" />
    <glyph glyph-name="f" unicode="f" horiz-adv-x="673" 
d="M180 0v887h-121v192h121v84q0 168 80 248q81 78 227 78q90 0 164 -23v-194q-67 18 -112 18q-129 0 -129 -149v-62h239v-192h-237v-887h-232z" />
    <glyph glyph-name="g" unicode="g" horiz-adv-x="1187" 
d="M543 -313q-225 0 -412 102l76 182q152 -92 325 -92q144 0 219.5 72t75.5 215v104q-42 -59 -83.5 -97.5t-105 -65.5t-138.5 -27q-83 0 -156.5 33t-131.5 95t-92 160.5t-34 219.5v8q0 122 34.5 221t92.5 161t131.5 95t155.5 33q110 0 187 -49t138 -133v161h232v-909
q0 -237 -123 -360q-126 -129 -391 -129zM569 281q108 0 184 86t76 223v4q0 138 -76 223.5t-184 85.5q-109 0 -179.5 -84t-70.5 -225v-2q0 -141 71.5 -226t178.5 -85z" />
    <glyph glyph-name="h" unicode="h" horiz-adv-x="1114" 
d="M131 0v1479h231v-553q114 180 297 180q156 0 245 -102.5t89 -276.5v-727h-231v662q0 113 -51 174t-144 61q-92 0 -148.5 -64.5t-56.5 -175.5v-657h-231z" />
    <glyph glyph-name="i" unicode="i" horiz-adv-x="518" 
d="M135 1243v227h246v-227h-246zM143 0v1085h232v-1085h-232z" />
    <glyph glyph-name="j" unicode="j" horiz-adv-x="520" 
d="M137 1243v227h248v-227h-248zM84 -315q-54 0 -107 12v184q27 -6 56 -6q112 0 112 129v1081h232v-1099q0 -150 -74.5 -225.5t-218.5 -75.5z" />
    <glyph glyph-name="k" unicode="k" horiz-adv-x="1042" 
d="M131 0v1479h231v-871l371 477h275l-361 -442l371 -643h-268l-263 465l-125 -152v-313h-231z" />
    <glyph glyph-name="l" unicode="l" horiz-adv-x="518" 
d="M143 0v1479h232v-1479h-232z" />
    <glyph glyph-name="m" unicode="m" horiz-adv-x="1708" 
d="M131 0v1085h231v-157q54 83 123 130.5t168 47.5q97 0 169.5 -46t111.5 -128q131 174 317 174q153 0 242.5 -98.5t89.5 -280.5v-727h-231v659q0 116 -47.5 177t-137.5 61q-87 0 -140.5 -63.5t-53.5 -176.5v-657h-232v662q0 114 -47.5 174.5t-134.5 60.5q-89 0 -143 -65.5
t-54 -176.5v-655h-231z" />
    <glyph glyph-name="n" unicode="n" horiz-adv-x="1114" 
d="M131 0v1085h231v-159q114 180 297 180q156 0 245 -102.5t89 -276.5v-727h-231v662q0 113 -51 174t-144 61q-92 0 -148.5 -64.5t-56.5 -175.5v-657h-231z" />
    <glyph glyph-name="o" unicode="o" horiz-adv-x="1163" 
d="M580 -23q-216 0 -357 156t-141 397v19q0 240 143 398.5t359 158.5q215 0 356 -157t141 -398v-19q0 -157 -64.5 -284t-179 -199t-257.5 -72zM584 180q120 0 193 100t73 255v12q0 153 -76 253.5t-194 100.5q-120 0 -193.5 -99t-73.5 -253v-12q0 -153 76.5 -255t194.5 -102z
" />
    <glyph glyph-name="p" unicode="p" horiz-adv-x="1187" 
d="M131 -309v1394h231v-174q59 90 134.5 142.5t183.5 52.5q83 0 158 -35t134.5 -101t94.5 -173t35 -240v-29q0 -132 -35 -238.5t-94 -173t-134 -101.5t-159 -35q-192 0 -318 184v-473h-231zM616 184q109 0 180.5 94.5t71.5 253.5v19q0 159 -72.5 254.5t-179.5 95.5
q-108 0 -183 -96.5t-75 -251.5v-21q0 -155 75 -251.5t183 -96.5z" />
    <glyph glyph-name="q" unicode="q" horiz-adv-x="1187" 
d="M825 -309v483q-59 -90 -134 -142t-183 -52q-83 0 -158 35t-134.5 101t-94.5 172.5t-35 239.5v27q0 133 35 240t94 174t134 102t159 35q108 0 183 -50t134 -134v163h232v-1394h-232zM571 184q108 0 183 96.5t75 251.5v21q0 155 -75 251.5t-183 96.5q-109 0 -180.5 -95
t-71.5 -255v-16q0 -159 72.5 -255t179.5 -96z" />
    <glyph glyph-name="r" unicode="r" horiz-adv-x="737" 
d="M131 0v1085h231v-213q45 112 126.5 174t199.5 56v-252h-10q-145 0 -230.5 -95t-85.5 -276v-479h-231z" />
    <glyph glyph-name="s" unicode="s" horiz-adv-x="888" 
d="M444 -20q-101 0 -207 38t-196 113l109 166q156 -127 299 -127q70 0 110.5 33.5t40.5 85.5v2q0 23 -11.5 43t-25 33.5t-47.5 31.5t-56 28t-73 32q-71 31 -116.5 56t-91 63t-67.5 88t-22 114v4q0 144 102 231t257 87q91 0 183 -30.5t169 -86.5l-99 -170q-143 96 -258 96
q-63 0 -100 -30t-37 -76v-4q0 -26 11 -45.5t49 -43t57.5 -33t87.5 -40.5q5 -3 8 -4q71 -32 118 -59.5t91 -66t65 -87.5t21 -111v-2q0 -155 -104 -242t-267 -87z" />
    <glyph glyph-name="t" unicode="t" horiz-adv-x="729" 
d="M457 -16q-281 0 -281 278v625h-119v198h119v293h232v-293h243v-198h-243v-578q0 -119 116 -119q65 0 125 31v-190q-86 -47 -192 -47z" />
    <glyph glyph-name="u" unicode="u" horiz-adv-x="1114" 
d="M455 -20q-157 0 -245.5 101t-88.5 277v727h231v-661q0 -113 51 -174.5t142 -61.5q92 0 148.5 64.5t56.5 175.5v657h233v-1085h-233v158q-113 -178 -295 -178z" />
    <glyph glyph-name="v" unicode="v" horiz-adv-x="1064" 
d="M426 -8l-379 1093h244l244 -790l245 790h240l-379 -1093h-215z" />
    <glyph glyph-name="w" unicode="w" horiz-adv-x="1548" 
d="M358 -8l-303 1093h238l184 -733l201 735h196l201 -735l187 733h233l-305 -1093h-213l-203 725l-205 -725h-211z" />
    <glyph glyph-name="x" unicode="x" horiz-adv-x="1040" 
d="M313 1085l207 -364l211 364h244l-326 -530l340 -555h-250l-221 387l-223 -387h-244l336 555l-324 530h250z" />
    <glyph glyph-name="y" unicode="y" horiz-adv-x="1067" 
d="M543 297l235 788h240l-369 -1101q-55 -164 -128 -231.5t-193 -67.5q-114 0 -219 57l67 178q68 -37 125 -37q47 0 77 25.5t54 89.5l-387 1087h246z" />
    <glyph glyph-name="z" unicode="z" horiz-adv-x="974" 
d="M84 0v160l528 733h-510v192h793v-159l-528 -733h526v-193h-809z" />
    <glyph glyph-name="braceleft" unicode="{" horiz-adv-x="880" 
d="M760 -289q-238 35 -334 127t-96 248q0 29 11 101.5t11 103.5q0 106 -51 156.5t-164 50.5h-49v180h49q112 0 163.5 51.5t51.5 157.5q0 31 -11 103.5t-11 101.5q0 75 21 133t69 106.5t133 81.5t207 51l37 -157q-149 -31 -201.5 -84t-52.5 -158q0 -35 12 -104.5t12 -104.5
q0 -209 -219 -268q219 -58 219 -269q0 -35 -12 -104t-12 -104q0 -104 52 -156.5t202 -85.5z" />
    <glyph glyph-name="bar" unicode="|" horiz-adv-x="620" 
d="M217 -244v1860h186v-1860h-186z" />
    <glyph glyph-name="braceright" unicode="}" horiz-adv-x="880" 
d="M121 -289l-37 158q150 33 202 85.5t52 156.5q0 35 -12.5 104t-12.5 104q0 107 57 174.5t162 94.5q-219 58 -219 268q0 35 12.5 104.5t12.5 104.5q0 105 -52.5 158t-201.5 84l37 157q122 -18 207 -51t133 -81.5t69 -106.5t21 -133q0 -29 -11.5 -101.5t-11.5 -103.5
q0 -106 51.5 -157.5t165.5 -51.5h48v-180h-48q-114 0 -165.5 -50.5t-51.5 -156.5q0 -31 11.5 -103.5t11.5 -101.5q0 -156 -96 -248t-334 -127z" />
    <glyph glyph-name="asciitilde" unicode="~" horiz-adv-x="921" 
d="M606 498q-69 0 -157 47q-84 39 -113 39q-36 0 -56 -22.5t-42 -78.5l-129 39q28 120 78.5 179t129.5 59q68 0 156 -45q84 -39 113 -39q37 0 60 23t42 77l125 -39q-28 -120 -78.5 -179.5t-128.5 -59.5z" />
    <glyph glyph-name="uni00A0" unicode="&#xa0;" horiz-adv-x="528" 
 />
    <glyph glyph-name="exclamdown" unicode="&#xa1;" horiz-adv-x="565" 
d="M152 1161v273h262v-273h-262zM145 0v72l74 917h127l74 -917v-72h-275z" />
    <glyph glyph-name="cent" unicode="&#xa2;" horiz-adv-x="1015" 
d="M754 1444l-25 -174q118 -34 213 -129l-127 -168q-63 63 -121 86l-94 -690q62 1 114.5 28.5t106.5 79.5l125 -151q-154 -164 -368 -164l-25 -174h-166l29 200q-147 53 -236.5 194t-89.5 333v16q0 237 134 393t339 164l23 156h168zM322 721q0 -107 34 -187.5t95 -123.5
l92 665q-100 -18 -160.5 -110t-60.5 -236v-8z" />
    <glyph glyph-name="sterling" unicode="&#xa3;" horiz-adv-x="1134" 
d="M106 0v152l144 47v381h-144v202h144v209q0 232 119 348q113 113 301 113q243 0 387 -190l-168 -154q-92 121 -211 121q-78 0 -127 -49q-62 -59 -62 -195v-203h420v-202h-420v-371h562v-209h-945z" />
    <glyph glyph-name="yen" unicode="&#xa5;" horiz-adv-x="1220" 
d="M164 537v174h270l-401 723h266l313 -609l316 609h260l-404 -723h273v-174h-332v-150h332v-174h-332v-213h-229v213h-332v174h332v150h-332z" />
    <glyph glyph-name="section" unicode="&#xa7;" horiz-adv-x="1148" 
d="M844 469q104 -75 104 -195v-4q0 -131 -100.5 -210.5t-269.5 -79.5q-240 0 -402 153l119 146q133 -113 278 -113q73 0 112.5 27t39.5 71v4q0 45 -52.5 78.5t-193.5 75.5q-207 60 -296 126.5t-89 172.5v4q0 88 56.5 149.5t154.5 90.5q-104 73 -104 194v4q0 132 100.5 211.5
t269.5 79.5q240 0 400 -154l-117 -145q-133 113 -279 113q-72 0 -111.5 -27.5t-39.5 -71.5v-4q0 -46 51 -78.5t195 -74.5q208 -61 296.5 -126.5t88.5 -172.5v-4q0 -88 -56.5 -149.5t-154.5 -90.5zM694 563q62 0 105 33t43 82v4q0 47 -48.5 81t-160.5 68q-116 39 -178 39
t-105 -32.5t-43 -81.5v-4q0 -47 49 -81.5t160 -68.5q116 -39 178 -39z" />
    <glyph glyph-name="dieresis" unicode="&#xa8;" horiz-adv-x="1024" 
d="M575 1210v228h230v-228h-230zM219 1210v228h230v-228h-230z" />
    <glyph glyph-name="copyright" unicode="&#xa9;" horiz-adv-x="1511" 
d="M754 -25q-185 0 -338 97t-239.5 264.5t-86.5 368.5v22q0 151 51.5 286t140 233t212.5 155t264 57q185 0 337.5 -96t239 -263.5t86.5 -369.5v-22q0 -201 -87 -369t-240.5 -265.5t-339.5 -97.5zM754 49q127 0 237.5 51t188 139t122 209.5t44.5 258.5v24q0 182 -75 331
t-210 235.5t-303 86.5q-169 0 -304.5 -87t-210.5 -237t-75 -333v-25q0 -182 74.5 -331t209 -235.5t302.5 -86.5zM768 322q-150 0 -246 109.5t-96 285.5v12q0 177 98 288t250 111q143 0 248 -98l-86 -108q-77 73 -162 73q-88 0 -145.5 -72.5t-57.5 -191.5v-10
q0 -121 58 -193.5t147 -72.5q48 0 85.5 18.5t80.5 58.5l82 -98q-103 -112 -256 -112z" />
    <glyph glyph-name="ordfeminine" unicode="&#xaa;" horiz-adv-x="712" 
d="M289 825q-78 0 -131.5 49t-53.5 134v6q0 94 58 143t157 49q65 0 132 -24v22q0 57 -32.5 87t-92.5 30q-64 0 -144 -37l-41 107q100 49 205 49q114 0 176 -62q60 -60 60 -174v-368h-131v69q-60 -80 -162 -80zM98 594v108h498v-108h-498zM328 928q53 0 89 30.5t36 79.5v56
q-48 20 -107 20q-53 0 -81.5 -24t-28.5 -68v-8q0 -40 25.5 -63t66.5 -23z" />
    <glyph glyph-name="guillemotleft" unicode="&#xab;" horiz-adv-x="1126" 
d="M872 86l-331 446v17l331 446l164 -86l-241 -366l241 -367zM410 86l-330 446v17l330 446l163 -86l-239 -366l241 -367z" />
    <glyph glyph-name="registered" unicode="&#xae;" horiz-adv-x="739" 
d="M369 735q-138 0 -232 103t-94 252v12q0 150 94 253t232 103q141 0 235 -102.5t94 -253.5v-10q0 -150 -95 -253.5t-234 -103.5zM369 774q123 0 204.5 92t81.5 226v10q0 134 -80.5 224.5t-205.5 90.5q-122 0 -202.5 -91.5t-80.5 -223.5v-12q0 -134 80 -225t203 -91z
M238 913v379h145q65 0 104 -31.5t39 -91.5v-2q0 -81 -73 -112l84 -142h-95l-73 125h-50v-125h-81zM319 1106h60q29 0 46 15.5t17 41.5q0 56 -63 56h-60v-113z" />
    <glyph glyph-name="macron" unicode="&#xaf;" horiz-adv-x="1024" 
d="M203 1225v166h618v-166h-618z" />
    <glyph glyph-name="degree" unicode="&#xb0;" horiz-adv-x="839" 
d="M420 776q-125 0 -215 95.5t-90 234.5v10q0 139 90 234.5t215 95.5t215 -95.5t90 -234.5v-10q0 -139 -90 -234.5t-215 -95.5zM420 909q70 0 116 56.5t46 142.5v6q0 86 -46 142.5t-116 56.5q-71 0 -117.5 -56.5t-46.5 -142.5v-6q0 -86 46.5 -142.5t117.5 -56.5z" />
    <glyph glyph-name="plusminus" unicode="&#xb1;" horiz-adv-x="1134" 
d="M1014 723h-340v-340h-213l2 340h-342v209h342l-2 340h213v-340h340v-209zM1014 18h-891v201h891v-201z" />
    <glyph glyph-name="two.sup" unicode="&#xb2;" 
d="M96 887v121l252 245q67 65 94 104.5t27 82.5q0 46 -32 74t-79 28q-84 0 -170 -102l-92 88q59 75 122 111t151 36q111 0 180 -61t69 -160q0 -70 -32.5 -126t-112.5 -132l-186 -180h336v-129h-527z" />
    <glyph glyph-name="three.sup" unicode="&#xb3;" 
d="M348 870q-156 0 -270 109l78 106q93 -86 192 -86q54 0 90.5 32t36.5 83q0 54 -46 83.5t-126 29.5h-59l-19 92l205 209h-309v131h487v-111l-213 -213q101 -11 162 -65.5t61 -151.5q0 -112 -74.5 -180t-195.5 -68z" />
    <glyph glyph-name="acute" unicode="&#xb4;" horiz-adv-x="1024" 
d="M334 1206l198 322l205 -96l-233 -226h-170z" />
    <glyph glyph-name="paragraph" unicode="&#xb6;" horiz-adv-x="1013" 
d="M623 0v494h-27q-151 2 -268.5 54t-188.5 158.5t-71 254.5v4q0 222 144 345.5t380 123.5h268v-1434h-237z" />
    <glyph glyph-name="periodcentered" unicode="&#xb7;" horiz-adv-x="516" 
d="M127 489v275h262v-275h-262z" />
    <glyph glyph-name="cedilla" unicode="&#xb8;" horiz-adv-x="1024" 
d="M492 -311l-203 84l176 262h166z" />
    <glyph glyph-name="one.sup" unicode="&#xb9;" horiz-adv-x="587" 
d="M408 887h-146v629l-147 -62l-29 127l211 86h111v-780z" />
    <glyph glyph-name="ordmasculine" unicode="&#xba;" horiz-adv-x="712" 
d="M356 823q-118 0 -194 86t-76 217v13q0 132 77 218.5t195 86.5q117 0 194 -86t77 -217v-13q0 -132 -78 -218.5t-195 -86.5zM96 594v108h520v-108h-520zM358 942q62 0 99 52.5t37 131.5v11q0 79 -38.5 132.5t-99.5 53.5q-62 0 -98.5 -52t-36.5 -132v-11q0 -80 37.5 -133
t99.5 -53z" />
    <glyph glyph-name="guillemotright" unicode="&#xbb;" horiz-adv-x="1126" 
d="M717 86l-164 86l242 367l-242 368l164 88l332 -446v-17zM254 86l-162 86l240 367l-242 368l164 88l332 -446v-17z" />
    <glyph glyph-name="onequarter" unicode="&#xbc;" horiz-adv-x="1492" 
d="M408 662h-146v628l-147 -61l-29 127l211 88h111v-782zM229 0l451 745l403 689h136l-453 -746l-401 -688h-136zM1325 160v-164h-133v164h-344l-14 129l331 491h160v-504h92v-116h-92zM1196 276v342h-4l-231 -342h235z" />
    <glyph glyph-name="onehalf" unicode="&#xbd;" horiz-adv-x="1492" 
d="M872 0v121l252 246q68 66 94.5 104.5t26.5 81.5q0 46 -31.5 74t-78.5 28q-84 0 -170 -102l-93 88q59 75 122 111t151 36q111 0 180.5 -61t69.5 -160q0 -70 -32.5 -126t-113.5 -132l-186 -180h336v-129h-527zM203 0l450 745l404 689h135l-453 -746l-401 -688h-135z
M408 662h-146v628l-147 -61l-29 127l211 88h111v-782z" />
    <glyph glyph-name="threequarters" unicode="&#xbe;" horiz-adv-x="1626" 
d="M1462 160v-164h-133v164h-344l-14 129l332 491h159v-504h92v-116h-92zM1333 276v342h-4l-231 -342h235zM356 0l451 745l403 689h136l-453 -746l-401 -688h-136zM348 645q-152 0 -270 109l78 106q93 -86 192 -86q54 0 90.5 32t36.5 83q0 54 -46 83.5t-126 31.5h-59l-19 90
l205 209h-309v131h487v-111l-213 -213q101 -11 162 -65.5t61 -151.5q0 -112 -74.5 -180t-195.5 -68z" />
    <glyph glyph-name="questiondown" unicode="&#xbf;" horiz-adv-x="968" 
d="M403 1161v273h263v-273h-263zM512 -16q-199 0 -319.5 109.5t-120.5 291.5v4q0 170 99 268.5t263 137.5l23 194h155l35 -340l-10 -10q-164 -15 -247 -77t-83 -165v-4q0 -86 58.5 -139t154.5 -53q151 0 279 135l137 -160q-182 -192 -424 -192z" />
    <glyph glyph-name="Agrave" unicode="&#xc0;" horiz-adv-x="1380" 
d="M49 0l526 1442h230l526 -1442h-248l-118 338h-557l-119 -338h-240zM481 549h410l-205 575zM786 1552h-178l-239 189l209 96z" />
    <glyph glyph-name="Aacute" unicode="&#xc1;" horiz-adv-x="1380" 
d="M49 0l526 1442h230l526 -1442h-248l-118 338h-557l-119 -338h-240zM481 549h410l-205 575zM594 1552l209 285l209 -96l-240 -189h-178z" />
    <glyph glyph-name="Acircumflex" unicode="&#xc2;" horiz-adv-x="1380" 
d="M49 0l526 1442h230l526 -1442h-248l-118 338h-557l-119 -338h-240zM481 549h410l-205 575zM362 1548l220 262h213l219 -262h-191l-137 113l-137 -113h-187z" />
    <glyph glyph-name="Atilde" unicode="&#xc3;" horiz-adv-x="1380" 
d="M49 0l526 1442h230l526 -1442h-248l-118 338h-557l-119 -338h-240zM481 549h410l-205 575zM846 1554q-54 0 -164 43q-79 33 -109 33q-35 0 -55.5 -21t-40.5 -71l-133 39q31 120 77.5 177.5t125.5 57.5q62 0 166 -45q76 -32 106 -32q35 0 55.5 21t40.5 71l134 -39
q-30 -120 -77 -177t-126 -57z" />
    <glyph glyph-name="Adieresis" unicode="&#xc4;" horiz-adv-x="1380" 
d="M49 0l526 1442h230l526 -1442h-248l-118 338h-557l-119 -338h-240zM481 549h410l-205 575zM760 1556v220h233v-220h-233zM381 1556v220h235v-220h-235z" />
    <glyph glyph-name="Aring" unicode="&#xc5;" horiz-adv-x="1380" 
d="M49 0l496 1364q-78 58 -78 154q0 86 65.5 143t157.5 57t157.5 -57t65.5 -143q0 -97 -77 -154l495 -1364h-248l-118 338h-557l-119 -338h-240zM481 549h410l-205 575zM690 1409q52 0 85.5 31.5t33.5 77.5t-33.5 77t-85.5 31t-85.5 -31t-33.5 -77t33.5 -77.5t85.5 -31.5z
" />
    <glyph glyph-name="AE" unicode="&#xc6;" horiz-adv-x="1832" 
d="M18 0l676 1434h1035v-215h-637v-390h561v-215h-561v-399h645v-215h-881v338h-438l-160 -338h-240zM514 549h342v670h-35z" />
    <glyph glyph-name="Ccedilla" unicode="&#xc7;" horiz-adv-x="1263" 
d="M651 -311l-202 84l147 221q-224 46 -359 238.5t-135 476.5v14q0 214 82.5 381t228.5 258.5t330 91.5q142 0 248.5 -45.5t202.5 -132.5l-143 -182q-71 66 -144.5 102.5t-163.5 36.5q-171 0 -283 -142t-112 -368v-8q0 -230 112 -372t283 -142q95 0 168 38t150 111l139 -168
q-183 -189 -432 -200z" />
    <glyph glyph-name="Egrave" unicode="&#xc8;" horiz-adv-x="1163" 
d="M707 1538h-179l-239 188l209 97zM156 0v1434h903v-215h-668v-390h592v-215h-592v-399h678v-215h-913z" />
    <glyph glyph-name="Eacute" unicode="&#xc9;" horiz-adv-x="1163" 
d="M514 1538l209 285l209 -97l-240 -188h-178zM156 0v1434h903v-215h-668v-390h592v-215h-592v-399h678v-215h-913z" />
    <glyph glyph-name="Ecircumflex" unicode="&#xca;" horiz-adv-x="1163" 
d="M156 0v1434h903v-215h-668v-390h592v-215h-592v-399h678v-215h-913zM285 1540l219 262h213l219 -262h-191l-137 113l-137 -113h-186z" />
    <glyph glyph-name="Edieresis" unicode="&#xcb;" horiz-adv-x="1163" 
d="M682 1542v219h233v-219h-233zM303 1542v219h236v-219h-236zM156 0v1434h903v-215h-668v-390h592v-215h-592v-399h678v-215h-913z" />
    <glyph glyph-name="Igrave" unicode="&#xcc;" horiz-adv-x="571" 
d="M168 0v1434h238v-1434h-238zM383 1538h-178l-240 188l209 97z" />
    <glyph glyph-name="Iacute" unicode="&#xcd;" horiz-adv-x="571" 
d="M168 0v1434h238v-1434h-238zM193 1538l208 285l209 -97l-239 -188h-178z" />
    <glyph glyph-name="Icircumflex" unicode="&#xce;" horiz-adv-x="571" 
d="M168 0v1434h238v-1434h-238zM-39 1540l219 262h213l219 -262h-190l-137 113l-138 -113h-186z" />
    <glyph glyph-name="Idieresis" unicode="&#xcf;" horiz-adv-x="571" 
d="M168 0v1434h238v-1434h-238zM360 1542v219h234v-219h-234zM-18 1542v219h235v-219h-235z" />
    <glyph glyph-name="Eth" unicode="&#xd0;" horiz-adv-x="1423" 
d="M203 0v614h-133v213h133v607h438q305 0 492.5 -195.5t187.5 -511.5v-16q0 -208 -84.5 -369.5t-239.5 -251.5t-356 -90h-438zM729 614h-289v-399h201q197 0 315.5 133t118.5 361v12q0 230 -118.5 364t-315.5 134h-201v-392h289v-213z" />
    <glyph glyph-name="Ntilde" unicode="&#xd1;" horiz-adv-x="1394" 
d="M854 1538q-54 0 -164 43q-79 33 -108 33q-35 0 -56 -21t-41 -71l-133 39q31 120 77.5 177.5t125.5 57.5q62 0 166 -45q79 -33 106 -33q35 0 56 21t41 71l133 -38q-30 -120 -77 -177t-126 -57zM156 0v1434h221l631 -957v957h231v-1434h-201l-649 985v-985h-233z" />
    <glyph glyph-name="Ograve" unicode="&#xd2;" horiz-adv-x="1474" 
d="M831 1552h-178l-239 189l209 96zM735 -23q-184 0 -328.5 93t-224.5 259t-80 376v20q0 211 80.5 377.5t226 260t330.5 93.5q184 0 328.5 -93t224.5 -258.5t80 -375.5v-20q0 -211 -80.5 -378t-226 -260.5t-330.5 -93.5zM739 197q170 0 278.5 141t108.5 371v14
q0 229 -110 371.5t-281 142.5q-170 0 -278.5 -141t-108.5 -371v-14q0 -228 110.5 -371t280.5 -143z" />
    <glyph glyph-name="Oacute" unicode="&#xd3;" horiz-adv-x="1474" 
d="M641 1552l209 285l209 -96l-240 -189h-178zM735 -23q-184 0 -328.5 93t-224.5 259t-80 376v20q0 211 80.5 377.5t226 260t330.5 93.5q184 0 328.5 -93t224.5 -258.5t80 -375.5v-20q0 -211 -80.5 -378t-226 -260.5t-330.5 -93.5zM739 197q170 0 278.5 141t108.5 371v14
q0 229 -110 371.5t-281 142.5q-170 0 -278.5 -141t-108.5 -371v-14q0 -228 110.5 -371t280.5 -143z" />
    <glyph glyph-name="Ocircumflex" unicode="&#xd4;" horiz-adv-x="1474" 
d="M735 -23q-184 0 -328.5 93t-224.5 259t-80 376v20q0 211 80.5 377.5t226 260t330.5 93.5q184 0 328.5 -93t224.5 -258.5t80 -375.5v-20q0 -211 -80.5 -378t-226 -260.5t-330.5 -93.5zM739 197q170 0 278.5 141t108.5 371v14q0 229 -110 371.5t-281 142.5
q-170 0 -278.5 -141t-108.5 -371v-14q0 -228 110.5 -371t280.5 -143zM410 1554l219 263h213l219 -263h-191l-137 113l-137 -113h-186z" />
    <glyph glyph-name="Otilde" unicode="&#xd5;" horiz-adv-x="1474" 
d="M893 1554q-54 0 -164 43q-79 33 -108 33q-35 0 -56 -21t-41 -71l-133 39q31 120 77.5 177.5t125.5 57.5q62 0 166 -45q76 -32 106 -32q35 0 56 21t41 71l133 -39q-30 -120 -77 -177t-126 -57zM735 -23q-184 0 -328.5 93t-224.5 259t-80 376v20q0 211 80.5 377.5t226 260
t330.5 93.5q184 0 328.5 -93t224.5 -258.5t80 -375.5v-20q0 -211 -80.5 -378t-226 -260.5t-330.5 -93.5zM739 197q170 0 278.5 141t108.5 371v14q0 229 -110 371.5t-281 142.5q-170 0 -278.5 -141t-108.5 -371v-14q0 -228 110.5 -371t280.5 -143z" />
    <glyph glyph-name="Odieresis" unicode="&#xd6;" horiz-adv-x="1474" 
d="M809 1556v220h233v-220h-233zM430 1556v220h236v-220h-236zM735 -23q-184 0 -328.5 93t-224.5 259t-80 376v20q0 211 80.5 377.5t226 260t330.5 93.5q184 0 328.5 -93t224.5 -258.5t80 -375.5v-20q0 -211 -80.5 -378t-226 -260.5t-330.5 -93.5zM739 197q170 0 278.5 141
t108.5 371v14q0 229 -110 371.5t-281 142.5q-170 0 -278.5 -141t-108.5 -371v-14q0 -228 110.5 -371t280.5 -143z" />
    <glyph glyph-name="multiply" unicode="&#xd7;" horiz-adv-x="1134" 
d="M854 274l-287 301l-288 -301l-152 144l301 301l-301 301l154 147l288 -301l289 301l150 -143l-299 -301l299 -301z" />
    <glyph glyph-name="Oslash" unicode="&#xd8;" horiz-adv-x="1474" 
d="M1171 1444h211l-163 -221q153 -202 153 -494v-20q0 -210 -80.5 -377t-226 -261t-330.5 -94q-203 0 -354 111l-76 -98h-213l164 221q-154 200 -154 494v20q0 210 80.5 376.5t226 260.5t330.5 94q201 0 355 -113zM344 711q0 -171 64 -299l555 747q-100 84 -228 84
q-173 0 -282 -142t-109 -374v-16zM739 190q173 0 282 142.5t109 374.5v16q0 167 -63 299l-555 -750q97 -82 227 -82z" />
    <glyph glyph-name="Ugrave" unicode="&#xd9;" horiz-adv-x="1341" 
d="M766 1536h-178l-240 188l209 97zM668 -23q-245 0 -388 147.5t-143 422.5v887h238v-885q0 -171 78.5 -261.5t218.5 -90.5q138 0 216.5 88.5t78.5 255.5v893h235v-879q0 -283 -142.5 -430.5t-391.5 -147.5z" />
    <glyph glyph-name="Uacute" unicode="&#xda;" horiz-adv-x="1341" 
d="M573 1536l209 285l209 -97l-239 -188h-179zM668 -23q-245 0 -388 147.5t-143 422.5v887h238v-885q0 -171 78.5 -261.5t218.5 -90.5q138 0 216.5 88.5t78.5 255.5v893h235v-879q0 -283 -142.5 -430.5t-391.5 -147.5z" />
    <glyph glyph-name="Ucircumflex" unicode="&#xdb;" horiz-adv-x="1341" 
d="M668 -23q-245 0 -388 147.5t-143 422.5v887h238v-885q0 -171 78.5 -261.5t218.5 -90.5q138 0 216.5 88.5t78.5 255.5v893h235v-879q0 -283 -142.5 -430.5t-391.5 -147.5zM342 1538l219 262h213l219 -262h-190l-137 113l-138 -113h-186z" />
    <glyph glyph-name="Udieresis" unicode="&#xdc;" horiz-adv-x="1341" 
d="M741 1540v219h234v-219h-234zM362 1540v219h236v-219h-236zM668 -23q-245 0 -388 147.5t-143 422.5v887h238v-885q0 -171 78.5 -261.5t218.5 -90.5q138 0 216.5 88.5t78.5 255.5v893h235v-879q0 -283 -142.5 -430.5t-391.5 -147.5z" />
    <glyph glyph-name="Yacute" unicode="&#xdd;" horiz-adv-x="1255" 
d="M510 0v571l-483 863h272l332 -621l334 621h264l-481 -861v-573h-238zM530 1536l209 285l209 -97l-239 -188h-179z" />
    <glyph glyph-name="Thorn" unicode="&#xde;" horiz-adv-x="1198" 
d="M156 0v1434h237v-222h221q236 0 376 -127.5t140 -347.5v-4q0 -117 -41 -210.5t-113 -154t-168 -92.5t-208 -32h-207v-244h-237zM393 459h207q135 0 212 73t77 195v2q0 130 -75.5 199t-213.5 69h-207v-538z" />
    <glyph glyph-name="germandbls" unicode="&#xdf;" horiz-adv-x="1122" 
d="M535 -4v182q132 8 202 67t70 163v4q0 98 -72 159t-200 80v162q95 46 149.5 118t54.5 163v4q0 89 -49 140.5t-131 51.5q-90 0 -143.5 -67t-53.5 -183v-1040h-231v1032q0 211 118 335t320 124q184 0 292 -104.5t108 -264.5v-8q0 -227 -211 -348q125 -44 202.5 -132
t77.5 -224v-9q0 -193 -134 -300.5t-369 -104.5z" />
    <glyph glyph-name="agrave" unicode="&#xe0;" horiz-adv-x="1048" 
d="M401 -20q-141 0 -236 89t-95 242v11q0 170 104 259t281 89q123 0 250 -43v45q0 108 -61.5 164.5t-172.5 56.5q-118 0 -262 -66l-66 185q175 86 359 86q211 0 319 -111q109 -109 109 -313v-674h-228v133q-105 -153 -301 -153zM471 154q100 -2 168 58.5t68 152.5v108
q-90 39 -201 39q-100 0 -155.5 -48t-55.5 -134v-4q0 -79 49 -124.5t127 -47.5zM449 1206l-234 226l207 96l196 -322h-169z" />
    <glyph glyph-name="aacute" unicode="&#xe1;" horiz-adv-x="1048" 
d="M401 -20q-141 0 -236 89t-95 242v11q0 170 104 259t281 89q123 0 250 -43v45q0 108 -61.5 164.5t-172.5 56.5q-118 0 -262 -66l-66 185q175 86 359 86q211 0 319 -111q109 -109 109 -313v-674h-228v133q-105 -153 -301 -153zM471 154q100 -2 168 58.5t68 152.5v108
q-90 39 -201 39q-100 0 -155.5 -48t-55.5 -134v-4q0 -79 49 -124.5t127 -47.5zM430 1206l199 322l205 -96l-234 -226h-170z" />
    <glyph glyph-name="acircumflex" unicode="&#xe2;" horiz-adv-x="1048" 
d="M401 -20q-141 0 -236 89t-95 242v11q0 170 104 259t281 89q123 0 250 -43v45q0 108 -61.5 164.5t-172.5 56.5q-118 0 -262 -66l-66 185q175 86 359 86q211 0 319 -111q109 -109 109 -313v-674h-228v133q-105 -153 -301 -153zM471 154q100 -2 168 58.5t68 152.5v108
q-90 39 -201 39q-100 0 -155.5 -48t-55.5 -134v-4q0 -79 49 -124.5t127 -47.5zM211 1206l211 293h205l211 -293h-176l-140 137l-139 -137h-172z" />
    <glyph glyph-name="atilde" unicode="&#xe3;" horiz-adv-x="1048" 
d="M401 -20q-141 0 -236 89t-95 242v11q0 170 104 259t281 89q123 0 250 -43v45q0 108 -61.5 164.5t-172.5 56.5q-118 0 -262 -66l-66 185q175 86 359 86q211 0 319 -111q109 -109 109 -313v-674h-228v133q-105 -153 -301 -153zM471 154q100 -2 168 58.5t68 152.5v108
q-90 39 -201 39q-100 0 -155.5 -48t-55.5 -134v-4q0 -79 49 -124.5t127 -47.5zM678 1206q-55 0 -156 43q-80 37 -110 37q-35 0 -55 -21t-40 -73l-131 37q32 124 77 180.5t124 56.5q64 0 156 -45q80 -37 110 -37q35 0 55 21.5t40 75.5l131 -37q-32 -124 -77 -181t-124 -57z
" />
    <glyph glyph-name="adieresis" unicode="&#xe4;" horiz-adv-x="1048" 
d="M401 -20q-141 0 -236 89t-95 242v11q0 170 104 259t281 89q123 0 250 -43v45q0 108 -61.5 164.5t-172.5 56.5q-118 0 -262 -66l-66 185q175 86 359 86q211 0 319 -111q109 -109 109 -313v-674h-228v133q-105 -153 -301 -153zM471 154q100 -2 168 58.5t68 152.5v108
q-90 39 -201 39q-100 0 -155.5 -48t-55.5 -134v-4q0 -79 49 -124.5t127 -47.5zM588 1210v228h229v-228h-229zM231 1210v228h230v-228h-230z" />
    <glyph glyph-name="aring" unicode="&#xe5;" horiz-adv-x="1048" 
d="M401 -20q-141 0 -236 89t-95 242v11q0 170 104 259t281 89q123 0 250 -43v45q0 108 -61.5 164.5t-172.5 56.5q-118 0 -262 -66l-66 185q175 86 359 86q211 0 319 -111q109 -109 109 -313v-674h-228v133q-105 -153 -301 -153zM471 154q100 -2 168 58.5t68 152.5v108
q-90 39 -201 39q-100 0 -155.5 -48t-55.5 -134v-4q0 -79 49 -124.5t127 -47.5zM524 1200q-91 0 -154 62t-63 151t63 151t154 62t154 -61.5t63 -151.5q0 -89 -63 -151t-154 -62zM524 1288q51 0 86 36t35 89t-35 89t-86 36t-86 -36t-35 -89t35 -89t86 -36z" />
    <glyph glyph-name="ae" unicode="&#xe6;" horiz-adv-x="1685" 
d="M424 -20q-155 0 -254.5 90t-99.5 245v7q0 170 103.5 259t279.5 89q118 0 245 -43v45q0 107 -60 164t-169 57q-120 0 -260 -68l-66 189q178 84 355 84q247 0 338 -164q58 82 141.5 127t183.5 45q140 0 242.5 -75t153.5 -203t51 -293q0 -14 -4 -80h-680q17 -135 91 -208
t185 -73q139 0 248 115l123 -144q-158 -168 -381 -168q-118 0 -216 50.5t-163 144.5q-170 -192 -387 -192zM922 614h458q-8 134 -67 215.5t-158 81.5q-95 0 -158 -79.5t-75 -217.5zM473 156q148 0 264 151q-26 83 -32 168q-102 37 -201 37q-98 0 -153.5 -47.5t-55.5 -132.5
v-6q0 -78 50 -124t128 -46z" />
    <glyph glyph-name="ccedilla" unicode="&#xe7;" horiz-adv-x="985" 
d="M494 -311l-203 84l149 223q-163 43 -260.5 186.5t-97.5 345.5v21q0 242 141 399.5t355 157.5q111 0 193 -37.5t155 -110.5l-129 -170q-50 52 -101 80.5t-118 28.5q-114 0 -188.5 -98.5t-74.5 -251.5v-10q0 -158 75 -255.5t194 -97.5q65 0 116 28.5t105 82.5l125 -154
q-135 -148 -320 -161z" />
    <glyph glyph-name="egrave" unicode="&#xe8;" horiz-adv-x="1073" 
d="M578 -23q-214 0 -355 151.5t-141 401.5v17q0 244 131.5 401.5t331.5 157.5q144 0 247 -75.5t153 -203t50 -292.5q0 -47 -2 -80h-680q15 -133 90.5 -207t184.5 -74q132 0 250 115l120 -144q-158 -168 -380 -168zM311 614h459q-9 134 -68 215.5t-157 81.5q-96 0 -159 -80
t-75 -217zM465 1206l-234 226l207 96l197 -322h-170z" />
    <glyph glyph-name="eacute" unicode="&#xe9;" horiz-adv-x="1073" 
d="M446 1206l199 322l205 -96l-234 -226h-170zM578 -23q-214 0 -355 151.5t-141 401.5v17q0 244 131.5 401.5t331.5 157.5q144 0 247 -75.5t153 -203t50 -292.5q0 -47 -2 -80h-680q15 -133 90.5 -207t184.5 -74q132 0 250 115l120 -144q-158 -168 -380 -168zM311 614h459
q-9 134 -68 215.5t-157 81.5q-96 0 -159 -80t-75 -217z" />
    <glyph glyph-name="ecircumflex" unicode="&#xea;" horiz-adv-x="1073" 
d="M227 1206l211 293h205l211 -293h-176l-139 137l-140 -137h-172zM578 -23q-214 0 -355 151.5t-141 401.5v17q0 244 131.5 401.5t331.5 157.5q144 0 247 -75.5t153 -203t50 -292.5q0 -47 -2 -80h-680q15 -133 90.5 -207t184.5 -74q132 0 250 115l120 -144
q-158 -168 -380 -168zM311 614h459q-9 134 -68 215.5t-157 81.5q-96 0 -159 -80t-75 -217z" />
    <glyph glyph-name="edieresis" unicode="&#xeb;" horiz-adv-x="1073" 
d="M604 1210v228h230v-228h-230zM248 1210v228h229v-228h-229zM578 -23q-214 0 -355 151.5t-141 401.5v17q0 244 131.5 401.5t331.5 157.5q144 0 247 -75.5t153 -203t50 -292.5q0 -47 -2 -80h-680q15 -133 90.5 -207t184.5 -74q132 0 250 115l120 -144q-158 -168 -380 -168z
M311 614h459q-9 134 -68 215.5t-157 81.5q-96 0 -159 -80t-75 -217z" />
    <glyph glyph-name="igrave" unicode="&#xec;" horiz-adv-x="518" 
d="M143 0v1085h232v-1085h-232zM182 1206l-233 226l207 96l196 -322h-170z" />
    <glyph glyph-name="iacute" unicode="&#xed;" horiz-adv-x="518" 
d="M166 1206l199 322l204 -96l-233 -226h-170zM143 0v1085h232v-1085h-232z" />
    <glyph glyph-name="icircumflex" unicode="&#xee;" horiz-adv-x="518" 
d="M-53 1206l211 293h204l211 -293h-176l-139 137l-139 -137h-172zM143 0v1085h232v-1085h-232z" />
    <glyph glyph-name="idieresis" unicode="&#xef;" horiz-adv-x="518" 
d="M324 1210v228h229v-228h-229zM-33 1210v228h230v-228h-230zM143 0v1085h232v-1085h-232z" />
    <glyph glyph-name="eth" unicode="&#xf0;" horiz-adv-x="1163" 
d="M932 1352l-146 -49q291 -341 291 -705v-18q0 -270 -137 -436.5t-365 -166.5q-212 0 -352.5 158.5t-140.5 403.5v20q0 114 34.5 213t93 166.5t135.5 106t161 38.5q73 0 131 -23.5t117 -70.5q-63 120 -176 242l-216 -72l-51 133l156 51q-75 72 -154 136h299q42 -37 66 -64
l205 70zM582 180q120 0 193 98.5t73 253.5v13q0 154 -76.5 252t-196.5 98q-119 0 -190.5 -98t-71.5 -252v-10q0 -152 75.5 -253.5t193.5 -101.5z" />
    <glyph glyph-name="ntilde" unicode="&#xf1;" horiz-adv-x="1114" 
d="M131 0v1085h231v-159q114 180 297 180q156 0 245 -102.5t89 -276.5v-727h-231v662q0 113 -51 174t-144 61q-92 0 -148.5 -64.5t-56.5 -175.5v-657h-231zM715 1206q-55 0 -156 43q-80 37 -110 37q-35 0 -55 -21t-40 -73l-131 37q32 124 77 180.5t124 56.5q64 0 156 -45
q80 -37 110 -37q35 0 54.5 21.5t39.5 75.5l131 -37q-32 -125 -76.5 -181.5t-123.5 -56.5z" />
    <glyph glyph-name="ograve" unicode="&#xf2;" horiz-adv-x="1163" 
d="M580 -23q-216 0 -357 156t-141 397v19q0 240 143 398.5t359 158.5q215 0 356 -157t141 -398v-19q0 -157 -64.5 -284t-179 -199t-257.5 -72zM584 180q120 0 193 100t73 255v12q0 153 -76 253.5t-194 100.5q-120 0 -193.5 -99t-73.5 -253v-12q0 -153 76.5 -255t194.5 -102z
M506 1206l-234 226l207 96l197 -322h-170z" />
    <glyph glyph-name="oacute" unicode="&#xf3;" horiz-adv-x="1163" 
d="M487 1206l199 322l205 -96l-234 -226h-170zM580 -23q-216 0 -357 156t-141 397v19q0 240 143 398.5t359 158.5q215 0 356 -157t141 -398v-19q0 -157 -64.5 -284t-179 -199t-257.5 -72zM584 180q120 0 193 100t73 255v12q0 153 -76 253.5t-194 100.5q-120 0 -193.5 -99
t-73.5 -253v-12q0 -153 76.5 -255t194.5 -102z" />
    <glyph glyph-name="ocircumflex" unicode="&#xf4;" horiz-adv-x="1163" 
d="M268 1206l211 293h205l211 -293h-176l-139 137l-140 -137h-172zM580 -23q-216 0 -357 156t-141 397v19q0 240 143 398.5t359 158.5q215 0 356 -157t141 -398v-19q0 -157 -64.5 -284t-179 -199t-257.5 -72zM584 180q120 0 193 100t73 255v12q0 153 -76 253.5t-194 100.5
q-120 0 -193.5 -99t-73.5 -253v-12q0 -153 76.5 -255t194.5 -102z" />
    <glyph glyph-name="otilde" unicode="&#xf5;" horiz-adv-x="1163" 
d="M580 -23q-216 0 -357 156t-141 397v19q0 240 143 398.5t359 158.5q215 0 356 -157t141 -398v-19q0 -157 -64.5 -284t-179 -199t-257.5 -72zM584 180q120 0 193 100t73 255v12q0 153 -76 253.5t-194 100.5q-120 0 -193.5 -99t-73.5 -253v-12q0 -153 76.5 -255t194.5 -102z
M733 1206q-54 0 -155 43q-80 37 -111 37q-35 0 -54.5 -21t-39.5 -73l-131 37q32 124 76.5 180.5t123.5 56.5q64 0 156 -45q80 -37 111 -37q35 0 54.5 21.5t39.5 75.5l131 -37q-32 -124 -77 -181t-124 -57z" />
    <glyph glyph-name="odieresis" unicode="&#xf6;" horiz-adv-x="1163" 
d="M645 1210v228h229v-228h-229zM289 1210v228h229v-228h-229zM580 -23q-216 0 -357 156t-141 397v19q0 240 143 398.5t359 158.5q215 0 356 -157t141 -398v-19q0 -157 -64.5 -284t-179 -199t-257.5 -72zM584 180q120 0 193 100t73 255v12q0 153 -76 253.5t-194 100.5
q-120 0 -193.5 -99t-73.5 -253v-12q0 -153 76.5 -255t194.5 -102z" />
    <glyph glyph-name="divide" unicode="&#xf7;" horiz-adv-x="1134" 
d="M442 991v246h250v-246h-250zM1022 618h-909v205h909v-205zM442 205v246h250v-246h-250z" />
    <glyph glyph-name="oslash" unicode="&#xf8;" horiz-adv-x="1163" 
d="M911 1096h195l-139 -181q114 -152 114 -364v-19q0 -239 -143 -397t-358 -158q-152 0 -271 80l-57 -69h-195l140 178q-115 153 -115 364v19q0 241 143 399t359 158q146 0 268 -82zM305 537q0 -104 35 -185l389 502q-69 53 -149 53q-123 0 -199 -101t-76 -257v-12zM584 176
q123 0 197.5 101.5t74.5 257.5v10q0 103 -35 184l-387 -504q61 -49 150 -49z" />
    <glyph glyph-name="ugrave" unicode="&#xf9;" horiz-adv-x="1114" 
d="M455 -20q-157 0 -245.5 101t-88.5 277v727h231v-661q0 -113 51 -174.5t142 -61.5q92 0 148.5 64.5t56.5 175.5v657h233v-1085h-233v158q-113 -178 -295 -178zM475 1206l-233 226l207 96l196 -322h-170z" />
    <glyph glyph-name="uacute" unicode="&#xfa;" horiz-adv-x="1114" 
d="M457 1206l198 322l205 -96l-233 -226h-170zM455 -20q-157 0 -245.5 101t-88.5 277v727h231v-661q0 -113 51 -174.5t142 -61.5q92 0 148.5 64.5t56.5 175.5v657h233v-1085h-233v158q-113 -178 -295 -178z" />
    <glyph glyph-name="ucircumflex" unicode="&#xfb;" horiz-adv-x="1114" 
d="M238 1206l211 293h204l211 -293h-176l-139 137l-139 -137h-172zM455 -20q-157 0 -245.5 101t-88.5 277v727h231v-661q0 -113 51 -174.5t142 -61.5q92 0 148.5 64.5t56.5 175.5v657h233v-1085h-233v158q-113 -178 -295 -178z" />
    <glyph glyph-name="udieresis" unicode="&#xfc;" horiz-adv-x="1114" 
d="M614 1210v228h230v-228h-230zM258 1210v228h229v-228h-229zM455 -20q-157 0 -245.5 101t-88.5 277v727h231v-661q0 -113 51 -174.5t142 -61.5q92 0 148.5 64.5t56.5 175.5v657h233v-1085h-233v158q-113 -178 -295 -178z" />
    <glyph glyph-name="yacute" unicode="&#xfd;" horiz-adv-x="1067" 
d="M543 297l235 788h240l-369 -1101q-55 -164 -128 -231.5t-193 -67.5q-114 0 -219 57l67 178q68 -37 125 -37q47 0 77 25.5t54 89.5l-387 1087h246zM440 1206l199 322l205 -96l-234 -226h-170z" />
    <glyph glyph-name="thorn" unicode="&#xfe;" horiz-adv-x="1187" 
d="M131 -309v1788h231v-568q59 90 134.5 142.5t183.5 52.5q66 0 127.5 -21.5t115 -67t93.5 -109.5t63 -154.5t23 -196.5v-29q0 -132 -35 -238.5t-94 -173t-134 -101.5t-159 -35q-192 0 -318 184v-473h-231zM616 184q107 0 179.5 95.5t72.5 252.5v19q0 157 -72.5 253.5
t-179.5 96.5q-108 0 -183 -96.5t-75 -251.5v-21q0 -155 75 -251.5t183 -96.5z" />
    <glyph glyph-name="ydieresis" unicode="&#xff;" horiz-adv-x="1067" 
d="M543 297l235 788h240l-369 -1101q-55 -164 -128 -231.5t-193 -67.5q-114 0 -219 57l67 178q68 -37 125 -37q47 0 77 25.5t54 89.5l-387 1087h246zM598 1210v228h229v-228h-229zM242 1210v228h229v-228h-229z" />
    <glyph glyph-name="Amacron" unicode="&#x100;" horiz-adv-x="1380" 
d="M49 0l526 1442h230l526 -1442h-248l-118 338h-557l-119 -338h-240zM481 549h410l-205 575zM360 1573v170h656v-170h-656z" />
    <glyph glyph-name="amacron" unicode="&#x101;" horiz-adv-x="1048" 
d="M401 -20q-141 0 -236 89t-95 242v11q0 170 104 259t281 89q123 0 250 -43v45q0 108 -61.5 164.5t-172.5 56.5q-118 0 -262 -66l-66 185q175 86 359 86q211 0 319 -111q109 -109 109 -313v-674h-228v133q-105 -153 -301 -153zM471 154q100 -2 168 58.5t68 152.5v108
q-90 39 -201 39q-100 0 -155.5 -48t-55.5 -134v-4q0 -79 49 -124.5t127 -47.5zM215 1225v166h619v-166h-619z" />
    <glyph glyph-name="Abreve" unicode="&#x102;" horiz-adv-x="1380" 
d="M49 0l526 1442h230l526 -1442h-248l-118 338h-557l-119 -338h-240zM481 549h410l-205 575zM688 1548q-135 0 -220 67t-95 189h162q28 -96 153 -96q126 0 154 96h162q-10 -122 -95.5 -189t-220.5 -67z" />
    <glyph glyph-name="abreve" unicode="&#x103;" horiz-adv-x="1048" 
d="M401 -20q-141 0 -236 89t-95 242v11q0 170 104 259t281 89q123 0 250 -43v45q0 108 -61.5 164.5t-172.5 56.5q-118 0 -262 -66l-66 185q175 86 359 86q211 0 319 -111q109 -109 109 -313v-674h-228v133q-105 -153 -301 -153zM471 154q100 -2 168 58.5t68 152.5v108
q-90 39 -201 39q-100 0 -155.5 -48t-55.5 -134v-4q0 -79 49 -124.5t127 -47.5zM524 1200q-131 0 -216 73t-97 204h156q33 -117 157 -117q125 0 158 117h156q-12 -131 -97 -204t-217 -73z" />
    <glyph glyph-name="Aogonek" unicode="&#x104;" horiz-adv-x="1380" 
d="M1341 -201v-118q-31 -5 -65 -5q-115 0 -177.5 43.5t-62.5 116.5q0 80 78 164h-31l-118 338h-557l-119 -338h-240l526 1442h230l526 -1442h-55q-62 -68 -62 -123q0 -81 127 -78zM481 549h410l-205 575z" />
    <glyph glyph-name="aogonek" unicode="&#x105;" horiz-adv-x="1048" 
d="M940 -201v-118q-31 -5 -66 -5q-115 0 -177 43.5t-62 116.5q0 80 78 164h-11v133q-105 -153 -301 -153q-141 0 -236 89t-95 242v11q0 170 104 259t281 89q123 0 250 -43v45q0 108 -61.5 164.5t-172.5 56.5q-118 0 -262 -66l-66 185q175 86 359 86q211 0 319 -111
q109 -109 109 -313v-674h-56q-61 -66 -61 -123q0 -81 127 -78zM471 154q100 -2 168 58.5t68 152.5v108q-90 39 -201 39q-100 0 -155.5 -48t-55.5 -134v-4q0 -79 49 -124.5t127 -47.5z" />
    <glyph glyph-name="Cacute" unicode="&#x106;" horiz-adv-x="1263" 
d="M731 -20q-277 0 -453 201.5t-176 527.5v14q0 214 82.5 381t228.5 258.5t330 91.5q142 0 248.5 -45.5t202.5 -132.5l-143 -182q-71 66 -144.5 102.5t-163.5 36.5q-171 0 -283 -142t-112 -368v-8q0 -230 112 -372t283 -142q95 0 168 38t150 111l139 -168
q-97 -100 -210.5 -151t-258.5 -51zM614 1552l209 285l209 -96l-239 -189h-179z" />
    <glyph glyph-name="cacute" unicode="&#x107;" horiz-adv-x="985" 
d="M461 1206l198 322l205 -96l-233 -226h-170zM569 -23q-213 0 -350 154.5t-137 396.5v21q0 242 141 399.5t355 157.5q111 0 193 -37.5t155 -110.5l-129 -170q-50 52 -101 80.5t-118 28.5q-114 0 -188.5 -98.5t-74.5 -251.5v-10q0 -158 75 -255.5t194 -97.5q65 0 116 28.5
t105 82.5l125 -154q-147 -164 -361 -164z" />
    <glyph glyph-name="Cdotaccent" unicode="&#x10a;" horiz-adv-x="1263" 
d="M592 1556v220h237v-220h-237zM731 -20q-277 0 -453 201.5t-176 527.5v14q0 214 82.5 381t228.5 258.5t330 91.5q142 0 248.5 -45.5t202.5 -132.5l-143 -182q-71 66 -144.5 102.5t-163.5 36.5q-171 0 -283 -142t-112 -368v-8q0 -230 112 -372t283 -142q95 0 168 38
t150 111l139 -168q-97 -100 -210.5 -151t-258.5 -51z" />
    <glyph glyph-name="cdotaccent" unicode="&#x10b;" horiz-adv-x="985" 
d="M569 -23q-213 0 -350 154.5t-137 396.5v21q0 242 141 399.5t355 157.5q111 0 193 -37.5t155 -110.5l-129 -170q-50 52 -101 80.5t-118 28.5q-114 0 -188.5 -98.5t-74.5 -251.5v-10q0 -158 75 -255.5t194 -97.5q65 0 116 28.5t105 82.5l125 -154q-147 -164 -361 -164z
M436 1210v228h238v-228h-238z" />
    <glyph glyph-name="Ccaron" unicode="&#x10c;" horiz-adv-x="1263" 
d="M731 -20q-277 0 -453 201.5t-176 527.5v14q0 214 82.5 381t228.5 258.5t330 91.5q142 0 248.5 -45.5t202.5 -132.5l-143 -182q-71 66 -144.5 102.5t-163.5 36.5q-171 0 -283 -142t-112 -368v-8q0 -230 112 -372t283 -142q95 0 168 38t150 111l139 -168
q-97 -100 -210.5 -151t-258.5 -51zM1036 1817l-219 -263h-213l-219 263h190l138 -113l137 113h186z" />
    <glyph glyph-name="ccaron" unicode="&#x10d;" horiz-adv-x="985" 
d="M868 1499l-211 -293h-204l-211 293h176l139 -135l139 135h172zM569 -23q-213 0 -350 154.5t-137 396.5v21q0 242 141 399.5t355 157.5q111 0 193 -37.5t155 -110.5l-129 -170q-50 52 -101 80.5t-118 28.5q-114 0 -188.5 -98.5t-74.5 -251.5v-10q0 -158 75 -255.5
t194 -97.5q65 0 116 28.5t105 82.5l125 -154q-147 -164 -361 -164z" />
    <glyph glyph-name="Dcaron" unicode="&#x10e;" horiz-adv-x="1376" 
d="M156 0v1434h438q306 0 493 -195.5t187 -511.5v-16q0 -208 -84 -369.5t-239 -251.5t-357 -90h-438zM592 1219h-199v-1004h199q198 0 317 133t119 361v12q0 230 -119 364t-317 134zM987 1802l-219 -262h-213l-219 262h190l138 -112l137 112h186z" />
    <glyph glyph-name="dcaron" unicode="&#x10f;" horiz-adv-x="1187" 
d="M1151 1186l23 364h176v-6l-103 -358h-96zM508 -20q-83 0 -158 35t-134.5 101t-94.5 172.5t-35 239.5v27q0 133 35 240t94 174t134 102t159 35q108 0 183 -50t134 -134v557h232v-1479h-232v174q-59 -90 -134 -142t-183 -52zM571 184q108 0 183 96.5t75 251.5v21
q0 155 -75 251.5t-183 96.5q-109 0 -180.5 -95t-71.5 -255v-16q0 -159 72.5 -255t179.5 -96z" />
    <glyph glyph-name="Dcroat" unicode="&#x110;" horiz-adv-x="1423" 
d="M203 0v614h-133v213h133v607h438q305 0 492.5 -195.5t187.5 -511.5v-16q0 -208 -84.5 -369.5t-239.5 -251.5t-356 -90h-438zM729 614h-289v-399h201q197 0 315.5 133t118.5 361v12q0 230 -118.5 364t-315.5 134h-201v-392h289v-213z" />
    <glyph glyph-name="dcroat" unicode="&#x111;" horiz-adv-x="1187" 
d="M539 1221v149h286v109h232v-109h121v-151h-121v-1219h-232v174q-59 -90 -134 -142t-183 -52q-83 0 -158 35t-134.5 101.5t-94.5 173t-35 238.5v27q0 132 35 239t94 174t134.5 102.5t158.5 35.5q108 0 183 -50t134 -134v299h-286zM571 184q108 0 183 96.5t75 251.5v21
q0 155 -75 251.5t-183 96.5q-109 0 -180.5 -95.5t-71.5 -254.5v-16q0 -159 72.5 -255t179.5 -96z" />
    <glyph glyph-name="Emacron" unicode="&#x112;" horiz-adv-x="1163" 
d="M283 1559v170h655v-170h-655zM156 0v1434h903v-215h-668v-390h592v-215h-592v-399h678v-215h-913z" />
    <glyph glyph-name="emacron" unicode="&#x113;" horiz-adv-x="1073" 
d="M578 -23q-214 0 -355 151.5t-141 401.5v17q0 244 131.5 401.5t331.5 157.5q144 0 247 -75.5t153 -203t50 -292.5q0 -47 -2 -80h-680q15 -133 90.5 -207t184.5 -74q132 0 250 115l120 -144q-158 -168 -380 -168zM311 614h459q-9 134 -68 215.5t-157 81.5q-96 0 -159 -80
t-75 -217zM231 1225v166h619v-166h-619z" />
    <glyph glyph-name="Ebreve" unicode="&#x114;" horiz-adv-x="1163" 
d="M610 1534q-135 0 -220 67t-95 189h162q28 -96 153 -96q126 0 154 96h162q-10 -122 -95.5 -189t-220.5 -67zM156 0v1434h903v-215h-668v-390h592v-215h-592v-399h678v-215h-913z" />
    <glyph glyph-name="ebreve" unicode="&#x115;" horiz-adv-x="1073" 
d="M578 -23q-214 0 -355 151.5t-141 401.5v17q0 244 131.5 401.5t331.5 157.5q144 0 247 -75.5t153 -203t50 -292.5q0 -47 -2 -80h-680q15 -133 90.5 -207t184.5 -74q132 0 250 115l120 -144q-158 -168 -380 -168zM311 614h459q-9 134 -68 215.5t-157 81.5q-96 0 -159 -80
t-75 -217zM541 1200q-132 0 -217 73t-97 204h156q33 -117 158 -117q124 0 157 117h156q-12 -131 -97 -204t-216 -73z" />
    <glyph glyph-name="Edotaccent" unicode="&#x116;" horiz-adv-x="1163" 
d="M492 1542v219h237v-219h-237zM156 0v1434h903v-215h-668v-390h592v-215h-592v-399h678v-215h-913z" />
    <glyph glyph-name="edotaccent" unicode="&#x117;" horiz-adv-x="1073" 
d="M578 -23q-214 0 -355 151.5t-141 401.5v17q0 244 131.5 401.5t331.5 157.5q144 0 247 -75.5t153 -203t50 -292.5q0 -47 -2 -80h-680q15 -133 90.5 -207t184.5 -74q132 0 250 115l120 -144q-158 -168 -380 -168zM311 614h459q-9 134 -68 215.5t-157 81.5q-96 0 -159 -80
t-75 -217zM422 1210v228h237v-228h-237z" />
    <glyph glyph-name="Eogonek" unicode="&#x118;" horiz-adv-x="1163" 
d="M156 0v1434h903v-215h-668v-390h592v-215h-592v-399h678v-215h-70q-61 -66 -61 -123q0 -81 127 -78v-118q-31 -5 -66 -5q-115 0 -177 43.5t-62 116.5q0 80 78 164h-682z" />
    <glyph glyph-name="eogonek" unicode="&#x119;" horiz-adv-x="1073" 
d="M311 614h459q-9 134 -68 215.5t-157 81.5q-96 0 -159 -80t-75 -217zM838 289l120 -144q-48 -51 -90 -88q-106 -98 -106 -174q0 -45 31 -64.5t96 -19.5v-118q-31 -5 -68 -5q-114 0 -175.5 42.5t-61.5 113.5q0 73 67 152q-35 -7 -73 -7q-214 0 -355 151.5t-141 401.5v17
q0 244 131.5 401.5t331.5 157.5q144 0 247 -75.5t153 -203t50 -292.5q0 -7 -1 -39.5t-1 -40.5h-680q15 -133 90.5 -207t184.5 -74q132 0 250 115z" />
    <glyph glyph-name="Ecaron" unicode="&#x11a;" horiz-adv-x="1163" 
d="M936 1802l-219 -262h-213l-219 262h190l137 -112l138 112h186zM156 0v1434h903v-215h-668v-390h592v-215h-592v-399h678v-215h-913z" />
    <glyph glyph-name="ecaron" unicode="&#x11b;" horiz-adv-x="1073" 
d="M854 1499l-211 -293h-205l-211 293h176l140 -135l139 135h172zM578 -23q-214 0 -355 151.5t-141 401.5v17q0 244 131.5 401.5t331.5 157.5q144 0 247 -75.5t153 -203t50 -292.5q0 -47 -2 -80h-680q15 -133 90.5 -207t184.5 -74q132 0 250 115l120 -144
q-158 -168 -380 -168zM311 614h459q-9 134 -68 215.5t-157 81.5q-96 0 -159 -80t-75 -217z" />
    <glyph glyph-name="Gbreve" unicode="&#x11e;" horiz-adv-x="1372" 
d="M731 1548q-135 0 -220 67t-95 189h162q28 -96 153 -96q126 0 154 96h162q-10 -122 -95.5 -189t-220.5 -67zM758 -20q-293 0 -474.5 199.5t-181.5 527.5v16q0 209 83.5 375.5t234 261t340.5 94.5q142 0 248.5 -39.5t205.5 -122.5l-141 -188q-69 63 -142.5 96t-174.5 33
q-176 0 -292 -143t-116 -365v-12q0 -239 116.5 -377.5t303.5 -138.5q149 0 254 75v316h-301v209h526v-643q-219 -174 -489 -174z" />
    <glyph glyph-name="gbreve" unicode="&#x11f;" horiz-adv-x="1187" 
d="M543 -313q-225 0 -412 102l76 182q152 -92 325 -92q144 0 219.5 72t75.5 215v104q-42 -59 -83.5 -97.5t-105 -65.5t-138.5 -27q-83 0 -156.5 33t-131.5 95t-92 160.5t-34 219.5v8q0 122 34.5 221t92.5 161t131.5 95t155.5 33q110 0 187 -49t138 -133v161h232v-909
q0 -237 -123 -360q-126 -129 -391 -129zM569 281q108 0 184 86t76 223v4q0 138 -76 223.5t-184 85.5q-109 0 -179.5 -84t-70.5 -225v-2q0 -141 71.5 -226t178.5 -85zM606 1200q-131 0 -216 73t-97 204h156q33 -117 157 -117q125 0 158 117h156q-12 -131 -97 -204t-217 -73z
" />
    <glyph glyph-name="Gdotaccent" unicode="&#x120;" horiz-adv-x="1372" 
d="M612 1556v220h238v-220h-238zM758 -20q-293 0 -474.5 199.5t-181.5 527.5v16q0 209 83.5 375.5t234 261t340.5 94.5q142 0 248.5 -39.5t205.5 -122.5l-141 -188q-69 63 -142.5 96t-174.5 33q-176 0 -292 -143t-116 -365v-12q0 -239 116.5 -377.5t303.5 -138.5
q149 0 254 75v316h-301v209h526v-643q-219 -174 -489 -174z" />
    <glyph glyph-name="gdotaccent" unicode="&#x121;" horiz-adv-x="1187" 
d="M543 -313q-225 0 -412 102l76 182q152 -92 325 -92q144 0 219.5 72t75.5 215v104q-42 -59 -83.5 -97.5t-105 -65.5t-138.5 -27q-83 0 -156.5 33t-131.5 95t-92 160.5t-34 219.5v8q0 122 34.5 221t92.5 161t131.5 95t155.5 33q110 0 187 -49t138 -133v161h232v-909
q0 -237 -123 -360q-126 -129 -391 -129zM569 281q108 0 184 86t76 223v4q0 138 -76 223.5t-184 85.5q-109 0 -179.5 -84t-70.5 -225v-2q0 -141 71.5 -226t178.5 -85zM487 1210v228h238v-228h-238z" />
    <glyph glyph-name="Gcommaaccent" unicode="&#x122;" horiz-adv-x="1372" 
d="M608 -522l-14 76q70 11 100.5 41.5t26.5 87.5h-103v194h226v-170q0 -113 -58.5 -167t-177.5 -62zM758 -20q-293 0 -474.5 199.5t-181.5 527.5v16q0 209 83.5 375.5t234 261t340.5 94.5q142 0 248.5 -39.5t205.5 -122.5l-141 -188q-69 63 -142.5 96t-174.5 33
q-176 0 -292 -143t-116 -365v-12q0 -239 116.5 -377.5t303.5 -138.5q149 0 254 75v316h-301v209h526v-643q-219 -174 -489 -174z" />
    <glyph glyph-name="gcommaaccent" unicode="&#x123;" horiz-adv-x="1187" 
d="M725 1610l14 -76q-70 -11 -100.5 -41.5t-26.5 -87.5h103v-195h-226v170q0 113 59 167.5t177 62.5zM543 -313q-225 0 -412 102l76 182q152 -92 325 -92q144 0 219.5 72t75.5 215v104q-42 -59 -83.5 -97.5t-105 -65.5t-138.5 -27q-83 0 -156.5 33t-131.5 95t-92 160.5
t-34 219.5v8q0 122 34.5 221t92.5 161t131.5 95t155.5 33q110 0 187 -49t138 -133v161h232v-909q0 -237 -123 -360q-126 -129 -391 -129zM569 281q108 0 184 86t76 223v4q0 138 -76 223.5t-184 85.5q-109 0 -179.5 -84t-70.5 -225v-2q0 -141 71.5 -226t178.5 -85z" />
    <glyph glyph-name="Hbar" unicode="&#x126;" horiz-adv-x="1382" 
d="M43 1057v178h129v199h238v-201h563v201h237v-199h129v-178h-129v-1057h-237v608h-563v-608h-238v1057h-129zM410 829h563v232h-563v-232z" />
    <glyph glyph-name="hbar" unicode="&#x127;" horiz-adv-x="1114" 
d="M649 1221h-287v-295q114 180 295 180q158 0 247 -102.5t89 -276.5v-727h-231v662q0 113 -51 174t-144 61q-92 0 -148.5 -64.5t-56.5 -175.5v-657h-231v1219h-121v151h121v109h231v-109h287v-149z" />
    <glyph glyph-name="Imacron" unicode="&#x12a;" horiz-adv-x="571" 
d="M168 0v1434h238v-1434h-238zM-41 1559v170h655v-170h-655z" />
    <glyph glyph-name="imacron" unicode="&#x12b;" horiz-adv-x="518" 
d="M143 0v1085h232v-1085h-232zM-49 1225v166h618v-166h-618z" />
    <glyph glyph-name="Ibreve" unicode="&#x12c;" horiz-adv-x="571" 
d="M168 0v1434h238v-1434h-238zM287 1534q-135 0 -220.5 67t-95.5 189h162q28 -96 154 -96q125 0 153 96h162q-10 -122 -95 -189t-220 -67z" />
    <glyph glyph-name="ibreve" unicode="&#x12d;" horiz-adv-x="518" 
d="M143 0v1085h232v-1085h-232zM260 1200q-131 0 -216 73t-97 204h155q33 -117 158 -117t158 117h155q-12 -131 -97 -204t-216 -73z" />
    <glyph glyph-name="Iogonek" unicode="&#x12e;" horiz-adv-x="571" 
d="M168 0v1434h238v-1434h-41q-62 -68 -62 -123q0 -81 127 -78v-118q-31 -5 -65 -5q-115 0 -177.5 43.5t-62.5 116.5q0 80 78 164h-35z" />
    <glyph glyph-name="iogonek" unicode="&#x12f;" horiz-adv-x="518" 
d="M143 0v1085h232v-1085h-37q-62 -68 -62 -123q0 -81 127 -78v-118q-31 -5 -65 -5q-115 0 -177.5 43.5t-62.5 116.5q0 80 78 164h-33zM135 1243v227h246v-227h-246z" />
    <glyph glyph-name="Idotaccent" unicode="&#x130;" horiz-adv-x="571" 
d="M168 0v1434h238v-1434h-238zM168 1542v219h238v-219h-238z" />
    <glyph glyph-name="dotlessi" unicode="&#x131;" horiz-adv-x="518" 
d="M143 0v1085h232v-1085h-232z" />
    <glyph glyph-name="Kcommaaccent" unicode="&#x136;" horiz-adv-x="1282" 
d="M522 -512l-14 76q70 11 100.5 41.5t26.5 87.5h-103v194h226v-170q0 -113 -58.5 -167t-177.5 -62zM156 0v1434h237v-705l555 705h287l-500 -617l522 -817h-282l-404 629l-178 -215v-414h-237z" />
    <glyph glyph-name="kcommaaccent" unicode="&#x137;" horiz-adv-x="1042" 
d="M418 -518l-15 76q70 11 100.5 41.5t26.5 87.5h-102v194h225v-170q0 -113 -58.5 -167t-176.5 -62zM131 0v1479h231v-871l371 477h275l-361 -442l371 -643h-268l-263 465l-125 -152v-313h-231z" />
    <glyph glyph-name="Lacute" unicode="&#x139;" horiz-adv-x="1069" 
d="M213 1538l209 285l209 -97l-240 -188h-178zM156 0v1434h237v-1215h615v-219h-852z" />
    <glyph glyph-name="lacute" unicode="&#x13a;" horiz-adv-x="518" 
d="M174 1561l209 284l209 -96l-240 -188h-178zM143 0v1479h232v-1479h-232z" />
    <glyph glyph-name="Lcommaaccent" unicode="&#x13b;" horiz-adv-x="1069" 
d="M455 -518l-15 76q70 11 100.5 41.5t26.5 87.5h-102v194h225v-170q0 -113 -58.5 -167t-176.5 -62zM156 0v1434h237v-1215h615v-219h-852z" />
    <glyph glyph-name="lcommaaccent" unicode="&#x13c;" horiz-adv-x="518" 
d="M137 -518l-14 76q70 11 100.5 41.5t26.5 87.5h-103v194h226v-170q0 -113 -58.5 -167t-177.5 -62zM143 0v1479h232v-1479h-232z" />
    <glyph glyph-name="Lcaron" unicode="&#x13d;" horiz-adv-x="1069" 
d="M522 1069l23 365h176v-7l-103 -358h-96zM156 0v1434h237v-1215h615v-219h-852z" />
    <glyph glyph-name="lcaron" unicode="&#x13e;" horiz-adv-x="518" 
d="M471 1186l23 364h176v-6l-103 -358h-96zM143 0v1479h232v-1479h-232z" />
    <glyph glyph-name="Ldot" unicode="&#x13f;" horiz-adv-x="1069" 
d="M715 647v230h227v-230h-227zM156 0v1434h237v-1215h615v-219h-852z" />
    <glyph glyph-name="ldot" unicode="&#x140;" horiz-adv-x="679" 
d="M500 647v219h198v-219h-198zM143 0v1479h232v-1479h-232z" />
    <glyph glyph-name="Lslash" unicode="&#x141;" horiz-adv-x="1124" 
d="M715 782l-277 -133v-430h617v-219h-852v537l-133 -66v227l133 64v672h235v-557l277 135v-230z" />
    <glyph glyph-name="lslash" unicode="&#x142;" horiz-adv-x="618" 
d="M563 778l-139 -76v-702h-229v580l-140 -74v225l140 74v674h229v-551l139 76v-226z" />
    <glyph glyph-name="Nacute" unicode="&#x143;" horiz-adv-x="1394" 
d="M600 1536l209 285l209 -97l-240 -188h-178zM156 0v1434h221l631 -957v957h231v-1434h-201l-649 985v-985h-233z" />
    <glyph glyph-name="nacute" unicode="&#x144;" horiz-adv-x="1114" 
d="M465 1206l199 322l204 -96l-233 -226h-170zM131 0v1085h231v-159q114 180 297 180q156 0 245 -102.5t89 -276.5v-727h-231v662q0 113 -51 174t-144 61q-92 0 -148.5 -64.5t-56.5 -175.5v-657h-231z" />
    <glyph glyph-name="Ncommaaccent" unicode="&#x145;" horiz-adv-x="1394" 
d="M573 -512l-14 76q70 11 100.5 41.5t26.5 87.5h-102v194h225v-170q0 -113 -58.5 -167t-177.5 -62zM156 0v1434h221l631 -957v957h231v-1434h-201l-649 985v-985h-233z" />
    <glyph glyph-name="ncommaaccent" unicode="&#x146;" horiz-adv-x="1114" 
d="M436 -518l-14 76q70 11 100.5 41.5t26.5 87.5h-103v194h226v-170q0 -113 -58.5 -167t-177.5 -62zM131 0v1085h231v-159q114 180 297 180q156 0 245 -102.5t89 -276.5v-727h-231v662q0 113 -51 174t-144 61q-92 0 -148.5 -64.5t-56.5 -175.5v-657h-231z" />
    <glyph glyph-name="Ncaron" unicode="&#x147;" horiz-adv-x="1394" 
d="M1022 1800l-219 -262h-213l-219 262h190l137 -112l138 112h186zM156 0v1434h221l631 -957v957h231v-1434h-201l-649 985v-985h-233z" />
    <glyph glyph-name="ncaron" unicode="&#x148;" horiz-adv-x="1114" 
d="M874 1499l-210 -293h-205l-211 293h176l139 -135l139 135h172zM131 0v1085h231v-159q114 180 297 180q156 0 245 -102.5t89 -276.5v-727h-231v662q0 113 -51 174t-144 61q-92 0 -148.5 -64.5t-56.5 -175.5v-657h-231z" />
    <glyph glyph-name="Omacron" unicode="&#x14c;" horiz-adv-x="1474" 
d="M408 1573v170h655v-170h-655zM735 -23q-184 0 -328.5 93t-224.5 259t-80 376v20q0 211 80.5 377.5t226 260t330.5 93.5q184 0 328.5 -93t224.5 -258.5t80 -375.5v-20q0 -211 -80.5 -378t-226 -260.5t-330.5 -93.5zM739 197q170 0 278.5 141t108.5 371v14
q0 229 -110 371.5t-281 142.5q-170 0 -278.5 -141t-108.5 -371v-14q0 -228 110.5 -371t280.5 -143z" />
    <glyph glyph-name="omacron" unicode="&#x14d;" horiz-adv-x="1163" 
d="M272 1225v166h619v-166h-619zM580 -23q-216 0 -357 156t-141 397v19q0 240 143 398.5t359 158.5q215 0 356 -157t141 -398v-19q0 -157 -64.5 -284t-179 -199t-257.5 -72zM584 180q120 0 193 100t73 255v12q0 153 -76 253.5t-194 100.5q-120 0 -193.5 -99t-73.5 -253v-12
q0 -153 76.5 -255t194.5 -102z" />
    <glyph glyph-name="Obreve" unicode="&#x14e;" horiz-adv-x="1474" 
d="M735 1548q-135 0 -220 67t-95 189h162q28 -96 153 -96q126 0 154 96h162q-10 -122 -95.5 -189t-220.5 -67zM735 -23q-184 0 -328.5 93t-224.5 259t-80 376v20q0 211 80.5 377.5t226 260t330.5 93.5q184 0 328.5 -93t224.5 -258.5t80 -375.5v-20q0 -211 -80.5 -378
t-226 -260.5t-330.5 -93.5zM739 197q170 0 278.5 141t108.5 371v14q0 229 -110 371.5t-281 142.5q-170 0 -278.5 -141t-108.5 -371v-14q0 -228 110.5 -371t280.5 -143z" />
    <glyph glyph-name="obreve" unicode="&#x14f;" horiz-adv-x="1163" 
d="M580 -23q-216 0 -357 156t-141 397v19q0 240 143 398.5t359 158.5q215 0 356 -157t141 -398v-19q0 -157 -64.5 -284t-179 -199t-257.5 -72zM584 180q120 0 193 100t73 255v12q0 153 -76 253.5t-194 100.5q-120 0 -193.5 -99t-73.5 -253v-12q0 -153 76.5 -255t194.5 -102z
M582 1200q-132 0 -217 73t-97 204h156q33 -117 158 -117q124 0 157 117h156q-12 -131 -97 -204t-216 -73z" />
    <glyph glyph-name="Ohungarumlaut" unicode="&#x150;" horiz-adv-x="1474" 
d="M735 -23q-184 0 -328.5 93t-224.5 259t-80 376v20q0 211 80.5 377.5t226 260t330.5 93.5q184 0 328.5 -93t224.5 -258.5t80 -375.5v-20q0 -211 -80.5 -378t-226 -260.5t-330.5 -93.5zM739 197q170 0 278.5 141t108.5 371v14q0 229 -110 371.5t-281 142.5
q-170 0 -278.5 -141t-108.5 -371v-14q0 -228 110.5 -371t280.5 -143zM471 1552l209 285l199 -96l-236 -189h-172zM788 1552l211 285l199 -96l-237 -189h-173z" />
    <glyph glyph-name="ohungarumlaut" unicode="&#x151;" horiz-adv-x="1163" 
d="M633 1206l196 322l197 -96l-231 -226h-162zM324 1206l196 322l197 -96l-230 -226h-163zM580 -23q-216 0 -357 156t-141 397v19q0 240 143 398.5t359 158.5q215 0 356 -157t141 -398v-19q0 -157 -64.5 -284t-179 -199t-257.5 -72zM584 180q120 0 193 100t73 255v12
q0 153 -76 253.5t-194 100.5q-120 0 -193.5 -99t-73.5 -253v-12q0 -153 76.5 -255t194.5 -102z" />
    <glyph glyph-name="OE" unicode="&#x152;" horiz-adv-x="1916" 
d="M782 0q-305 0 -492.5 195.5t-187.5 511.5v16q0 208 84.5 369.5t239.5 251.5t356 90h1030v-215h-634v-390h561v-215h-561v-399h645v-215h-1041zM782 215h158v1004h-158q-197 0 -315.5 -133t-118.5 -361v-12q0 -230 118.5 -364t315.5 -134z" />
    <glyph glyph-name="oe" unicode="&#x153;" horiz-adv-x="1837" 
d="M571 -23q-206 0 -347.5 157t-141.5 396v19q0 158 65.5 286t179 199.5t251.5 71.5q118 0 214.5 -56t157.5 -155q59 100 152 155.5t205 55.5q213 0 331.5 -159t118.5 -412q0 -47 -2 -80h-680q15 -135 90 -208t185 -73q137 0 249 115l123 -144q-158 -168 -381 -168
q-124 0 -226 56.5t-167 159.5q-61 -101 -159 -158.5t-218 -57.5zM1073 614h459q-9 135 -68 216t-159 81q-94 0 -157 -80t-75 -217zM578 180q118 0 190 100t72 255v12q0 153 -74.5 253.5t-190.5 100.5q-118 0 -190 -99.5t-72 -252.5v-12q0 -153 75 -255t190 -102z" />
    <glyph glyph-name="Racute" unicode="&#x154;" horiz-adv-x="1277" 
d="M156 0v1434h518q247 0 383 -136q119 -119 119 -315v-8q0 -159 -80 -265.5t-217 -154.5l338 -555h-275l-305 508q-4 -2 -14 -2h-230v-506h-237zM393 719h256q136 0 211.5 67t75.5 181v4q0 120 -74 183t-209 63h-260v-498zM524 1538l209 285l209 -97l-240 -188h-178z" />
    <glyph glyph-name="racute" unicode="&#x155;" horiz-adv-x="737" 
d="M305 1206l199 322l205 -96l-234 -226h-170zM131 0v1085h231v-213q45 112 126.5 174t199.5 56v-252h-10q-145 0 -230.5 -95t-85.5 -276v-479h-231z" />
    <glyph glyph-name="Rcommaaccent" unicode="&#x156;" horiz-adv-x="1277" 
d="M498 -512l-15 76q70 11 100.5 41.5t26.5 87.5h-102v194h225v-170q0 -113 -58.5 -167t-176.5 -62zM156 0v1434h518q247 0 383 -136q119 -119 119 -315v-8q0 -159 -80 -265.5t-217 -154.5l338 -555h-275l-305 508q-4 -2 -14 -2h-230v-506h-237zM393 719h256q136 0 211.5 67
t75.5 181v4q0 120 -74 183t-209 63h-260v-498z" />
    <glyph glyph-name="rcommaaccent" unicode="&#x157;" horiz-adv-x="737" 
d="M137 -518l-14 76q70 11 100.5 41.5t26.5 87.5h-103v194h226v-170q0 -113 -58.5 -167t-177.5 -62zM131 0v1085h231v-213q45 112 126.5 174t199.5 56v-252h-10q-145 0 -230.5 -95t-85.5 -276v-479h-231z" />
    <glyph glyph-name="Rcaron" unicode="&#x158;" horiz-adv-x="1277" 
d="M946 1802l-219 -262h-213l-219 262h190l138 -112l137 112h186zM156 0v1434h518q247 0 383 -136q119 -119 119 -315v-8q0 -159 -80 -265.5t-217 -154.5l338 -555h-275l-305 508q-4 -2 -14 -2h-230v-506h-237zM393 719h256q136 0 211.5 67t75.5 181v4q0 120 -74 183
t-209 63h-260v-498z" />
    <glyph glyph-name="rcaron" unicode="&#x159;" horiz-adv-x="737" 
d="M711 1499l-211 -293h-205l-211 293h176l139 -135l140 135h172zM131 0v1085h231v-213q45 112 126.5 174t199.5 56v-252h-10q-145 0 -230.5 -95t-85.5 -276v-479h-231z" />
    <glyph glyph-name="Sacute" unicode="&#x15a;" horiz-adv-x="1124" 
d="M571 -18q-293 0 -518 206l144 179q89 -81 179.5 -125.5t196.5 -44.5q102 0 164 51t62 131v2q0 48 -21 82.5t-81.5 72t-172.5 78.5q-109 41 -180.5 79t-127 89t-80.5 115.5t-25 149.5v4q0 177 127 289t327 112q260 0 451 -168l-135 -182q-165 135 -322 135q-95 0 -152 -47
t-57 -119v-2q0 -77 59 -128t238 -120q206 -79 297.5 -174.5t91.5 -247.5v-4q0 -187 -130.5 -300t-334.5 -113zM475 1552l209 285l209 -96l-240 -189h-178z" />
    <glyph glyph-name="sacute" unicode="&#x15b;" horiz-adv-x="888" 
d="M356 1206l199 322l205 -96l-234 -226h-170zM444 -20q-101 0 -207 38t-196 113l109 166q156 -127 299 -127q70 0 110.5 33.5t40.5 85.5v2q0 23 -11.5 43t-25 33.5t-47.5 31.5t-56 28t-73 32q-71 31 -116.5 56t-91 63t-67.5 88t-22 114v4q0 144 102 231t257 87
q91 0 183 -30.5t169 -86.5l-99 -170q-143 96 -258 96q-63 0 -100 -30t-37 -76v-4q0 -26 11 -45.5t49 -43t57.5 -33t87.5 -40.5q5 -3 8 -4q71 -32 118 -59.5t91 -66t65 -87.5t21 -111v-2q0 -155 -104 -242t-267 -87z" />
    <glyph glyph-name="Scedilla" unicode="&#x15e;" horiz-adv-x="1124" 
d="M541 -311l-203 84l143 215q-242 25 -428 200l144 179q89 -81 179.5 -125.5t196.5 -44.5q102 0 164 51t62 131v2q0 48 -21 82.5t-81.5 72t-172.5 78.5q-109 41 -180.5 79t-127 89t-80.5 115.5t-25 149.5v4q0 177 127 289t327 112q260 0 451 -168l-135 -182
q-165 135 -322 135q-95 0 -152 -47t-57 -119v-2q0 -77 59 -128t238 -120q206 -79 297.5 -174.5t91.5 -247.5v-4q0 -165 -103 -274t-271 -133z" />
    <glyph glyph-name="scedilla" unicode="&#x15f;" horiz-adv-x="888" 
d="M406 -311l-203 84l143 215q-168 26 -305 143l109 166q156 -127 299 -127q70 0 110.5 33.5t40.5 85.5v2q0 23 -11.5 43t-25 33.5t-47.5 31.5t-56 28t-73 32q-71 31 -116.5 56t-91 63t-67.5 88t-22 114v4q0 144 102 231t257 87q91 0 183 -30.5t169 -86.5l-99 -170
q-143 96 -258 96q-63 0 -100 -30t-37 -76v-4q0 -26 11 -45.5t49 -43t57.5 -33t87.5 -40.5q5 -3 8 -4q71 -32 118 -59.5t91 -66t65 -87.5t21 -111v-2q0 -134 -80 -218t-211 -105z" />
    <glyph glyph-name="Scaron" unicode="&#x160;" horiz-adv-x="1124" 
d="M571 -18q-293 0 -518 206l144 179q89 -81 179.5 -125.5t196.5 -44.5q102 0 164 51t62 131v2q0 48 -21 82.5t-81.5 72t-172.5 78.5q-109 41 -180.5 79t-127 89t-80.5 115.5t-25 149.5v4q0 177 127 289t327 112q260 0 451 -168l-135 -182q-165 135 -322 135q-95 0 -152 -47
t-57 -119v-2q0 -77 59 -128t238 -120q206 -79 297.5 -174.5t91.5 -247.5v-4q0 -187 -130.5 -300t-334.5 -113zM897 1817l-219 -263h-213l-219 263h190l137 -113l138 113h186z" />
    <glyph glyph-name="scaron" unicode="&#x161;" horiz-adv-x="888" 
d="M766 1499l-211 -293h-205l-211 293h176l140 -135l139 135h172zM444 -20q-101 0 -207 38t-196 113l109 166q156 -127 299 -127q70 0 110.5 33.5t40.5 85.5v2q0 23 -11.5 43t-25 33.5t-47.5 31.5t-56 28t-73 32q-71 31 -116.5 56t-91 63t-67.5 88t-22 114v4q0 144 102 231
t257 87q91 0 183 -30.5t169 -86.5l-99 -170q-143 96 -258 96q-63 0 -100 -30t-37 -76v-4q0 -26 11 -45.5t49 -43t57.5 -33t87.5 -40.5q5 -3 8 -4q71 -32 118 -59.5t91 -66t65 -87.5t21 -111v-2q0 -155 -104 -242t-267 -87z" />
    <glyph glyph-name="Tcommaaccent" unicode="&#x162;" horiz-adv-x="1124" 
d="M438 -518l-14 76q70 11 100.5 41.5t26.5 87.5h-102v194h225v-170q0 -113 -58.5 -167t-177.5 -62zM442 0v1212h-376v222h991v-222h-377v-1212h-238z" />
    <glyph glyph-name="tcommaaccent" unicode="&#x163;" horiz-adv-x="729" 
d="M276 -518l-14 76q70 11 100.5 41.5t26.5 87.5h-102v194h225v-170q0 -113 -58.5 -167t-177.5 -62zM457 -16q-281 0 -281 278v625h-119v198h119v293h232v-293h243v-198h-243v-578q0 -119 116 -119q65 0 125 31v-190q-86 -47 -192 -47z" />
    <glyph glyph-name="Tcaron" unicode="&#x164;" horiz-adv-x="1124" 
d="M887 1802l-219 -262h-213l-219 262h190l137 -112l137 112h187zM442 0v1212h-376v222h991v-222h-377v-1212h-238z" />
    <glyph glyph-name="tcaron" unicode="&#x165;" horiz-adv-x="729" 
d="M532 1186l23 364h176v-6l-102 -358h-97zM457 -16q-281 0 -281 278v625h-119v198h119v293h232v-293h243v-198h-243v-578q0 -119 116 -119q65 0 125 31v-190q-86 -47 -192 -47z" />
    <glyph glyph-name="Umacron" unicode="&#x16a;" horiz-adv-x="1341" 
d="M340 1556v170h655v-170h-655zM668 -23q-245 0 -388 147.5t-143 422.5v887h238v-885q0 -171 78.5 -261.5t218.5 -90.5q138 0 216.5 88.5t78.5 255.5v893h235v-879q0 -283 -142.5 -430.5t-391.5 -147.5z" />
    <glyph glyph-name="umacron" unicode="&#x16b;" horiz-adv-x="1114" 
d="M455 -20q-157 0 -245.5 101t-88.5 277v727h231v-661q0 -113 51 -174.5t142 -61.5q92 0 148.5 64.5t56.5 175.5v657h233v-1085h-233v158q-113 -178 -295 -178zM242 1225v166h618v-166h-618z" />
    <glyph glyph-name="Ubreve" unicode="&#x16c;" horiz-adv-x="1341" 
d="M668 1520q-135 0 -220.5 67t-95.5 189h162q29 -97 154 -97q124 0 153 97h162q-10 -122 -95 -189t-220 -67zM668 -23q-245 0 -388 147.5t-143 422.5v887h238v-885q0 -171 78.5 -261.5t218.5 -90.5q138 0 216.5 88.5t78.5 255.5v893h235v-879q0 -283 -142.5 -430.5
t-391.5 -147.5z" />
    <glyph glyph-name="ubreve" unicode="&#x16d;" horiz-adv-x="1114" 
d="M455 -20q-157 0 -245.5 101t-88.5 277v727h231v-661q0 -113 51 -174.5t142 -61.5q92 0 148.5 64.5t56.5 175.5v657h233v-1085h-233v158q-113 -178 -295 -178zM551 1200q-131 0 -216 73t-97 204h155q33 -117 158 -117t158 117h155q-12 -131 -97 -204t-216 -73z" />
    <glyph glyph-name="Uring" unicode="&#x16e;" horiz-adv-x="1341" 
d="M668 -23q-245 0 -388 147.5t-143 422.5v887h238v-885q0 -171 78.5 -261.5t218.5 -90.5q138 0 216.5 88.5t78.5 255.5v893h235v-879q0 -283 -142.5 -430.5t-391.5 -147.5zM668 1497q-92 0 -157 57.5t-65 143.5t65 143t157 57t156.5 -57t64.5 -143q0 -87 -64.5 -144
t-156.5 -57zM668 1589q52 0 85 31.5t33 77.5t-33 77t-85 31t-85.5 -31t-33.5 -77t33.5 -77.5t85.5 -31.5z" />
    <glyph glyph-name="uring" unicode="&#x16f;" horiz-adv-x="1114" 
d="M551 1178q-91 0 -154 62t-63 151t63 151t154 62t154 -61.5t63 -151.5q0 -89 -63 -151t-154 -62zM551 1266q51 0 86 36t35 89t-35 89t-86 36t-86 -36t-35 -89t35 -89t86 -36zM455 -20q-157 0 -245.5 101t-88.5 277v727h231v-661q0 -113 51 -174.5t142 -61.5
q92 0 148.5 64.5t56.5 175.5v657h233v-1085h-233v158q-113 -178 -295 -178z" />
    <glyph glyph-name="Uhungarumlaut" unicode="&#x170;" horiz-adv-x="1341" 
d="M668 -23q-245 0 -388 147.5t-143 422.5v887h238v-885q0 -171 78.5 -261.5t218.5 -90.5q138 0 216.5 88.5t78.5 255.5v893h235v-879q0 -283 -142.5 -430.5t-391.5 -147.5zM403 1536l209 285l199 -97l-236 -188h-172zM721 1536l211 285l198 -97l-237 -188h-172z" />
    <glyph glyph-name="uhungarumlaut" unicode="&#x171;" horiz-adv-x="1114" 
d="M455 -20q-157 0 -245.5 101t-88.5 277v727h231v-661q0 -113 51 -174.5t142 -61.5q92 0 148.5 64.5t56.5 175.5v657h233v-1085h-233v158q-113 -178 -295 -178zM602 1206l197 322l196 -96l-231 -226h-162zM293 1206l196 322l197 -96l-229 -226h-164z" />
    <glyph glyph-name="Uogonek" unicode="&#x172;" horiz-adv-x="1341" 
d="M815 -201v-118q-31 -5 -65 -5q-115 0 -177.5 43.5t-62.5 116.5q0 72 63 148q-204 27 -320 171t-116 392v887h238v-885q0 -171 78.5 -261.5t218.5 -90.5q138 0 216.5 88.5t78.5 255.5v893h235v-879q0 -263 -125 -409t-344 -164q-45 -56 -45 -105q0 -81 127 -78z" />
    <glyph glyph-name="uogonek" unicode="&#x173;" horiz-adv-x="1114" 
d="M455 -20q-157 0 -245.5 101t-88.5 277v727h231v-661q0 -113 51 -174.5t142 -61.5q92 0 148.5 64.5t56.5 175.5v657h233v-1085h-49q-62 -68 -62 -123q0 -81 127 -78v-118q-31 -5 -65 -5q-115 0 -177.5 43.5t-62.5 116.5q0 80 78 164h-22v158q-113 -178 -295 -178z" />
    <glyph glyph-name="Wcircumflex" unicode="&#x174;" horiz-adv-x="1968" 
d="M475 -8l-416 1442h252l281 -1041l293 1045h205l292 -1045l281 1041h246l-418 -1442h-215l-293 1012l-293 -1012h-215zM657 1540l220 262h213l219 -262h-191l-137 113l-137 -113h-187z" />
    <glyph glyph-name="wcircumflex" unicode="&#x175;" horiz-adv-x="1548" 
d="M459 1206l211 293h204l211 -293h-176l-139 137l-139 -137h-172zM358 -8l-303 1093h238l184 -733l201 735h196l201 -735l187 733h233l-305 -1093h-213l-203 725l-205 -725h-211z" />
    <glyph glyph-name="Ycircumflex" unicode="&#x176;" horiz-adv-x="1255" 
d="M510 0v571l-483 863h272l332 -621l334 621h264l-481 -861v-573h-238zM301 1538l219 262h213l219 -262h-190l-137 113l-138 -113h-186z" />
    <glyph glyph-name="ycircumflex" unicode="&#x177;" horiz-adv-x="1067" 
d="M543 297l235 788h240l-369 -1101q-55 -164 -128 -231.5t-193 -67.5q-114 0 -219 57l67 178q68 -37 125 -37q47 0 77 25.5t54 89.5l-387 1087h246zM221 1206l211 293h205l211 -293h-176l-140 137l-139 -137h-172z" />
    <glyph glyph-name="Ydieresis" unicode="&#x178;" horiz-adv-x="1255" 
d="M510 0v571l-483 863h272l332 -621l334 621h264l-481 -861v-573h-238zM698 1540v219h234v-219h-234zM319 1540v219h236v-219h-236z" />
    <glyph glyph-name="Zacute" unicode="&#x179;" horiz-adv-x="1214" 
d="M109 0v176l704 1045h-682v213h979v-177l-704 -1044h704v-213h-1001zM522 1538l209 285l209 -97l-240 -188h-178z" />
    <glyph glyph-name="zacute" unicode="&#x17a;" horiz-adv-x="974" 
d="M399 1206l199 322l205 -96l-234 -226h-170zM84 0v160l528 733h-510v192h793v-159l-528 -733h526v-193h-809z" />
    <glyph glyph-name="Zdotaccent" unicode="&#x17b;" horiz-adv-x="1214" 
d="M500 1542v219h237v-219h-237zM109 0v176l704 1045h-682v213h979v-177l-704 -1044h704v-213h-1001z" />
    <glyph glyph-name="zdotaccent" unicode="&#x17c;" horiz-adv-x="974" 
d="M84 0v160l528 733h-510v192h793v-159l-528 -733h526v-193h-809zM375 1210v228h237v-228h-237z" />
    <glyph glyph-name="Zcaron" unicode="&#x17d;" horiz-adv-x="1214" 
d="M944 1802l-219 -262h-213l-219 262h190l138 -112l137 112h186zM109 0v176l704 1045h-682v213h979v-177l-704 -1044h704v-213h-1001z" />
    <glyph glyph-name="zcaron" unicode="&#x17e;" horiz-adv-x="974" 
d="M807 1499l-211 -293h-205l-211 293h176l140 -135l139 135h172zM84 0v160l528 733h-510v192h793v-159l-528 -733h526v-193h-809z" />
    <glyph glyph-name="florin" unicode="&#x192;" horiz-adv-x="958" 
d="M176 -10q-58 0 -110 10v197q38 -9 75 -9q58 0 90.5 32t42.5 102l62 415h-143v193h172l30 207q25 154 104.5 230.5t227.5 76.5q101 0 172 -23v-198q-74 18 -125 18q-65 0 -102 -36t-49 -115l-23 -160h236v-193h-265l-67 -448q-24 -159 -103.5 -229t-224.5 -70z" />
    <glyph glyph-name="Aringacute" unicode="&#x1fa;" horiz-adv-x="1380" 
d="M49 0l496 1364q-78 58 -78 154q0 86 65.5 143t157.5 57t157.5 -57t65.5 -143q0 -97 -77 -154l495 -1364h-248l-118 338h-557l-119 -338h-240zM481 549h410l-205 575zM590 1772l213 245l207 -96l-238 -149h-182zM690 1409q52 0 85.5 31.5t33.5 77.5t-33.5 77t-85.5 31
t-85.5 -31t-33.5 -77t33.5 -77.5t85.5 -31.5z" />
    <glyph glyph-name="aringacute" unicode="&#x1fb;" horiz-adv-x="1048" 
d="M432 1688l203 264l201 -94l-232 -170h-172zM401 -20q-141 0 -236 89t-95 242v11q0 170 104 259t281 89q123 0 250 -43v45q0 108 -61.5 164.5t-172.5 56.5q-118 0 -262 -66l-66 185q175 86 359 86q211 0 319 -111q109 -109 109 -313v-674h-228v133q-105 -153 -301 -153z
M471 154q100 -2 168 58.5t68 152.5v108q-90 39 -201 39q-100 0 -155.5 -48t-55.5 -134v-4q0 -79 49 -124.5t127 -47.5zM524 1200q-91 0 -154 62t-63 151t63 151t154 62t154 -61.5t63 -151.5q0 -89 -63 -151t-154 -62zM524 1288q51 0 86 36t35 89t-35 89t-86 36t-86 -36
t-35 -89t35 -89t86 -36z" />
    <glyph glyph-name="AEacute" unicode="&#x1fc;" horiz-adv-x="1832" 
d="M981 1538l209 285l209 -97l-240 -188h-178zM18 0l676 1434h1035v-215h-637v-390h561v-215h-561v-399h645v-215h-881v338h-438l-160 -338h-240zM514 549h342v670h-35z" />
    <glyph glyph-name="aeacute" unicode="&#x1fd;" horiz-adv-x="1685" 
d="M743 1206l199 322l205 -96l-234 -226h-170zM424 -20q-155 0 -254.5 90t-99.5 245v7q0 170 103.5 259t279.5 89q118 0 245 -43v45q0 107 -60 164t-169 57q-120 0 -260 -68l-66 189q178 84 355 84q247 0 338 -164q58 82 141.5 127t183.5 45q140 0 242.5 -75t153.5 -203
t51 -293q0 -14 -4 -80h-680q17 -135 91 -208t185 -73q139 0 248 115l123 -144q-158 -168 -381 -168q-118 0 -216 50.5t-163 144.5q-170 -192 -387 -192zM922 614h458q-8 134 -67 215.5t-158 81.5q-95 0 -158 -79.5t-75 -217.5zM473 156q148 0 264 151q-26 83 -32 168
q-102 37 -201 37q-98 0 -153.5 -47.5t-55.5 -132.5v-6q0 -78 50 -124t128 -46z" />
    <glyph glyph-name="Oslashacute" unicode="&#x1fe;" horiz-adv-x="1474" 
d="M1171 1444h211l-163 -221q153 -202 153 -494v-20q0 -210 -80.5 -377t-226 -261t-330.5 -94q-203 0 -354 111l-76 -98h-213l164 221q-154 200 -154 494v20q0 210 80.5 376.5t226 260.5t330.5 94q201 0 355 -113zM344 711q0 -171 64 -299l555 747q-100 84 -228 84
q-173 0 -282 -142t-109 -374v-16zM739 190q173 0 282 142.5t109 374.5v16q0 167 -63 299l-555 -750q97 -82 227 -82zM641 1552l209 285l209 -96l-240 -189h-178z" />
    <glyph glyph-name="oslashacute" unicode="&#x1ff;" horiz-adv-x="1163" 
d="M911 1096h195l-139 -181q114 -152 114 -364v-19q0 -239 -143 -397t-358 -158q-152 0 -271 80l-57 -69h-195l140 178q-115 153 -115 364v19q0 241 143 399t359 158q146 0 268 -82zM305 537q0 -104 35 -185l389 502q-69 53 -149 53q-123 0 -199 -101t-76 -257v-12zM584 176
q123 0 197.5 101.5t74.5 257.5v10q0 103 -35 184l-387 -504q61 -49 150 -49zM485 1206l199 322l205 -96l-234 -226h-170z" />
    <glyph glyph-name="Scommaaccent" unicode="&#x218;" horiz-adv-x="1124" 
d="M442 -522l-14 76q70 11 100.5 41.5t26.5 87.5h-102v194h225v-170q0 -113 -58.5 -167t-177.5 -62zM571 -18q-293 0 -518 206l144 179q89 -81 179.5 -125.5t196.5 -44.5q102 0 164 51t62 131v2q0 48 -21 82.5t-81.5 72t-172.5 78.5q-109 41 -180.5 79t-127 89t-80.5 115.5
t-25 149.5v4q0 177 127 289t327 112q260 0 451 -168l-135 -182q-165 135 -322 135q-95 0 -152 -47t-57 -119v-2q0 -77 59 -128t238 -120q206 -79 297.5 -174.5t91.5 -247.5v-4q0 -187 -130.5 -300t-334.5 -113z" />
    <glyph glyph-name="scommaaccent" unicode="&#x219;" horiz-adv-x="888" 
d="M324 -518l-15 76q70 11 100.5 41.5t26.5 87.5h-102v194h225v-170q0 -113 -58.5 -167t-176.5 -62zM444 -20q-101 0 -207 38t-196 113l109 166q156 -127 299 -127q70 0 110.5 33.5t40.5 85.5v2q0 23 -11.5 43t-25 33.5t-47.5 31.5t-56 28t-73 32q-71 31 -116.5 56t-91 63
t-67.5 88t-22 114v4q0 144 102 231t257 87q91 0 183 -30.5t169 -86.5l-99 -170q-143 96 -258 96q-63 0 -100 -30t-37 -76v-4q0 -26 11 -45.5t49 -43t57.5 -33t87.5 -40.5q5 -3 8 -4q71 -32 118 -59.5t91 -66t65 -87.5t21 -111v-2q0 -155 -104 -242t-267 -87z" />
    <glyph glyph-name="schwa" unicode="&#x259;" horiz-adv-x="1073" 
d="M496 1106q214 0 354.5 -151.5t140.5 -401.5v-16q0 -244 -131.5 -402t-331.5 -158q-144 0 -247 75.5t-153 203.5t-50 293q0 47 2 80h680q-15 133 -90.5 206.5t-184.5 73.5q-132 0 -249 -114l-121 143q158 168 381 168zM762 469h-459q9 -134 68 -215.5t157 -81.5
q96 0 159 80t75 217z" />
    <glyph glyph-name="circumflex" unicode="&#x2c6;" horiz-adv-x="1024" 
d="M199 1206l211 293h204l211 -293h-176l-139 137l-139 -137h-172z" />
    <glyph glyph-name="caron" unicode="&#x2c7;" horiz-adv-x="1024" 
d="M825 1499l-211 -293h-204l-211 293h176l139 -135l139 135h172z" />
    <glyph glyph-name="breve" unicode="&#x2d8;" horiz-adv-x="1024" 
d="M512 1200q-131 0 -216 73t-97 204h155q33 -117 158 -117t158 117h155q-12 -131 -97 -204t-216 -73z" />
    <glyph glyph-name="dotaccent" unicode="&#x2d9;" horiz-adv-x="1024" 
d="M393 1210v228h238v-228h-238z" />
    <glyph glyph-name="ring" unicode="&#x2da;" horiz-adv-x="1024" 
d="M512 1200q-91 0 -154 62t-63 151t63 151t154 62t154 -61.5t63 -151.5q0 -89 -63 -151t-154 -62zM512 1288q51 0 86 36t35 89t-35 89t-86 36t-86 -36t-35 -89t35 -89t86 -36z" />
    <glyph glyph-name="ogonek" unicode="&#x2db;" horiz-adv-x="1024" 
d="M682 -201v-118q-31 -5 -66 -5q-115 0 -177 43.5t-62 116.5q0 48 25 91.5t75 95.5l156 -7q-78 -81 -78 -139q0 -81 127 -78z" />
    <glyph glyph-name="tilde" unicode="&#x2dc;" horiz-adv-x="1024" 
d="M657 1206q-54 0 -155 43q-80 37 -111 37q-35 0 -54.5 -21t-39.5 -73l-131 37q32 124 77 180.5t124 56.5q63 0 155 -45q80 -37 111 -37q35 0 54.5 21.5t39.5 75.5l131 -37q-32 -124 -77 -181t-124 -57z" />
    <glyph glyph-name="hungarumlaut" unicode="&#x2dd;" horiz-adv-x="1024" 
d="M473 1206l197 322l196 -96l-231 -226h-162zM164 1206l196 322l197 -96l-229 -226h-164z" />
    <glyph glyph-name="commaaccent" unicode="&#x326;" horiz-adv-x="1024" 
d="M391 -518l-14 76q70 11 100.5 41.5t26.5 87.5h-103v194h226v-170q0 -113 -58.5 -167t-177.5 -62z" />
    <glyph glyph-name="baht" unicode="&#xe3f;" horiz-adv-x="1161" 
d="M590 1602h158l-23 -179q151 -29 239.5 -119.5t88.5 -234.5v-4q0 -236 -228 -326q125 -47 193.5 -126.5t68.5 -213.5v-6q0 -187 -135 -290t-362 -103h-29l-26 -244h-158l26 244h-270v1434h436zM864 418q0 96 -61.5 151.5t-175.5 61.5l-52 -428h25q124 0 194 55.5t70 157.5
v2zM352 813h152l49 418h-201v-418zM834 1028q0 72 -37.5 121t-106.5 70l-45 -402q89 14 139 68t50 143zM352 203h84l51 430h-135v-430z" />
    <glyph glyph-name="Wgrave" unicode="&#x1e80;" horiz-adv-x="1968" 
d="M1079 1538h-178l-239 188l208 97zM475 -8l-416 1442h252l281 -1041l293 1045h205l292 -1045l281 1041h246l-418 -1442h-215l-293 1012l-293 -1012h-215z" />
    <glyph glyph-name="wgrave" unicode="&#x1e81;" horiz-adv-x="1548" 
d="M358 -8l-303 1093h238l184 -733l201 735h196l201 -735l187 733h233l-305 -1093h-213l-203 725l-205 -725h-211zM694 1206l-233 226l207 96l196 -322h-170z" />
    <glyph glyph-name="Wacute" unicode="&#x1e82;" horiz-adv-x="1968" 
d="M887 1538l209 285l209 -97l-240 -188h-178zM475 -8l-416 1442h252l281 -1041l293 1045h205l292 -1045l281 1041h246l-418 -1442h-215l-293 1012l-293 -1012h-215z" />
    <glyph glyph-name="wacute" unicode="&#x1e83;" horiz-adv-x="1548" 
d="M680 1206l199 322l204 -96l-233 -226h-170zM358 -8l-303 1093h238l184 -733l201 735h196l201 -735l187 733h233l-305 -1093h-213l-203 725l-205 -725h-211z" />
    <glyph glyph-name="Wdieresis" unicode="&#x1e84;" horiz-adv-x="1968" 
d="M1055 1542v219h233v-219h-233zM676 1542v219h235v-219h-235zM475 -8l-416 1442h252l281 -1041l293 1045h205l292 -1045l281 1041h246l-418 -1442h-215l-293 1012l-293 -1012h-215z" />
    <glyph glyph-name="wdieresis" unicode="&#x1e85;" horiz-adv-x="1548" 
d="M836 1210v228h229v-228h-229zM479 1210v228h230v-228h-230zM358 -8l-303 1093h238l184 -733l201 735h196l201 -735l187 733h233l-305 -1093h-213l-203 725l-205 -725h-211z" />
    <glyph glyph-name="Ygrave" unicode="&#x1ef2;" horiz-adv-x="1255" 
d="M510 0v571l-483 863h272l332 -621l334 621h264l-481 -861v-573h-238zM723 1536h-178l-240 188l209 97z" />
    <glyph glyph-name="ygrave" unicode="&#x1ef3;" horiz-adv-x="1067" 
d="M543 297l235 788h240l-369 -1101q-55 -164 -128 -231.5t-193 -67.5q-114 0 -219 57l67 178q68 -37 125 -37q47 0 77 25.5t54 89.5l-387 1087h246zM457 1206l-234 226l207 96l197 -322h-170z" />
    <glyph glyph-name="enspace" unicode="&#x2002;" horiz-adv-x="1024" 
 />
    <glyph glyph-name="emspace" unicode="&#x2003;" horiz-adv-x="2048" 
 />
    <glyph glyph-name="threeperemspace" unicode="&#x2004;" horiz-adv-x="681" 
 />
    <glyph glyph-name="fourperemspace" unicode="&#x2005;" horiz-adv-x="512" 
 />
    <glyph glyph-name="figurespace" unicode="&#x2007;" horiz-adv-x="1085" 
 />
    <glyph glyph-name="thinspace" unicode="&#x2009;" horiz-adv-x="266" 
 />
    <glyph glyph-name="hairspace" unicode="&#x200a;" horiz-adv-x="149" 
 />
    <glyph glyph-name="endash" unicode="&#x2013;" horiz-adv-x="1026" 
d="M104 516v221h818v-221h-818z" />
    <glyph glyph-name="emdash" unicode="&#x2014;" horiz-adv-x="1683" 
d="M104 516v221h1475v-221h-1475z" />
    <glyph glyph-name="quoteleft" unicode="&#x2018;" horiz-adv-x="509" 
d="M115 872v230q0 160 74 241t225 99l24 -99q-182 -39 -166 -198h105v-273h-262z" />
    <glyph glyph-name="quoteright" unicode="&#x2019;" horiz-adv-x="509" 
d="M96 864l-24 101q182 39 166 196h-105v273h262v-230q0 -160 -74 -241t-225 -99z" />
    <glyph glyph-name="quotesinglbase" unicode="&#x201a;" horiz-adv-x="520" 
d="M90 -297l-27 100q188 36 175 197h-107v272h262v-229q0 -160 -74 -241t-229 -99z" />
    <glyph glyph-name="quotedblleft" unicode="&#x201c;" horiz-adv-x="948" 
d="M553 872v230q0 160 74.5 241t226.5 99l25 -99q-184 -39 -168 -198h104v-273h-262zM115 872v230q0 160 74 241t225 99l24 -99q-182 -39 -166 -198h105v-273h-262z" />
    <glyph glyph-name="quotedblright" unicode="&#x201d;" horiz-adv-x="948" 
d="M535 864l-25 101q181 39 168 196h-107v273h263v-230q0 -160 -74 -241t-225 -99zM96 864l-24 101q182 39 166 196h-105v273h262v-230q0 -160 -74 -241t-225 -99z" />
    <glyph glyph-name="quotedblbase" unicode="&#x201e;" horiz-adv-x="962" 
d="M530 -297l-24 100q187 36 174 197h-105v272h261v-229q0 -160 -75 -241t-231 -99zM90 -297l-27 100q188 36 175 197h-107v272h262v-229q0 -160 -74 -241t-229 -99z" />
    <glyph glyph-name="dagger" unicode="&#x2020;" horiz-adv-x="733" 
d="M295 487l18 566l-221 -21v146l219 -21l-24 277h159l-24 -277l219 21v-146l-221 21l20 -566h-145z" />
    <glyph glyph-name="daggerdbl" unicode="&#x2021;" horiz-adv-x="774" 
d="M307 0l25 276l-221 -20v145l221 -20l-19 336l19 336l-221 -21v146l221 -21l-25 277h160l-25 -277l220 21v-146l-222 21l21 -336l-21 -336l222 20v-145l-220 20l25 -276h-160z" />
    <glyph glyph-name="bullet" unicode="&#x2022;" horiz-adv-x="913" 
d="M457 434q-114 0 -190.5 79.5t-76.5 201.5v14q0 121 77.5 201t189.5 80q111 0 188.5 -80t77.5 -201v-14q0 -121 -77 -201t-189 -80z" />
    <glyph glyph-name="ellipsis" unicode="&#x2026;" horiz-adv-x="1538" 
d="M1153 0v268h258v-268h-258zM641 0v268h256v-268h-256zM127 0v268h258v-268h-258z" />
    <glyph glyph-name="perthousand" unicode="&#x2030;" horiz-adv-x="2256" 
d="M389 864q62 0 97.5 58.5t35.5 152.5v8q0 95 -37.5 154t-97.5 59q-61 0 -97 -58t-36 -151v-10q0 -95 38 -154t97 -59zM387 713q-134 0 -218.5 102.5t-84.5 257.5v14q0 155 85.5 258t219.5 103t218.5 -102t84.5 -256v-15q0 -156 -85 -259t-220 -103zM1335 1434l-499 -758
l-435 -676h-180l500 756l432 678h182zM1167 137q62 0 97.5 57.5t35.5 151.5v10q0 94 -37.5 153.5t-97.5 59.5q-61 0 -97 -58.5t-36 -152.5v-8q0 -95 38 -154t97 -59zM1165 -14q-134 0 -218.5 101.5t-84.5 256.5v14q0 157 85 260t220 103q134 0 218.5 -103t84.5 -258v-14
q0 -155 -85 -257.5t-220 -102.5zM1870 137q61 0 96 57.5t35 151.5v10q0 94 -37.5 153.5t-97.5 59.5q-61 0 -97 -58.5t-36 -152.5v-8q0 -95 38.5 -154t98.5 -59zM1866 -14q-134 0 -217.5 101.5t-83.5 256.5v14q0 157 85 260t220 103q134 0 218.5 -103t84.5 -258v-14
q0 -155 -86 -257.5t-221 -102.5z" />
    <glyph glyph-name="guilsinglleft" unicode="&#x2039;" horiz-adv-x="665" 
d="M410 86l-330 446v17l330 446l163 -86l-239 -366l241 -367z" />
    <glyph glyph-name="guilsinglright" unicode="&#x203a;" horiz-adv-x="665" 
d="M254 86l-162 86l240 367l-242 368l164 88l332 -446v-17z" />
    <glyph glyph-name="fraction" unicode="&#x2044;" horiz-adv-x="180" 
d="M-403 0l450 745l404 689h135l-453 -746l-401 -688h-135z" />
    <glyph glyph-name="zero.sup" unicode="&#x2070;" 
d="M360 870q-130 0 -207 105t-77 289v14q0 185 78 291t208 106q128 0 206.5 -105.5t78.5 -289.5v-12q0 -184 -79.5 -291t-207.5 -107zM360 1542q-65 0 -102 -66.5t-37 -195.5v-14q0 -128 38 -195t103 -67q62 0 100 67t38 195v14q0 128 -38 195t-102 67z" />
    <glyph glyph-name="four.sup" unicode="&#x2074;" 
d="M565 1047v-164h-133v164h-344l-14 129l332 491h159v-504h92v-116h-92zM436 1163v342h-4l-231 -342h235z" />
    <glyph glyph-name="five.sup" unicode="&#x2075;" 
d="M346 870q-146 0 -266 105l78 108q95 -82 188 -82q64 0 100.5 35.5t36.5 93.5q0 56 -37.5 87.5t-101.5 31.5q-65 0 -131 -30l-90 51l31 389h438v-133h-322l-12 -172q47 18 117 18q111 0 182.5 -61t71.5 -174q0 -122 -78 -194.5t-205 -72.5z" />
    <glyph glyph-name="six.sup" unicode="&#x2076;" 
d="M365 870q-115 0 -185 70q-94 91 -94 301v10q0 203 82 313.5t229 110.5q116 0 207 -69l-65 -115q-66 55 -146 55q-69 0 -114.5 -58t-49.5 -161q62 59 162 59q101 0 169.5 -63t68.5 -182q0 -121 -75 -196t-189 -75zM362 993q57 0 93.5 39t36.5 103t-35.5 99.5t-94.5 35.5
q-58 0 -94.5 -36t-36.5 -99t37.5 -102.5t93.5 -39.5z" />
    <glyph glyph-name="seven.sup" unicode="&#x2077;" 
d="M313 883h-157l303 641h-348v135h510v-109z" />
    <glyph glyph-name="eight.sup" unicode="&#x2078;" 
d="M362 870q-123 0 -199.5 62.5t-76.5 165.5q0 131 125 190q-105 60 -105 174q0 94 71.5 153.5t184.5 59.5q111 0 182.5 -60t71.5 -153q0 -114 -104 -174q125 -59 125 -188q0 -104 -76.5 -167t-198.5 -63zM362 1561q-54 0 -88 -30t-34 -79q0 -51 34 -82t88 -31q53 0 87 31
t34 82q0 49 -34 79t-87 30zM362 1227q-61 0 -100 -33.5t-39 -89.5q0 -54 38 -87.5t101 -33.5q62 0 100 33t38 88q0 56 -39 89.5t-99 33.5z" />
    <glyph glyph-name="nine.sup" unicode="&#x2079;" 
d="M360 1675q114 0 183 -69q96 -93 96 -301v-11q0 -203 -83 -313.5t-230 -110.5q-125 0 -217 76l63 115q73 -62 158 -62q69 0 114 55.5t48 153.5q-62 -59 -160 -59q-100 0 -169 65t-69 187q0 123 75 198.5t191 75.5zM360 1268q59 0 95.5 37t36.5 104q0 65 -37 103t-95 38
t-93.5 -38.5t-35.5 -104.5q0 -65 35 -102t94 -37z" />
    <glyph glyph-name="zero.inf" unicode="&#x2080;" 
d="M360 -287q-130 0 -207 104.5t-77 288.5v15q0 185 78 291t208 106q128 0 206.5 -105.5t78.5 -289.5v-12q0 -184 -79.5 -291t-207.5 -107zM360 385q-65 0 -102 -66.5t-37 -195.5v-14q0 -129 38 -196t103 -67q62 0 100 67.5t38 195.5v14q0 128 -38 195t-102 67z" />
    <glyph glyph-name="one.inf" unicode="&#x2081;" horiz-adv-x="587" 
d="M408 -270h-146v628l-147 -61l-29 127l211 86h111v-780z" />
    <glyph glyph-name="two.inf" unicode="&#x2082;" 
d="M96 -270v120l252 246q67 65 94 104.5t27 82.5q0 46 -32 74t-79 28q-84 0 -170 -102l-92 88q59 75 122 111t151 36q111 0 180 -61t69 -160q0 -70 -32.5 -126t-112.5 -132l-186 -180h336v-129h-527z" />
    <glyph glyph-name="three.inf" unicode="&#x2083;" 
d="M348 -287q-156 0 -270 109l78 106q93 -86 192 -86q54 0 90.5 32t36.5 83q0 54 -46 83.5t-126 29.5h-59l-19 92l205 209h-309v131h487v-111l-213 -213q101 -11 162 -65.5t61 -151.5q0 -112 -74.5 -180t-195.5 -68z" />
    <glyph glyph-name="four.inf" unicode="&#x2084;" 
d="M565 -111v-163h-133v163h-344l-14 129l332 492h159v-504h92v-117h-92zM436 6v342h-4l-231 -342h235z" />
    <glyph glyph-name="five.inf" unicode="&#x2085;" 
d="M346 -287q-146 0 -266 105l78 108q95 -82 188 -82q64 0 100.5 35.5t36.5 93.5q0 56 -37.5 87.5t-101.5 31.5q-63 0 -131 -31l-90 52l31 389h438v-133h-322l-12 -172q46 18 117 18q111 0 182.5 -61t71.5 -174q0 -122 -78 -194.5t-205 -72.5z" />
    <glyph glyph-name="six.inf" unicode="&#x2086;" 
d="M365 -287q-115 0 -185 70q-94 91 -94 301v10q0 203 82 313.5t229 110.5q116 0 207 -69l-65 -115q-66 55 -146 55q-69 0 -114.5 -58t-49.5 -161q62 59 162 59q101 0 169.5 -63t68.5 -182q0 -121 -75 -196t-189 -75zM362 -164q58 0 94 38.5t36 102.5t-35.5 100t-94.5 36
q-58 0 -94.5 -36.5t-36.5 -99.5t37 -102t94 -39z" />
    <glyph glyph-name="seven.inf" unicode="&#x2087;" 
d="M313 -274h-157l303 641h-348v135h510v-109z" />
    <glyph glyph-name="eight.inf" unicode="&#x2088;" 
d="M362 -287q-123 0 -199.5 62.5t-76.5 165.5q0 131 125 190q-105 60 -105 174q0 94 71.5 153.5t184.5 59.5q111 0 182.5 -60t71.5 -153q0 -114 -104 -174q125 -59 125 -188q0 -104 -76.5 -167t-198.5 -63zM362 403q-54 0 -88 -29.5t-34 -78.5q0 -51 34 -82t88 -31
q53 0 87 31t34 82q0 49 -34 78.5t-87 29.5zM362 70q-61 0 -100 -33.5t-39 -89.5q0 -54 38 -87.5t101 -33.5q62 0 100 33t38 88q0 56 -39 89.5t-99 33.5z" />
    <glyph glyph-name="nine.inf" unicode="&#x2089;" 
d="M360 518q114 0 183 -69q96 -93 96 -302v-10q0 -203 -83 -313.5t-230 -110.5q-125 0 -217 76l63 115q73 -62 158 -62q69 0 114 55.5t48 153.5q-62 -59 -160 -59q-100 0 -169 65t-69 187q0 123 75 198.5t191 75.5zM360 111q59 0 95.5 37t36.5 104q0 65 -37 103t-95 38
t-93.5 -38.5t-35.5 -104.5q0 -65 35 -102t94 -37z" />
    <glyph glyph-name="colonmonetary" unicode="&#x20a1;" horiz-adv-x="1091" 
d="M831 1595h111l-29 -211q65 -29 123 -75l-98 -193l-59 45l-123 -952q82 23 172 104l110 -161q-74 -65 -144 -103t-159 -49l-30 -242h-111l31 238q-77 3 -144 27l-32 -265h-111l39 312q-136 80 -214.5 244t-78.5 391v24q0 291 129 474t340 224l22 168h111l-20 -157
q70 0 143 -17zM504 238q65 -36 151 -39l131 1013q-57 23 -120 23q-23 0 -33 -2zM307 700q0 -258 109 -389l114 895q-103 -49 -163 -172t-60 -309v-25z" />
    <glyph glyph-name="naira" unicode="&#x20a6;" horiz-adv-x="1513" 
d="M1458 428h-192v-428h-240l-233 430h-320v-430h-225v428h-193v162h193v262h-193v162h193v420h256l227 -422h309v422h226v-420h192v-162h-192v-262h192v-162zM469 1036v-450h246l-240 450h-6zM1038 426h6v430h-235z" />
    <glyph glyph-name="rupee" unicode="&#x20a8;" horiz-adv-x="1955" 
d="M133 0v1434h422q220 0 347.5 -119t127.5 -332v-10q0 -155 -70 -258.5t-190 -153.5l299 -561h-256l-264 510h-193v-510h-223zM1532 -20q-214 0 -391 143l104 162q149 -121 289 -121q66 0 107.5 34t41.5 87v4q0 47 -39.5 82.5t-158.5 89.5q-156 69 -225.5 140t-69.5 185v5
q0 140 98 225.5t250 85.5q184 0 336 -111l-94 -168q-142 95 -244 95q-63 0 -102 -32t-39 -79v-4q0 -48 41 -83.5t161 -90.5q105 -49 165 -91.5t93 -100t33 -134.5v-4q0 -147 -100.5 -233t-255.5 -86zM356 709h193q117 0 187.5 68.5t70.5 191.5v4q0 128 -70.5 191t-193.5 63
h-187v-518z" />
    <glyph glyph-name="won" unicode="&#x20a9;" horiz-adv-x="2007" 
d="M1866 1434l-101 -430h189v-166h-228l-55 -240l283 2v-168h-322l-100 -436h-266l-105 436h-317l-105 -436h-264l-102 436h-322v166h285l-55 240h-230v166h191l-101 430h252l86 -430h293l105 434h260l100 -434h297l86 430h246zM999 1102l-118 -508h245l-118 508h-9z
M1393 315h10l102 529h-233zM612 315h9l118 529h-233z" />
    <glyph glyph-name="sheqel" unicode="&#x20aa;" horiz-adv-x="1167" 
d="M430 285l-51 391h129l41 -301q12 -89 55 -130.5t123 -41.5h152v878h176v-1081h-332q-130 0 -201.5 69.5t-91.5 215.5zM637 705q0 174 -160 174h-186v-879h-178v1081h397q121 0 187.5 -70t66.5 -202v-397h-127v293z" />
    <glyph glyph-name="Euro" unicode="&#x20ac;" horiz-adv-x="1261" 
d="M1190 1247l-162 -151q-52 71 -110 107t-140 36q-97 0 -170 -68.5t-110 -193.5h383v-168h-414q-2 -27 -2 -84v-14q0 -51 2 -76h414v-168h-385q36 -132 112 -202t178 -70q79 0 137.5 38t114.5 113l154 -143q-82 -109 -180.5 -167.5t-229.5 -58.5q-202 0 -341 130t-191 360
h-166v168h143q-2 23 -2 72v16q0 57 2 86h-143v168h170q55 221 193 350t333 129q137 0 232.5 -53t177.5 -156z" />
    <glyph glyph-name="peso" unicode="&#x20b1;" horiz-adv-x="1347" 
d="M236 0v860h-191v158h191v416h399q214 0 350.5 -112t159.5 -304h186v-158h-188q-26 -196 -170.5 -306.5t-354.5 -113.5h-145v-440h-237zM618 645q117 0 192.5 59t96.5 162h-438v-221h149zM469 1227v-215h438q-20 105 -95.5 160t-193.5 55h-149z" />
    <glyph glyph-name="published" unicode="&#x2117;" horiz-adv-x="1511" 
d="M754 -25q-185 0 -338 97t-239.5 264.5t-86.5 368.5v22q0 151 51.5 286t140 233t212.5 155t264 57q185 0 337.5 -96t239 -263.5t86.5 -369.5v-22q0 -201 -87 -369t-240.5 -265.5t-339.5 -97.5zM754 49q127 0 237.5 51t188 139t122 209.5t44.5 258.5v24q0 182 -75 331
t-210 235.5t-303 86.5q-169 0 -304.5 -87t-210.5 -237t-75 -333v-25q0 -182 74.5 -331t209 -235.5t302.5 -86.5zM526 340v780h256q130 0 206.5 -69t76.5 -191v-4q0 -127 -81.5 -195.5t-209.5 -70.5h-106v-250h-142zM668 715h106q69 0 109.5 37.5t40.5 101.5v2
q0 68 -39.5 102.5t-110.5 34.5h-106v-278z" />
    <glyph glyph-name="servicemark" unicode="&#x2120;" horiz-adv-x="1275" 
d="M633 799v635h127l158 -283l155 283h125v-635h-115v444l-163 -297h-9l-163 297v-444h-115zM293 788q-134 0 -244 93l62 86q93 -78 186 -78q45 0 72.5 21t27.5 55q0 31 -26 51.5t-99 48.5q-101 38 -147.5 78.5t-46.5 113.5q0 83 59 135t154 52q125 0 213 -76l-60 -88
q-83 61 -155 61q-45 0 -70.5 -19.5t-25.5 -51.5t26 -52.5t100 -48.5q100 -38 147.5 -81.5t47.5 -114.5q0 -84 -62 -134.5t-159 -50.5z" />
    <glyph glyph-name="trademark" unicode="&#x2122;" horiz-adv-x="1247" 
d="M604 799v635h125l158 -283l157 283h123v-635h-112v444l-164 -297h-10l-164 297v-444h-113zM207 799v526h-162v109h442v-109h-161v-526h-119z" />
    <glyph glyph-name="onethird" unicode="&#x2153;" horiz-adv-x="1492" 
d="M1133 -16q-158 0 -271 108l78 107q93 -86 193 -86q54 0 90.5 31.5t36.5 82.5q0 54 -46.5 83.5t-126.5 29.5h-59l-18 92l204 209h-309v131h488v-110l-213 -213q101 -11 162 -66t61 -152q0 -112 -74.5 -179.5t-195.5 -67.5zM408 662h-146v628l-147 -61l-29 127l211 88h111
v-782zM186 0l451 745l403 689h136l-453 -746l-401 -688h-136z" />
    <glyph glyph-name="twothirds" unicode="&#x2154;" horiz-adv-x="1626" 
d="M1272 -16q-158 0 -271 108l78 107q93 -86 193 -86q54 0 90.5 31.5t36.5 82.5q0 54 -46 83.5t-126 29.5h-60l-18 92l205 209h-310v131h488v-110l-213 -213q101 -11 162 -66t61 -152q0 -112 -74.5 -179.5t-195.5 -67.5zM82 662v120l252 246q68 66 94.5 104.5t26.5 81.5
q0 46 -32 74.5t-79 28.5t-87 -26t-83 -77l-92 89q59 75 121.5 111t150.5 36q111 0 180.5 -61t69.5 -160q0 -70 -32.5 -126t-112.5 -132l-187 -180h336v-129h-526zM319 0l451 745l404 689h135l-453 -746l-401 -688h-136z" />
    <glyph glyph-name="onefifth" unicode="&#x2155;" horiz-adv-x="1492" 
d="M1126 -16q-147 0 -266 104l78 109q95 -82 188 -82q64 0 101 35.5t37 93.5q0 56 -38 87t-102 31q-65 0 -131 -30l-90 51l31 389h438v-133h-321l-13 -172q46 18 117 18q111 0 182.5 -61t71.5 -174q0 -122 -78 -194t-205 -72zM408 662h-146v628l-147 -61l-29 127l211 88h111
v-782zM193 0l450 745l404 689h135l-453 -746l-401 -688h-135z" />
    <glyph glyph-name="twofifths" unicode="&#x2156;" horiz-adv-x="1626" 
d="M1270 -16q-147 0 -266 104l77 109q95 -82 189 -82q64 0 100.5 35.5t36.5 93.5q0 56 -37.5 87t-101.5 31q-65 0 -131 -30l-90 51l30 389h439v-133h-322l-12 -172q46 18 116 18q111 0 182.5 -61t71.5 -174q0 -122 -77.5 -194t-204.5 -72zM338 0l450 745l404 689h135
l-453 -746l-401 -688h-135zM82 662v120l252 246q68 66 94.5 104.5t26.5 81.5q0 46 -32 74.5t-79 28.5t-87 -26t-83 -77l-92 89q59 75 121.5 111t150.5 36q111 0 180.5 -61t69.5 -160q0 -70 -32.5 -126t-112.5 -132l-187 -180h336v-129h-526z" />
    <glyph glyph-name="threefifths" unicode="&#x2157;" horiz-adv-x="1626" 
d="M1270 -16q-147 0 -266 104l77 109q95 -82 189 -82q64 0 100.5 35.5t36.5 93.5q0 56 -37.5 87t-101.5 31q-65 0 -131 -30l-90 51l30 389h439v-133h-322l-12 -172q46 18 116 18q111 0 182.5 -61t71.5 -174q0 -122 -77.5 -194t-204.5 -72zM311 0l451 745l403 689h135
l-452 -746l-402 -688h-135zM338 645q-152 0 -270 109l77 106q93 -86 193 -86q54 0 90.5 32t36.5 83q0 54 -46 83.5t-126 31.5h-60l-18 90l205 209h-309v131h487v-111l-213 -213q101 -11 162 -65.5t61 -151.5q0 -112 -74.5 -180t-195.5 -68z" />
    <glyph glyph-name="fourfifths" unicode="&#x2158;" horiz-adv-x="1626" 
d="M549 821v-162h-133v162h-344l-15 129l332 492h160v-504h92v-117h-92zM420 938v342h-4l-232 -342h236zM1270 -16q-147 0 -266 104l77 109q95 -82 189 -82q64 0 100.5 35.5t36.5 93.5q0 56 -37.5 87t-101.5 31q-65 0 -131 -30l-90 51l30 389h439v-133h-322l-12 -172
q46 18 116 18q111 0 182.5 -61t71.5 -174q0 -122 -77.5 -194t-204.5 -72zM334 0l450 745l404 689h135l-453 -746l-401 -688h-135z" />
    <glyph glyph-name="onesixth" unicode="&#x2159;" horiz-adv-x="1492" 
d="M1139 -16q-116 0 -185 69q-94 91 -94 301v11q0 203 82 313t229 110q116 0 207 -69l-65 -115q-66 55 -146 55q-69 0 -114 -58t-49 -161q63 60 161 60q101 0 169.5 -63.5t68.5 -182.5q0 -121 -75 -195.5t-189 -74.5zM205 0l450 745l404 689h135l-453 -746l-401 -688h-135z
M408 662h-146v628l-147 -61l-29 127l211 88h111v-782zM1137 106q57 0 93 39t36 103t-35 99.5t-94 35.5q-58 0 -94.5 -36t-36.5 -99t37.5 -102.5t93.5 -39.5z" />
    <glyph glyph-name="fivesixths" unicode="&#x215a;" horiz-adv-x="1626" 
d="M1280 -16q-115 0 -184 69q-95 92 -95 301v11q0 203 82.5 313t229.5 110q116 0 207 -69l-66 -115q-66 55 -145 55q-69 0 -114.5 -58t-49.5 -161q63 60 162 60q101 0 169 -63t68 -183q0 -121 -75 -195.5t-189 -74.5zM336 645q-142 0 -266 105l77 108q95 -82 189 -82
q64 0 100.5 35.5t36.5 93.5q0 56 -37.5 87.5t-101.5 31.5q-63 0 -131 -31l-90 51l30 390h439v-134h-322l-12 -172q49 19 117 19q111 0 182 -61.5t71 -174.5q0 -122 -77.5 -194t-204.5 -72zM317 0l451 745l403 689h136l-453 -746l-401 -688h-136zM1278 106q57 0 93 39t36 103
t-35 99.5t-94 35.5q-58 0 -94.5 -36t-36.5 -99t37.5 -102.5t93.5 -39.5z" />
    <glyph glyph-name="oneeighth" unicode="&#x215b;" horiz-adv-x="1492" 
d="M1137 -16q-123 0 -200 62t-77 165q0 131 125 190q-104 60 -104 174q0 94 71.5 153.5t184.5 59.5q111 0 182.5 -60t71.5 -153q0 -114 -105 -174q125 -59 125 -188q0 -104 -76 -166.5t-198 -62.5zM1137 674q-54 0 -88.5 -30t-34.5 -79q0 -51 34.5 -81.5t88.5 -30.5
q53 0 86.5 30.5t33.5 81.5q0 49 -33.5 79t-86.5 30zM1137 340q-61 0 -100.5 -33.5t-39.5 -89.5q0 -54 38.5 -87.5t101.5 -33.5q62 0 99.5 33t37.5 88q0 56 -38.5 89.5t-98.5 33.5zM408 662h-146v628l-147 -61l-29 127l211 88h111v-782zM197 0l450 745l404 689h135l-453 -746
l-401 -688h-135z" />
    <glyph glyph-name="threeeighths" unicode="&#x215c;" horiz-adv-x="1626" 
d="M1280 -16q-123 0 -199.5 62t-76.5 165q0 131 124 190q-104 60 -104 174q0 94 71.5 153.5t184.5 59.5q111 0 182.5 -60t71.5 -153q0 -114 -104 -174q124 -59 124 -188q0 -104 -76 -166.5t-198 -62.5zM1280 674q-54 0 -88.5 -30t-34.5 -79q0 -51 34.5 -81.5t88.5 -30.5
q53 0 87 31t34 81q0 49 -34 79t-87 30zM1280 340q-61 0 -100 -33.5t-39 -89.5q0 -54 38 -87.5t101 -33.5q62 0 99.5 33t37.5 88q0 56 -38.5 89.5t-98.5 33.5zM317 0l451 745l403 689h136l-453 -746l-401 -688h-136zM338 645q-152 0 -270 109l77 106q93 -86 193 -86
q54 0 90.5 32t36.5 83q0 54 -46 83.5t-126 31.5h-60l-18 90l205 209h-309v131h487v-111l-213 -213q101 -11 162 -65.5t61 -151.5q0 -112 -74.5 -180t-195.5 -68z" />
    <glyph glyph-name="fiveeighths" unicode="&#x215d;" horiz-adv-x="1626" 
d="M1280 -16q-123 0 -199.5 62t-76.5 165q0 131 124 190q-104 60 -104 174q0 94 71.5 153.5t184.5 59.5q111 0 182.5 -60t71.5 -153q0 -114 -104 -174q124 -59 124 -188q0 -104 -76 -166.5t-198 -62.5zM1280 674q-54 0 -88.5 -30t-34.5 -79q0 -51 34.5 -81.5t88.5 -30.5
q53 0 87 31t34 81q0 49 -34 79t-87 30zM1280 340q-61 0 -100 -33.5t-39 -89.5q0 -54 38 -87.5t101 -33.5q62 0 99.5 33t37.5 88q0 56 -38.5 89.5t-98.5 33.5zM317 0l451 745l403 689h136l-453 -746l-401 -688h-136zM336 645q-142 0 -266 105l77 108q95 -82 189 -82
q64 0 100.5 35.5t36.5 93.5q0 56 -37.5 87.5t-101.5 31.5q-63 0 -131 -31l-90 51l30 390h439v-134h-322l-12 -172q49 19 117 19q111 0 182 -61.5t71 -174.5q0 -122 -77.5 -194t-204.5 -72z" />
    <glyph glyph-name="seveneighths" unicode="&#x215e;" horiz-adv-x="1626" 
d="M1266 -16q-123 0 -200 62t-77 165q0 131 125 190q-104 60 -104 174q0 94 71.5 153.5t184.5 59.5q111 0 182.5 -60t71.5 -153q0 -114 -105 -174q125 -59 125 -188q0 -104 -76 -166.5t-198 -62.5zM1266 674q-54 0 -88.5 -30t-34.5 -79q0 -51 34.5 -81.5t88.5 -30.5
q53 0 86.5 30.5t33.5 81.5q0 49 -33.5 79t-86.5 30zM1266 340q-61 0 -100.5 -33.5t-39.5 -89.5q0 -54 38.5 -87.5t101.5 -33.5q62 0 99.5 33t37.5 88q0 56 -38.5 89.5t-98.5 33.5zM319 659h-157l303 639h-348v136h510v-109zM254 0l451 745l403 689h135l-452 -746l-402 -688
h-135z" />
    <glyph glyph-name="minus" unicode="&#x2212;" horiz-adv-x="1134" 
d="M1022 610h-909v221h909v-221z" />
    <glyph glyph-name="Q.alt" horiz-adv-x="1474" 
d="M1143 -197l-199 209q-96 -35 -209 -35q-184 0 -328.5 93t-224.5 259t-80 376v20q0 211 80.5 377.5t226 260t330.5 93.5q184 0 328.5 -93t224.5 -258.5t80 -375.5v-20q0 -173 -55 -317t-156 -242l312 -340v-7h-330zM739 197q170 0 278.5 141t108.5 371v14
q0 229 -110 371.5t-281 142.5q-170 0 -278.5 -141t-108.5 -371v-14q0 -228 110.5 -371t280.5 -143z" />
    <glyph glyph-name="a.alt" horiz-adv-x="1187" 
d="M508 -20q-83 0 -158 35t-134.5 101t-94.5 172.5t-35 239.5v27q0 133 35 240t94 174t134 102t159 35q108 0 183 -50t134 -134v163h232v-1085h-232v174q-59 -90 -134 -142t-183 -52zM571 184q108 0 183 96.5t75 251.5v21q0 155 -75 251.5t-183 96.5q-109 0 -180.5 -95
t-71.5 -255v-16q0 -159 72.5 -255t179.5 -96z" />
    <glyph glyph-name="aacute.alt" horiz-adv-x="1187" 
d="M512 1206l199 322l204 -96l-233 -226h-170zM508 -20q-83 0 -158 35t-134.5 101t-94.5 172.5t-35 239.5v27q0 133 35 240t94 174t134 102t159 35q108 0 183 -50t134 -134v163h232v-1085h-232v174q-59 -90 -134 -142t-183 -52zM571 184q108 0 183 96.5t75 251.5v21
q0 155 -75 251.5t-183 96.5q-109 0 -180.5 -95t-71.5 -255v-16q0 -159 72.5 -255t179.5 -96z" />
    <glyph glyph-name="abreve.alt" horiz-adv-x="1187" 
d="M508 -20q-83 0 -158 35t-134.5 101t-94.5 172.5t-35 239.5v27q0 133 35 240t94 174t134 102t159 35q108 0 183 -50t134 -134v163h232v-1085h-232v174q-59 -90 -134 -142t-183 -52zM571 184q108 0 183 96.5t75 251.5v21q0 155 -75 251.5t-183 96.5q-109 0 -180.5 -95
t-71.5 -255v-16q0 -159 72.5 -255t179.5 -96zM606 1200q-131 0 -216 73t-97 204h156q33 -117 157 -117q125 0 158 117h156q-12 -131 -97 -204t-217 -73z" />
    <glyph glyph-name="acircumflex.alt" horiz-adv-x="1187" 
d="M293 1206l211 293h205l211 -293h-177l-139 137l-139 -137h-172zM508 -20q-83 0 -158 35t-134.5 101t-94.5 172.5t-35 239.5v27q0 133 35 240t94 174t134 102t159 35q108 0 183 -50t134 -134v163h232v-1085h-232v174q-59 -90 -134 -142t-183 -52zM571 184q108 0 183 96.5
t75 251.5v21q0 155 -75 251.5t-183 96.5q-109 0 -180.5 -95t-71.5 -255v-16q0 -159 72.5 -255t179.5 -96z" />
    <glyph glyph-name="adieresis.alt" horiz-adv-x="1187" 
d="M670 1210v228h229v-228h-229zM313 1210v228h230v-228h-230zM508 -20q-83 0 -158 35t-134.5 101t-94.5 172.5t-35 239.5v27q0 133 35 240t94 174t134 102t159 35q108 0 183 -50t134 -134v163h232v-1085h-232v174q-59 -90 -134 -142t-183 -52zM571 184q108 0 183 96.5
t75 251.5v21q0 155 -75 251.5t-183 96.5q-109 0 -180.5 -95t-71.5 -255v-16q0 -159 72.5 -255t179.5 -96z" />
    <glyph glyph-name="agrave.alt" horiz-adv-x="1187" 
d="M508 -20q-83 0 -158 35t-134.5 101t-94.5 172.5t-35 239.5v27q0 133 35 240t94 174t134 102t159 35q108 0 183 -50t134 -134v163h232v-1085h-232v174q-59 -90 -134 -142t-183 -52zM571 184q108 0 183 96.5t75 251.5v21q0 155 -75 251.5t-183 96.5q-109 0 -180.5 -95
t-71.5 -255v-16q0 -159 72.5 -255t179.5 -96zM528 1206l-233 226l207 96l196 -322h-170z" />
    <glyph glyph-name="amacron.alt" horiz-adv-x="1187" 
d="M508 -20q-83 0 -158 35t-134.5 101t-94.5 172.5t-35 239.5v27q0 133 35 240t94 174t134 102t159 35q108 0 183 -50t134 -134v163h232v-1085h-232v174q-59 -90 -134 -142t-183 -52zM571 184q108 0 183 96.5t75 251.5v21q0 155 -75 251.5t-183 96.5q-109 0 -180.5 -95
t-71.5 -255v-16q0 -159 72.5 -255t179.5 -96zM297 1225v166h618v-166h-618z" />
    <glyph glyph-name="aogonek.alt" horiz-adv-x="1187" 
d="M1073 -201v-118q-31 -5 -65 -5q-115 0 -177.5 43.5t-62.5 116.5q0 80 78 164h-21v174q-59 -90 -134 -142t-183 -52q-83 0 -158 35t-134.5 101t-94.5 172.5t-35 239.5v27q0 133 35 240t94 174t134 102t159 35q108 0 183 -50t134 -134v163h232v-1085h-49q-62 -68 -62 -123
q0 -81 127 -78zM571 184q108 0 183 96.5t75 251.5v21q0 155 -75 251.5t-183 96.5q-109 0 -180.5 -95t-71.5 -255v-16q0 -159 72.5 -255t179.5 -96z" />
    <glyph glyph-name="aring.alt" horiz-adv-x="1187" 
d="M606 1200q-91 0 -154 62t-63 151t63 151t154 62t154 -61.5t63 -151.5q0 -89 -63 -151t-154 -62zM606 1288q51 0 86 36t35 89t-35 89t-86 36t-86 -36t-35 -89t35 -89t86 -36zM508 -20q-83 0 -158 35t-134.5 101t-94.5 172.5t-35 239.5v27q0 133 35 240t94 174t134 102
t159 35q108 0 183 -50t134 -134v163h232v-1085h-232v174q-59 -90 -134 -142t-183 -52zM571 184q108 0 183 96.5t75 251.5v21q0 155 -75 251.5t-183 96.5q-109 0 -180.5 -95t-71.5 -255v-16q0 -159 72.5 -255t179.5 -96z" />
    <glyph glyph-name="aring.alt2" horiz-adv-x="1048" 
d="M401 -20q-141 0 -237 89t-96 242v13q0 168 105.5 257t283.5 89q125 0 248 -45v47q0 108 -61.5 164.5t-172.5 56.5q-120 0 -260 -66l-68 185q113 55 217 73q-53 59 -53 140q0 89 63.5 151t153.5 62q91 0 155 -62t64 -151q0 -90 -65 -152q91 -32 143 -84q109 -109 109 -315
v-674h-228v133q-107 -153 -301 -153zM471 154q101 0 168.5 59.5t67.5 151.5v110q-98 37 -201 37q-100 0 -155.5 -48t-55.5 -134v-6q0 -78 49 -123t127 -47zM524 1100q51 0 87 36.5t36 88.5q0 51 -36 88t-87 37q-49 0 -85 -37t-36 -88q0 -52 35.5 -88.5t85.5 -36.5z" />
    <glyph glyph-name="aringacute.alt" horiz-adv-x="1187" 
d="M514 1688l201 264l203 -94l-232 -170h-172zM606 1200q-91 0 -154 62t-63 151t63 151t154 62t154 -61.5t63 -151.5q0 -89 -63 -151t-154 -62zM606 1288q51 0 86 36t35 89t-35 89t-86 36t-86 -36t-35 -89t35 -89t86 -36zM508 -20q-83 0 -158 35t-134.5 101t-94.5 172.5
t-35 239.5v27q0 133 35 240t94 174t134 102t159 35q108 0 183 -50t134 -134v163h232v-1085h-232v174q-59 -90 -134 -142t-183 -52zM571 184q108 0 183 96.5t75 251.5v21q0 155 -75 251.5t-183 96.5q-109 0 -180.5 -95t-71.5 -255v-16q0 -159 72.5 -255t179.5 -96z" />
    <glyph glyph-name="aringacute.alt2" horiz-adv-x="1048" 
d="M432 1501l203 264l201 -94l-232 -170h-172zM401 -20q-141 0 -237 89t-96 242v13q0 168 105.5 257t283.5 89q125 0 248 -45v47q0 108 -61.5 164.5t-172.5 56.5q-120 0 -260 -66l-68 185q113 55 217 73q-53 59 -53 140q0 89 63.5 151t153.5 62q91 0 155 -62t64 -151
q0 -90 -65 -152q91 -32 143 -84q109 -109 109 -315v-674h-228v133q-107 -153 -301 -153zM471 154q101 0 168.5 59.5t67.5 151.5v110q-98 37 -201 37q-100 0 -155.5 -48t-55.5 -134v-6q0 -78 49 -123t127 -47zM524 1100q51 0 87 36.5t36 88.5q0 51 -36 88t-87 37
q-49 0 -85 -37t-36 -88q0 -52 35.5 -88.5t85.5 -36.5z" />
    <glyph glyph-name="atilde.alt" horiz-adv-x="1187" 
d="M508 -20q-83 0 -158 35t-134.5 101t-94.5 172.5t-35 239.5v27q0 133 35 240t94 174t134 102t159 35q108 0 183 -50t134 -134v163h232v-1085h-232v174q-59 -90 -134 -142t-183 -52zM571 184q108 0 183 96.5t75 251.5v21q0 155 -75 251.5t-183 96.5q-109 0 -180.5 -95
t-71.5 -255v-16q0 -159 72.5 -255t179.5 -96zM758 1206q-55 0 -156 43q-80 37 -110 37q-35 0 -55 -21t-40 -73l-131 37q32 124 77 180.5t124 56.5q64 0 156 -45q80 -37 110 -37q35 0 54.5 21.5t39.5 75.5l131 -37q-32 -125 -76.5 -181.5t-123.5 -56.5z" />
    <glyph glyph-name="three.alt" horiz-adv-x="1079" 
d="M520 -23q-138 0 -256 52t-207 145l144 166q140 -147 317 -147q108 0 175 60t67 159v2q0 101 -78.5 157t-228.5 56h-107v202h109q130 0 203 59.5t73 158.5v2q0 87 -61.5 139.5t-161.5 52.5q-85 0 -151 -38t-128 -107l-145 149q88 103 194 157t244 54q196 0 320.5 -103.5
t124.5 -269.5v-4q0 -125 -61 -208.5t-161 -127.5q250 -93 250 -335v-5q0 -186 -130.5 -306t-344.5 -120z" />
    <glyph glyph-name="registered.alt" horiz-adv-x="1511" 
d="M754 -25q-185 0 -338 97t-239.5 264.5t-86.5 368.5v22q0 151 51.5 286t140 233t212.5 155t264 57q185 0 337.5 -96t239 -263.5t86.5 -369.5v-22q0 -201 -87 -369t-240.5 -265.5t-339.5 -97.5zM754 49q127 0 237.5 51t188 139t122 209.5t44.5 258.5v24q0 182 -75 331
t-210 235.5t-303 86.5q-169 0 -304.5 -87t-210.5 -237t-75 -333v-25q0 -182 74.5 -331t209 -235.5t302.5 -86.5zM494 346v780h284q140 0 217 -77q64 -64 64 -168v-7q0 -86 -42.5 -143.5t-115.5 -83.5l182 -301h-161l-162 272h-127v-272h-139zM633 741h139q67 0 106.5 34
t39.5 95v2q0 63 -39.5 95t-108.5 32h-137v-258z" />
    <glyph glyph-name="R_p" horiz-adv-x="2150" 
d="M133 0v1434h422q220 0 347.5 -119t127.5 -332v-10q0 -155 -70 -258.5t-190 -153.5l299 -561h-256l-264 510h-193v-510h-223zM1217 -309v1396h217v-167q112 188 282 188q73 0 138 -33.5t116.5 -98.5t82 -171t30.5 -240v-43q0 -261 -106 -401.5t-261 -140.5
q-168 0 -282 180v-469h-217zM1649 176q93 0 153 93.5t60 254.5v37q0 161 -60 255.5t-153 94.5q-91 0 -155 -95.5t-64 -252.5v-41q0 -156 64 -251t155 -95zM356 709h193q117 0 187.5 68.5t70.5 191.5v4q0 128 -70.5 191t-193.5 63h-187v-518z" />
    <glyph glyph-name="onehalf.alt" horiz-adv-x="1626" 
d="M631 662h-516v124h196v506l-174 -67l-28 125l237 94h109v-658h176v-124zM1014 0v121l252 246q67 65 93.5 104t26.5 82q0 46 -31.5 74t-78.5 28q-84 0 -170 -102l-92 88q59 75 121.5 111t150.5 36q111 0 180.5 -61t69.5 -160q0 -70 -32.5 -126t-112.5 -132l-187 -180h336
v-129h-526zM352 0l451 745l403 689h135l-452 -746l-402 -688h-135z" />
    <glyph glyph-name="onethird.alt" horiz-adv-x="1626" 
d="M631 662h-516v124h196v506l-174 -67l-28 125l237 94h109v-658h176v-124zM1268 -16q-158 0 -271 108l78 107q93 -86 193 -86q54 0 90.5 31.5t36.5 82.5q0 54 -46 83.5t-126 29.5h-60l-18 92l205 209h-310v131h488v-110l-213 -213q101 -11 162 -66t61 -152
q0 -112 -74.5 -179.5t-195.5 -67.5zM336 0l450 745l404 689h135l-453 -746l-401 -688h-135z" />
    <glyph glyph-name="onequarter.alt" horiz-adv-x="1626" 
d="M635 662h-516v124h196v506l-174 -67l-28 125l237 94h109v-658h176v-124zM367 0l450 745l404 689h135l-453 -746l-401 -688h-135zM1462 160v-164h-133v164h-344l-14 129l332 491h159v-504h92v-116h-92zM1333 276v342h-4l-231 -342h235z" />
    <glyph glyph-name="onefifth.alt" horiz-adv-x="1626" 
d="M631 662h-516v124h196v506l-174 -67l-28 125l237 94h109v-658h176v-124zM1268 -16q-148 0 -267 104l78 109q95 -82 189 -82q64 0 100.5 35.5t36.5 93.5q0 56 -37.5 87t-101.5 31q-65 0 -131 -30l-91 51l31 389h438v-133h-321l-12 -172q46 18 116 18q111 0 182.5 -61
t71.5 -174q0 -122 -77.5 -194t-204.5 -72zM346 0l451 745l403 689h135l-452 -746l-402 -688h-135z" />
    <glyph glyph-name="onesixth.alt" horiz-adv-x="1626" 
d="M1284 -16q-115 0 -184 69q-94 91 -94 301v11q0 203 82 313t229 110q116 0 207 -69l-66 -115q-66 55 -145 55q-69 0 -114.5 -58t-49.5 -161q63 60 162 60q101 0 169 -63t68 -183q0 -121 -75 -195.5t-189 -74.5zM631 662h-516v124h196v506l-174 -67l-28 125l237 94h109
v-658h176v-124zM348 0l451 745l403 689h135l-452 -746l-402 -688h-135zM1282 106q57 0 93 39t36 103t-35 99.5t-94 35.5q-58 0 -94.5 -36t-36.5 -99t37.5 -102.5t93.5 -39.5z" />
    <glyph glyph-name="oneeighth.alt" horiz-adv-x="1626" 
d="M629 662h-516v124h196v506l-174 -67l-29 125l238 94h109v-658h176v-124zM1284 -16q-123 0 -199.5 62t-76.5 165q0 131 125 190q-105 60 -105 174q0 94 71.5 153.5t184.5 59.5q111 0 182.5 -60t71.5 -153q0 -114 -104 -174q125 -59 125 -188q0 -104 -76.5 -166.5
t-198.5 -62.5zM1284 674q-54 0 -88.5 -30t-34.5 -79q0 -51 34.5 -81.5t88.5 -30.5q53 0 87 31t34 81q0 49 -34 79t-87 30zM1284 340q-61 0 -100 -33.5t-39 -89.5q0 -54 38 -87.5t101 -33.5q62 0 99.5 33t37.5 88q0 56 -38.5 89.5t-98.5 33.5zM346 0l451 745l403 689h135
l-452 -746l-402 -688h-135z" />
    <glyph glyph-name="one.sup_alt" 
d="M641 887h-516v125h197v506l-175 -70l-28 127l237 94h109v-657h176v-125z" />
    <glyph glyph-name="one.inf_alt" 
d="M641 -270h-516v125h197v505l-175 -69l-28 127l237 94h109v-657h176v-125z" />
    <glyph glyph-name="zero.tab" horiz-adv-x="1085" 
d="M541 -23q-216 0 -339.5 187t-123.5 532v37q0 346 124 534.5t341 188.5q215 0 339 -187.5t124 -531.5v-37q0 -345 -125 -534t-340 -189zM541 1249q-110 0 -172 -126t-62 -388v-35q0 -262 62.5 -389t173.5 -127q110 0 171.5 126.5t61.5 387.5v35q0 261 -62.5 388.5
t-172.5 127.5z" />
    <glyph glyph-name="one.tab" horiz-adv-x="1085" 
d="M1018 0h-885v197h348v997l-311 -125l-43 207l420 168h164v-1247h307v-197z" />
    <glyph glyph-name="two.tab" horiz-adv-x="1085" 
d="M981 0h-893v188l430 476q120 129 167.5 210t47.5 162q0 93 -58 147t-145 54q-85 0 -152.5 -47t-137.5 -141l-154 141q96 134 204.5 199t258.5 65q191 0 307.5 -108.5t116.5 -286.5v-6q0 -125 -55 -223.5t-187 -245.5l-332 -369h582v-215z" />
    <glyph glyph-name="three.tab" horiz-adv-x="1085" 
d="M510 -23q-267 0 -449 189l136 174q70 -70 143 -108.5t168 -38.5q103 0 171.5 62.5t68.5 166.5v4q0 109 -82 167t-234 58h-84l-33 150l363 420h-553v213h838v-193l-375 -418q82 -10 150.5 -37t124.5 -72.5t88 -116.5t32 -161v-6q0 -201 -133.5 -327t-339.5 -126z" />
    <glyph glyph-name="three.tab_alt" horiz-adv-x="1085" 
d="M518 -23q-133 0 -249.5 51t-205.5 146l138 162q138 -148 317 -148q110 0 177 61.5t67 162.5q0 103 -81.5 161t-229.5 58h-103v196h111q129 0 205.5 61.5t76.5 162.5q0 89 -61.5 141.5t-163.5 52.5q-89 -1 -158.5 -40t-130.5 -109l-141 147q183 213 446 213
q197 0 320 -103t123 -276q0 -122 -64 -206t-166 -130q248 -92 248 -344q0 -186 -131.5 -303t-343.5 -117z" />
    <glyph glyph-name="four.tab" horiz-adv-x="1085" 
d="M664 0v305h-582l-31 207l559 930h269v-946h159v-191h-159v-305h-215zM666 494v661h-4l-406 -661h410z" />
    <glyph glyph-name="five.tab" horiz-adv-x="1085" 
d="M506 -23q-246 0 -434 173l125 178q157 -140 309 -140q115 0 185.5 71t70.5 190v4q0 113 -69 176t-189 63q-116 0 -228 -59l-137 90l45 711h748v-213h-557l-25 -361q102 37 201 37q91 0 169 -26t140 -77.5t97.5 -137t35.5 -195.5v-4q0 -215 -137.5 -347.5t-349.5 -132.5z
" />
    <glyph glyph-name="six.tab" horiz-adv-x="1085" 
d="M604 922q83 0 155 -28t128 -81.5t88.5 -139.5t32.5 -194v-14q0 -215 -127.5 -351.5t-321.5 -136.5q-189 0 -309 117q-81 83 -121.5 213.5t-40.5 351.5v21q0 376 136.5 576t391.5 200q190 0 340 -117l-106 -188q-115 92 -238 92q-74 0 -131 -36t-92 -98.5t-53.5 -141
t-20.5 -170.5q112 125 289 125zM553 178q106 0 167.5 77t61.5 202v2q0 125 -61.5 197.5t-165.5 72.5q-108 0 -170.5 -74.5t-62.5 -197.5v-2q0 -124 63 -200.5t168 -76.5z" />
    <glyph glyph-name="seven.tab" horiz-adv-x="1085" 
d="M733 1214h-620v220h876v-181l-536 -1253h-256z" />
    <glyph glyph-name="eight.tab" horiz-adv-x="1085" 
d="M543 -20q-203 0 -333 112.5t-130 294.5v8q0 242 223 348q-186 104 -186 320v6q0 167 120.5 276t305.5 109q184 0 304 -109t120 -276v-6q0 -217 -187 -320q224 -111 224 -344v-8q0 -186 -129 -298.5t-332 -112.5zM543 172q109 0 172 63.5t63 167.5v7q0 104 -66.5 167.5
t-168.5 63.5q-103 0 -169.5 -63.5t-66.5 -167.5v-7q0 -104 63.5 -167.5t172.5 -63.5zM543 825q90 0 147.5 62t57.5 160v4q0 95 -57 154t-148 59q-93 0 -150 -58.5t-57 -154.5v-4q0 -97 58 -159.5t149 -62.5z" />
    <glyph glyph-name="nine.tab" horiz-adv-x="1085" 
d="M481 498q-83 0 -155 28.5t-128 82.5t-88 141.5t-32 197.5v13q0 219 127 357t321 138q193 0 310 -117q81 -81 121 -212t40 -353v-20q0 -376 -136.5 -576.5t-391.5 -200.5q-195 0 -358 125l104 189q135 -101 258 -101q72 0 128.5 35.5t91 97t53.5 137.5t22 163
q-106 -125 -287 -125zM532 1255q-106 0 -167.5 -78t-61.5 -206v-2q0 -130 61 -203.5t166 -73.5q107 0 170.5 76t63.5 201v4q0 127 -63.5 204.5t-168.5 77.5z" />
    <glyph glyph-name="period.tab" horiz-adv-x="542" 
d="M137 0v287h269v-287h-269z" />
    <glyph glyph-name="comma.tab" horiz-adv-x="542" 
d="M104 -295l-24 98q90 18 131 69t35 128h-109v287h269v-244q0 -160 -75.5 -241.5t-226.5 -96.5z" />
    <glyph glyph-name="colon.tab" horiz-adv-x="542" 
d="M139 801v282h264v-282h-264zM139 0v283h264v-283h-264z" />
    <glyph glyph-name="semicolon.tab" horiz-adv-x="542" 
d="M139 801v282h264v-282h-264zM104 -295l-24 98q90 18 131 69t35 128h-107v283h264v-240q0 -160 -74.5 -241.5t-224.5 -96.5z" />
    <glyph glyph-name="twodotleader.tab" horiz-adv-x="1085" 
d="M684 0v274h256v-274h-256zM143 0v274h256v-274h-256z" />
    <glyph glyph-name="periodcentered.tab" horiz-adv-x="542" 
d="M137 483v287h269v-287h-269z" />
    <glyph glyph-name="slash.tab" horiz-adv-x="1085" 
d="M1063 1616l-866 -1860h-203l868 1860h201z" />
    <glyph glyph-name="bar.tab" horiz-adv-x="542" 
d="M178 -244v1860h187v-1860h-187z" />
    <glyph glyph-name="underscore.tab" horiz-adv-x="1085" 
d="M-4 -324v183h1091v-183h-1091z" />
    <glyph glyph-name="dollar.tab" horiz-adv-x="1085" 
d="M729 1595l-18 -172q159 -37 270 -129l-107 -176q-94 72 -192 105l-45 -414q189 -77 275.5 -172t86.5 -240q0 -178 -122.5 -288t-317.5 -115l-24 -232h-162l26 246q-192 42 -338 170l113 174q123 -106 254 -145l49 428q-191 76 -274.5 169.5t-83.5 239.5
q0 177 120.5 285.5t313.5 110.5l16 155h160zM782 383q0 65 -36.5 111t-127.5 88l-45 -392q100 6 154.5 58t54.5 135zM336 1063q0 -63 35 -108.5t123 -88.5l43 379q-94 -3 -147.5 -53t-53.5 -129z" />
    <glyph glyph-name="sterling.tab" horiz-adv-x="1085" 
d="M238 782v209q0 230 122 352q112 109 295 109q219 0 361 -170l-148 -160q-96 111 -206 111q-78 0 -130 -49q-59 -59 -59 -193v-209h399v-198h-399v-377h533v-207h-908v147l140 48v389h-138v198h138z" />
    <glyph glyph-name="Euro.tab" horiz-adv-x="1085" 
d="M57 811v160h152q46 228 174.5 355.5t314.5 127.5q197 0 338 -151l-125 -166q-100 110 -209 110q-95 0 -163.5 -71t-100.5 -205h340v-160h-360q-2 -27 -2 -82v-22v-74h362v-162h-344q30 -138 99.5 -211.5t164.5 -73.5q65 0 114 29t101 88l127 -156q-151 -167 -354 -167
q-184 0 -311 129t-170 362h-148v162h129v72v22q0 55 2 84h-131z" />
    <glyph glyph-name="yen.tab" horiz-adv-x="1085" 
d="M143 373h289v166h-289v161h246l-369 734h252l273 -600l274 600h244l-371 -734h248v-161h-287v-166h287v-162h-287v-211h-221v211h-289v162z" />
    <glyph glyph-name="cent.tab" horiz-adv-x="1085" 
d="M788 1444l-26 -182q126 -34 227 -140l-121 -155q-68 71 -139 98l-98 -698q127 5 241 122l119 -143q-160 -173 -383 -176l-26 -182h-166l28 205q-152 48 -243.5 185t-91.5 331v16q0 239 136.5 394t350.5 161l25 164h167zM326 711q0 -113 40.5 -194t112.5 -120l96 682
q-112 -14 -180.5 -108.5t-68.5 -247.5v-12z" />
    <glyph glyph-name="numbersign.tab" horiz-adv-x="1085" 
d="M51 532h170l43 375h-155v197h180l39 330h174l-41 -330h252l39 330h174l-39 -330h145v-197h-170l-45 -375h160v-194h-182l-41 -338h-174l41 338h-250l-39 -338h-174l39 338h-146v194zM436 911l-47 -383h258l45 383h-256z" />
    <glyph glyph-name="paragraph.tab" horiz-adv-x="1085" 
d="M674 0v494h-62q-234 3 -380 125t-146 344q0 224 145.5 347.5t386.5 123.5h295v-1434h-239z" />
    <glyph glyph-name="section.tab" horiz-adv-x="1085" 
d="M541 -18q-217 0 -375 139l108 151q124 -108 265 -108q65 0 99 27.5t34 70.5v2q0 48 -49 83t-179 79q-202 69 -282 132.5t-80 170.5v2q0 87 58.5 149t160.5 87q-106 85 -106 202v2q0 123 97.5 202t252.5 79q217 0 375 -139l-109 -152q-129 109 -264 109q-65 0 -100 -28
t-35 -71v-2q0 -47 49.5 -82t179.5 -79q202 -69 282.5 -133t80.5 -170v-3q0 -87 -59 -148.5t-163 -86.5q107 -83 107 -203v-2q0 -123 -96.5 -201.5t-251.5 -78.5zM422 870q-60 2 -99.5 -29.5t-39.5 -80.5v-2q0 -50 44 -83t150 -69q136 -43 187 -43q60 -2 99.5 30t39.5 81v2
q0 49 -44 81.5t-151 69.5q-85 27 -119.5 35t-66.5 8z" />
    <glyph glyph-name="degree.tab" horiz-adv-x="1085" 
d="M541 625q-158 0 -268.5 118t-110.5 291v6q0 172 112.5 291t270.5 119q156 0 266.5 -119t110.5 -291v-6q0 -173 -111.5 -291t-269.5 -118zM543 768q100 0 162.5 75t62.5 191v6q0 116 -63 191.5t-164 75.5q-99 0 -161.5 -75.5t-62.5 -191.5v-6q0 -116 63.5 -191t162.5 -75z
" />
    <glyph glyph-name="percent.tab" horiz-adv-x="1085" 
d="M807 729q106 0 167.5 -96t61.5 -260v-27q0 -166 -61.5 -262t-167.5 -96q-107 0 -169.5 96t-62.5 260v29q0 162 62.5 259t169.5 97zM279 1446q106 0 167.5 -96t61.5 -260v-27q0 -163 -62 -260.5t-167 -97.5q-106 0 -169 96t-63 260v26q0 165 63 262t169 97zM817 1434h129
l-366 -738l-314 -696h-127l365 737zM279 1313q-93 0 -93 -219v-37q0 -219 93 -219q92 0 92 219v37q0 219 -92 219zM805 596q-92 0 -92 -219v-37q0 -219 92 -219t92 219v37q0 219 -92 219z" />
    <glyph glyph-name="quotedbl.tab" horiz-adv-x="1085" 
d="M621 821l69 613h260v-13l-217 -600h-112zM186 821l70 613h260v-13l-217 -600h-113z" />
    <glyph glyph-name="quotesingle.tab" horiz-adv-x="542" 
d="M133 821l70 613h260v-13l-215 -600h-115z" />
    <glyph glyph-name="plus.tab" horiz-adv-x="1085" 
d="M981 618h-334v-344h-211l2 344h-336v205h336l-2 344h211v-344h334v-205z" />
    <glyph glyph-name="minus.tab" horiz-adv-x="1085" 
d="M981 610h-877v221h877v-221z" />
    <glyph glyph-name="divide.tab" horiz-adv-x="1085" 
d="M418 991v246h248v-246h-248zM981 618h-877v205h877v-205zM418 207v244h248v-244h-248z" />
    <glyph glyph-name="equal.tab" horiz-adv-x="1085" 
d="M956 844h-827v211h827v-211zM956 387h-827v211h827v-211z" />
    <glyph glyph-name="multiply.tab" horiz-adv-x="1085" 
d="M819 287l-278 288l-279 -288l-149 141l290 291l-290 293l151 143l281 -289l278 289l148 -141l-289 -291l289 -293z" />
    <glyph glyph-name="less.tab" horiz-adv-x="1085" 
d="M938 193l-825 423v209l825 424v-233l-598 -293l598 -295v-235z" />
    <glyph glyph-name="greater.tab" horiz-adv-x="1085" 
d="M971 616l-826 -423v233l600 293l-600 295v235l826 -424v-209z" />
    <glyph glyph-name="plusminus.tab" horiz-adv-x="1085" 
d="M981 727h-334v-334h-211l2 334h-336v205h336l-2 336h211v-336h334v-205zM981 16h-877v201h877v-201z" />
    <glyph glyph-name="space.tab" horiz-adv-x="542" 
 />
    <glyph glyph-name="NUL" horiz-adv-x="0" 
 />
    <glyph glyph-name="hfjslug" horiz-adv-x="1421" 
d="M1319 -410h-426l-16 29h-334l-17 -29h-424v621q28 0 47 18.5t19 46.5q0 27 -19.5 46.5t-46.5 19.5v1135h205l62 161h684l59 -161h207v-1887zM819 1153v-352h31v160h78v28h-78v135h88v29h-119zM377 1153v-352h31v162h96v-162h31v352h-31v-162h-96v162h-31zM942 807
q20 -8 43 -8q64 0 64 73v281h-33v-281q0 -45 -33 -45q-13 0 -41 11v-31zM760 952l-27 6q-9 -39 -16 -61h-2l-33 64q47 44 47 86q0 28 -14 45.5t-41 17.5q-26 0 -42 -18t-16 -45q0 -9 1 -16.5t4.5 -16.5t6 -13.5t9 -16.5t8.5 -17q-47 -38 -47 -97q0 -34 16.5 -54.5
t42.5 -20.5q41 0 60 49h2l24 -49l25 12l-35 65q16 40 27 80zM1071 662v-95h16v25l17 16l31 -41h20l-41 54l37 41h-21l-40 -50h-3v50h-16zM999 598l21 -31h18l-24 35q20 8 20 29q0 13 -10 22t-25 9h-41v-95h17v31h24zM872 565q22 0 36 14.5t14 34.5q0 19 -14.5 34.5
t-35.5 15.5t-35 -15t-14 -35q0 -21 14 -35t35 -14zM758 616l-27 46h-18l37 -60v-35h16v35l37 60h-19zM395 662v-95h70v15h-53v26h47v15h-47v24h53v15h-70zM270 662v-95h17v66l51 -66h14v95h-16v-66l-51 66h-15zM494 662l28 -97h17l22 70h2l23 -70h16l29 97h-17l-20 -72h-2
l-23 72h-14l-23 -72h-2l-20 72h-16zM670 981q-25 48 -25 66q0 17 8.5 27.5t20.5 10.5q26 0 26 -38q0 -31 -30 -66zM700 866q-16 -43 -41 -43q-14 0 -23 14t-9 37q0 40 32 72zM997 612h-22v35h22q21 0 21 -16q0 -8 -6 -13.5t-15 -5.5zM872 580q-14 0 -23 10t-9 24q0 13 9 24
t23 11t23.5 -11t9.5 -24q0 -14 -9 -24t-24 -10z" />
    <glyph glyph-name="i.dot" horiz-adv-x="518" 
d="M135 1243v227h246v-227h-246zM143 0v1085h232v-1085h-232z" />
    <glyph glyph-name="zero.num" 
d="M360 645q-130 0 -207 104.5t-77 290.5v13q0 185 78 291t208 106q128 0 206.5 -105t78.5 -288v-15q0 -184 -79.5 -290.5t-207.5 -106.5zM360 1317q-65 0 -102 -66.5t-37 -195.5v-15q0 -128 38 -195t103 -67q62 0 100 67t38 195v15q0 128 -38 195t-102 67z" />
    <glyph glyph-name="one.num" horiz-adv-x="587" 
d="M408 662h-146v628l-147 -61l-29 127l211 88h111v-782z" />
    <glyph glyph-name="one.num_alt" 
d="M641 662h-516v124h197v506l-175 -67l-28 125l237 94h109v-658h176v-124z" />
    <glyph glyph-name="two.num" 
d="M96 662v120l252 246q68 66 94.5 104.5t26.5 81.5q0 46 -32 74.5t-79 28.5t-87 -26t-83 -77l-92 89q59 75 122 111t151 36q111 0 180 -61t69 -160q0 -70 -32.5 -126t-112.5 -132l-186 -180h336v-129h-527z" />
    <glyph glyph-name="three.num" 
d="M348 645q-152 0 -270 109l78 106q93 -86 192 -86q54 0 90.5 32t36.5 83q0 54 -46 83.5t-126 31.5h-59l-19 90l205 209h-309v131h487v-111l-213 -213q101 -11 162 -65.5t61 -151.5q0 -112 -74.5 -180t-195.5 -68z" />
    <glyph glyph-name="four.num" 
d="M565 821v-162h-133v162h-344l-14 129l332 492h159v-504h92v-117h-92zM436 938v342h-4l-231 -342h235z" />
    <glyph glyph-name="five.num" 
d="M346 645q-142 0 -266 105l78 108q95 -82 188 -82q64 0 100.5 35.5t36.5 93.5q0 56 -37.5 87.5t-101.5 31.5q-63 0 -131 -31l-90 51l31 390h438v-134h-322l-12 -172q49 19 117 19q111 0 182.5 -61.5t71.5 -174.5q0 -122 -78 -194t-205 -72z" />
    <glyph glyph-name="six.num" 
d="M365 645q-115 0 -185 70q-94 91 -94 301v10q0 203 82 313.5t229 110.5q114 0 207 -70l-65 -114q-66 55 -146 55q-69 0 -114.5 -57.5t-49.5 -159.5q66 59 162 59q101 0 169.5 -64t68.5 -184q0 -121 -75 -195.5t-189 -74.5zM362 770q58 0 94 37.5t36 101.5t-35.5 99.5
t-94.5 35.5q-58 0 -94.5 -36t-36.5 -99t37 -101t94 -38z" />
    <glyph glyph-name="seven.num" 
d="M313 659h-157l303 639h-348v136h510v-109z" />
    <glyph glyph-name="eight.num" 
d="M362 645q-123 0 -199.5 62t-76.5 165q0 132 125 191q-105 60 -105 176q0 92 72 151.5t184 59.5q110 0 182 -59.5t72 -151.5q0 -116 -104 -176q58 -27 91.5 -75.5t33.5 -113.5q0 -104 -76.5 -166.5t-198.5 -62.5zM362 1337q-55 0 -88.5 -30t-33.5 -80q0 -51 34 -82t88 -31
q53 0 87 31t34 82q0 49 -34 79.5t-87 30.5zM362 1001q-61 0 -100 -33t-39 -89q0 -55 37.5 -88t101.5 -33q62 0 100 33t38 88q0 56 -39 89t-99 33z" />
    <glyph glyph-name="nine.num" 
d="M360 1450q113 0 183 -70q96 -93 96 -301v-10q0 -203 -83 -313.5t-230 -110.5q-125 0 -217 76l63 115q77 -62 158 -62q69 0 114 56t48 155q-59 -59 -160 -59q-100 0 -169 64t-69 186q0 123 75 198.5t191 75.5zM360 1042q59 0 95.5 37.5t36.5 104.5q0 65 -37 104t-95 39
t-93.5 -39t-35.5 -106q0 -65 35 -102.5t94 -37.5z" />
    <glyph glyph-name="zero.den" 
d="M360 -16q-130 0 -207 104.5t-77 288.5v14q0 185 78 291t208 106q128 0 206.5 -105.5t78.5 -289.5v-12q0 -184 -79.5 -290.5t-207.5 -106.5zM360 655q-65 0 -102 -66.5t-37 -195.5v-14q0 -128 38 -195t103 -67q62 0 100 67t38 195v14q0 128 -38 195t-102 67z" />
    <glyph glyph-name="one.den" horiz-adv-x="587" 
d="M408 0h-146v629l-147 -62l-29 127l211 86h111v-780z" />
    <glyph glyph-name="one.den_alt" 
d="M641 0h-516v125h197v506l-175 -70l-28 127l237 94h109v-657h176v-125z" />
    <glyph glyph-name="two.den" 
d="M96 0v121l252 246q68 66 94.5 104.5t26.5 81.5q0 46 -32 74t-79 28q-84 0 -170 -102l-92 88q59 75 122 111t151 36q111 0 180 -61t69 -160q0 -70 -32.5 -126t-112.5 -132l-186 -180h336v-129h-527z" />
    <glyph glyph-name="three.den" 
d="M348 -16q-157 0 -270 108l78 107q93 -86 192 -86q54 0 90.5 31.5t36.5 82.5q0 54 -46 83.5t-126 29.5h-59l-19 92l205 209h-309v131h487v-110l-213 -213q101 -11 162 -66t61 -152q0 -112 -74.5 -179.5t-195.5 -67.5z" />
    <glyph glyph-name="four.den" 
d="M565 160v-164h-133v164h-344l-14 129l332 491h159v-504h92v-116h-92zM436 276v342h-4l-231 -342h235z" />
    <glyph glyph-name="five.den" 
d="M346 -16q-147 0 -266 104l78 109q95 -82 188 -82q64 0 100.5 35.5t36.5 93.5q0 56 -37.5 87t-101.5 31q-65 0 -131 -30l-90 51l31 389h438v-133h-322l-12 -172q46 18 117 18q111 0 182.5 -61t71.5 -174q0 -122 -78 -194t-205 -72z" />
    <glyph glyph-name="six.den" 
d="M365 -16q-116 0 -185 69q-94 91 -94 301v11q0 203 82 313t229 110q116 0 207 -69l-65 -115q-66 55 -146 55q-69 0 -114.5 -58t-49.5 -161q63 60 162 60q101 0 169.5 -63.5t68.5 -182.5q0 -121 -75 -195.5t-189 -74.5zM362 106q57 0 93.5 39t36.5 103t-35.5 99.5
t-94.5 35.5q-58 0 -94.5 -36t-36.5 -99t37.5 -102.5t93.5 -39.5z" />
    <glyph glyph-name="seven.den" 
d="M313 -4h-157l303 641h-348v135h510v-108z" />
    <glyph glyph-name="eight.den" 
d="M362 -16q-123 0 -199.5 62t-76.5 165q0 131 125 190q-105 60 -105 174q0 94 71.5 153.5t184.5 59.5q111 0 182.5 -60t71.5 -153q0 -114 -104 -174q125 -59 125 -188q0 -104 -76.5 -166.5t-198.5 -62.5zM362 674q-54 0 -88 -30t-34 -79q0 -51 34 -81.5t88 -30.5
q53 0 87 31t34 81q0 49 -34 79t-87 30zM362 340q-61 0 -100 -33.5t-39 -89.5q0 -54 38 -87.5t101 -33.5q62 0 100 33t38 88q0 56 -39 89.5t-99 33.5z" />
    <glyph glyph-name="nine.den" 
d="M360 788q114 0 183 -69q96 -93 96 -301v-10q0 -203 -83 -313.5t-230 -110.5q-126 0 -217 75l63 115q71 -61 158 -61q69 0 114 55.5t48 153.5q-63 -60 -160 -60q-100 0 -169 65t-69 187q0 123 75 198.5t191 75.5zM360 381q59 0 95.5 37t36.5 104q0 65 -37 103.5t-95 38.5
t-93.5 -38.5t-35.5 -105.5q0 -65 35 -102t94 -37z" />
    <glyph glyph-name="caron.alt" horiz-adv-x="1024" 
d="M403 1186l23 364h176v-6l-102 -358h-97z" />
    <glyph glyph-name="acute.cap" horiz-adv-x="1024" 
d="M328 1538l209 285l208 -97l-239 -188h-178z" />
    <glyph glyph-name="hungarumlaut.cap" horiz-adv-x="1024" 
d="M150 1538l208 285l199 -97l-235 -188h-172zM467 1538l211 285l199 -97l-238 -188h-172z" />
    <glyph glyph-name="grave.cap" horiz-adv-x="1024" 
d="M690 1538h-178l-240 188l209 97z" />
    <glyph glyph-name="circumflex.cap" horiz-adv-x="1024" 
d="M186 1540l220 262h212l220 -262h-191l-137 113l-137 -113h-187z" />
    <glyph glyph-name="caron.cap" horiz-adv-x="1024" 
d="M838 1802l-220 -262h-212l-220 262h191l137 -112l137 112h187z" />
    <glyph glyph-name="breve.cap" horiz-adv-x="1024" 
d="M512 1534q-135 0 -220 67t-95 189h161q28 -96 154 -96t154 96h161q-10 -122 -95 -189t-220 -67z" />
    <glyph glyph-name="tilde.cap" horiz-adv-x="1024" 
d="M662 1540q-54 0 -164 43q-79 33 -109 33q-35 0 -55.5 -21t-40.5 -71l-133 39q31 121 77 178t125 57q62 0 166 -45q79 -33 107 -33q35 0 55.5 21t40.5 71l133 -38q-31 -120 -77 -177t-125 -57z" />
    <glyph glyph-name="macron.cap" horiz-adv-x="1024" 
d="M184 1559v170h656v-170h-656z" />
    <glyph glyph-name="dieresis.cap" horiz-adv-x="1024" 
d="M584 1542v219h233v-219h-233zM205 1542v219h235v-219h-235z" />
    <glyph glyph-name="dotaccent.cap" horiz-adv-x="1024" 
d="M393 1542v219h238v-219h-238z" />
    <glyph glyph-name="ring.cap" horiz-adv-x="1024" 
d="M512 1534q-92 0 -156.5 57t-64.5 144q0 86 64.5 143t156.5 57t156.5 -57t64.5 -143q0 -87 -64.5 -144t-156.5 -57zM512 1626q52 0 85.5 31.5t33.5 77.5t-33.5 77t-85.5 31t-85.5 -31t-33.5 -77t33.5 -77.5t85.5 -31.5z" />
    </font>
</defs>
</svg>
