<?xml version="1.0" standalone="no"?>
<!DOCTYPE svg PUBLIC "-//W3C//DTD SVG 20010904//EN"
 "http://www.w3.org/TR/2001/REC-SVG-20010904/DTD/svg10.dtd">
<svg version="1.0" xmlns="http://www.w3.org/2000/svg"
 width="700.000000pt" height="700.000000pt" viewBox="0 0 700.000000 700.000000"
 preserveAspectRatio="xMidYMid meet">
<metadata>
Created by potrace 1.11, written by Peter Selinger 2001-2013
</metadata>
<g transform="translate(0.000000,700.000000) scale(0.100000,-0.100000)"
fill="#000000" stroke="none">
<path d="M0 3500 l0 -1867 82 2 c111 4 288 14 368 21 222 19 381 34 410 39 14
2 56 7 95 10 38 4 72 8 75 10 3 1 37 6 75 9 39 4 80 8 90 10 11 2 43 7 70 10
28 4 61 9 75 11 14 2 61 9 105 15 44 6 100 15 125 20 25 5 63 11 85 14 96 13
460 80 660 122 94 19 179 37 190 40 11 2 30 6 43 9 12 3 32 7 44 10 176 38
677 166 913 233 210 59 511 140 549 148 11 2 99 22 196 45 96 23 204 48 240
56 78 17 244 51 274 57 83 16 357 66 381 71 17 2 55 9 85 14 64 12 100 17 195
31 39 6 77 12 85 15 8 2 38 6 65 10 28 3 61 8 75 10 14 2 45 7 70 9 25 3 61 8
80 10 19 3 76 10 125 16 50 6 101 13 115 15 24 3 93 11 190 20 24 3 65 7 90 9
25 3 81 8 125 11 44 4 96 8 115 10 30 4 107 9 315 20 28 2 67 4 88 4 l37 1 0
700 0 700 -32 1 c-18 0 -56 2 -84 4 -29 1 -105 6 -170 9 -66 4 -137 9 -159 11
-22 2 -69 6 -105 9 -116 11 -242 23 -315 31 -16 2 -52 6 -80 10 -27 3 -66 7
-85 10 -19 2 -89 11 -155 20 -66 8 -129 17 -140 19 -22 4 -81 12 -160 22 -27
3 -59 8 -70 10 -19 4 -46 9 -120 20 -16 2 -80 13 -141 24 -61 11 -129 22 -150
25 -21 4 -46 8 -54 10 -8 3 -65 14 -125 26 -138 26 -150 28 -205 40 -25 6 -56
13 -70 15 -25 4 -116 24 -225 49 -67 16 -152 35 -175 40 -8 1 -35 8 -60 15
-25 7 -52 13 -60 15 -38 8 -366 95 -550 146 -226 63 -506 138 -540 145 -14 3
-33 7 -42 10 -9 3 -26 7 -39 9 -12 2 -36 9 -53 14 -17 6 -44 12 -61 15 -16 3
-88 19 -160 36 -104 24 -383 83 -499 106 -34 6 -134 25 -163 30 -26 4 -39 6
-103 19 -14 3 -43 8 -65 10 -22 3 -47 8 -55 10 -15 5 -69 13 -128 20 -18 2
-41 6 -50 9 -9 3 -42 8 -72 11 -30 3 -62 8 -70 10 -8 2 -33 6 -55 9 -22 3 -87
12 -145 20 -58 8 -132 18 -165 21 -33 3 -76 8 -95 11 -48 7 -94 12 -170 19
-36 3 -81 8 -100 10 -19 2 -73 7 -120 10 -47 4 -101 8 -120 10 -45 5 -263 17
-362 20 l-78 3 0 -1868z"/>
</g>
</svg>
