<?xml version="1.0" standalone="no"?>
<!DOCTYPE svg PUBLIC "-//W3C//DTD SVG 1.1//EN" "http://www.w3.org/Graphics/SVG/1.1/DTD/svg11.dtd" >
<svg xmlns="http://www.w3.org/2000/svg" xmlns:xlink="http://www.w3.org/1999/xlink" version="1.1">
<metadata>
Created by FontForge 20170731 at Fri Jan 11 16:26:12 2013
 By Aleksey,,,
URW Software, Copyright 2012 by URW
</metadata>
<defs>
<font id="TeleGroteskHeadline-Regular" horiz-adv-x="464" vert-adv-y="2048" >
  <font-face 
    font-family="TeleGrotesk Headline"
    font-weight="400"
    font-stretch="normal"
    units-per-em="2048"
    panose-1="0 0 0 0 0 0 0 0 0 0"
    ascent="1679"
    descent="-369"
    cap-height="1365"
    bbox="-130 -512 2416 1803"
    underline-thickness="105"
    underline-position="-318"
    unicode-range="U+0020-2265"
  />
<missing-glyph vert-adv-y="2457" 
d="M46 0v1365h372v-1365h-372zM372 46v1273h-280v-1273h280z" />
    <glyph glyph-name=".notdef" vert-adv-y="2457" 
d="M46 0v1365h372v-1365h-372zM372 46v1273h-280v-1273h280z" />
    <glyph glyph-name="glyph1" horiz-adv-x="0" vert-adv-y="0" 
 />
    <glyph glyph-name="glyph2" vert-adv-y="2457" 
 />
    <glyph glyph-name="space" unicode=" " horiz-adv-x="463" vert-adv-y="2457" 
 />
    <glyph glyph-name="space" unicode="&#xa0;" horiz-adv-x="463" vert-adv-y="2457" 
 />
    <glyph glyph-name="exclam" unicode="!" horiz-adv-x="479" vert-adv-y="2457" 
d="M303 1365v-423l-27 -599h-72l-27 599v423h126zM309 205v-205h-139v205h139z" />
    <glyph glyph-name="quotedbl" unicode="&#x22;" horiz-adv-x="555" vert-adv-y="2457" 
d="M191 846h-83l-16 519h115zM447 846h-83l-16 519h115z" />
    <glyph glyph-name="numbersign" unicode="#" horiz-adv-x="1249" vert-adv-y="2457" 
d="M472 1365h106l-59 -423h275l60 423h106l-59 -423h202v-92h-215l-44 -311h202v-92h-215l-62 -447h-107l63 447h-276l-62 -447h-107l63 447h-200v92h213l43 311h-199v92h212zM782 850h-276l-44 -311h276z" />
    <glyph glyph-name="dollar" unicode="$" horiz-adv-x="1069" vert-adv-y="2457" 
d="M475 1447h100v-97q141 -23 224.5 -104.5t101.5 -213.5h-127q-26 178 -199 212v-494q24 -7 37 -11q140 -39 210 -92q143 -108 143 -279q0 -151 -105 -247t-285 -111v-92h-100v94q-330 43 -369 371h117q16 -109 81 -176.5t171 -85.5v541q-123 37 -180 69q-174 99 -174 297
q0 102 55 180q93 133 299 147v92zM575 119q81 8 136 37q59 31 93 87t34 123q0 189 -263 265v-512zM475 1250q-82 -8 -132 -39q-102 -64 -102 -186q0 -136 134 -204q32 -16 100 -39v468z" />
    <glyph glyph-name="percent" unicode="%" horiz-adv-x="1716" vert-adv-y="2457" 
d="M388 1384q148 0 241 -120q92 -120 92 -310q0 -168 -74 -284q-92 -144 -259 -144q-166 0 -259 144q-74 116 -74 292q0 187 91 302q96 120 242 120zM388 1293q-103 0 -169 -92t-66 -238t56 -240q64 -106 180 -106q105 0 167 89q67 97 67 248t-65 245t-170 94zM615 0h-99
l588 1365h95zM1327 838q149 0 242 -120q92 -120 92 -310q0 -168 -74 -283q-93 -144 -260 -144q-166 0 -259 144q-74 116 -74 292q0 186 91 301q96 120 242 120zM1327 747q-103 0 -169 -92q-66 -91 -66 -237q0 -147 56 -241q64 -105 180 -105q105 0 168 89q67 96 67 248
q0 150 -65 244t-171 94z" />
    <glyph glyph-name="ampersand" unicode="&#x26;" horiz-adv-x="1051" vert-adv-y="2457" 
d="M978 0h-132l-82 123q-70 -81 -146 -116.5t-181 -35.5q-154 0 -243 92q-100 102 -100 256q0 160 113 293q45 53 145 136q-12 17 -38 57q-114 167 -114 305t103 223q77 63 176 63q122 0 199 -83q73 -78 73 -195q0 -101 -57 -185.5t-203 -199.5l283 -425q44 110 50 259h112
q-21 -208 -103 -348zM406 665q-194 -162 -194 -347q0 -115 72 -186q65 -65 164 -65q158 0 265 135zM435 817q86 72 121 114q77 93 77 188q0 76 -44.5 126t-112.5 50q-69 0 -115.5 -55t-46.5 -136q0 -64 23.5 -119.5t97.5 -167.5z" />
    <glyph glyph-name="quotesingle" unicode="'" horiz-adv-x="299" vert-adv-y="2457" 
d="M191 846h-83l-16 519h115z" />
    <glyph glyph-name="parenleft" unicode="(" horiz-adv-x="526" vert-adv-y="2457" 
d="M407 1505q-203 -398 -203 -864q0 -452 204 -856h-86q-123 244 -175 442t-52 417q0 221 59.5 446.5t167.5 414.5h85z" />
    <glyph glyph-name="parenright" unicode=")" horiz-adv-x="526" vert-adv-y="2457" 
d="M118 -215q204 395 204 864q0 451 -204 856h86q90 -181 141 -329q86 -251 86 -530q0 -222 -59.5 -447t-167.5 -414h-86z" />
    <glyph glyph-name="asterisk" unicode="*" horiz-adv-x="840" vert-adv-y="2457" 
d="M707 1133l-232 -75l145 -192l-56 -43l-145 194l-150 -194l-57 43l151 192l-230 75l22 67l228 -78l-1 243h74l-1 -243l229 78z" />
    <glyph glyph-name="plus" unicode="+" horiz-adv-x="1044" vert-adv-y="2457" 
d="M79 742h387v361h113v-361h387v-105h-387v-361h-113v361h-387v105z" />
    <glyph glyph-name="comma" unicode="," horiz-adv-x="430" vert-adv-y="2457" 
d="M284 205v-148q0 -147 -33.5 -218.5t-117.5 -104.5v82q71 42 71 161v23h-59v205h139z" />
    <glyph glyph-name="hyphen" unicode="-" horiz-adv-x="424" vert-adv-y="2457" 
d="M405 683v-106h-387v106h387z" />
    <glyph glyph-name="hyphen" unicode="&#x2011;" horiz-adv-x="424" vert-adv-y="2457" 
d="M405 683v-106h-387v106h387z" />
    <glyph glyph-name="hyphen" unicode="&#xad;" horiz-adv-x="424" vert-adv-y="2457" 
d="M405 683v-106h-387v106h387z" />
    <glyph glyph-name="period" unicode="." horiz-adv-x="430" vert-adv-y="2457" 
d="M284 205v-205h-139v205h139z" />
    <glyph glyph-name="slash" unicode="/" horiz-adv-x="727" vert-adv-y="2457" 
d="M179 0h-96l467 1365h93z" />
    <glyph glyph-name="zero" unicode="0" horiz-adv-x="983" vert-adv-y="2457" 
d="M492 1392q201 0 307 -200q90 -170 90 -504q0 -371 -107 -545q-106 -172 -287 -172q-400 0 -400 697q0 355 97 531q106 193 300 193zM496 1290q-168 0 -233 -209q-50 -162 -50 -410q0 -598 279 -598t279 609q0 310 -69 455q-74 153 -206 153z" />
    <glyph glyph-name="one" unicode="1" horiz-adv-x="573" vert-adv-y="2457" 
d="M290 0v1100q-42 -44 -82 -58t-129 -17v93q125 5 180 75q37 48 59 172h91v-1365h-119z" />
    <glyph glyph-name="two" unicode="2" horiz-adv-x="908" vert-adv-y="2457" 
d="M811 106v-106h-732q3 205 81 346q44 79 103.5 134t240.5 185q89 63 146 162q51 86 51 194q0 113 -58 185q-71 87 -195 87q-114 0 -181 -73.5t-72 -203.5h-118q13 162 93 258q102 122 280 122q181 0 283 -123q89 -107 89 -260q0 -184 -132 -323q-44 -47 -76.5 -72.5
t-181.5 -133.5q-114 -82 -165.5 -170.5t-54.5 -207.5h599z" />
    <glyph glyph-name="three" unicode="3" horiz-adv-x="952" vert-adv-y="2457" 
d="M76 389h109q1 -112 39 -185q67 -131 232 -131q124 0 199 81q81 86 81 227q0 160 -105 240q-77 58 -188 58q-16 0 -51 -3v102q26 -1 39 -1q103 0 169 51q96 74 96 213q0 114 -65 181.5t-174 67.5q-116 0 -179 -67.5t-68 -198.5h-108q4 144 69 235q96 133 291 133
q161 0 258 -97q94 -94 94 -247q0 -220 -194 -311q234 -82 234 -352q0 -188 -114 -306q-105 -108 -280 -108q-177 0 -279 104q-105 106 -105 314z" />
    <glyph glyph-name="four" unicode="4" horiz-adv-x="982" vert-adv-y="2457" 
d="M609 0v369h-515v113l524 883h95v-895h169v-101h-169v-369h-104zM609 470v703l-423 -703h423z" />
    <glyph glyph-name="five" unicode="5" horiz-adv-x="962" vert-adv-y="2457" 
d="M237 1365h568v-106h-483l-78 -469q89 121 244 121q162 0 263 -116q111 -129 111 -338q0 -225 -127 -368q-104 -118 -277 -118q-163 0 -259.5 96t-103.5 265h110q8 -101 56 -164q72 -95 203 -95q122 0 198 101q82 110 82 275q0 159 -74 260q-73 100 -207 100
q-151 0 -239 -159l-95 15z" />
    <glyph glyph-name="six" unicode="6" horiz-adv-x="976" vert-adv-y="2457" 
d="M842 1081h-112q-34 209 -219 209q-182 0 -253 -239q-42 -142 -50 -380q32 73 76 120q95 100 227 100q148 0 249 -107q122 -130 122 -341q0 -200 -103 -337q-102 -135 -278 -135q-192 0 -291 154q-58 90 -84.5 210.5t-26.5 296.5q0 392 116 582q108 178 302 178
q158 0 250 -113q57 -70 75 -198zM494 790q-130 0 -204 -119q-62 -99 -62 -230q0 -149 69 -255q74 -113 200 -113q130 0 202 116q65 104 65 246t-65 240q-76 115 -205 115z" />
    <glyph glyph-name="seven" unicode="7" horiz-adv-x="840" vert-adv-y="2457" 
d="M338 0h-120q5 716 456 1254h-612v111h727v-108q-229 -280 -330 -564q-116 -324 -121 -693z" />
    <glyph glyph-name="eight" unicode="8" horiz-adv-x="977" vert-adv-y="2457" 
d="M330 757q-187 94 -187 298q0 161 110 257q90 80 235 80q146 0 239 -81q105 -92 105 -243q0 -106 -46.5 -184.5t-138.5 -126.5q231 -116 231 -375q0 -183 -113 -303q-101 -108 -275 -108q-177 0 -278 105q-113 116 -113 301q0 266 231 380zM490 1290q-105 0 -168 -62
q-66 -64 -66 -179q0 -114 62 -180q63 -68 173 -68q107 0 168 69q61 68 61 179q0 107 -55 170q-63 71 -175 71zM489 699q-123 0 -197 -84q-75 -84 -75 -226q0 -159 83 -247q71 -75 193 -75q128 0 201 96q66 87 66 222q0 141 -70 224q-76 90 -201 90z" />
    <glyph glyph-name="nine" unicode="9" horiz-adv-x="977" vert-adv-y="2457" 
d="M127 283h113q35 -210 224 -210q148 0 220 147t85 472q-97 -219 -304 -219q-148 0 -249 107q-122 129 -122 341q0 200 101 336q101 135 275 135q193 0 294 -154q59 -90 86 -210.5t27 -297.5q0 -389 -116 -581q-107 -178 -302 -178q-161 0 -254 113q-59 71 -78 199z
M474 1290q-128 0 -199 -116q-63 -104 -63 -245t65 -240q75 -115 205 -115t204 119q62 100 62 230q0 151 -71 254q-77 113 -203 113z" />
    <glyph glyph-name="colon" unicode=":" horiz-adv-x="430" vert-adv-y="2457" 
d="M284 942v-205h-139v205h139zM284 205v-205h-139v205h139z" />
    <glyph glyph-name="semicolon" unicode=";" horiz-adv-x="430" vert-adv-y="2457" 
d="M284 205v-148q0 -147 -33.5 -218.5t-117.5 -104.5v82q71 42 71 161v23h-59v205h139zM284 942v-205h-139v205h139z" />
    <glyph glyph-name="semicolon" unicode="&#x37e;" horiz-adv-x="430" vert-adv-y="2457" 
d="M284 205v-148q0 -147 -33.5 -218.5t-117.5 -104.5v82q71 42 71 161v23h-59v205h139zM284 942v-205h-139v205h139z" />
    <glyph glyph-name="less" unicode="&#x3c;" horiz-adv-x="1044" vert-adv-y="2457" 
d="M966 1143v-121l-757 -339l757 -339v-122l-887 408v106z" />
    <glyph glyph-name="equal" unicode="=" horiz-adv-x="1044" vert-adv-y="2457" 
d="M79 879h887v-105h-887v105zM79 606h887v-105h-887v105z" />
    <glyph glyph-name="greater" unicode="&#x3e;" horiz-adv-x="1044" vert-adv-y="2457" 
d="M79 1143l887 -407v-107l-887 -407v122l756 339l-756 339v121z" />
    <glyph glyph-name="question" unicode="?" horiz-adv-x="894" vert-adv-y="2457" 
d="M80 1017q5 146 65 234q97 143 294 143q181 0 280 -115q85 -98 85 -241q0 -93 -38.5 -176t-127.5 -181q-70 -78 -89 -109.5t-28 -88.5q-8 -48 -9 -143h-112q1 104 9 157q12 69 39 117t108 141q72 82 100.5 143.5t28.5 133.5q0 115 -66 185.5t-174 70.5q-118 0 -183 -69
t-71 -202h-111zM524 205v-205h-139v205h139z" />
    <glyph glyph-name="at" unicode="@" horiz-adv-x="1538" vert-adv-y="2457" 
d="M994 966h100l-74 -384q-10 -80 -10 -86q0 -62 58 -62q84 0 160 82q126 138 126 342q0 208 -149 334q-141 119 -353 119q-269 0 -459 -198q-199 -207 -199 -521q0 -239 134 -384q145 -156 415 -156q227 0 445 108l26 -84q-221 -109 -481 -109q-307 0 -470 170
q-167 174 -167 452q0 228 116 432q108 190 299 290q163 85 341 85q242 0 407 -139q182 -152 182 -398q0 -170 -89 -313q-58 -93 -136 -144.5t-161 -51.5q-57 0 -91 32t-37 88q-82 -131 -214 -131q-103 0 -165 82q-57 76 -57 194q0 155 89 269q83 105 208 105q137 0 182 -150
zM795 899q-44 0 -86 -25t-70 -67q-53 -78 -53 -182q0 -90 39.5 -144.5t105.5 -54.5q101 0 162 106q45 80 45 190q0 80 -36 127q-39 50 -107 50z" />
    <glyph glyph-name="A" unicode="A" horiz-adv-x="1107" vert-adv-y="2457" 
d="M490 1365h133l454 -1365h-133l-136 430h-511l-138 -430h-128zM331 535h444l-220 695z" />
    <glyph glyph-name="A" unicode="a" horiz-adv-x="1107" vert-adv-y="2457" 
d="M490 1365h133l454 -1365h-133l-136 430h-511l-138 -430h-128zM331 535h444l-220 695z" />
    <glyph glyph-name="B" unicode="B" horiz-adv-x="1139" vert-adv-y="2457" 
d="M158 0v1365h393q209 0 311 -70q136 -94 136 -266q0 -114 -62.5 -195.5t-178.5 -117.5q285 -65 285 -332q0 -180 -125 -282t-345 -102h-414zM280 760h196q161 0 245 31q72 27 113 87.5t41 139.5q0 150 -120 209q-65 32 -205 32h-270v-499zM280 106h258q186 0 269 55
q110 71 110 226q0 140 -91.5 205.5t-288.5 65.5h-257v-552z" />
    <glyph glyph-name="B" unicode="b" horiz-adv-x="1139" vert-adv-y="2457" 
d="M158 0v1365h393q209 0 311 -70q136 -94 136 -266q0 -114 -62.5 -195.5t-178.5 -117.5q285 -65 285 -332q0 -180 -125 -282t-345 -102h-414zM280 760h196q161 0 245 31q72 27 113 87.5t41 139.5q0 150 -120 209q-65 32 -205 32h-270v-499zM280 106h258q186 0 269 55
q110 71 110 226q0 140 -91.5 205.5t-288.5 65.5h-257v-552z" />
    <glyph glyph-name="C" unicode="C" horiz-adv-x="1202" vert-adv-y="2457" 
d="M995 451h124q-19 -165 -99 -284q-135 -200 -381 -200q-261 0 -416 230q-127 189 -127 480q0 324 151 523q150 197 395 197q180 0 307.5 -110.5t155.5 -289.5h-124q-34 119 -88 180q-101 113 -255 113q-180 0 -291 -153q-127 -177 -127 -456q0 -273 118 -445
q52 -76 130 -119q79 -44 173 -44q167 0 271 145q66 93 83 233z" />
    <glyph glyph-name="C" unicode="c" horiz-adv-x="1202" vert-adv-y="2457" 
d="M995 451h124q-19 -165 -99 -284q-135 -200 -381 -200q-261 0 -416 230q-127 189 -127 480q0 324 151 523q150 197 395 197q180 0 307.5 -110.5t155.5 -289.5h-124q-34 119 -88 180q-101 113 -255 113q-180 0 -291 -153q-127 -177 -127 -456q0 -273 118 -445
q52 -76 130 -119q79 -44 173 -44q167 0 271 145q66 93 83 233z" />
    <glyph glyph-name="D" unicode="D" horiz-adv-x="1191" vert-adv-y="2457" 
d="M158 0v1365h343q166 0 271 -47q154 -68 240 -229q82 -155 82 -393q0 -365 -182 -548q-147 -148 -403 -148h-351zM280 106h230q246 0 352 151q108 154 108 437q0 327 -157 467q-109 98 -293 98h-240v-1153z" />
    <glyph glyph-name="D" unicode="d" horiz-adv-x="1191" vert-adv-y="2457" 
d="M158 0v1365h343q166 0 271 -47q154 -68 240 -229q82 -155 82 -393q0 -365 -182 -548q-147 -148 -403 -148h-351zM280 106h230q246 0 352 151q108 154 108 437q0 327 -157 467q-109 98 -293 98h-240v-1153z" />
    <glyph glyph-name="E" unicode="E" horiz-adv-x="1038" vert-adv-y="2457" 
d="M158 0v1365h787v-106h-665v-499h622v-106h-622v-548h672v-106h-794z" />
    <glyph glyph-name="E" unicode="e" horiz-adv-x="1038" vert-adv-y="2457" 
d="M158 0v1365h787v-106h-665v-499h622v-106h-622v-548h672v-106h-794z" />
    <glyph glyph-name="F" unicode="F" horiz-adv-x="940" vert-adv-y="2457" 
d="M158 0v1365h731v-106h-609v-498h541v-106h-541v-655h-122z" />
    <glyph glyph-name="F" unicode="f" horiz-adv-x="940" vert-adv-y="2457" 
d="M158 0v1365h731v-106h-609v-498h541v-106h-541v-655h-122z" />
    <glyph glyph-name="G" unicode="G" horiz-adv-x="1273" vert-adv-y="2457" 
d="M1139 0h-102v239q-55 -99 -109 -153q-117 -119 -289 -119q-261 0 -416 230q-127 190 -127 480q0 324 151 523q150 197 397 197q182 0 311 -107t162 -286h-125q-34 114 -91 176q-102 111 -262 111q-181 0 -292 -153q-127 -177 -127 -456q0 -274 118 -446
q112 -163 306 -163q139 0 237 102q74 76 106 167t40 246h-383v106h495v-694z" />
    <glyph glyph-name="G" unicode="g" horiz-adv-x="1273" vert-adv-y="2457" 
d="M1139 0h-102v239q-55 -99 -109 -153q-117 -119 -289 -119q-261 0 -416 230q-127 190 -127 480q0 324 151 523q150 197 397 197q182 0 311 -107t162 -286h-125q-34 114 -91 176q-102 111 -262 111q-181 0 -292 -153q-127 -177 -127 -456q0 -274 118 -446
q112 -163 306 -163q139 0 237 102q74 76 106 167t40 246h-383v106h495v-694z" />
    <glyph glyph-name="H" unicode="H" horiz-adv-x="1227" vert-adv-y="2457" 
d="M158 0v1365h122v-596h668v596h122v-1365h-122v663h-668v-663h-122z" />
    <glyph glyph-name="H" unicode="h" horiz-adv-x="1227" vert-adv-y="2457" 
d="M158 0v1365h122v-596h668v596h122v-1365h-122v663h-668v-663h-122z" />
    <glyph glyph-name="I" unicode="I" horiz-adv-x="438" vert-adv-y="2457" 
d="M158 0v1365h122v-1365h-122z" />
    <glyph glyph-name="I" unicode="&#x131;" horiz-adv-x="438" vert-adv-y="2457" 
d="M158 0v1365h122v-1365h-122z" />
    <glyph glyph-name="I" unicode="i" horiz-adv-x="438" vert-adv-y="2457" 
d="M158 0v1365h122v-1365h-122z" />
    <glyph glyph-name="J" unicode="J" horiz-adv-x="606" vert-adv-y="2457" 
d="M343 1365h122v-898q0 -143 -11.5 -215.5t-43.5 -131.5q-83 -153 -286 -153q-47 0 -104 13v109q53 -16 104 -16q149 0 194 136q25 76 25 286v870z" />
    <glyph glyph-name="J" unicode="&#x237;" horiz-adv-x="606" vert-adv-y="2457" 
d="M343 1365h122v-898q0 -143 -11.5 -215.5t-43.5 -131.5q-83 -153 -286 -153q-47 0 -104 13v109q53 -16 104 -16q149 0 194 136q25 76 25 286v870z" />
    <glyph glyph-name="J" unicode="j" horiz-adv-x="606" vert-adv-y="2457" 
d="M343 1365h122v-898q0 -143 -11.5 -215.5t-43.5 -131.5q-83 -153 -286 -153q-47 0 -104 13v109q53 -16 104 -16q149 0 194 136q25 76 25 286v870z" />
    <glyph glyph-name="K" unicode="K" horiz-adv-x="1108" vert-adv-y="2457" 
d="M158 1365h122v-691l645 691h141l-542 -580l564 -785h-138l-505 701l-165 -177v-524h-122v1365z" />
    <glyph glyph-name="K" unicode="&#x138;" horiz-adv-x="1108" vert-adv-y="2457" 
d="M158 1365h122v-691l645 691h141l-542 -580l564 -785h-138l-505 701l-165 -177v-524h-122v1365z" />
    <glyph glyph-name="K" unicode="k" horiz-adv-x="1108" vert-adv-y="2457" 
d="M158 1365h122v-691l645 691h141l-542 -580l564 -785h-138l-505 701l-165 -177v-524h-122v1365z" />
    <glyph glyph-name="L" unicode="L" horiz-adv-x="960" vert-adv-y="2457" 
d="M158 0v1365h122v-1259h631v-106h-753z" />
    <glyph glyph-name="L" unicode="l" horiz-adv-x="960" vert-adv-y="2457" 
d="M158 0v1365h122v-1259h631v-106h-753z" />
    <glyph glyph-name="M" unicode="M" horiz-adv-x="1436" vert-adv-y="2457" 
d="M158 0v1365h159l405 -1191l397 1191h160v-1365h-116v1170l-387 -1170h-108l-394 1162v-1162h-116z" />
    <glyph glyph-name="M" unicode="m" horiz-adv-x="1436" vert-adv-y="2457" 
d="M158 0v1365h159l405 -1191l397 1191h160v-1365h-116v1170l-387 -1170h-108l-394 1162v-1162h-116z" />
    <glyph glyph-name="N" unicode="N" horiz-adv-x="1225" vert-adv-y="2457" 
d="M158 0v1365h131l663 -1169v1169h116v-1365h-132l-662 1163v-1163h-116z" />
    <glyph glyph-name="N" unicode="n" horiz-adv-x="1225" vert-adv-y="2457" 
d="M158 0v1365h131l663 -1169v1169h116v-1365h-132l-662 1163v-1163h-116z" />
    <glyph glyph-name="O" unicode="O" horiz-adv-x="1280" vert-adv-y="2457" 
d="M640 1396q243 0 393 -199q151 -201 151 -518q0 -281 -122 -474q-74 -118 -188 -180q-106 -58 -234 -58q-272 0 -422 238q-122 193 -122 488q0 312 150 504q155 199 394 199zM640 1290q-186 0 -303 -167q-117 -166 -117 -427q0 -262 100 -431q57 -97 154 -150
q76 -42 167 -42q124 0 224 80q106 86 158 255q37 121 37 272q0 269 -115 438q-116 172 -305 172z" />
    <glyph glyph-name="O" unicode="o" horiz-adv-x="1280" vert-adv-y="2457" 
d="M640 1396q243 0 393 -199q151 -201 151 -518q0 -281 -122 -474q-74 -118 -188 -180q-106 -58 -234 -58q-272 0 -422 238q-122 193 -122 488q0 312 150 504q155 199 394 199zM640 1290q-186 0 -303 -167q-117 -166 -117 -427q0 -262 100 -431q57 -97 154 -150
q76 -42 167 -42q124 0 224 80q106 86 158 255q37 121 37 272q0 269 -115 438q-116 172 -305 172z" />
    <glyph glyph-name="P" unicode="P" horiz-adv-x="1069" vert-adv-y="2457" 
d="M158 0v1365h348q128 0 206.5 -20t136.5 -68q128 -106 128 -299q0 -216 -161 -322q-113 -74 -324 -74h-212v-582h-122zM280 688h222q179 0 257 64q93 75 93 222q0 165 -115 239q-42 27 -93 36.5t-148 9.5h-216v-571z" />
    <glyph glyph-name="P" unicode="p" horiz-adv-x="1069" vert-adv-y="2457" 
d="M158 0v1365h348q128 0 206.5 -20t136.5 -68q128 -106 128 -299q0 -216 -161 -322q-113 -74 -324 -74h-212v-582h-122zM280 688h222q179 0 257 64q93 75 93 222q0 165 -115 239q-42 27 -93 36.5t-148 9.5h-216v-571z" />
    <glyph glyph-name="Q" unicode="Q" horiz-adv-x="1280" vert-adv-y="2457" 
d="M933 63q-131 -96 -295 -96q-269 0 -420 238q-122 193 -122 478q0 318 150 514q152 199 394 199q243 0 393 -199q151 -202 151 -518q0 -345 -180 -550l152 -160l-69 -69zM854 146l-155 165l69 68l156 -165q136 178 136 466q0 265 -115 438q-113 172 -305 172
q-186 0 -303 -167t-117 -436q0 -253 100 -422q57 -97 154 -150q76 -42 166 -42q113 0 214 73z" />
    <glyph glyph-name="Q" unicode="q" horiz-adv-x="1280" vert-adv-y="2457" 
d="M933 63q-131 -96 -295 -96q-269 0 -420 238q-122 193 -122 478q0 318 150 514q152 199 394 199q243 0 393 -199q151 -202 151 -518q0 -345 -180 -550l152 -160l-69 -69zM854 146l-155 165l69 68l156 -165q136 178 136 466q0 265 -115 438q-113 172 -305 172
q-186 0 -303 -167t-117 -436q0 -253 100 -422q57 -97 154 -150q76 -42 166 -42q113 0 214 73z" />
    <glyph glyph-name="R" unicode="R" horiz-adv-x="1165" vert-adv-y="2457" 
d="M158 0v1365h443q108 0 179.5 -20.5t127.5 -67.5q114 -97 114 -273q0 -171 -108 -273q-54 -50 -133 -72q101 -22 148 -81q56 -71 71 -292q9 -148 18.5 -198t34.5 -88h-138q-23 41 -31 88.5t-15 188.5q-7 133 -31 193t-84 95q-80 46 -252 46h-222v-611h-122zM280 714h280
q171 0 242 55q95 76 95 231q0 133 -73 196t-227 63h-317v-545z" />
    <glyph glyph-name="R" unicode="r" horiz-adv-x="1165" vert-adv-y="2457" 
d="M158 0v1365h443q108 0 179.5 -20.5t127.5 -67.5q114 -97 114 -273q0 -171 -108 -273q-54 -50 -133 -72q101 -22 148 -81q56 -71 71 -292q9 -148 18.5 -198t34.5 -88h-138q-23 41 -31 88.5t-15 188.5q-7 133 -31 193t-84 95q-80 46 -252 46h-222v-611h-122zM280 714h280
q171 0 242 55q95 76 95 231q0 133 -73 196t-227 63h-317v-545z" />
    <glyph glyph-name="S" unicode="S" horiz-adv-x="1056" vert-adv-y="2457" 
d="M79 383h117q17 -121 82 -197q95 -111 261 -111q140 0 221 74q88 80 88 210q0 137 -112 211q-56 37 -269 97q-155 43 -227 93q-142 99 -142 279q0 144 98 244q113 114 306 114q248 0 367 -175q51 -75 66 -190h-127q-19 108 -68 164q-82 94 -236 94q-133 0 -209 -73
q-75 -72 -75 -181q0 -105 67.5 -165t238.5 -107q151 -42 204 -62.5t104 -56.5q144 -102 144 -285q0 -166 -113 -276q-122 -117 -322 -117q-242 0 -365 154q-81 102 -99 262z" />
    <glyph glyph-name="S" unicode="s" horiz-adv-x="1056" vert-adv-y="2457" 
d="M79 383h117q17 -121 82 -197q95 -111 261 -111q140 0 221 74q88 80 88 210q0 137 -112 211q-56 37 -269 97q-155 43 -227 93q-142 99 -142 279q0 144 98 244q113 114 306 114q248 0 367 -175q51 -75 66 -190h-127q-19 108 -68 164q-82 94 -236 94q-133 0 -209 -73
q-75 -72 -75 -181q0 -105 67.5 -165t238.5 -107q151 -42 204 -62.5t104 -56.5q144 -102 144 -285q0 -166 -113 -276q-122 -117 -322 -117q-242 0 -365 154q-81 102 -99 262z" />
    <glyph glyph-name="T" unicode="T" horiz-adv-x="1006" vert-adv-y="2457" 
d="M564 0h-122v1259h-397v106h916v-106h-397v-1259z" />
    <glyph glyph-name="T" unicode="t" horiz-adv-x="1006" vert-adv-y="2457" 
d="M564 0h-122v1259h-397v106h916v-106h-397v-1259z" />
    <glyph glyph-name="U" unicode="U" horiz-adv-x="1183" vert-adv-y="2457" 
d="M141 1365h122v-814q0 -133 15.5 -211.5t52.5 -134.5q40 -62 110.5 -97t155.5 -35q89 0 159.5 38.5t107.5 108.5q55 101 55 332v813h122v-814q0 -196 -33 -291q-51 -148 -157 -219q-109 -74 -256 -74q-149 0 -261 74q-104 69 -148.5 188t-44.5 326v810z" />
    <glyph glyph-name="U" unicode="u" horiz-adv-x="1183" vert-adv-y="2457" 
d="M141 1365h122v-814q0 -133 15.5 -211.5t52.5 -134.5q40 -62 110.5 -97t155.5 -35q89 0 159.5 38.5t107.5 108.5q55 101 55 332v813h122v-814q0 -196 -33 -291q-51 -148 -157 -219q-109 -74 -256 -74q-149 0 -261 74q-104 69 -148.5 188t-44.5 326v810z" />
    <glyph glyph-name="V" unicode="V" horiz-adv-x="1048" vert-adv-y="2457" 
d="M595 0h-138l-426 1365h133l364 -1209l363 1209h127z" />
    <glyph glyph-name="V" unicode="v" horiz-adv-x="1048" vert-adv-y="2457" 
d="M595 0h-138l-426 1365h133l364 -1209l363 1209h127z" />
    <glyph glyph-name="W" unicode="W" horiz-adv-x="1524" vert-adv-y="2457" 
d="M349 0l-314 1365h125l259 -1172l276 1172h136l278 -1172l260 1172h120l-315 -1365h-129l-284 1183l-282 -1183h-130z" />
    <glyph glyph-name="W" unicode="w" horiz-adv-x="1524" vert-adv-y="2457" 
d="M349 0l-314 1365h125l259 -1172l276 1172h136l278 -1172l260 1172h120l-315 -1365h-129l-284 1183l-282 -1183h-130z" />
    <glyph glyph-name="X" unicode="X" horiz-adv-x="1026" vert-adv-y="2457" 
d="M31 0l415 702l-390 663h139l319 -564l327 564h132l-391 -663l413 -702h-141l-341 598l-347 -598h-135z" />
    <glyph glyph-name="X" unicode="x" horiz-adv-x="1026" vert-adv-y="2457" 
d="M31 0l415 702l-390 663h139l319 -564l327 564h132l-391 -663l413 -702h-141l-341 598l-347 -598h-135z" />
    <glyph glyph-name="Y" unicode="Y" horiz-adv-x="1038" vert-adv-y="2457" 
d="M458 0v565l-450 800h141l373 -682l372 682h135l-449 -800v-565h-122z" />
    <glyph glyph-name="Y" unicode="y" horiz-adv-x="1038" vert-adv-y="2457" 
d="M458 0v565l-450 800h141l373 -682l372 682h135l-449 -800v-565h-122z" />
    <glyph glyph-name="Z" unicode="Z" horiz-adv-x="1022" vert-adv-y="2457" 
d="M68 0v115l745 1144h-691v106h825v-112l-745 -1147h759v-106h-893z" />
    <glyph glyph-name="Z" unicode="z" horiz-adv-x="1022" vert-adv-y="2457" 
d="M68 0v115l745 1144h-691v106h825v-112l-745 -1147h759v-106h-893z" />
    <glyph glyph-name="bracketleft" unicode="[" horiz-adv-x="526" vert-adv-y="2457" 
d="M415 1505v-94h-163v-1532h163v-94h-266v1720h266z" />
    <glyph glyph-name="backslash" unicode="\" horiz-adv-x="727" vert-adv-y="2457" 
d="M547 0l-464 1365h94l466 -1365h-96z" />
    <glyph glyph-name="bracketright" unicode="]" horiz-adv-x="526" vert-adv-y="2457" 
d="M111 -215v94h164v1532h-164v94h266v-1720h-266z" />
    <glyph glyph-name="asciicircum" unicode="^" horiz-adv-x="1044" vert-adv-y="2457" 
d="M202 779h-119l369 589h140l369 -589h-120l-321 504z" />
    <glyph glyph-name="underscore" unicode="_" horiz-adv-x="1044" vert-adv-y="2457" 
d="M79 -109h887v-105h-887v105z" />
    <glyph glyph-name="grave" unicode="`" horiz-adv-x="1044" vert-adv-y="2457" 
d="M305 1365h118l163 -273h-103z" />
    <glyph glyph-name="braceleft" unicode="{" horiz-adv-x="526" vert-adv-y="2457" 
d="M416 1505v-94h-21q-76 0 -109 -42t-33 -140v-362q0 -93 -25 -142t-89 -82q63 -32 88.5 -83.5t25.5 -145.5v-373q0 -55 8.5 -83t30.5 -49q33 -30 106 -30h18v-94h-29q-129 0 -183 61t-54 207v361q0 87 -26 129t-92 61v85q64 18 91 59.5t27 123.5v364q0 140 55 203
q57 66 183 66h28z" />
    <glyph glyph-name="bar" unicode="|" horiz-adv-x="1044" vert-adv-y="2457" 
d="M462 1393h121v-1431h-121v1431z" />
    <glyph glyph-name="braceright" unicode="}" horiz-adv-x="526" vert-adv-y="2457" 
d="M111 -215v94h18q81 0 113.5 36.5t32.5 125.5v373q0 94 25.5 145.5t88.5 83.5q-64 33 -89 82t-25 142v362q0 104 -37 144q-35 38 -106 38h-21v94h28q126 0 182.5 -64t56.5 -205v-364q0 -82 26.5 -123.5t90.5 -59.5v-85q-65 -18 -91 -60.5t-26 -129.5v-361q0 -142 -52 -204
q-54 -64 -186 -64h-29z" />
    <glyph glyph-name="asciitilde" unicode="~" horiz-adv-x="1386" vert-adv-y="2457" 
d="M273 1203l-69 53q59 114 122.5 165t145.5 51q81 0 239 -82q89 -47 127 -60.5t78 -13.5q57 0 102.5 37.5t94.5 123.5l69 -53q-41 -80 -81 -127q-80 -91 -188 -91q-43 0 -92 17.5t-150 69.5q-83 43 -122.5 56.5t-80.5 13.5q-56 0 -100.5 -36t-94.5 -124z" />
    <glyph glyph-name="exclamdown" unicode="&#xa1;" horiz-adv-x="479" vert-adv-y="2457" 
d="M303 0h-126v423l27 600h72l27 -600v-423zM309 1160h-139v205h139v-205z" />
    <glyph glyph-name="cent" unicode="&#xa2;" horiz-adv-x="892" vert-adv-y="2457" 
d="M816 897h-115q-38 163 -180 194v-803q159 34 190 233h114q-13 -135 -95.5 -224.5t-208.5 -104.5v-151h-100v153q-110 16 -186 87q-145 134 -145 410q0 208 87 338t244 156v139h100v-137q118 -16 194 -90.5t101 -199.5zM421 1088q-65 -17 -111 -63q-108 -109 -108 -334
q0 -165 57 -269.5t162 -131.5v798z" />
    <glyph glyph-name="sterling" unicode="&#xa3;" horiz-adv-x="853" vert-adv-y="2457" 
d="M643 655v-100h-271q4 -34 4 -58q0 -190 -160 -355q73 52 129 52q34 0 59.5 -12t89.5 -58q55 -40 99 -40q95 0 107 151h107q-7 -117 -54 -183q-58 -81 -163 -81q-43 0 -74.5 12t-84.5 49q-71 48 -123 48q-44 0 -88 -20t-117 -74l-52 77q202 184 202 411q0 37 -8 81h-180
v100h148q-15 29 -71 125q-76 132 -76 259q0 163 113 264q98 89 250 89q235 0 324 -182q41 -85 43 -197h-116q-4 138 -68 210t-182 72q-115 0 -177 -68q-66 -74 -66 -180q0 -52 17 -102.5t61 -128.5q64 -114 82 -161h296z" />
    <glyph glyph-name="currency" unicode="&#xa4;" horiz-adv-x="1386" vert-adv-y="2457" 
d="M146 243l185 189q-107 134 -107 294q0 151 107 291l-191 189l66 66l188 -188q141 110 299 110q159 0 296 -110l190 188l65 -66l-189 -187q107 -140 107 -295q0 -154 -106 -292l190 -189l-65 -66l-190 189q-137 -107 -295 -107q-152 0 -297 107l-189 -189zM698 1092
q-155 0 -263 -108q-105 -107 -105 -259q0 -150 106 -257q107 -107 257 -107t257 107q106 107 106 257q0 155 -105 259q-109 108 -253 108z" />
    <glyph glyph-name="yen" unicode="&#xa5;" horiz-adv-x="1038" vert-adv-y="2457" 
d="M579 0h-119v304h-270v104h270v142h-270v104h267l-400 711h137l329 -600l327 600h131l-399 -711h266v-104h-269v-142h269v-104h-269v-304z" />
    <glyph glyph-name="brokenbar" unicode="&#xa6;" horiz-adv-x="1044" vert-adv-y="2457" 
d="M462 1393h121v-560h-121v560zM462 522h121v-560h-121v560z" />
    <glyph glyph-name="section" unicode="&#xa7;" horiz-adv-x="985" vert-adv-y="2457" 
d="M787 1079h-107q-2 44 -12 81q-17 64 -65 100.5t-117 36.5q-78 0 -126 -48t-48 -127q0 -70 34 -115t142 -121q219 -152 283 -212q108 -103 108 -241q0 -98 -48 -175t-134 -119q55 -55 77 -104.5t22 -115.5q0 -127 -83.5 -207.5t-215.5 -80.5q-135 0 -218 82
q-86 86 -95 258h109q12 -239 207 -239q90 0 140 59q45 52 45 123q0 56 -26.5 101t-90.5 98q-42 35 -250 180q-115 81 -163.5 156.5t-48.5 174.5q0 101 49 181t131 111q-83 92 -83 201q0 123 79.5 201t205.5 78q141 0 219 -83t80 -234zM346 856q-133 -81 -133 -223
q0 -84 61 -152q38 -44 210 -167q100 -72 149 -115q65 31 101 87.5t36 128.5q0 89 -65 160t-288 226q-46 32 -71 55z" />
    <glyph glyph-name="dieresis" unicode="&#xa8;" horiz-adv-x="1045" vert-adv-y="2457" 
d="M612 1106v191h115v-191h-115zM318 1106v191h115v-191h-115z" />
    <glyph glyph-name="copyright" unicode="&#xa9;" horiz-adv-x="1454" vert-adv-y="2457" 
d="M940 550h97q-13 -109 -63 -183q-86 -124 -242 -124q-164 0 -261 142q-80 117 -80 294q0 198 95 320q94 122 248 122q117 0 197 -70t98 -187h-97q-46 172 -200 172q-104 0 -169 -88q-75 -103 -75 -267q0 -160 70 -260q65 -93 176 -93q84 0 139 59.5t67 162.5zM737 1313
q-238 0 -402 -180q-76 -84 -120 -198q-48 -123 -48 -255q0 -176 85 -332q85 -154 228 -233q115 -63 246 -63q237 0 401 188q161 185 161 441q0 263 -164 448q-71 80 -160 126q-111 58 -227 58zM738 1397q184 0 343 -115q147 -105 226 -278q69 -153 69 -324q0 -290 -186 -499
q-190 -214 -464 -214q-269 0 -457 209q-86 95 -136 221q-54 138 -54 282q0 208 101 385q93 166 253 255q141 78 305 78z" />
    <glyph glyph-name="ordfeminine" unicode="&#xaa;" horiz-adv-x="559" vert-adv-y="2457" 
d="M533 871v-74q-30 -12 -57 -12q-71 0 -74 97q-70 -108 -181 -108q-75 0 -123 48t-48 122q0 64 36.5 110t101.5 65q60 18 201 22v42q0 125 -113 125q-59 0 -87 -30.5t-35 -102.5h-82q4 101 58 155t152 54q128 0 175 -91q20 -40 20 -153v-210q0 -45 3 -56.5t15 -11.5
q11 0 38 9zM389 1072q-96 -5 -139 -15q-112 -24 -112 -111q0 -42 27.5 -69t69.5 -27q64 0 109 58t45 141v23z" />
    <glyph glyph-name="guillemotleft" unicode="&#xab;" horiz-adv-x="720" vert-adv-y="2457" 
d="M322 321l-222 251v114l222 249v-132l-152 -174l152 -171v-137zM579 322l-221 247v116l221 250v-132l-151 -175l151 -173v-133z" />
    <glyph glyph-name="logicalnot" unicode="&#xac;" horiz-adv-x="1044" vert-adv-y="2457" 
d="M848 0v454h-769v107h887v-561h-118z" />
    <glyph glyph-name="registered" unicode="&#xae;" horiz-adv-x="1454" vert-adv-y="2457" 
d="M737 1312q-238 0 -402 -180q-76 -84 -120 -197q-48 -123 -48 -255q0 -177 85 -332q85 -154 228 -233q115 -63 246 -63q237 0 401 188q161 184 161 440q0 264 -164 448q-71 80 -160 126q-111 58 -227 58zM738 1397q184 0 343 -115q147 -105 226 -278q69 -153 69 -324
q0 -290 -186 -499q-190 -214 -464 -214q-269 0 -457 209q-86 95 -136 221q-54 138 -54 282q0 208 101 385q93 166 253 255q141 78 305 78zM458 266v836h281q129 0 195 -56q73 -62 73 -171q0 -143 -128 -206q59 -18 83 -65.5t31 -158.5q6 -94 12 -122t26 -57h-107
q-16 27 -22 57.5t-9 99.5q-4 86 -17.5 122.5t-49.5 57.5q-46 26 -150 26h-122v-363h-96zM554 711h160q101 0 141 31q55 42 55 129q0 76 -41.5 111t-131.5 35h-183v-306z" />
    <glyph glyph-name="macron" unicode="&#xaf;" horiz-adv-x="1044" vert-adv-y="2457" 
d="M754 1237v-90h-464v90h464z" />
    <glyph glyph-name="macron" unicode="&#x2c9;" horiz-adv-x="1044" vert-adv-y="2457" 
d="M754 1237v-90h-464v90h464z" />
    <glyph glyph-name="degree" unicode="&#xb0;" horiz-adv-x="1044" vert-adv-y="2457" 
d="M522 1365q116 0 199 -80q83 -81 83 -194q0 -114 -82 -195q-83 -81 -199 -81q-118 0 -201 81q-82 81 -82 198q0 112 82 191q85 80 200 80zM522 1286q-81 0 -138 -58q-57 -57 -57 -135q0 -84 57 -141q57 -58 138 -58t138 58q57 57 57 138q0 83 -57 138q-59 58 -138 58z" />
    <glyph glyph-name="plusminus" unicode="&#xb1;" horiz-adv-x="1044" vert-adv-y="2457" 
d="M79 803h387v362h113v-362h387v-105h-387v-361h-113v361h-387v105zM79 245h887v-105h-887v105z" />
    <glyph glyph-name="twosuperior" unicode="&#xb2;" horiz-adv-x="592" vert-adv-y="2457" 
d="M519 629v-83h-460q1 122 44 203.5t143 152.5q98 68 129 104q57 67 57 150q0 67 -38.5 107t-103.5 40t-102 -41t-39 -116h-92q6 72 28 116q60 122 207 122q112 0 177 -75q56 -65 56 -157q0 -111 -81 -193q-36 -37 -156 -122q-124 -87 -128 -208h359z" />
    <glyph glyph-name="threesuperior" unicode="&#xb3;" horiz-adv-x="599" vert-adv-y="2457" 
d="M51 789h86q1 -179 149 -179q70 0 112 46t42 122t-44 121t-119 45q-8 0 -43 -3v81h38q66 0 105.5 39t39.5 105q0 61 -35 97.5t-95 36.5q-135 0 -135 -150h-85q4 99 43 150q60 81 180 81q99 0 160 -59q58 -58 58 -151q0 -126 -106 -182q129 -53 129 -208q0 -114 -66.5 -183
t-176.5 -69q-146 0 -206 109q-31 55 -31 135v16z" />
    <glyph glyph-name="acute" unicode="&#xb4;" horiz-adv-x="1044" vert-adv-y="2457" 
d="M739 1365l-178 -273h-103l163 273h118z" />
    <glyph glyph-name="mu" unicode="&#xb5;" horiz-adv-x="971" vert-adv-y="2457" 
d="M824 942v-942h-106v159q-98 -188 -283 -188q-103 0 -182 63v-389h-112v1297h112v-555q0 -144 26 -213q19 -50 66 -79.5t108 -29.5q73 0 133.5 41.5t89.5 112.5q36 85 36 251v472h112z" />
    <glyph glyph-name="paragraph" unicode="&#xb6;" horiz-adv-x="1018" vert-adv-y="2457" 
d="M392 -38v678h-30q-101 0 -176 54q-64 45 -99 124q-37 82 -37 179q0 101 38.5 184t106.5 128q85 56 231 56h440v-90h-115v-1313h-100v1313h-159v-1313h-100z" />
    <glyph glyph-name="periodcentered" unicode="&#xb7;" horiz-adv-x="418" vert-adv-y="2457" 
d="M276 730v-205h-135v205h135z" />
    <glyph glyph-name="periodcentered" unicode="&#x22c5;" horiz-adv-x="418" vert-adv-y="2457" 
d="M276 730v-205h-135v205h135z" />
    <glyph glyph-name="periodcentered" unicode="&#x387;" horiz-adv-x="418" vert-adv-y="2457" 
d="M276 730v-205h-135v205h135z" />
    <glyph glyph-name="cedilla" unicode="&#xb8;" horiz-adv-x="1044" vert-adv-y="2457" 
d="M471 0h75l-40 -108q20 6 42 6q64 0 105 -38.5t41 -98.5q0 -68 -43 -108.5t-114 -40.5q-59 0 -98.5 28t-45.5 74h86q9 -41 57 -41q72 0 72 82q0 38 -19.5 60t-52.5 22q-43 0 -53 -31h-87z" />
    <glyph glyph-name="onesuperior" unicode="&#xb9;" horiz-adv-x="417" vert-adv-y="2457" 
d="M170 546v633q-25 -21 -47 -27t-79 -8v75q130 -1 144 146h74v-819h-92z" />
    <glyph glyph-name="ordmasculine" unicode="&#xba;" horiz-adv-x="590" vert-adv-y="2457" 
d="M296 1384q120 0 188 -95q59 -82 59 -210q0 -131 -62 -216q-66 -90 -185 -90q-121 0 -186 90q-62 85 -62 220q0 124 58 206q68 95 190 95zM295 1308q-71 0 -115 -62.5t-44 -163.5q0 -108 43 -170.5t117 -62.5q73 0 116 62t43 167q0 106 -46 170q-43 60 -114 60z" />
    <glyph glyph-name="guillemotright" unicode="&#xbb;" horiz-adv-x="720" vert-adv-y="2457" 
d="M397 935l223 -251v-115l-223 -248v132l152 174l-152 171v137zM141 934l221 -248v-115l-221 -250v132l151 175l-151 173v133z" />
    <glyph glyph-name="onequarter" unicode="&#xbc;" horiz-adv-x="1185" vert-adv-y="2457" 
d="M171 546v633q-25 -21 -47 -27t-80 -8v75q131 -1 145 146h74v-819h-92zM301 0h-97l588 1365h94zM964 0v217h-309v75l317 527h72v-529h97v-73h-97v-217h-80zM964 290v371l-231 -371h231z" />
    <glyph glyph-name="onehalf" unicode="&#xbd;" horiz-adv-x="1322" vert-adv-y="2457" 
d="M171 546v633q-25 -21 -47 -27t-80 -8v75q131 -1 145 146h74v-819h-92zM296 0h-97l588 1365h94zM1249 83v-83h-459q0 101 32 179q25 60 65 100.5t160 124.5q54 38 84.5 92t30.5 112q0 67 -38.5 107t-102.5 40q-65 0 -102.5 -41t-39.5 -115h-92q6 72 28 116q60 122 207 122
q113 0 177 -75q56 -65 56 -157q0 -111 -81 -193q-36 -37 -156 -121q-123 -88 -128 -208h359z" />
    <glyph glyph-name="threequarters" unicode="&#xbe;" horiz-adv-x="1390" vert-adv-y="2457" 
d="M506 0h-97l588 1365h94zM1169 0v217h-309v75l317 527h72v-529h97v-73h-97v-217h-80zM1169 290v371l-231 -371h231zM51 789h86q1 -179 149 -179q70 0 112 46t42 122t-44 121t-119 45q-8 0 -43 -3v81h38q66 0 105.5 39t39.5 105q0 61 -35 97.5t-95 36.5q-135 0 -135 -150
h-85q4 99 43 150q60 81 180 81q99 0 160 -59q58 -58 58 -151q0 -126 -106 -182q129 -53 129 -208q0 -114 -66.5 -183t-176.5 -69q-146 0 -206 109q-31 55 -31 135v16z" />
    <glyph glyph-name="questiondown" unicode="&#xbf;" horiz-adv-x="924" vert-adv-y="2457" 
d="M831 344q-5 -146 -65 -234q-98 -143 -294 -143q-181 0 -280 115q-85 98 -85 240q0 94 38.5 177t127.5 181q69 78 88 110t29 88q8 49 8 147h113q-1 -107 -10 -161q-11 -69 -38.5 -117t-107.5 -141q-72 -82 -100.5 -143.5t-28.5 -133.5q0 -115 66 -185.5t174 -70.5
q118 0 182.5 69t71.5 202h111zM387 1160v205h139v-205h-139z" />
    <glyph glyph-name="agrave" unicode="&#xc0;" horiz-adv-x="1107" vert-adv-y="2457" 
d="M490 1365h133l454 -1365h-133l-136 430h-511l-138 -430h-128zM331 535h444l-220 695zM326 1737h126l181 -258h-105z" />
    <glyph glyph-name="agrave" unicode="&#xe0;" horiz-adv-x="1107" vert-adv-y="2457" 
d="M490 1365h133l454 -1365h-133l-136 430h-511l-138 -430h-128zM331 535h444l-220 695zM326 1737h126l181 -258h-105z" />
    <glyph glyph-name="aacute" unicode="&#xc1;" horiz-adv-x="1107" vert-adv-y="2457" 
d="M490 1365h133l454 -1365h-133l-136 430h-511l-138 -430h-128zM331 535h444l-220 695zM782 1737l-202 -258h-105l180 258h127z" />
    <glyph glyph-name="aacute" unicode="&#xe1;" horiz-adv-x="1107" vert-adv-y="2457" 
d="M490 1365h133l454 -1365h-133l-136 430h-511l-138 -430h-128zM331 535h444l-220 695zM782 1737l-202 -258h-105l180 258h127z" />
    <glyph glyph-name="acircumflex" unicode="&#xc2;" horiz-adv-x="1107" vert-adv-y="2457" 
d="M490 1365h133l454 -1365h-133l-136 430h-511l-138 -430h-128zM331 535h444l-220 695zM811 1475h-113l-148 189l-151 -189h-103l200 259h113z" />
    <glyph glyph-name="acircumflex" unicode="&#xe2;" horiz-adv-x="1107" vert-adv-y="2457" 
d="M490 1365h133l454 -1365h-133l-136 430h-511l-138 -430h-128zM331 535h444l-220 695zM811 1475h-113l-148 189l-151 -189h-103l200 259h113z" />
    <glyph glyph-name="atilde" unicode="&#xc3;" horiz-adv-x="1107" vert-adv-y="2457" 
d="M490 1365h133l454 -1365h-133l-136 430h-511l-138 -430h-128zM331 535h444l-220 695zM825 1703q-14 -93 -55.5 -143t-103.5 -50q-53 0 -130 55q-58 42 -92 42q-63 0 -82 -98h-80q13 90 55.5 141.5t103.5 51.5q59 0 127 -50q64 -47 92 -47q62 0 83 98h82z" />
    <glyph glyph-name="atilde" unicode="&#xe3;" horiz-adv-x="1107" vert-adv-y="2457" 
d="M490 1365h133l454 -1365h-133l-136 430h-511l-138 -430h-128zM331 535h444l-220 695zM825 1703q-14 -93 -55.5 -143t-103.5 -50q-53 0 -130 55q-58 42 -92 42q-63 0 -82 -98h-80q13 90 55.5 141.5t103.5 51.5q59 0 127 -50q64 -47 92 -47q62 0 83 98h82z" />
    <glyph glyph-name="Adieresis" unicode="&#xc4;" horiz-adv-x="1107" vert-adv-y="2457" 
d="M490 1365h133l454 -1365h-133l-136 430h-511l-138 -430h-128zM331 535h444l-220 695zM653 1488v191h119v-191h-119zM335 1488v191h119v-191h-119z" />
    <glyph glyph-name="Adieresis" unicode="&#xe4;" horiz-adv-x="1107" vert-adv-y="2457" 
d="M490 1365h133l454 -1365h-133l-136 430h-511l-138 -430h-128zM331 535h444l-220 695zM653 1488v191h119v-191h-119zM335 1488v191h119v-191h-119z" />
    <glyph glyph-name="Aring" unicode="&#xc5;" horiz-adv-x="1107" vert-adv-y="2457" 
d="M490 1365h133l454 -1365h-133l-136 430h-511l-138 -430h-128zM331 535h444l-220 695zM556 1727q-45 0 -76 -31.5t-31 -77.5q0 -45 30.5 -77t74.5 -32t74.5 31.5t30.5 77.5q0 45 -30.5 77t-72.5 32zM556 1803q76 0 130.5 -54.5t54.5 -130.5q0 -77 -55 -130.5t-133 -53.5
t-132 54q-55 54 -55 130q0 77 55.5 131t134.5 54z" />
    <glyph glyph-name="Aring" unicode="&#xe5;" horiz-adv-x="1107" vert-adv-y="2457" 
d="M490 1365h133l454 -1365h-133l-136 430h-511l-138 -430h-128zM331 535h444l-220 695zM556 1727q-45 0 -76 -31.5t-31 -77.5q0 -45 30.5 -77t74.5 -32t74.5 31.5t30.5 77.5q0 45 -30.5 77t-72.5 32zM556 1803q76 0 130.5 -54.5t54.5 -130.5q0 -77 -55 -130.5t-133 -53.5
t-132 54q-55 54 -55 130q0 77 55.5 131t134.5 54z" />
    <glyph glyph-name="AE" unicode="&#xc6;" horiz-adv-x="1515" vert-adv-y="2457" 
d="M1429 106v-106h-712v430h-407l-182 -430h-132l594 1365h832v-106h-583v-499h540v-106h-540v-548h590zM717 535v724h-57l-306 -724h363z" />
    <glyph glyph-name="AE" unicode="&#xe6;" horiz-adv-x="1515" vert-adv-y="2457" 
d="M1429 106v-106h-712v430h-407l-182 -430h-132l594 1365h832v-106h-583v-499h540v-106h-540v-548h590zM717 535v724h-57l-306 -724h363z" />
    <glyph glyph-name="Ccedilla" unicode="&#xc7;" horiz-adv-x="1202" vert-adv-y="2457" 
d="M995 451h124q-19 -165 -99 -284q-65 -97 -163 -148.5t-215 -51.5q-7 0 -27 1l-32 -76q21 8 43 8q69 0 112 -38.5t43 -100.5q0 -69 -44.5 -110t-118.5 -41q-63 0 -105 28.5t-48 75.5h92q9 -41 57 -41q72 0 72 82q0 37 -20 59.5t-52 22.5q-40 0 -54 -31h-87l66 171
q-130 28 -226 115q-217 200 -217 585q0 324 151 523q150 197 395 197q180 0 307.5 -110.5t155.5 -289.5h-124q-34 119 -88 180q-101 113 -255 113q-180 0 -291 -153q-127 -177 -127 -456q0 -273 118 -445q52 -76 130 -119q79 -44 173 -44q167 0 271 145q66 93 83 233z" />
    <glyph glyph-name="Ccedilla" unicode="&#xe7;" horiz-adv-x="1202" vert-adv-y="2457" 
d="M995 451h124q-19 -165 -99 -284q-65 -97 -163 -148.5t-215 -51.5q-7 0 -27 1l-32 -76q21 8 43 8q69 0 112 -38.5t43 -100.5q0 -69 -44.5 -110t-118.5 -41q-63 0 -105 28.5t-48 75.5h92q9 -41 57 -41q72 0 72 82q0 37 -20 59.5t-52 22.5q-40 0 -54 -31h-87l66 171
q-130 28 -226 115q-217 200 -217 585q0 324 151 523q150 197 395 197q180 0 307.5 -110.5t155.5 -289.5h-124q-34 119 -88 180q-101 113 -255 113q-180 0 -291 -153q-127 -177 -127 -456q0 -273 118 -445q52 -76 130 -119q79 -44 173 -44q167 0 271 145q66 93 83 233z" />
    <glyph glyph-name="egrave" unicode="&#xc8;" horiz-adv-x="1038" vert-adv-y="2457" 
d="M158 0v1365h787v-106h-665v-499h622v-106h-622v-548h672v-106h-794zM326 1737h126l181 -258h-105z" />
    <glyph glyph-name="egrave" unicode="&#xe8;" horiz-adv-x="1038" vert-adv-y="2457" 
d="M158 0v1365h787v-106h-665v-499h622v-106h-622v-548h672v-106h-794zM326 1737h126l181 -258h-105z" />
    <glyph glyph-name="Eacute" unicode="&#xc9;" horiz-adv-x="1038" vert-adv-y="2457" 
d="M158 0v1365h787v-106h-665v-499h622v-106h-622v-548h672v-106h-794zM748 1737l-202 -258h-105l180 258h127z" />
    <glyph glyph-name="Eacute" unicode="&#xe9;" horiz-adv-x="1038" vert-adv-y="2457" 
d="M158 0v1365h787v-106h-665v-499h622v-106h-622v-548h672v-106h-794zM748 1737l-202 -258h-105l180 258h127z" />
    <glyph glyph-name="ecircumflex" unicode="&#xca;" horiz-adv-x="1038" vert-adv-y="2457" 
d="M158 0v1365h787v-106h-665v-499h622v-106h-622v-548h672v-106h-794zM811 1475h-113l-148 189l-151 -189h-103l200 259h113z" />
    <glyph glyph-name="ecircumflex" unicode="&#xea;" horiz-adv-x="1038" vert-adv-y="2457" 
d="M158 0v1365h787v-106h-665v-499h622v-106h-622v-548h672v-106h-794zM811 1475h-113l-148 189l-151 -189h-103l200 259h113z" />
    <glyph glyph-name="edieresis" unicode="&#xcb;" horiz-adv-x="1038" vert-adv-y="2457" 
d="M158 0v1365h787v-106h-665v-499h622v-106h-622v-548h672v-106h-794zM653 1488v191h119v-191h-119zM335 1488v191h119v-191h-119z" />
    <glyph glyph-name="edieresis" unicode="&#xeb;" horiz-adv-x="1038" vert-adv-y="2457" 
d="M158 0v1365h787v-106h-665v-499h622v-106h-622v-548h672v-106h-794zM653 1488v191h119v-191h-119zM335 1488v191h119v-191h-119z" />
    <glyph glyph-name="igrave" unicode="&#xcc;" horiz-adv-x="438" vert-adv-y="2457" 
d="M158 0v1365h122v-1365h-122zM-4 1737h126l181 -258h-105z" />
    <glyph glyph-name="igrave" unicode="&#xec;" horiz-adv-x="438" vert-adv-y="2457" 
d="M158 0v1365h122v-1365h-122zM-4 1737h126l181 -258h-105z" />
    <glyph glyph-name="iacute" unicode="&#xcd;" horiz-adv-x="438" vert-adv-y="2457" 
d="M158 0v1365h122v-1365h-122zM452 1737l-202 -258h-105l180 258h127z" />
    <glyph glyph-name="iacute" unicode="&#xed;" horiz-adv-x="438" vert-adv-y="2457" 
d="M158 0v1365h122v-1365h-122zM452 1737l-202 -258h-105l180 258h127z" />
    <glyph glyph-name="icircumflex" unicode="&#xce;" horiz-adv-x="438" vert-adv-y="2457" 
d="M158 0v1365h122v-1365h-122zM479 1475h-113l-148 189l-151 -189h-103l200 259h113z" />
    <glyph glyph-name="icircumflex" unicode="&#xee;" horiz-adv-x="438" vert-adv-y="2457" 
d="M158 0v1365h122v-1365h-122zM479 1475h-113l-148 189l-151 -189h-103l200 259h113z" />
    <glyph glyph-name="idieresis" unicode="&#xcf;" horiz-adv-x="438" vert-adv-y="2457" 
d="M158 0v1365h122v-1365h-122zM282 1488v191h119v-191h-119zM39 1488v191h119v-191h-119z" />
    <glyph glyph-name="idieresis" unicode="&#xef;" horiz-adv-x="438" vert-adv-y="2457" 
d="M158 0v1365h122v-1365h-122zM282 1488v191h119v-191h-119zM39 1488v191h119v-191h-119z" />
    <glyph glyph-name="Eth" unicode="&#xd0;" horiz-adv-x="1191" vert-adv-y="2457" 
d="M10 654v106h147v605h344q166 0 272 -47q154 -68 240 -230q82 -154 82 -392q0 -364 -183 -548q-146 -148 -403 -148h-352v654h-147zM279 106h231q247 0 353 151q108 155 108 437q0 327 -158 467q-109 98 -293 98h-241v-499h323v-106h-323v-548z" />
    <glyph glyph-name="Eth" unicode="&#x111;" horiz-adv-x="1191" vert-adv-y="2457" 
d="M10 654v106h147v605h344q166 0 272 -47q154 -68 240 -230q82 -154 82 -392q0 -364 -183 -548q-146 -148 -403 -148h-352v654h-147zM279 106h231q247 0 353 151q108 155 108 437q0 327 -158 467q-109 98 -293 98h-241v-499h323v-106h-323v-548z" />
    <glyph glyph-name="Eth" unicode="&#x110;" horiz-adv-x="1191" vert-adv-y="2457" 
d="M10 654v106h147v605h344q166 0 272 -47q154 -68 240 -230q82 -154 82 -392q0 -364 -183 -548q-146 -148 -403 -148h-352v654h-147zM279 106h231q247 0 353 151q108 155 108 437q0 327 -158 467q-109 98 -293 98h-241v-499h323v-106h-323v-548z" />
    <glyph glyph-name="Eth" unicode="&#xf0;" horiz-adv-x="1191" vert-adv-y="2457" 
d="M10 654v106h147v605h344q166 0 272 -47q154 -68 240 -230q82 -154 82 -392q0 -364 -183 -548q-146 -148 -403 -148h-352v654h-147zM279 106h231q247 0 353 151q108 155 108 437q0 327 -158 467q-109 98 -293 98h-241v-499h323v-106h-323v-548z" />
    <glyph glyph-name="Ntilde" unicode="&#xd1;" horiz-adv-x="1225" vert-adv-y="2457" 
d="M158 0v1365h131l663 -1169v1169h116v-1365h-132l-662 1163v-1163h-116zM884 1703q-14 -93 -55.5 -143t-103.5 -50q-53 0 -130 55q-58 42 -92 42q-63 0 -82 -98h-80q13 90 55.5 141.5t103.5 51.5q59 0 127 -50q64 -47 92 -47q62 0 83 98h82z" />
    <glyph glyph-name="Ntilde" unicode="&#xf1;" horiz-adv-x="1225" vert-adv-y="2457" 
d="M158 0v1365h131l663 -1169v1169h116v-1365h-132l-662 1163v-1163h-116zM884 1703q-14 -93 -55.5 -143t-103.5 -50q-53 0 -130 55q-58 42 -92 42q-63 0 -82 -98h-80q13 90 55.5 141.5t103.5 51.5q59 0 127 -50q64 -47 92 -47q62 0 83 98h82z" />
    <glyph glyph-name="ograve" unicode="&#xd2;" horiz-adv-x="1280" vert-adv-y="2457" 
d="M640 1396q243 0 393 -199q151 -201 151 -518q0 -281 -122 -474q-74 -118 -188 -180q-106 -58 -234 -58q-272 0 -422 238q-122 193 -122 488q0 312 150 504q155 199 394 199zM640 1290q-186 0 -303 -167q-117 -166 -117 -427q0 -262 100 -431q57 -97 154 -150
q76 -42 167 -42q124 0 224 80q106 86 158 255q37 121 37 272q0 269 -115 438q-116 172 -305 172zM411 1737h126l181 -258h-105z" />
    <glyph glyph-name="ograve" unicode="&#xf2;" horiz-adv-x="1280" vert-adv-y="2457" 
d="M640 1396q243 0 393 -199q151 -201 151 -518q0 -281 -122 -474q-74 -118 -188 -180q-106 -58 -234 -58q-272 0 -422 238q-122 193 -122 488q0 312 150 504q155 199 394 199zM640 1290q-186 0 -303 -167q-117 -166 -117 -427q0 -262 100 -431q57 -97 154 -150
q76 -42 167 -42q124 0 224 80q106 86 158 255q37 121 37 272q0 269 -115 438q-116 172 -305 172zM411 1737h126l181 -258h-105z" />
    <glyph glyph-name="oacute" unicode="&#xd3;" horiz-adv-x="1280" vert-adv-y="2457" 
d="M640 1396q243 0 393 -199q151 -201 151 -518q0 -281 -122 -474q-74 -118 -188 -180q-106 -58 -234 -58q-272 0 -422 238q-122 193 -122 488q0 312 150 504q155 199 394 199zM640 1290q-186 0 -303 -167q-117 -166 -117 -427q0 -262 100 -431q57 -97 154 -150
q76 -42 167 -42q124 0 224 80q106 86 158 255q37 121 37 272q0 269 -115 438q-116 172 -305 172zM852 1737l-202 -258h-105l180 258h127z" />
    <glyph glyph-name="oacute" unicode="&#xf3;" horiz-adv-x="1280" vert-adv-y="2457" 
d="M640 1396q243 0 393 -199q151 -201 151 -518q0 -281 -122 -474q-74 -118 -188 -180q-106 -58 -234 -58q-272 0 -422 238q-122 193 -122 488q0 312 150 504q155 199 394 199zM640 1290q-186 0 -303 -167q-117 -166 -117 -427q0 -262 100 -431q57 -97 154 -150
q76 -42 167 -42q124 0 224 80q106 86 158 255q37 121 37 272q0 269 -115 438q-116 172 -305 172zM852 1737l-202 -258h-105l180 258h127z" />
    <glyph glyph-name="ocircumflex" unicode="&#xd4;" horiz-adv-x="1280" vert-adv-y="2457" 
d="M640 1396q243 0 393 -199q151 -201 151 -518q0 -281 -122 -474q-74 -118 -188 -180q-106 -58 -234 -58q-272 0 -422 238q-122 193 -122 488q0 312 150 504q155 199 394 199zM640 1290q-186 0 -303 -167q-117 -166 -117 -427q0 -262 100 -431q57 -97 154 -150
q76 -42 167 -42q124 0 224 80q106 86 158 255q37 121 37 272q0 269 -115 438q-116 172 -305 172zM901 1475h-113l-148 189l-151 -189h-103l200 259h113z" />
    <glyph glyph-name="ocircumflex" unicode="&#xf4;" horiz-adv-x="1280" vert-adv-y="2457" 
d="M640 1396q243 0 393 -199q151 -201 151 -518q0 -281 -122 -474q-74 -118 -188 -180q-106 -58 -234 -58q-272 0 -422 238q-122 193 -122 488q0 312 150 504q155 199 394 199zM640 1290q-186 0 -303 -167q-117 -166 -117 -427q0 -262 100 -431q57 -97 154 -150
q76 -42 167 -42q124 0 224 80q106 86 158 255q37 121 37 272q0 269 -115 438q-116 172 -305 172zM901 1475h-113l-148 189l-151 -189h-103l200 259h113z" />
    <glyph glyph-name="otilde" unicode="&#xd5;" horiz-adv-x="1280" vert-adv-y="2457" 
d="M640 1396q243 0 393 -199q151 -201 151 -518q0 -281 -122 -474q-74 -118 -188 -180q-106 -58 -234 -58q-272 0 -422 238q-122 193 -122 488q0 312 150 504q155 199 394 199zM640 1290q-186 0 -303 -167q-117 -166 -117 -427q0 -262 100 -431q57 -97 154 -150
q76 -42 167 -42q124 0 224 80q106 86 158 255q37 121 37 272q0 269 -115 438q-116 172 -305 172zM915 1703q-14 -93 -55.5 -143t-103.5 -50q-53 0 -130 55q-58 42 -92 42q-63 0 -82 -98h-80q13 90 55.5 141.5t103.5 51.5q59 0 127 -50q64 -47 92 -47q62 0 83 98h82z" />
    <glyph glyph-name="otilde" unicode="&#xf5;" horiz-adv-x="1280" vert-adv-y="2457" 
d="M640 1396q243 0 393 -199q151 -201 151 -518q0 -281 -122 -474q-74 -118 -188 -180q-106 -58 -234 -58q-272 0 -422 238q-122 193 -122 488q0 312 150 504q155 199 394 199zM640 1290q-186 0 -303 -167q-117 -166 -117 -427q0 -262 100 -431q57 -97 154 -150
q76 -42 167 -42q124 0 224 80q106 86 158 255q37 121 37 272q0 269 -115 438q-116 172 -305 172zM915 1703q-14 -93 -55.5 -143t-103.5 -50q-53 0 -130 55q-58 42 -92 42q-63 0 -82 -98h-80q13 90 55.5 141.5t103.5 51.5q59 0 127 -50q64 -47 92 -47q62 0 83 98h82z" />
    <glyph glyph-name="Odieresis" unicode="&#xd6;" horiz-adv-x="1280" vert-adv-y="2457" 
d="M640 1396q243 0 393 -199q151 -201 151 -518q0 -281 -122 -474q-74 -118 -188 -180q-106 -58 -234 -58q-272 0 -422 238q-122 193 -122 488q0 312 150 504q155 199 394 199zM640 1290q-186 0 -303 -167q-117 -166 -117 -427q0 -262 100 -431q57 -97 154 -150
q76 -42 167 -42q124 0 224 80q106 86 158 255q37 121 37 272q0 269 -115 438q-116 172 -305 172zM736 1488v191h119v-191h-119zM418 1488v191h119v-191h-119z" />
    <glyph glyph-name="Odieresis" unicode="&#xf6;" horiz-adv-x="1280" vert-adv-y="2457" 
d="M640 1396q243 0 393 -199q151 -201 151 -518q0 -281 -122 -474q-74 -118 -188 -180q-106 -58 -234 -58q-272 0 -422 238q-122 193 -122 488q0 312 150 504q155 199 394 199zM640 1290q-186 0 -303 -167q-117 -166 -117 -427q0 -262 100 -431q57 -97 154 -150
q76 -42 167 -42q124 0 224 80q106 86 158 255q37 121 37 272q0 269 -115 438q-116 172 -305 172zM736 1488v191h119v-191h-119zM418 1488v191h119v-191h-119z" />
    <glyph glyph-name="multiply" unicode="&#xd7;" horiz-adv-x="1045" vert-adv-y="2457" 
d="M171 966l74 74l277 -276l277 276l74 -74l-277 -277l277 -276l-74 -74l-277 276l-277 -276l-74 74l277 276z" />
    <glyph glyph-name="Oslash" unicode="&#xd8;" horiz-adv-x="1280" vert-adv-y="2457" 
d="M266 -33h-110l106 177q-166 204 -166 538q0 320 150 516q152 199 393 199q173 0 310 -112l68 112h107l-107 -180q167 -209 167 -537q0 -282 -122 -475q-74 -117 -188 -180q-106 -58 -234 -58q-177 0 -309 108zM881 1194q-106 96 -242 96q-185 0 -302 -167t-117 -436
q0 -268 115 -444zM400 168q109 -94 241 -94q124 0 224 80q107 86 158 254q37 121 37 273q0 262 -116 438z" />
    <glyph glyph-name="Oslash" unicode="&#xf8;" horiz-adv-x="1280" vert-adv-y="2457" 
d="M266 -33h-110l106 177q-166 204 -166 538q0 320 150 516q152 199 393 199q173 0 310 -112l68 112h107l-107 -180q167 -209 167 -537q0 -282 -122 -475q-74 -117 -188 -180q-106 -58 -234 -58q-177 0 -309 108zM881 1194q-106 96 -242 96q-185 0 -302 -167t-117 -436
q0 -268 115 -444zM400 168q109 -94 241 -94q124 0 224 80q107 86 158 254q37 121 37 273q0 262 -116 438z" />
    <glyph glyph-name="ugrave" unicode="&#xd9;" horiz-adv-x="1183" vert-adv-y="2457" 
d="M141 1365h122v-814q0 -133 15.5 -211.5t52.5 -134.5q40 -62 110.5 -97t155.5 -35q89 0 159.5 38.5t107.5 108.5q55 101 55 332v813h122v-814q0 -196 -33 -291q-51 -148 -157 -219q-109 -74 -256 -74q-149 0 -261 74q-104 69 -148.5 188t-44.5 326v810zM376 1737h126
l181 -258h-105z" />
    <glyph glyph-name="ugrave" unicode="&#xf9;" horiz-adv-x="1183" vert-adv-y="2457" 
d="M141 1365h122v-814q0 -133 15.5 -211.5t52.5 -134.5q40 -62 110.5 -97t155.5 -35q89 0 159.5 38.5t107.5 108.5q55 101 55 332v813h122v-814q0 -196 -33 -291q-51 -148 -157 -219q-109 -74 -256 -74q-149 0 -261 74q-104 69 -148.5 188t-44.5 326v810zM376 1737h126
l181 -258h-105z" />
    <glyph glyph-name="uacute" unicode="&#xda;" horiz-adv-x="1183" vert-adv-y="2457" 
d="M141 1365h122v-814q0 -133 15.5 -211.5t52.5 -134.5q40 -62 110.5 -97t155.5 -35q89 0 159.5 38.5t107.5 108.5q55 101 55 332v813h122v-814q0 -196 -33 -291q-51 -148 -157 -219q-109 -74 -256 -74q-149 0 -261 74q-104 69 -148.5 188t-44.5 326v810zM802 1737
l-202 -258h-105l180 258h127z" />
    <glyph glyph-name="uacute" unicode="&#xfa;" horiz-adv-x="1183" vert-adv-y="2457" 
d="M141 1365h122v-814q0 -133 15.5 -211.5t52.5 -134.5q40 -62 110.5 -97t155.5 -35q89 0 159.5 38.5t107.5 108.5q55 101 55 332v813h122v-814q0 -196 -33 -291q-51 -148 -157 -219q-109 -74 -256 -74q-149 0 -261 74q-104 69 -148.5 188t-44.5 326v810zM802 1737
l-202 -258h-105l180 258h127z" />
    <glyph glyph-name="ucircumflex" unicode="&#xdb;" horiz-adv-x="1183" vert-adv-y="2457" 
d="M141 1365h122v-814q0 -133 15.5 -211.5t52.5 -134.5q40 -62 110.5 -97t155.5 -35q89 0 159.5 38.5t107.5 108.5q55 101 55 332v813h122v-814q0 -196 -33 -291q-51 -148 -157 -219q-109 -74 -256 -74q-149 0 -261 74q-104 69 -148.5 188t-44.5 326v810zM847 1475h-113
l-148 189l-151 -189h-103l200 259h113z" />
    <glyph glyph-name="ucircumflex" unicode="&#xfb;" horiz-adv-x="1183" vert-adv-y="2457" 
d="M141 1365h122v-814q0 -133 15.5 -211.5t52.5 -134.5q40 -62 110.5 -97t155.5 -35q89 0 159.5 38.5t107.5 108.5q55 101 55 332v813h122v-814q0 -196 -33 -291q-51 -148 -157 -219q-109 -74 -256 -74q-149 0 -261 74q-104 69 -148.5 188t-44.5 326v810zM847 1475h-113
l-148 189l-151 -189h-103l200 259h113z" />
    <glyph glyph-name="Udieresis" unicode="&#xdc;" horiz-adv-x="1183" vert-adv-y="2457" 
d="M141 1365h122v-814q0 -133 15.5 -211.5t52.5 -134.5q40 -62 110.5 -97t155.5 -35q89 0 159.5 38.5t107.5 108.5q55 101 55 332v813h122v-814q0 -196 -33 -291q-51 -148 -157 -219q-109 -74 -256 -74q-149 0 -261 74q-104 69 -148.5 188t-44.5 326v810zM691 1488v191h119
v-191h-119zM373 1488v191h119v-191h-119z" />
    <glyph glyph-name="Udieresis" unicode="&#xfc;" horiz-adv-x="1183" vert-adv-y="2457" 
d="M141 1365h122v-814q0 -133 15.5 -211.5t52.5 -134.5q40 -62 110.5 -97t155.5 -35q89 0 159.5 38.5t107.5 108.5q55 101 55 332v813h122v-814q0 -196 -33 -291q-51 -148 -157 -219q-109 -74 -256 -74q-149 0 -261 74q-104 69 -148.5 188t-44.5 326v810zM691 1488v191h119
v-191h-119zM373 1488v191h119v-191h-119z" />
    <glyph glyph-name="Yacute" unicode="&#xdd;" horiz-adv-x="1038" vert-adv-y="2457" 
d="M458 0v565l-450 800h141l373 -682l372 682h135l-449 -800v-565h-122zM746 1737l-202 -258h-105l180 258h127z" />
    <glyph glyph-name="Yacute" unicode="&#xfd;" horiz-adv-x="1038" vert-adv-y="2457" 
d="M458 0v565l-450 800h141l373 -682l372 682h135l-449 -800v-565h-122zM746 1737l-202 -258h-105l180 258h127z" />
    <glyph glyph-name="Thorn" unicode="&#xde;" horiz-adv-x="1032" vert-adv-y="2457" 
d="M158 0v1365h122v-273h185q128 0 206.5 -20t136.5 -68q128 -106 128 -299q0 -216 -161 -322q-113 -74 -324 -74h-171v-309h-122zM280 415h181q179 0 257 64q93 75 93 223q0 164 -116 238q-41 27 -92 36.5t-148 9.5h-175v-571z" />
    <glyph glyph-name="Thorn" unicode="&#xfe;" horiz-adv-x="1032" vert-adv-y="2457" 
d="M158 0v1365h122v-273h185q128 0 206.5 -20t136.5 -68q128 -106 128 -299q0 -216 -161 -322q-113 -74 -324 -74h-171v-309h-122zM280 415h181q179 0 257 64q93 75 93 223q0 164 -116 238q-41 27 -92 36.5t-148 9.5h-175v-571z" />
    <glyph glyph-name="divide" unicode="&#xf7;" horiz-adv-x="1044" vert-adv-y="2457" 
d="M79 742h887v-105h-887v105zM582 1090v-174h-118v174h118zM582 462v-174h-118v174h118z" />
    <glyph glyph-name="ydieresis" unicode="&#xff;" horiz-adv-x="1038" vert-adv-y="2457" 
d="M458 0v565l-450 800h141l373 -682l372 682h135l-449 -800v-565h-122zM616 1488v191h119v-191h-119zM298 1488v191h119v-191h-119z" />
    <glyph glyph-name="ydieresis" unicode="&#x178;" horiz-adv-x="1038" vert-adv-y="2457" 
d="M458 0v565l-450 800h141l373 -682l372 682h135l-449 -800v-565h-122zM616 1488v191h119v-191h-119zM298 1488v191h119v-191h-119z" />
    <glyph glyph-name="Amacron" unicode="&#x100;" horiz-adv-x="1107" vert-adv-y="2457" 
d="M490 1365h133l454 -1365h-133l-136 430h-511l-138 -430h-128zM331 535h444l-220 695zM822 1588v-86h-535v86h535z" />
    <glyph glyph-name="Amacron" unicode="&#x101;" horiz-adv-x="1107" vert-adv-y="2457" 
d="M490 1365h133l454 -1365h-133l-136 430h-511l-138 -430h-128zM331 535h444l-220 695zM822 1588v-86h-535v86h535z" />
    <glyph glyph-name="Abreve" unicode="&#x102;" horiz-adv-x="1107" vert-adv-y="2457" 
d="M490 1365h133l454 -1365h-133l-136 430h-511l-138 -430h-128zM331 535h444l-220 695zM793 1734q-33 -259 -239 -259q-207 0 -239 259h83q15 -86 52 -125.5t104 -39.5t104 39.5t52 125.5h83z" />
    <glyph glyph-name="Abreve" unicode="&#x103;" horiz-adv-x="1107" vert-adv-y="2457" 
d="M490 1365h133l454 -1365h-133l-136 430h-511l-138 -430h-128zM331 535h444l-220 695zM793 1734q-33 -259 -239 -259q-207 0 -239 259h83q15 -86 52 -125.5t104 -39.5t104 39.5t52 125.5h83z" />
    <glyph glyph-name="Aogonek" unicode="&#x104;" horiz-adv-x="1107" vert-adv-y="2457" 
d="M1074 0l-6 -4q-101 -77 -101 -170q0 -45 30.5 -73t80.5 -28q26 0 74 18v-72q-58 -22 -107 -22q-79 0 -127 41.5t-48 109.5q0 112 125 200h-51l-136 430h-511l-138 -430h-128l459 1365h133l454 -1365h-3zM331 535h444l-220 695z" />
    <glyph glyph-name="Aogonek" unicode="&#x105;" horiz-adv-x="1107" vert-adv-y="2457" 
d="M1074 0l-6 -4q-101 -77 -101 -170q0 -45 30.5 -73t80.5 -28q26 0 74 18v-72q-58 -22 -107 -22q-79 0 -127 41.5t-48 109.5q0 112 125 200h-51l-136 430h-511l-138 -430h-128l459 1365h133l454 -1365h-3zM331 535h444l-220 695z" />
    <glyph glyph-name="Cacute" unicode="&#x106;" horiz-adv-x="1202" vert-adv-y="2457" 
d="M995 451h124q-19 -165 -99 -284q-135 -200 -381 -200q-261 0 -416 230q-127 189 -127 480q0 324 151 523q150 197 395 197q180 0 307.5 -110.5t155.5 -289.5h-124q-34 119 -88 180q-101 113 -255 113q-180 0 -291 -153q-127 -177 -127 -456q0 -273 118 -445
q52 -76 130 -119q79 -44 173 -44q167 0 271 145q66 93 83 233zM829 1737l-202 -258h-105l180 258h127z" />
    <glyph glyph-name="Cacute" unicode="&#x107;" horiz-adv-x="1202" vert-adv-y="2457" 
d="M995 451h124q-19 -165 -99 -284q-135 -200 -381 -200q-261 0 -416 230q-127 189 -127 480q0 324 151 523q150 197 395 197q180 0 307.5 -110.5t155.5 -289.5h-124q-34 119 -88 180q-101 113 -255 113q-180 0 -291 -153q-127 -177 -127 -456q0 -273 118 -445
q52 -76 130 -119q79 -44 173 -44q167 0 271 145q66 93 83 233zM829 1737l-202 -258h-105l180 258h127z" />
    <glyph glyph-name="Ccircumflex" unicode="&#x108;" horiz-adv-x="1202" vert-adv-y="2457" 
d="M995 451h124q-19 -165 -99 -284q-135 -200 -381 -200q-261 0 -416 230q-127 189 -127 480q0 324 151 523q150 197 395 197q180 0 307.5 -110.5t155.5 -289.5h-124q-34 119 -88 180q-101 113 -255 113q-180 0 -291 -153q-127 -177 -127 -456q0 -273 118 -445
q52 -76 130 -119q79 -44 173 -44q167 0 271 145q66 93 83 233zM888 1475h-113l-148 189l-151 -189h-103l200 259h113z" />
    <glyph glyph-name="Ccircumflex" unicode="&#x109;" horiz-adv-x="1202" vert-adv-y="2457" 
d="M995 451h124q-19 -165 -99 -284q-135 -200 -381 -200q-261 0 -416 230q-127 189 -127 480q0 324 151 523q150 197 395 197q180 0 307.5 -110.5t155.5 -289.5h-124q-34 119 -88 180q-101 113 -255 113q-180 0 -291 -153q-127 -177 -127 -456q0 -273 118 -445
q52 -76 130 -119q79 -44 173 -44q167 0 271 145q66 93 83 233zM888 1475h-113l-148 189l-151 -189h-103l200 259h113z" />
    <glyph glyph-name="Cdotaccent" unicode="&#x10a;" horiz-adv-x="1202" vert-adv-y="2457" 
d="M995 451h124q-19 -165 -99 -284q-135 -200 -381 -200q-261 0 -416 230q-127 189 -127 480q0 324 151 523q150 197 395 197q180 0 307.5 -110.5t155.5 -289.5h-124q-34 119 -88 180q-101 113 -255 113q-180 0 -291 -153q-127 -177 -127 -456q0 -273 118 -445
q52 -76 130 -119q79 -44 173 -44q167 0 271 145q66 93 83 233zM562 1488v191h119v-191h-119z" />
    <glyph glyph-name="Cdotaccent" unicode="&#x10b;" horiz-adv-x="1202" vert-adv-y="2457" 
d="M995 451h124q-19 -165 -99 -284q-135 -200 -381 -200q-261 0 -416 230q-127 189 -127 480q0 324 151 523q150 197 395 197q180 0 307.5 -110.5t155.5 -289.5h-124q-34 119 -88 180q-101 113 -255 113q-180 0 -291 -153q-127 -177 -127 -456q0 -273 118 -445
q52 -76 130 -119q79 -44 173 -44q167 0 271 145q66 93 83 233zM562 1488v191h119v-191h-119z" />
    <glyph glyph-name="Ccaron" unicode="&#x10c;" horiz-adv-x="1202" vert-adv-y="2457" 
d="M995 451h124q-19 -165 -99 -284q-135 -200 -381 -200q-261 0 -416 230q-127 189 -127 480q0 324 151 523q150 197 395 197q180 0 307.5 -110.5t155.5 -289.5h-124q-34 119 -88 180q-101 113 -255 113q-180 0 -291 -153q-127 -177 -127 -456q0 -273 118 -445
q52 -76 130 -119q79 -44 173 -44q167 0 271 145q66 93 83 233zM360 1734h114l147 -190l151 190h103l-200 -259h-113z" />
    <glyph glyph-name="Ccaron" unicode="&#x10d;" horiz-adv-x="1202" vert-adv-y="2457" 
d="M995 451h124q-19 -165 -99 -284q-135 -200 -381 -200q-261 0 -416 230q-127 189 -127 480q0 324 151 523q150 197 395 197q180 0 307.5 -110.5t155.5 -289.5h-124q-34 119 -88 180q-101 113 -255 113q-180 0 -291 -153q-127 -177 -127 -456q0 -273 118 -445
q52 -76 130 -119q79 -44 173 -44q167 0 271 145q66 93 83 233zM360 1734h114l147 -190l151 190h103l-200 -259h-113z" />
    <glyph glyph-name="Dcaron" unicode="&#x10e;" horiz-adv-x="1191" vert-adv-y="2457" 
d="M158 0v1365h343q166 0 271 -47q154 -68 240 -229q82 -155 82 -393q0 -365 -182 -548q-147 -148 -403 -148h-351zM280 106h230q246 0 352 151q108 154 108 437q0 327 -157 467q-109 98 -293 98h-240v-1153zM310 1734h114l147 -190l151 190h103l-200 -259h-113z" />
    <glyph glyph-name="Dcaron" unicode="&#x10f;" horiz-adv-x="1191" vert-adv-y="2457" 
d="M158 0v1365h343q166 0 271 -47q154 -68 240 -229q82 -155 82 -393q0 -365 -182 -548q-147 -148 -403 -148h-351zM280 106h230q246 0 352 151q108 154 108 437q0 327 -157 467q-109 98 -293 98h-240v-1153zM310 1734h114l147 -190l151 190h103l-200 -259h-113z" />
    <glyph glyph-name="Emacron" unicode="&#x112;" horiz-adv-x="1038" vert-adv-y="2457" 
d="M158 0v1365h787v-106h-665v-499h622v-106h-622v-548h672v-106h-794zM787 1588v-86h-535v86h535z" />
    <glyph glyph-name="Emacron" unicode="&#x113;" horiz-adv-x="1038" vert-adv-y="2457" 
d="M158 0v1365h787v-106h-665v-499h622v-106h-622v-548h672v-106h-794zM787 1588v-86h-535v86h535z" />
    <glyph glyph-name="Ebreve" unicode="&#x114;" horiz-adv-x="1038" vert-adv-y="2457" 
d="M158 0v1365h787v-106h-665v-499h622v-106h-622v-548h672v-106h-794zM793 1734q-33 -259 -239 -259q-207 0 -239 259h83q15 -86 52 -125.5t104 -39.5t104 39.5t52 125.5h83z" />
    <glyph glyph-name="Ebreve" unicode="&#x115;" horiz-adv-x="1038" vert-adv-y="2457" 
d="M158 0v1365h787v-106h-665v-499h622v-106h-622v-548h672v-106h-794zM793 1734q-33 -259 -239 -259q-207 0 -239 259h83q15 -86 52 -125.5t104 -39.5t104 39.5t52 125.5h83z" />
    <glyph glyph-name="Edotaccent" unicode="&#x116;" horiz-adv-x="1038" vert-adv-y="2457" 
d="M158 0v1365h787v-106h-665v-499h622v-106h-622v-548h672v-106h-794zM492 1488v191h119v-191h-119z" />
    <glyph glyph-name="Edotaccent" unicode="&#x117;" horiz-adv-x="1038" vert-adv-y="2457" 
d="M158 0v1365h787v-106h-665v-499h622v-106h-622v-548h672v-106h-794zM492 1488v191h119v-191h-119z" />
    <glyph glyph-name="Eogonek" unicode="&#x118;" horiz-adv-x="1038" vert-adv-y="2457" 
d="M951 0q-106 -78 -106 -174q0 -45 30.5 -73t79.5 -28q26 0 74 18v-72q-58 -22 -107 -22q-79 0 -127 41.5t-48 109.5q0 112 124 200h-713v1365h787v-106h-665v-499h622v-106h-622v-548h672v-106h-1z" />
    <glyph glyph-name="Eogonek" unicode="&#x119;" horiz-adv-x="1038" vert-adv-y="2457" 
d="M951 0q-106 -78 -106 -174q0 -45 30.5 -73t79.5 -28q26 0 74 18v-72q-58 -22 -107 -22q-79 0 -127 41.5t-48 109.5q0 112 124 200h-713v1365h787v-106h-665v-499h622v-106h-622v-548h672v-106h-1z" />
    <glyph glyph-name="Ecaron" unicode="&#x11a;" horiz-adv-x="1038" vert-adv-y="2457" 
d="M158 0v1365h787v-106h-665v-499h622v-106h-622v-548h672v-106h-794zM290 1734h114l147 -190l151 190h103l-200 -259h-113z" />
    <glyph glyph-name="Ecaron" unicode="&#x11b;" horiz-adv-x="1038" vert-adv-y="2457" 
d="M158 0v1365h787v-106h-665v-499h622v-106h-622v-548h672v-106h-794zM290 1734h114l147 -190l151 190h103l-200 -259h-113z" />
    <glyph glyph-name="Gcircumflex" unicode="&#x11c;" horiz-adv-x="1273" vert-adv-y="2457" 
d="M1139 0h-102v239q-55 -99 -109 -153q-117 -119 -289 -119q-261 0 -416 230q-127 190 -127 480q0 324 151 523q150 197 397 197q182 0 311 -107t162 -286h-125q-34 114 -91 176q-102 111 -262 111q-181 0 -292 -153q-127 -177 -127 -456q0 -274 118 -446
q112 -163 306 -163q139 0 237 102q74 76 106 167t40 246h-383v106h495v-694zM891 1475h-113l-148 189l-151 -189h-103l200 259h113z" />
    <glyph glyph-name="Gcircumflex" unicode="&#x11d;" horiz-adv-x="1273" vert-adv-y="2457" 
d="M1139 0h-102v239q-55 -99 -109 -153q-117 -119 -289 -119q-261 0 -416 230q-127 190 -127 480q0 324 151 523q150 197 397 197q182 0 311 -107t162 -286h-125q-34 114 -91 176q-102 111 -262 111q-181 0 -292 -153q-127 -177 -127 -456q0 -274 118 -446
q112 -163 306 -163q139 0 237 102q74 76 106 167t40 246h-383v106h495v-694zM891 1475h-113l-148 189l-151 -189h-103l200 259h113z" />
    <glyph glyph-name="Gbreve" unicode="&#x11e;" horiz-adv-x="1273" vert-adv-y="2457" 
d="M1139 0h-102v239q-55 -99 -109 -153q-117 -119 -289 -119q-261 0 -416 230q-127 190 -127 480q0 324 151 523q150 197 397 197q182 0 311 -107t162 -286h-125q-34 114 -91 176q-102 111 -262 111q-181 0 -292 -153q-127 -177 -127 -456q0 -274 118 -446
q112 -163 306 -163q139 0 237 102q74 76 106 167t40 246h-383v106h495v-694zM875 1734q-33 -259 -239 -259q-207 0 -239 259h83q15 -86 52 -125.5t104 -39.5t104 39.5t52 125.5h83z" />
    <glyph glyph-name="Gbreve" unicode="&#x11f;" horiz-adv-x="1273" vert-adv-y="2457" 
d="M1139 0h-102v239q-55 -99 -109 -153q-117 -119 -289 -119q-261 0 -416 230q-127 190 -127 480q0 324 151 523q150 197 397 197q182 0 311 -107t162 -286h-125q-34 114 -91 176q-102 111 -262 111q-181 0 -292 -153q-127 -177 -127 -456q0 -274 118 -446
q112 -163 306 -163q139 0 237 102q74 76 106 167t40 246h-383v106h495v-694zM875 1734q-33 -259 -239 -259q-207 0 -239 259h83q15 -86 52 -125.5t104 -39.5t104 39.5t52 125.5h83z" />
    <glyph glyph-name="Gdotaccent" unicode="&#x120;" horiz-adv-x="1273" vert-adv-y="2457" 
d="M1139 0h-102v239q-55 -99 -109 -153q-117 -119 -289 -119q-261 0 -416 230q-127 190 -127 480q0 324 151 523q150 197 397 197q182 0 311 -107t162 -286h-125q-34 114 -91 176q-102 111 -262 111q-181 0 -292 -153q-127 -177 -127 -456q0 -274 118 -446
q112 -163 306 -163q139 0 237 102q74 76 106 167t40 246h-383v106h495v-694zM574 1488v191h119v-191h-119z" />
    <glyph glyph-name="Gdotaccent" unicode="&#x121;" horiz-adv-x="1273" vert-adv-y="2457" 
d="M1139 0h-102v239q-55 -99 -109 -153q-117 -119 -289 -119q-261 0 -416 230q-127 190 -127 480q0 324 151 523q150 197 397 197q182 0 311 -107t162 -286h-125q-34 114 -91 176q-102 111 -262 111q-181 0 -292 -153q-127 -177 -127 -456q0 -274 118 -446
q112 -163 306 -163q139 0 237 102q74 76 106 167t40 246h-383v106h495v-694zM574 1488v191h119v-191h-119z" />
    <glyph glyph-name="Gcommaaccent" unicode="&#x122;" horiz-adv-x="1273" vert-adv-y="2457" 
d="M1139 0h-102v239q-55 -99 -109 -153q-117 -119 -289 -119q-261 0 -416 230q-127 190 -127 480q0 324 151 523q150 197 397 197q182 0 311 -107t162 -286h-125q-34 114 -91 176q-102 111 -262 111q-181 0 -292 -153q-127 -177 -127 -456q0 -274 118 -446
q112 -163 306 -163q139 0 237 102q74 76 106 167t40 246h-383v106h495v-694zM718 -95v-110q0 -90 -33.5 -134.5t-117.5 -64.5v61q71 20 71 78v18h-59v152h139z" />
    <glyph glyph-name="Gcommaaccent" unicode="&#x123;" horiz-adv-x="1273" vert-adv-y="2457" 
d="M1139 0h-102v239q-55 -99 -109 -153q-117 -119 -289 -119q-261 0 -416 230q-127 190 -127 480q0 324 151 523q150 197 397 197q182 0 311 -107t162 -286h-125q-34 114 -91 176q-102 111 -262 111q-181 0 -292 -153q-127 -177 -127 -456q0 -274 118 -446
q112 -163 306 -163q139 0 237 102q74 76 106 167t40 246h-383v106h495v-694zM718 -95v-110q0 -90 -33.5 -134.5t-117.5 -64.5v61q71 20 71 78v18h-59v152h139z" />
    <glyph glyph-name="Hcircumflex" unicode="&#x124;" horiz-adv-x="1227" vert-adv-y="2457" 
d="M158 0v1365h122v-596h668v596h122v-1365h-122v663h-668v-663h-122zM871 1475h-113l-148 189l-151 -189h-103l200 259h113z" />
    <glyph glyph-name="Hcircumflex" unicode="&#x125;" horiz-adv-x="1227" vert-adv-y="2457" 
d="M158 0v1365h122v-596h668v596h122v-1365h-122v663h-668v-663h-122zM871 1475h-113l-148 189l-151 -189h-103l200 259h113z" />
    <glyph glyph-name="Hbar" unicode="&#x126;" horiz-adv-x="1246" vert-adv-y="2457" 
d="M167 980h-109v106h109v279h122v-279h668v279h122v-279h109v-106h-109v-980h-122v663h-668v-663h-122v980zM289 980v-211h668v211h-668z" />
    <glyph glyph-name="Hbar" unicode="&#x127;" horiz-adv-x="1246" vert-adv-y="2457" 
d="M167 980h-109v106h109v279h122v-279h668v279h122v-279h109v-106h-109v-980h-122v663h-668v-663h-122v980zM289 980v-211h668v211h-668z" />
    <glyph glyph-name="Itilde" unicode="&#x128;" horiz-adv-x="438" vert-adv-y="2457" 
d="M158 0v1365h122v-1365h-122zM490 1703q-14 -93 -55.5 -143t-103.5 -50q-53 0 -130 55q-58 42 -92 42q-63 0 -82 -98h-80q13 90 55.5 141.5t103.5 51.5q59 0 127 -50q64 -47 92 -47q62 0 83 98h82z" />
    <glyph glyph-name="Itilde" unicode="&#x129;" horiz-adv-x="438" vert-adv-y="2457" 
d="M158 0v1365h122v-1365h-122zM490 1703q-14 -93 -55.5 -143t-103.5 -50q-53 0 -130 55q-58 42 -92 42q-63 0 -82 -98h-80q13 90 55.5 141.5t103.5 51.5q59 0 127 -50q64 -47 92 -47q62 0 83 98h82z" />
    <glyph glyph-name="Imacron" unicode="&#x12a;" horiz-adv-x="438" vert-adv-y="2457" 
d="M216 0v1365h122v-1365h-122zM545 1588v-86h-535v86h535z" />
    <glyph glyph-name="Imacron" unicode="&#x12b;" horiz-adv-x="438" vert-adv-y="2457" 
d="M216 0v1365h122v-1365h-122zM545 1588v-86h-535v86h535z" />
    <glyph glyph-name="Ibreve" unicode="&#x12c;" horiz-adv-x="438" vert-adv-y="2457" 
d="M158 0v1365h122v-1365h-122zM458 1734q-33 -259 -239 -259q-207 0 -239 259h83q15 -86 52 -125.5t104 -39.5t104 39.5t52 125.5h83z" />
    <glyph glyph-name="Ibreve" unicode="&#x12d;" horiz-adv-x="438" vert-adv-y="2457" 
d="M158 0v1365h122v-1365h-122zM458 1734q-33 -259 -239 -259q-207 0 -239 259h83q15 -86 52 -125.5t104 -39.5t104 39.5t52 125.5h83z" />
    <glyph glyph-name="Iogonek" unicode="&#x12e;" horiz-adv-x="438" vert-adv-y="2457" 
d="M358 -257v-72q-59 -22 -107 -22q-79 0 -127 41.5t-48 109.5q0 111 125 200h-43v1365h123v-1365q-107 -77 -107 -174q0 -45 30.5 -73t80.5 -28q26 0 73 18z" />
    <glyph glyph-name="Iogonek" unicode="&#x12f;" horiz-adv-x="438" vert-adv-y="2457" 
d="M358 -257v-72q-59 -22 -107 -22q-79 0 -127 41.5t-48 109.5q0 111 125 200h-43v1365h123v-1365q-107 -77 -107 -174q0 -45 30.5 -73t80.5 -28q26 0 73 18z" />
    <glyph glyph-name="Idotaccent" unicode="&#x130;" horiz-adv-x="438" vert-adv-y="2457" 
d="M158 0v1365h122v-1365h-122zM160 1488v191h119v-191h-119z" />
    <glyph glyph-name="IJ" unicode="&#x132;" horiz-adv-x="992" vert-adv-y="2457" 
d="M158 0v1365h122v-1365h-122zM730 1365h122v-898q0 -143 -11.5 -215.5t-43.5 -131.5q-83 -153 -286 -153q-47 0 -104 13v109q53 -16 104 -16q149 0 194 136q25 77 25 286v870z" />
    <glyph glyph-name="Jcircumflex" unicode="&#x134;" horiz-adv-x="606" vert-adv-y="2457" 
d="M343 1365h122v-898q0 -143 -11.5 -215.5t-43.5 -131.5q-83 -153 -286 -153q-47 0 -104 13v109q53 -16 104 -16q149 0 194 136q25 76 25 286v870zM656 1475h-113l-148 189l-151 -189h-103l200 259h113z" />
    <glyph glyph-name="Jcircumflex" unicode="&#x135;" horiz-adv-x="606" vert-adv-y="2457" 
d="M343 1365h122v-898q0 -143 -11.5 -215.5t-43.5 -131.5q-83 -153 -286 -153q-47 0 -104 13v109q53 -16 104 -16q149 0 194 136q25 76 25 286v870zM656 1475h-113l-148 189l-151 -189h-103l200 259h113z" />
    <glyph glyph-name="Kcommaaccent" unicode="&#x136;" horiz-adv-x="1108" vert-adv-y="2457" 
d="M158 1365h122v-691l645 691h141l-542 -580l564 -785h-138l-505 701l-165 -177v-524h-122v1365zM693 -95v-110q0 -90 -33.5 -134.5t-117.5 -64.5v61q71 20 71 78v18h-59v152h139z" />
    <glyph glyph-name="Kcommaaccent" unicode="&#x137;" horiz-adv-x="1108" vert-adv-y="2457" 
d="M158 1365h122v-691l645 691h141l-542 -580l564 -785h-138l-505 701l-165 -177v-524h-122v1365zM693 -95v-110q0 -90 -33.5 -134.5t-117.5 -64.5v61q71 20 71 78v18h-59v152h139z" />
    <glyph glyph-name="Lacute" unicode="&#x139;" horiz-adv-x="960" vert-adv-y="2457" 
d="M141 0v1365h122v-1259h631v-106h-753zM692 1737l-202 -258h-105l180 258h127z" />
    <glyph glyph-name="Lacute" unicode="&#x13a;" horiz-adv-x="960" vert-adv-y="2457" 
d="M141 0v1365h122v-1259h631v-106h-753zM692 1737l-202 -258h-105l180 258h127z" />
    <glyph glyph-name="Lcommaaccent" unicode="&#x13b;" horiz-adv-x="960" vert-adv-y="2457" 
d="M158 0v1365h122v-1259h631v-106h-753zM581 -95v-110q0 -90 -33.5 -134.5t-117.5 -64.5v61q71 20 71 78v18h-59v152h139z" />
    <glyph glyph-name="Lcommaaccent" unicode="&#x13c;" horiz-adv-x="960" vert-adv-y="2457" 
d="M158 0v1365h122v-1259h631v-106h-753zM581 -95v-110q0 -90 -33.5 -134.5t-117.5 -64.5v61q71 20 71 78v18h-59v152h139z" />
    <glyph glyph-name="Lcaron" unicode="&#x13d;" horiz-adv-x="960" vert-adv-y="2457" 
d="M158 0v1365h122v-1259h631v-106h-753zM722 1367v-110q0 -90 -33.5 -134.5t-117.5 -64.5v61q71 20 71 78v18h-59v152h139z" />
    <glyph glyph-name="Lcaron" unicode="&#x13e;" horiz-adv-x="960" vert-adv-y="2457" 
d="M158 0v1365h122v-1259h631v-106h-753zM722 1367v-110q0 -90 -33.5 -134.5t-117.5 -64.5v61q71 20 71 78v18h-59v152h139z" />
    <glyph glyph-name="Ldot" unicode="&#x13f;" horiz-adv-x="960" vert-adv-y="2457" 
d="M158 0v1365h122v-1259h631v-106h-753zM499 584v191h115v-191h-115z" />
    <glyph glyph-name="Ldot" unicode="&#x140;" horiz-adv-x="960" vert-adv-y="2457" 
d="M158 0v1365h122v-1259h631v-106h-753zM499 584v191h115v-191h-115z" />
    <glyph glyph-name="Lslash" unicode="&#x141;" horiz-adv-x="960" vert-adv-y="2457" 
d="M27 473v127l131 98v667h122v-591l242 176v-127l-242 -176v-541h631v-106h-753v571z" />
    <glyph glyph-name="Lslash" unicode="&#x142;" horiz-adv-x="960" vert-adv-y="2457" 
d="M27 473v127l131 98v667h122v-591l242 176v-127l-242 -176v-541h631v-106h-753v571z" />
    <glyph glyph-name="Nacute" unicode="&#x143;" horiz-adv-x="1225" vert-adv-y="2457" 
d="M158 0v1365h131l663 -1169v1169h116v-1365h-132l-662 1163v-1163h-116zM841 1737l-202 -258h-105l180 258h127z" />
    <glyph glyph-name="Nacute" unicode="&#x144;" horiz-adv-x="1225" vert-adv-y="2457" 
d="M158 0v1365h131l663 -1169v1169h116v-1365h-132l-662 1163v-1163h-116zM841 1737l-202 -258h-105l180 258h127z" />
    <glyph glyph-name="Ncommaaccent" unicode="&#x145;" horiz-adv-x="1225" vert-adv-y="2457" 
d="M158 0v1365h131l663 -1169v1169h116v-1365h-132l-662 1163v-1163h-116zM682 -95v-110q0 -90 -33.5 -134.5t-117.5 -64.5v61q71 20 71 78v18h-59v152h139z" />
    <glyph glyph-name="Ncommaaccent" unicode="&#x146;" horiz-adv-x="1225" vert-adv-y="2457" 
d="M158 0v1365h131l663 -1169v1169h116v-1365h-132l-662 1163v-1163h-116zM682 -95v-110q0 -90 -33.5 -134.5t-117.5 -64.5v61q71 20 71 78v18h-59v152h139z" />
    <glyph glyph-name="Ncaron" unicode="&#x147;" horiz-adv-x="1225" vert-adv-y="2457" 
d="M158 0v1365h131l663 -1169v1169h116v-1365h-132l-662 1163v-1163h-116zM355 1734h114l147 -190l151 190h103l-200 -259h-113z" />
    <glyph glyph-name="Ncaron" unicode="&#x148;" horiz-adv-x="1225" vert-adv-y="2457" 
d="M158 0v1365h131l663 -1169v1169h116v-1365h-132l-662 1163v-1163h-116zM355 1734h114l147 -190l151 190h103l-200 -259h-113z" />
    <glyph glyph-name="Eng" unicode="&#x14a;" horiz-adv-x="1216" vert-adv-y="2457" 
d="M158 1365h122v-189q56 86 106 124q107 82 273 82q239 0 341 -173q70 -120 70 -300v-551q0 -143 -11.5 -215.5t-43.5 -131.5q-83 -153 -286 -153q-47 0 -104 12v110q54 -16 104 -16q149 0 194 136q25 77 25 286v523q0 144 -49 235q-74 138 -255 138q-128 0 -219 -77
q-78 -66 -111.5 -173.5t-33.5 -289.5v-742h-122v1365z" />
    <glyph glyph-name="Eng" unicode="&#x14b;" horiz-adv-x="1216" vert-adv-y="2457" 
d="M158 1365h122v-189q56 86 106 124q107 82 273 82q239 0 341 -173q70 -120 70 -300v-551q0 -143 -11.5 -215.5t-43.5 -131.5q-83 -153 -286 -153q-47 0 -104 12v110q54 -16 104 -16q149 0 194 136q25 77 25 286v523q0 144 -49 235q-74 138 -255 138q-128 0 -219 -77
q-78 -66 -111.5 -173.5t-33.5 -289.5v-742h-122v1365z" />
    <glyph glyph-name="Omacron" unicode="&#x14c;" horiz-adv-x="1280" vert-adv-y="2457" 
d="M640 1396q243 0 393 -199q151 -201 151 -518q0 -281 -122 -474q-74 -118 -188 -180q-106 -58 -234 -58q-272 0 -422 238q-122 193 -122 488q0 312 150 504q155 199 394 199zM640 1290q-186 0 -303 -167q-117 -166 -117 -427q0 -262 100 -431q57 -97 154 -150
q76 -42 167 -42q124 0 224 80q106 86 158 255q37 121 37 272q0 269 -115 438q-116 172 -305 172zM907 1588v-86h-535v86h535z" />
    <glyph glyph-name="Omacron" unicode="&#x14d;" horiz-adv-x="1280" vert-adv-y="2457" 
d="M640 1396q243 0 393 -199q151 -201 151 -518q0 -281 -122 -474q-74 -118 -188 -180q-106 -58 -234 -58q-272 0 -422 238q-122 193 -122 488q0 312 150 504q155 199 394 199zM640 1290q-186 0 -303 -167q-117 -166 -117 -427q0 -262 100 -431q57 -97 154 -150
q76 -42 167 -42q124 0 224 80q106 86 158 255q37 121 37 272q0 269 -115 438q-116 172 -305 172zM907 1588v-86h-535v86h535z" />
    <glyph glyph-name="Obreve" unicode="&#x14e;" horiz-adv-x="1280" vert-adv-y="2457" 
d="M640 1396q243 0 393 -199q151 -201 151 -518q0 -281 -122 -474q-74 -118 -188 -180q-106 -58 -234 -58q-272 0 -422 238q-122 193 -122 488q0 312 150 504q155 199 394 199zM640 1290q-186 0 -303 -167q-117 -166 -117 -427q0 -262 100 -431q57 -97 154 -150
q76 -42 167 -42q124 0 224 80q106 86 158 255q37 121 37 272q0 269 -115 438q-116 172 -305 172zM879 1734q-33 -259 -239 -259q-207 0 -239 259h83q15 -86 52 -125.5t104 -39.5t104 39.5t52 125.5h83z" />
    <glyph glyph-name="Obreve" unicode="&#x14f;" horiz-adv-x="1280" vert-adv-y="2457" 
d="M640 1396q243 0 393 -199q151 -201 151 -518q0 -281 -122 -474q-74 -118 -188 -180q-106 -58 -234 -58q-272 0 -422 238q-122 193 -122 488q0 312 150 504q155 199 394 199zM640 1290q-186 0 -303 -167q-117 -166 -117 -427q0 -262 100 -431q57 -97 154 -150
q76 -42 167 -42q124 0 224 80q106 86 158 255q37 121 37 272q0 269 -115 438q-116 172 -305 172zM879 1734q-33 -259 -239 -259q-207 0 -239 259h83q15 -86 52 -125.5t104 -39.5t104 39.5t52 125.5h83z" />
    <glyph glyph-name="Ohungarumlaut" unicode="&#x150;" horiz-adv-x="1280" vert-adv-y="2457" 
d="M640 1396q243 0 393 -199q151 -201 151 -518q0 -281 -122 -474q-74 -118 -188 -180q-106 -58 -234 -58q-272 0 -422 238q-122 193 -122 488q0 312 150 504q155 199 394 199zM640 1290q-186 0 -303 -167q-117 -166 -117 -427q0 -262 100 -431q57 -97 154 -150
q76 -42 167 -42q124 0 224 80q106 86 158 255q37 121 37 272q0 269 -115 438q-116 172 -305 172zM731 1737l-202 -258h-105l180 258h127zM977 1737l-202 -258h-105l180 258h127z" />
    <glyph glyph-name="Ohungarumlaut" unicode="&#x151;" horiz-adv-x="1280" vert-adv-y="2457" 
d="M640 1396q243 0 393 -199q151 -201 151 -518q0 -281 -122 -474q-74 -118 -188 -180q-106 -58 -234 -58q-272 0 -422 238q-122 193 -122 488q0 312 150 504q155 199 394 199zM640 1290q-186 0 -303 -167q-117 -166 -117 -427q0 -262 100 -431q57 -97 154 -150
q76 -42 167 -42q124 0 224 80q106 86 158 255q37 121 37 272q0 269 -115 438q-116 172 -305 172zM731 1737l-202 -258h-105l180 258h127zM977 1737l-202 -258h-105l180 258h127z" />
    <glyph glyph-name="OE" unicode="&#x152;" horiz-adv-x="1806" vert-adv-y="2457" 
d="M1713 1365v-106h-637v-499h594v-106h-594v-548h644v-106h-766v113q-29 -34 -50 -55q-95 -91 -271 -91q-180 0 -312 117q-224 198 -224 599q0 319 150 515q151 198 389 198q103 0 176 -32.5t142 -108.5v110h759zM954 1105q-117 185 -314 185q-186 0 -302 -167
q-117 -167 -117 -436q0 -253 100 -422q57 -98 154 -151q76 -41 166 -41q195 0 313 182v850z" />
    <glyph glyph-name="OE" unicode="&#x153;" horiz-adv-x="1806" vert-adv-y="2457" 
d="M1713 1365v-106h-637v-499h594v-106h-594v-548h644v-106h-766v113q-29 -34 -50 -55q-95 -91 -271 -91q-180 0 -312 117q-224 198 -224 599q0 319 150 515q151 198 389 198q103 0 176 -32.5t142 -108.5v110h759zM954 1105q-117 185 -314 185q-186 0 -302 -167
q-117 -167 -117 -436q0 -253 100 -422q57 -98 154 -151q76 -41 166 -41q195 0 313 182v850z" />
    <glyph glyph-name="Racute" unicode="&#x154;" horiz-adv-x="1165" vert-adv-y="2457" 
d="M158 0v1365h443q108 0 179.5 -20.5t127.5 -67.5q114 -97 114 -273q0 -171 -108 -273q-54 -50 -133 -72q101 -22 148 -81q56 -71 71 -292q9 -148 18.5 -198t34.5 -88h-138q-23 41 -31 88.5t-15 188.5q-7 133 -31 193t-84 95q-80 46 -252 46h-222v-611h-122zM280 714h280
q171 0 242 55q95 76 95 231q0 133 -73 196t-227 63h-317v-545zM811 1737l-202 -258h-105l180 258h127z" />
    <glyph glyph-name="Racute" unicode="&#x155;" horiz-adv-x="1165" vert-adv-y="2457" 
d="M158 0v1365h443q108 0 179.5 -20.5t127.5 -67.5q114 -97 114 -273q0 -171 -108 -273q-54 -50 -133 -72q101 -22 148 -81q56 -71 71 -292q9 -148 18.5 -198t34.5 -88h-138q-23 41 -31 88.5t-15 188.5q-7 133 -31 193t-84 95q-80 46 -252 46h-222v-611h-122zM280 714h280
q171 0 242 55q95 76 95 231q0 133 -73 196t-227 63h-317v-545zM811 1737l-202 -258h-105l180 258h127z" />
    <glyph glyph-name="Rcommaaccent" unicode="&#x156;" horiz-adv-x="1165" vert-adv-y="2457" 
d="M158 0v1365h443q108 0 179.5 -20.5t127.5 -67.5q114 -97 114 -273q0 -171 -108 -273q-54 -50 -133 -72q101 -22 148 -81q56 -71 71 -292q9 -148 18.5 -198t34.5 -88h-138q-23 41 -31 88.5t-15 188.5q-7 133 -31 193t-84 95q-80 46 -252 46h-222v-611h-122zM280 714h280
q171 0 242 55q95 76 95 231q0 133 -73 196t-227 63h-317v-545zM656 -95v-110q0 -90 -33.5 -134.5t-117.5 -64.5v61q71 20 71 78v18h-59v152h139z" />
    <glyph glyph-name="Rcommaaccent" unicode="&#x157;" horiz-adv-x="1165" vert-adv-y="2457" 
d="M158 0v1365h443q108 0 179.5 -20.5t127.5 -67.5q114 -97 114 -273q0 -171 -108 -273q-54 -50 -133 -72q101 -22 148 -81q56 -71 71 -292q9 -148 18.5 -198t34.5 -88h-138q-23 41 -31 88.5t-15 188.5q-7 133 -31 193t-84 95q-80 46 -252 46h-222v-611h-122zM280 714h280
q171 0 242 55q95 76 95 231q0 133 -73 196t-227 63h-317v-545zM656 -95v-110q0 -90 -33.5 -134.5t-117.5 -64.5v61q71 20 71 78v18h-59v152h139z" />
    <glyph glyph-name="Rcaron" unicode="&#x158;" horiz-adv-x="1165" vert-adv-y="2457" 
d="M158 0v1365h443q108 0 179.5 -20.5t127.5 -67.5q114 -97 114 -273q0 -171 -108 -273q-54 -50 -133 -72q101 -22 148 -81q56 -71 71 -292q9 -148 18.5 -198t34.5 -88h-138q-23 41 -31 88.5t-15 188.5q-7 133 -31 193t-84 95q-80 46 -252 46h-222v-611h-122zM280 714h280
q171 0 242 55q95 76 95 231q0 133 -73 196t-227 63h-317v-545zM326 1734h114l147 -190l151 190h103l-200 -259h-113z" />
    <glyph glyph-name="Rcaron" unicode="&#x159;" horiz-adv-x="1165" vert-adv-y="2457" 
d="M158 0v1365h443q108 0 179.5 -20.5t127.5 -67.5q114 -97 114 -273q0 -171 -108 -273q-54 -50 -133 -72q101 -22 148 -81q56 -71 71 -292q9 -148 18.5 -198t34.5 -88h-138q-23 41 -31 88.5t-15 188.5q-7 133 -31 193t-84 95q-80 46 -252 46h-222v-611h-122zM280 714h280
q171 0 242 55q95 76 95 231q0 133 -73 196t-227 63h-317v-545zM326 1734h114l147 -190l151 190h103l-200 -259h-113z" />
    <glyph glyph-name="Sacute" unicode="&#x15a;" horiz-adv-x="1056" vert-adv-y="2457" 
d="M79 383h117q17 -121 82 -197q95 -111 261 -111q140 0 221 74q88 80 88 210q0 137 -112 211q-56 37 -269 97q-155 43 -227 93q-142 99 -142 279q0 144 98 244q113 114 306 114q248 0 367 -175q51 -75 66 -190h-127q-19 108 -68 164q-82 94 -236 94q-133 0 -209 -73
q-75 -72 -75 -181q0 -105 67.5 -165t238.5 -107q151 -42 204 -62.5t104 -56.5q144 -102 144 -285q0 -166 -113 -276q-122 -117 -322 -117q-242 0 -365 154q-81 102 -99 262zM756 1737l-202 -258h-105l180 258h127z" />
    <glyph glyph-name="Sacute" unicode="&#x15b;" horiz-adv-x="1056" vert-adv-y="2457" 
d="M79 383h117q17 -121 82 -197q95 -111 261 -111q140 0 221 74q88 80 88 210q0 137 -112 211q-56 37 -269 97q-155 43 -227 93q-142 99 -142 279q0 144 98 244q113 114 306 114q248 0 367 -175q51 -75 66 -190h-127q-19 108 -68 164q-82 94 -236 94q-133 0 -209 -73
q-75 -72 -75 -181q0 -105 67.5 -165t238.5 -107q151 -42 204 -62.5t104 -56.5q144 -102 144 -285q0 -166 -113 -276q-122 -117 -322 -117q-242 0 -365 154q-81 102 -99 262zM756 1737l-202 -258h-105l180 258h127z" />
    <glyph glyph-name="Scircumflex" unicode="&#x15c;" horiz-adv-x="1056" vert-adv-y="2457" 
d="M79 383h117q17 -121 82 -197q95 -111 261 -111q140 0 221 74q88 80 88 210q0 137 -112 211q-56 37 -269 97q-155 43 -227 93q-142 99 -142 279q0 144 98 244q113 114 306 114q248 0 367 -175q51 -75 66 -190h-127q-19 108 -68 164q-82 94 -236 94q-133 0 -209 -73
q-75 -72 -75 -181q0 -105 67.5 -165t238.5 -107q151 -42 204 -62.5t104 -56.5q144 -102 144 -285q0 -166 -113 -276q-122 -117 -322 -117q-242 0 -365 154q-81 102 -99 262zM785 1475h-113l-148 189l-151 -189h-103l200 259h113z" />
    <glyph glyph-name="Scircumflex" unicode="&#x15d;" horiz-adv-x="1056" vert-adv-y="2457" 
d="M79 383h117q17 -121 82 -197q95 -111 261 -111q140 0 221 74q88 80 88 210q0 137 -112 211q-56 37 -269 97q-155 43 -227 93q-142 99 -142 279q0 144 98 244q113 114 306 114q248 0 367 -175q51 -75 66 -190h-127q-19 108 -68 164q-82 94 -236 94q-133 0 -209 -73
q-75 -72 -75 -181q0 -105 67.5 -165t238.5 -107q151 -42 204 -62.5t104 -56.5q144 -102 144 -285q0 -166 -113 -276q-122 -117 -322 -117q-242 0 -365 154q-81 102 -99 262zM785 1475h-113l-148 189l-151 -189h-103l200 259h113z" />
    <glyph glyph-name="Scedilla" unicode="&#x15e;" horiz-adv-x="1056" vert-adv-y="2457" 
d="M79 383h117q17 -121 82 -196q95 -111 261 -111q140 0 221 74q88 80 88 209q0 138 -112 211q-37 25 -84 41.5t-185 55.5q-154 43 -227 94q-142 98 -142 278q0 145 98 244q113 114 306 114q248 0 367 -175q51 -75 66 -190h-127q-19 108 -68 164q-82 94 -236 94
q-133 0 -209 -73q-75 -72 -75 -181q0 -105 67.5 -165t238.5 -107q152 -42 204.5 -62.5t103.5 -56.5q144 -102 144 -285q0 -132 -76 -233q-115 -153 -353 -159l-32 -76q21 8 44 8q71 0 114.5 -38.5t43.5 -100.5q0 -69 -45.5 -110t-120.5 -41q-64 0 -107 28.5t-49 75.5h93
q9 -41 58 -41q74 0 74 82q0 37 -20 59.5t-54 22.5q-40 0 -54 -31h-90l66 166q-349 48 -391 411z" />
    <glyph glyph-name="Scedilla" unicode="&#x15f;" horiz-adv-x="1056" vert-adv-y="2457" 
d="M79 383h117q17 -121 82 -196q95 -111 261 -111q140 0 221 74q88 80 88 209q0 138 -112 211q-37 25 -84 41.5t-185 55.5q-154 43 -227 94q-142 98 -142 278q0 145 98 244q113 114 306 114q248 0 367 -175q51 -75 66 -190h-127q-19 108 -68 164q-82 94 -236 94
q-133 0 -209 -73q-75 -72 -75 -181q0 -105 67.5 -165t238.5 -107q152 -42 204.5 -62.5t103.5 -56.5q144 -102 144 -285q0 -132 -76 -233q-115 -153 -353 -159l-32 -76q21 8 44 8q71 0 114.5 -38.5t43.5 -100.5q0 -69 -45.5 -110t-120.5 -41q-64 0 -107 28.5t-49 75.5h93
q9 -41 58 -41q74 0 74 82q0 37 -20 59.5t-54 22.5q-40 0 -54 -31h-90l66 166q-349 48 -391 411z" />
    <glyph glyph-name="Scaron" unicode="&#x160;" horiz-adv-x="1056" vert-adv-y="2457" 
d="M79 383h117q17 -121 82 -197q95 -111 261 -111q140 0 221 74q88 80 88 210q0 137 -112 211q-56 37 -269 97q-155 43 -227 93q-142 99 -142 279q0 144 98 244q113 114 306 114q248 0 367 -175q51 -75 66 -190h-127q-19 108 -68 164q-82 94 -236 94q-133 0 -209 -73
q-75 -72 -75 -181q0 -105 67.5 -165t238.5 -107q151 -42 204 -62.5t104 -56.5q144 -102 144 -285q0 -166 -113 -276q-122 -117 -322 -117q-242 0 -365 154q-81 102 -99 262zM271 1734h114l147 -190l151 190h103l-200 -259h-113z" />
    <glyph glyph-name="Scaron" unicode="&#x161;" horiz-adv-x="1056" vert-adv-y="2457" 
d="M79 383h117q17 -121 82 -197q95 -111 261 -111q140 0 221 74q88 80 88 210q0 137 -112 211q-56 37 -269 97q-155 43 -227 93q-142 99 -142 279q0 144 98 244q113 114 306 114q248 0 367 -175q51 -75 66 -190h-127q-19 108 -68 164q-82 94 -236 94q-133 0 -209 -73
q-75 -72 -75 -181q0 -105 67.5 -165t238.5 -107q151 -42 204 -62.5t104 -56.5q144 -102 144 -285q0 -166 -113 -276q-122 -117 -322 -117q-242 0 -365 154q-81 102 -99 262zM271 1734h114l147 -190l151 190h103l-200 -259h-113z" />
    <glyph glyph-name="Tcommaaccent" unicode="&#x162;" horiz-adv-x="1006" vert-adv-y="2457" 
d="M564 0h-122v1259h-397v106h916v-106h-397v-1259zM572 -95v-110q0 -90 -33.5 -134.5t-117.5 -64.5v61q71 20 71 78v18h-59v152h139z" />
    <glyph glyph-name="Tcommaaccent" unicode="&#x21b;" horiz-adv-x="1006" vert-adv-y="2457" 
d="M564 0h-122v1259h-397v106h916v-106h-397v-1259zM572 -95v-110q0 -90 -33.5 -134.5t-117.5 -64.5v61q71 20 71 78v18h-59v152h139z" />
    <glyph glyph-name="Tcommaaccent" unicode="&#x21a;" horiz-adv-x="1006" vert-adv-y="2457" 
d="M564 0h-122v1259h-397v106h916v-106h-397v-1259zM572 -95v-110q0 -90 -33.5 -134.5t-117.5 -64.5v61q71 20 71 78v18h-59v152h139z" />
    <glyph glyph-name="Tcommaaccent" unicode="&#x163;" horiz-adv-x="1006" vert-adv-y="2457" 
d="M564 0h-122v1259h-397v106h916v-106h-397v-1259zM572 -95v-110q0 -90 -33.5 -134.5t-117.5 -64.5v61q71 20 71 78v18h-59v152h139z" />
    <glyph glyph-name="Tcaron" unicode="&#x164;" horiz-adv-x="1006" vert-adv-y="2457" 
d="M564 0h-122v1259h-397v106h916v-106h-397v-1259zM245 1734h114l147 -190l151 190h103l-200 -259h-113z" />
    <glyph glyph-name="Tcaron" unicode="&#x165;" horiz-adv-x="1006" vert-adv-y="2457" 
d="M564 0h-122v1259h-397v106h916v-106h-397v-1259zM245 1734h114l147 -190l151 190h103l-200 -259h-113z" />
    <glyph glyph-name="Tbar" unicode="&#x166;" horiz-adv-x="1006" vert-adv-y="2457" 
d="M442 878h-198v90h198v291h-397v106h916v-106h-397v-291h199v-90h-199v-878h-122v878z" />
    <glyph glyph-name="Tbar" unicode="&#x167;" horiz-adv-x="1006" vert-adv-y="2457" 
d="M442 878h-198v90h198v291h-397v106h916v-106h-397v-291h199v-90h-199v-878h-122v878z" />
    <glyph glyph-name="Utilde" unicode="&#x168;" horiz-adv-x="1183" vert-adv-y="2457" 
d="M141 1365h122v-814q0 -133 15.5 -211.5t52.5 -134.5q40 -62 110.5 -97t155.5 -35q89 0 159.5 38.5t107.5 108.5q55 101 55 332v813h122v-814q0 -196 -33 -291q-51 -148 -157 -219q-109 -74 -256 -74q-149 0 -261 74q-104 69 -148.5 188t-44.5 326v810zM863 1703
q-14 -93 -55.5 -143t-103.5 -50q-53 0 -130 55q-58 42 -92 42q-63 0 -82 -98h-80q13 90 55.5 141.5t103.5 51.5q59 0 127 -50q64 -47 92 -47q62 0 83 98h82z" />
    <glyph glyph-name="Utilde" unicode="&#x169;" horiz-adv-x="1183" vert-adv-y="2457" 
d="M141 1365h122v-814q0 -133 15.5 -211.5t52.5 -134.5q40 -62 110.5 -97t155.5 -35q89 0 159.5 38.5t107.5 108.5q55 101 55 332v813h122v-814q0 -196 -33 -291q-51 -148 -157 -219q-109 -74 -256 -74q-149 0 -261 74q-104 69 -148.5 188t-44.5 326v810zM863 1703
q-14 -93 -55.5 -143t-103.5 -50q-53 0 -130 55q-58 42 -92 42q-63 0 -82 -98h-80q13 90 55.5 141.5t103.5 51.5q59 0 127 -50q64 -47 92 -47q62 0 83 98h82z" />
    <glyph glyph-name="Umacron" unicode="&#x16a;" horiz-adv-x="1183" vert-adv-y="2457" 
d="M141 1365h122v-814q0 -133 15.5 -211.5t52.5 -134.5q40 -62 110.5 -97t155.5 -35q89 0 159.5 38.5t107.5 108.5q55 101 55 332v813h122v-814q0 -196 -33 -291q-51 -148 -157 -219q-109 -74 -256 -74q-149 0 -261 74q-104 69 -148.5 188t-44.5 326v810zM859 1588v-86h-535
v86h535z" />
    <glyph glyph-name="Umacron" unicode="&#x16b;" horiz-adv-x="1183" vert-adv-y="2457" 
d="M141 1365h122v-814q0 -133 15.5 -211.5t52.5 -134.5q40 -62 110.5 -97t155.5 -35q89 0 159.5 38.5t107.5 108.5q55 101 55 332v813h122v-814q0 -196 -33 -291q-51 -148 -157 -219q-109 -74 -256 -74q-149 0 -261 74q-104 69 -148.5 188t-44.5 326v810zM859 1588v-86h-535
v86h535z" />
    <glyph glyph-name="Ubreve" unicode="&#x16c;" horiz-adv-x="1183" vert-adv-y="2457" 
d="M141 1365h122v-814q0 -133 15.5 -211.5t52.5 -134.5q40 -62 110.5 -97t155.5 -35q89 0 159.5 38.5t107.5 108.5q55 101 55 332v813h122v-814q0 -196 -33 -291q-51 -148 -157 -219q-109 -74 -256 -74q-149 0 -261 74q-104 69 -148.5 188t-44.5 326v810zM831 1734
q-33 -259 -239 -259q-207 0 -239 259h83q15 -86 52 -125.5t104 -39.5t104 39.5t52 125.5h83z" />
    <glyph glyph-name="Ubreve" unicode="&#x16d;" horiz-adv-x="1183" vert-adv-y="2457" 
d="M141 1365h122v-814q0 -133 15.5 -211.5t52.5 -134.5q40 -62 110.5 -97t155.5 -35q89 0 159.5 38.5t107.5 108.5q55 101 55 332v813h122v-814q0 -196 -33 -291q-51 -148 -157 -219q-109 -74 -256 -74q-149 0 -261 74q-104 69 -148.5 188t-44.5 326v810zM831 1734
q-33 -259 -239 -259q-207 0 -239 259h83q15 -86 52 -125.5t104 -39.5t104 39.5t52 125.5h83z" />
    <glyph glyph-name="Uring" unicode="&#x16e;" horiz-adv-x="1183" vert-adv-y="2457" 
d="M141 1365h122v-814q0 -133 15.5 -211.5t52.5 -134.5q40 -62 110.5 -97t155.5 -35q89 0 159.5 38.5t107.5 108.5q55 101 55 332v813h122v-814q0 -196 -33 -291q-51 -148 -157 -219q-109 -74 -256 -74q-149 0 -261 74q-104 69 -148.5 188t-44.5 326v810zM594 1727
q-45 0 -76 -31.5t-31 -77.5q0 -45 30.5 -77t74.5 -32t74.5 31.5t30.5 77.5q0 45 -30.5 77t-72.5 32zM594 1803q76 0 130.5 -54.5t54.5 -130.5q0 -77 -55 -130.5t-133 -53.5t-132 54q-55 54 -55 130q0 77 55.5 131t134.5 54z" />
    <glyph glyph-name="Uring" unicode="&#x16f;" horiz-adv-x="1183" vert-adv-y="2457" 
d="M141 1365h122v-814q0 -133 15.5 -211.5t52.5 -134.5q40 -62 110.5 -97t155.5 -35q89 0 159.5 38.5t107.5 108.5q55 101 55 332v813h122v-814q0 -196 -33 -291q-51 -148 -157 -219q-109 -74 -256 -74q-149 0 -261 74q-104 69 -148.5 188t-44.5 326v810zM594 1727
q-45 0 -76 -31.5t-31 -77.5q0 -45 30.5 -77t74.5 -32t74.5 31.5t30.5 77.5q0 45 -30.5 77t-72.5 32zM594 1803q76 0 130.5 -54.5t54.5 -130.5q0 -77 -55 -130.5t-133 -53.5t-132 54q-55 54 -55 130q0 77 55.5 131t134.5 54z" />
    <glyph glyph-name="Uhungarumlaut" unicode="&#x170;" horiz-adv-x="1183" vert-adv-y="2457" 
d="M141 1365h122v-814q0 -133 15.5 -211.5t52.5 -134.5q40 -62 110.5 -97t155.5 -35q89 0 159.5 38.5t107.5 108.5q55 101 55 332v813h122v-814q0 -196 -33 -291q-51 -148 -157 -219q-109 -74 -256 -74q-149 0 -261 74q-104 69 -148.5 188t-44.5 326v810zM683 1737
l-202 -258h-105l180 258h127zM929 1737l-202 -258h-105l180 258h127z" />
    <glyph glyph-name="Uhungarumlaut" unicode="&#x171;" horiz-adv-x="1183" vert-adv-y="2457" 
d="M141 1365h122v-814q0 -133 15.5 -211.5t52.5 -134.5q40 -62 110.5 -97t155.5 -35q89 0 159.5 38.5t107.5 108.5q55 101 55 332v813h122v-814q0 -196 -33 -291q-51 -148 -157 -219q-109 -74 -256 -74q-149 0 -261 74q-104 69 -148.5 188t-44.5 326v810zM683 1737
l-202 -258h-105l180 258h127zM929 1737l-202 -258h-105l180 258h127z" />
    <glyph glyph-name="Uogonek" unicode="&#x172;" horiz-adv-x="1183" vert-adv-y="2457" 
d="M770 -1q-105 -80 -105 -173q0 -45 30.5 -73t79.5 -28q26 0 74 18v-72q-58 -22 -107 -22q-79 0 -127 41.5t-48 109.5q0 92 87 171q-30 -4 -62 -4q-146 0 -258 75q-104 68 -148.5 187t-44.5 326v810h122v-814q0 -133 15.5 -211t52.5 -135q40 -61 110.5 -96t155.5 -35
q89 0 159.5 38.5t107.5 108.5q55 101 55 331v813h122v-814q0 -196 -33 -291q-67 -195 -238 -261z" />
    <glyph glyph-name="Uogonek" unicode="&#x173;" horiz-adv-x="1183" vert-adv-y="2457" 
d="M770 -1q-105 -80 -105 -173q0 -45 30.5 -73t79.5 -28q26 0 74 18v-72q-58 -22 -107 -22q-79 0 -127 41.5t-48 109.5q0 92 87 171q-30 -4 -62 -4q-146 0 -258 75q-104 68 -148.5 187t-44.5 326v810h122v-814q0 -133 15.5 -211t52.5 -135q40 -61 110.5 -96t155.5 -35
q89 0 159.5 38.5t107.5 108.5q55 101 55 331v813h122v-814q0 -196 -33 -291q-67 -195 -238 -261z" />
    <glyph glyph-name="Wcircumflex" unicode="&#x174;" horiz-adv-x="1524" vert-adv-y="2457" 
d="M349 0l-314 1365h125l259 -1172l276 1172h136l278 -1172l260 1172h120l-315 -1365h-129l-284 1183l-282 -1183h-130zM1021 1475h-113l-148 189l-151 -189h-103l200 259h113z" />
    <glyph glyph-name="Wcircumflex" unicode="&#x175;" horiz-adv-x="1524" vert-adv-y="2457" 
d="M349 0l-314 1365h125l259 -1172l276 1172h136l278 -1172l260 1172h120l-315 -1365h-129l-284 1183l-282 -1183h-130zM1021 1475h-113l-148 189l-151 -189h-103l200 259h113z" />
    <glyph glyph-name="Ycircumflex" unicode="&#x176;" horiz-adv-x="1038" vert-adv-y="2457" 
d="M458 0v565l-450 800h141l373 -682l372 682h135l-449 -800v-565h-122zM780 1475h-113l-148 189l-151 -189h-103l200 259h113z" />
    <glyph glyph-name="Ycircumflex" unicode="&#x177;" horiz-adv-x="1038" vert-adv-y="2457" 
d="M458 0v565l-450 800h141l373 -682l372 682h135l-449 -800v-565h-122zM780 1475h-113l-148 189l-151 -189h-103l200 259h113z" />
    <glyph glyph-name="Zacute" unicode="&#x179;" horiz-adv-x="1022" vert-adv-y="2457" 
d="M68 0v115l745 1144h-691v106h825v-112l-745 -1147h759v-106h-893zM739 1737l-202 -258h-105l180 258h127z" />
    <glyph glyph-name="Zacute" unicode="&#x17a;" horiz-adv-x="1022" vert-adv-y="2457" 
d="M68 0v115l745 1144h-691v106h825v-112l-745 -1147h759v-106h-893zM739 1737l-202 -258h-105l180 258h127z" />
    <glyph glyph-name="Zdotaccent" unicode="&#x17b;" horiz-adv-x="1022" vert-adv-y="2457" 
d="M68 0v115l745 1144h-691v106h825v-112l-745 -1147h759v-106h-893zM452 1488v191h119v-191h-119z" />
    <glyph glyph-name="Zdotaccent" unicode="&#x17c;" horiz-adv-x="1022" vert-adv-y="2457" 
d="M68 0v115l745 1144h-691v106h825v-112l-745 -1147h759v-106h-893zM452 1488v191h119v-191h-119z" />
    <glyph glyph-name="Zcaron" unicode="&#x17d;" horiz-adv-x="1022" vert-adv-y="2457" 
d="M68 0v115l745 1144h-691v106h825v-112l-745 -1147h759v-106h-893zM254 1734h114l147 -190l151 190h103l-200 -259h-113z" />
    <glyph glyph-name="Zcaron" unicode="&#x17e;" horiz-adv-x="1022" vert-adv-y="2457" 
d="M68 0v115l745 1144h-691v106h825v-112l-745 -1147h759v-106h-893zM254 1734h114l147 -190l151 190h103l-200 -259h-113z" />
    <glyph glyph-name="florin" unicode="&#x192;" horiz-adv-x="555" vert-adv-y="2457" 
d="M108 848v94h147l21 150q22 154 58 208q66 97 180 97q41 0 99 -21v-103q-41 23 -91 23q-33 0 -61.5 -18.5t-41.5 -48.5q-16 -36 -29 -123l-22 -164h154v-94h-168l-150 -1066h-112l150 1066h-134z" />
    <glyph glyph-name="uni01CD" unicode="&#x1cd;" horiz-adv-x="1107" vert-adv-y="2457" 
d="M490 1365h133l454 -1365h-133l-136 430h-511l-138 -430h-128zM331 535h444l-220 695zM297 1734h114l147 -190l151 190h103l-200 -259h-113z" />
    <glyph glyph-name="uni01CD" unicode="&#x1ce;" horiz-adv-x="1107" vert-adv-y="2457" 
d="M490 1365h133l454 -1365h-133l-136 430h-511l-138 -430h-128zM331 535h444l-220 695zM297 1734h114l147 -190l151 190h103l-200 -259h-113z" />
    <glyph glyph-name="uni01D3" unicode="&#x1d3;" horiz-adv-x="1183" vert-adv-y="2457" 
d="M141 1365h122v-814q0 -133 15.5 -211.5t52.5 -134.5q40 -62 110.5 -97t155.5 -35q89 0 159.5 38.5t107.5 108.5q55 101 55 332v813h122v-814q0 -196 -33 -291q-51 -148 -157 -219q-109 -74 -256 -74q-149 0 -261 74q-104 69 -148.5 188t-44.5 326v810zM334 1734h114
l147 -190l151 190h103l-200 -259h-113z" />
    <glyph glyph-name="uni01D3" unicode="&#x1d4;" horiz-adv-x="1183" vert-adv-y="2457" 
d="M141 1365h122v-814q0 -133 15.5 -211.5t52.5 -134.5q40 -62 110.5 -97t155.5 -35q89 0 159.5 38.5t107.5 108.5q55 101 55 332v813h122v-814q0 -196 -33 -291q-51 -148 -157 -219q-109 -74 -256 -74q-149 0 -261 74q-104 69 -148.5 188t-44.5 326v810zM334 1734h114
l147 -190l151 190h103l-200 -259h-113z" />
    <glyph glyph-name="Gcaron" unicode="&#x1e6;" horiz-adv-x="1273" vert-adv-y="2457" 
d="M1139 0h-102v239q-55 -99 -109 -153q-117 -119 -289 -119q-261 0 -416 230q-127 190 -127 480q0 324 151 523q150 197 397 197q182 0 311 -107t162 -286h-125q-34 114 -91 176q-102 111 -262 111q-181 0 -292 -153q-127 -177 -127 -456q0 -274 118 -446
q112 -163 306 -163q139 0 237 102q74 76 106 167t40 246h-383v106h495v-694zM381 1734h114l147 -190l151 190h103l-200 -259h-113z" />
    <glyph glyph-name="Gcaron" unicode="&#x1e7;" horiz-adv-x="1273" vert-adv-y="2457" 
d="M1139 0h-102v239q-55 -99 -109 -153q-117 -119 -289 -119q-261 0 -416 230q-127 190 -127 480q0 324 151 523q150 197 397 197q182 0 311 -107t162 -286h-125q-34 114 -91 176q-102 111 -262 111q-181 0 -292 -153q-127 -177 -127 -456q0 -274 118 -446
q112 -163 306 -163q139 0 237 102q74 76 106 167t40 246h-383v106h495v-694zM381 1734h114l147 -190l151 190h103l-200 -259h-113z" />
    <glyph glyph-name="uni01F4" unicode="&#x1f4;" horiz-adv-x="1273" vert-adv-y="2457" 
d="M1139 0h-102v239q-55 -99 -109 -153q-117 -119 -289 -119q-261 0 -416 230q-127 190 -127 480q0 324 151 523q150 197 397 197q182 0 311 -107t162 -286h-125q-34 114 -91 176q-102 111 -262 111q-181 0 -292 -153q-127 -177 -127 -456q0 -274 118 -446
q112 -163 306 -163q139 0 237 102q74 76 106 167t40 246h-383v106h495v-694zM864 1737l-202 -258h-105l180 258h127z" />
    <glyph glyph-name="uni01F4" unicode="&#x1f5;" horiz-adv-x="1273" vert-adv-y="2457" 
d="M1139 0h-102v239q-55 -99 -109 -153q-117 -119 -289 -119q-261 0 -416 230q-127 190 -127 480q0 324 151 523q150 197 397 197q182 0 311 -107t162 -286h-125q-34 114 -91 176q-102 111 -262 111q-181 0 -292 -153q-127 -177 -127 -456q0 -274 118 -446
q112 -163 306 -163q139 0 237 102q74 76 106 167t40 246h-383v106h495v-694zM864 1737l-202 -258h-105l180 258h127z" />
    <glyph glyph-name="Scommaaccent" unicode="&#x218;" horiz-adv-x="1056" vert-adv-y="2457" 
d="M79 383h117q17 -121 82 -197q95 -111 261 -111q140 0 221 74q88 80 88 210q0 137 -112 211q-56 37 -269 97q-155 43 -227 93q-142 99 -142 279q0 144 98 244q113 114 306 114q248 0 367 -175q51 -75 66 -190h-127q-19 108 -68 164q-82 94 -236 94q-133 0 -209 -73
q-75 -72 -75 -181q0 -105 67.5 -165t238.5 -107q151 -42 204 -62.5t104 -56.5q144 -102 144 -285q0 -166 -113 -276q-122 -117 -322 -117q-242 0 -365 154q-81 102 -99 262zM604 -95v-110q0 -90 -33.5 -134.5t-117.5 -64.5v61q71 20 71 78v18h-59v152h139z" />
    <glyph glyph-name="Scommaaccent" unicode="&#x219;" horiz-adv-x="1056" vert-adv-y="2457" 
d="M79 383h117q17 -121 82 -197q95 -111 261 -111q140 0 221 74q88 80 88 210q0 137 -112 211q-56 37 -269 97q-155 43 -227 93q-142 99 -142 279q0 144 98 244q113 114 306 114q248 0 367 -175q51 -75 66 -190h-127q-19 108 -68 164q-82 94 -236 94q-133 0 -209 -73
q-75 -72 -75 -181q0 -105 67.5 -165t238.5 -107q151 -42 204 -62.5t104 -56.5q144 -102 144 -285q0 -166 -113 -276q-122 -117 -322 -117q-242 0 -365 154q-81 102 -99 262zM604 -95v-110q0 -90 -33.5 -134.5t-117.5 -64.5v61q71 20 71 78v18h-59v152h139z" />
    <glyph glyph-name="Adotaccent" unicode="&#x226;" horiz-adv-x="1107" vert-adv-y="2457" 
d="M490 1365h133l454 -1365h-133l-136 430h-511l-138 -430h-128zM331 535h444l-220 695zM495 1488v191h119v-191h-119z" />
    <glyph glyph-name="Adotaccent" unicode="&#x227;" horiz-adv-x="1107" vert-adv-y="2457" 
d="M490 1365h133l454 -1365h-133l-136 430h-511l-138 -430h-128zM331 535h444l-220 695zM495 1488v191h119v-191h-119z" />
    <glyph glyph-name="afii57929" unicode="&#x2bc;" horiz-adv-x="430" vert-adv-y="2457" 
d="M284 1365v-148q0 -147 -33.5 -218.5t-117.5 -104.5v82q71 42 71 161v23h-59v205h139z" />
    <glyph glyph-name="circumflex" unicode="&#x2c6;" horiz-adv-x="1045" vert-adv-y="2457" 
d="M750 1092h-108l-124 197l-126 -197h-98l172 273h110z" />
    <glyph glyph-name="caron" unicode="&#x2c7;" horiz-adv-x="1045" vert-adv-y="2457" 
d="M294 1365h108l124 -197l126 197h98l-172 -273h-109z" />
    <glyph glyph-name="breve" unicode="&#x2d8;" horiz-adv-x="1054" vert-adv-y="2457" 
d="M749 1365q-30 -273 -222 -273t-222 273h77q26 -179 145 -179t144 179h78z" />
    <glyph glyph-name="dotaccent" unicode="&#x2d9;" horiz-adv-x="1044" vert-adv-y="2457" 
d="M465 1106v191h115v-191h-115z" />
    <glyph glyph-name="ring" unicode="&#x2da;" horiz-adv-x="1044" vert-adv-y="2457" 
d="M524 1358q-44 0 -74 -31.5t-30 -78.5q0 -44 30 -76t72 -32t72 31.5t30 77.5q0 45 -29.5 77t-70.5 32zM525 1434q75 0 128.5 -54.5t53.5 -130.5t-54 -130t-131 -54t-131 54t-54 130q0 78 54.5 131.5t133.5 53.5z" />
    <glyph glyph-name="ogonek" unicode="&#x2db;" horiz-adv-x="1057" vert-adv-y="2457" 
d="M927 0q-57 -45 -80 -83.5t-23 -90.5q0 -45 29.5 -73t77.5 -28q26 0 72 18v-72q-57 -22 -104 -22q-77 0 -123.5 41.5t-46.5 110.5q0 111 121 199h77z" />
    <glyph glyph-name="tilde" unicode="&#x2dc;" horiz-adv-x="1057" vert-adv-y="2457" 
d="M790 1318q-11 -76 -35 -124q-44 -88 -118 -88q-54 0 -128 73q-55 55 -89 55q-62 0 -79 -121h-73q11 99 53 155.5t105 56.5q58 0 124 -68q54 -55 85 -55q59 0 79 116h76z" />
    <glyph glyph-name="hungarumlaut" unicode="&#x2dd;" horiz-adv-x="1044" vert-adv-y="2457" 
d="M623 1365l-178 -273h-99l163 273h114zM851 1365l-178 -273h-99l163 273h114z" />
    <glyph glyph-name="afii10023" unicode="&#x401;" horiz-adv-x="1038" vert-adv-y="2457" 
d="M158 0v1365h787v-106h-665v-499h622v-106h-622v-548h672v-106h-794zM653 1488v191h119v-191h-119zM335 1488v191h119v-191h-119z" />
    <glyph glyph-name="afii10023" unicode="&#x451;" horiz-adv-x="1038" vert-adv-y="2457" 
d="M158 0v1365h787v-106h-665v-499h622v-106h-622v-548h672v-106h-794zM653 1488v191h119v-191h-119zM335 1488v191h119v-191h-119z" />
    <glyph glyph-name="afii10051" unicode="&#x402;" horiz-adv-x="1132" vert-adv-y="2457" 
d="M633 -56q32 -14 59 -14q95 0 162 104q40 63 64 171.5t24 224.5q0 232 -74 348q-63 99 -171 99q-123 0 -188 -104t-65 -301v-472h-122v1259h-298v106h916v-106h-496v-465q91 177 266 177q156 0 249 -131q95 -133 95 -391q0 -161 -37.5 -296.5t-102.5 -210.5
q-89 -102 -202 -102q-34 0 -79 15v89z" />
    <glyph glyph-name="afii10051" unicode="&#x452;" horiz-adv-x="1132" vert-adv-y="2457" 
d="M633 -56q32 -14 59 -14q95 0 162 104q40 63 64 171.5t24 224.5q0 232 -74 348q-63 99 -171 99q-123 0 -188 -104t-65 -301v-472h-122v1259h-298v106h916v-106h-496v-465q91 177 266 177q156 0 249 -131q95 -133 95 -391q0 -161 -37.5 -296.5t-102.5 -210.5
q-89 -102 -202 -102q-34 0 -79 15v89z" />
    <glyph glyph-name="afii10052" unicode="&#x403;" horiz-adv-x="960" vert-adv-y="2457" 
d="M158 1365h753v-106h-631v-1259h-122v1365zM740 1737l-202 -258h-105l180 258h127z" />
    <glyph glyph-name="afii10052" unicode="&#x453;" horiz-adv-x="960" vert-adv-y="2457" 
d="M158 1365h753v-106h-631v-1259h-122v1365zM740 1737l-202 -258h-105l180 258h127z" />
    <glyph glyph-name="afii10053" unicode="&#x404;" horiz-adv-x="1202" vert-adv-y="2457" 
d="M223 760h505v-106h-508q9 -208 71 -338q118 -243 350 -243q167 0 271 145q66 93 83 233h124q-19 -165 -99 -284q-135 -200 -381 -200q-261 0 -416 230q-127 189 -127 480q0 324 151 523q150 197 394 197q180 0 308 -110.5t156 -289.5h-125q-33 119 -87 180
q-101 113 -255 113q-173 0 -284.5 -142.5t-130.5 -387.5z" />
    <glyph glyph-name="afii10053" unicode="&#x454;" horiz-adv-x="1202" vert-adv-y="2457" 
d="M223 760h505v-106h-508q9 -208 71 -338q118 -243 350 -243q167 0 271 145q66 93 83 233h124q-19 -165 -99 -284q-135 -200 -381 -200q-261 0 -416 230q-127 189 -127 480q0 324 151 523q150 197 394 197q180 0 308 -110.5t156 -289.5h-125q-33 119 -87 180
q-101 113 -255 113q-173 0 -284.5 -142.5t-130.5 -387.5z" />
    <glyph glyph-name="afii10054" unicode="&#x405;" horiz-adv-x="1056" vert-adv-y="2457" 
d="M79 383h117q17 -121 82 -197q95 -111 261 -111q140 0 221 74q88 80 88 210q0 137 -112 211q-56 37 -269 97q-155 43 -227 93q-142 99 -142 279q0 144 98 244q113 114 306 114q248 0 367 -175q51 -75 66 -190h-127q-19 108 -68 164q-82 94 -236 94q-133 0 -209 -73
q-75 -72 -75 -181q0 -105 67.5 -165t238.5 -107q151 -42 204 -62.5t104 -56.5q144 -102 144 -285q0 -166 -113 -276q-122 -117 -322 -117q-242 0 -365 154q-81 102 -99 262z" />
    <glyph glyph-name="afii10054" unicode="&#x455;" horiz-adv-x="1056" vert-adv-y="2457" 
d="M79 383h117q17 -121 82 -197q95 -111 261 -111q140 0 221 74q88 80 88 210q0 137 -112 211q-56 37 -269 97q-155 43 -227 93q-142 99 -142 279q0 144 98 244q113 114 306 114q248 0 367 -175q51 -75 66 -190h-127q-19 108 -68 164q-82 94 -236 94q-133 0 -209 -73
q-75 -72 -75 -181q0 -105 67.5 -165t238.5 -107q151 -42 204 -62.5t104 -56.5q144 -102 144 -285q0 -166 -113 -276q-122 -117 -322 -117q-242 0 -365 154q-81 102 -99 262z" />
    <glyph glyph-name="afii10055" unicode="&#x406;" horiz-adv-x="438" vert-adv-y="2457" 
d="M158 0v1365h122v-1365h-122z" />
    <glyph glyph-name="afii10055" unicode="&#x4cf;" horiz-adv-x="438" vert-adv-y="2457" 
d="M158 0v1365h122v-1365h-122z" />
    <glyph glyph-name="afii10055" unicode="&#x4c0;" horiz-adv-x="438" vert-adv-y="2457" 
d="M158 0v1365h122v-1365h-122z" />
    <glyph glyph-name="afii10055" unicode="&#x456;" horiz-adv-x="438" vert-adv-y="2457" 
d="M158 0v1365h122v-1365h-122z" />
    <glyph glyph-name="afii10056" unicode="&#x407;" horiz-adv-x="438" vert-adv-y="2457" 
d="M159 0v1365h122v-1365h-122zM282 1488v191h119v-191h-119zM39 1488v191h119v-191h-119z" />
    <glyph glyph-name="afii10056" unicode="&#x4b7;" horiz-adv-x="438" vert-adv-y="2457" 
d="M159 0v1365h122v-1365h-122zM282 1488v191h119v-191h-119zM39 1488v191h119v-191h-119z" />
    <glyph glyph-name="afii10056" unicode="&#x457;" horiz-adv-x="438" vert-adv-y="2457" 
d="M159 0v1365h122v-1365h-122zM282 1488v191h119v-191h-119zM39 1488v191h119v-191h-119z" />
    <glyph glyph-name="afii10057" unicode="&#x408;" horiz-adv-x="606" vert-adv-y="2457" 
d="M343 1365h122v-898q0 -143 -11.5 -215.5t-43.5 -131.5q-83 -153 -286 -153q-47 0 -104 13v109q53 -16 104 -16q149 0 194 136q25 76 25 286v870z" />
    <glyph glyph-name="afii10057" unicode="&#x458;" horiz-adv-x="606" vert-adv-y="2457" 
d="M343 1365h122v-898q0 -143 -11.5 -215.5t-43.5 -131.5q-83 -153 -286 -153q-47 0 -104 13v109q53 -16 104 -16q149 0 194 136q25 76 25 286v870z" />
    <glyph glyph-name="afii10058" unicode="&#x409;" horiz-adv-x="1674" vert-adv-y="2457" 
d="M831 1259h-393l-104 -914q-15 -130 -42.5 -195t-84.5 -107q-71 -52 -190 -53v106q89 1 136 52.5t59 163.5l115 1053h626v-581h198q129 0 207.5 -20t135.5 -68q128 -106 128 -304q0 -215 -149 -320q-55 -39 -129 -55.5t-193 -16.5h-320v1259zM953 678v-572h189
q103 0 157 12t96 44q102 76 102 230q0 166 -115 240q-42 27 -92.5 36.5t-147.5 9.5h-189z" />
    <glyph glyph-name="afii10058" unicode="&#x459;" horiz-adv-x="1674" vert-adv-y="2457" 
d="M831 1259h-393l-104 -914q-15 -130 -42.5 -195t-84.5 -107q-71 -52 -190 -53v106q89 1 136 52.5t59 163.5l115 1053h626v-581h198q129 0 207.5 -20t135.5 -68q128 -106 128 -304q0 -215 -149 -320q-55 -39 -129 -55.5t-193 -16.5h-320v1259zM953 678v-572h189
q103 0 157 12t96 44q102 76 102 230q0 166 -115 240q-42 27 -92.5 36.5t-147.5 9.5h-189z" />
    <glyph glyph-name="afii10059" unicode="&#x40a;" horiz-adv-x="1763" vert-adv-y="2457" 
d="M920 777v588h122v-588h199q128 0 206 -20t136 -67q128 -104 128 -299q0 -214 -149 -319q-55 -39 -129 -55.5t-192 -16.5h-321v671h-640v-671h-122v1365h122v-588h640zM1042 671v-565h189q103 0 157 12t96 44q102 76 102 229q0 163 -115 235q-42 26 -93 35.5t-147 9.5
h-189z" />
    <glyph glyph-name="afii10059" unicode="&#x45a;" horiz-adv-x="1763" vert-adv-y="2457" 
d="M920 777v588h122v-588h199q128 0 206 -20t136 -67q128 -104 128 -299q0 -214 -149 -319q-55 -39 -129 -55.5t-192 -16.5h-321v671h-640v-671h-122v1365h122v-588h640zM1042 671v-565h189q103 0 157 12t96 44q102 76 102 229q0 163 -115 235q-42 26 -93 35.5t-147 9.5
h-189z" />
    <glyph glyph-name="afii10060" unicode="&#x40b;" horiz-adv-x="1155" vert-adv-y="2457" 
d="M444 0h-122v1259h-298v106h916v-106h-496v-465q94 177 281 177q110 0 187 -65q54 -46 78 -119t24 -194v-593h-112v555q0 144 -26 213q-19 50 -66 79.5t-107 29.5q-73 0 -133.5 -41.5t-89.5 -112.5q-36 -85 -36 -251v-472z" />
    <glyph glyph-name="afii10060" unicode="&#x45b;" horiz-adv-x="1155" vert-adv-y="2457" 
d="M444 0h-122v1259h-298v106h916v-106h-496v-465q94 177 281 177q110 0 187 -65q54 -46 78 -119t24 -194v-593h-112v555q0 144 -26 213q-19 50 -66 79.5t-107 29.5q-73 0 -133.5 -41.5t-89.5 -112.5q-36 -85 -36 -251v-472z" />
    <glyph glyph-name="afii10061" unicode="&#x40c;" horiz-adv-x="1108" vert-adv-y="2457" 
d="M162 1365h118v-592h154l473 592h138l-511 -636l560 -729h-139l-525 675h-150v-675h-118v1365zM814 1737l-202 -258h-105l180 258h127z" />
    <glyph glyph-name="afii10061" unicode="&#x45c;" horiz-adv-x="1108" vert-adv-y="2457" 
d="M162 1365h118v-592h154l473 592h138l-511 -636l560 -729h-139l-525 675h-150v-675h-118v1365zM814 1737l-202 -258h-105l180 258h127z" />
    <glyph glyph-name="uni040D" unicode="&#x40d;" horiz-adv-x="1225" vert-adv-y="2457" 
d="M158 1365h116v-1040l678 904v136h116v-1365h-116v1046l-678 -901v-145h-116v1365zM441 1737h126l181 -258h-105z" />
    <glyph glyph-name="uni040D" unicode="&#x450;" horiz-adv-x="1225" vert-adv-y="2457" 
d="M158 1365h116v-1040l678 904v136h116v-1365h-116v1046l-678 -901v-145h-116v1365zM441 1737h126l181 -258h-105z" />
    <glyph glyph-name="afii10062" unicode="&#x40e;" horiz-adv-x="1013" vert-adv-y="2457" 
d="M527 492l367 873h129l-516 -1210q-43 -102 -96.5 -145t-136.5 -43q-39 0 -89 13v109q43 -16 81 -16q47 0 77.5 27t57.5 92l66 157l-456 1016h138zM768 1734q-33 -259 -239 -259q-207 0 -239 259h83q15 -86 52 -125.5t104 -39.5t104 39.5t52 125.5h83z" />
    <glyph glyph-name="afii10062" unicode="&#x45e;" horiz-adv-x="1013" vert-adv-y="2457" 
d="M527 492l367 873h129l-516 -1210q-43 -102 -96.5 -145t-136.5 -43q-39 0 -89 13v109q43 -16 81 -16q47 0 77.5 27t57.5 92l66 157l-456 1016h138zM768 1734q-33 -259 -239 -259q-207 0 -239 259h83q15 -86 52 -125.5t104 -39.5t104 39.5t52 125.5h83z" />
    <glyph glyph-name="afii10145" unicode="&#x40f;" horiz-adv-x="1227" vert-adv-y="2457" 
d="M553 0h-395v1365h122v-1259h668v1259h122v-1365h-395v-205h-122v205z" />
    <glyph glyph-name="afii10145" unicode="&#x45f;" horiz-adv-x="1227" vert-adv-y="2457" 
d="M553 0h-395v1365h122v-1259h668v1259h122v-1365h-395v-205h-122v205z" />
    <glyph glyph-name="afii10017" unicode="&#x410;" horiz-adv-x="1107" vert-adv-y="2457" 
d="M490 1365h133l454 -1365h-133l-136 430h-511l-138 -430h-128zM331 535h444l-220 695z" />
    <glyph glyph-name="afii10017" unicode="&#x430;" horiz-adv-x="1107" vert-adv-y="2457" 
d="M490 1365h133l454 -1365h-133l-136 430h-511l-138 -430h-128zM331 535h444l-220 695z" />
    <glyph glyph-name="afii10018" unicode="&#x411;" horiz-adv-x="1055" vert-adv-y="2457" 
d="M911 1365v-106h-631v-475h226q129 0 207 -20t136 -68q128 -106 128 -304q0 -215 -149 -320q-55 -39 -129.5 -55.5t-192.5 -16.5h-348v1365h753zM280 678v-572h216q104 0 157.5 12t96.5 44q102 76 102 230q0 167 -115 240q-43 27 -93.5 36.5t-147.5 9.5h-216z" />
    <glyph glyph-name="afii10018" unicode="&#x431;" horiz-adv-x="1055" vert-adv-y="2457" 
d="M911 1365v-106h-631v-475h226q129 0 207 -20t136 -68q128 -106 128 -304q0 -215 -149 -320q-55 -39 -129.5 -55.5t-192.5 -16.5h-348v1365h753zM280 678v-572h216q104 0 157.5 12t96.5 44q102 76 102 230q0 167 -115 240q-43 27 -93.5 36.5t-147.5 9.5h-216z" />
    <glyph glyph-name="afii10019" unicode="&#x412;" horiz-adv-x="1139" vert-adv-y="2457" 
d="M158 0v1365h393q209 0 311 -70q136 -94 136 -266q0 -114 -62.5 -195.5t-178.5 -117.5q285 -65 285 -332q0 -180 -125 -282t-345 -102h-414zM280 760h196q161 0 245 31q72 27 113 87.5t41 139.5q0 150 -120 209q-65 32 -205 32h-270v-499zM280 106h258q186 0 269 55
q110 71 110 226q0 140 -91.5 205.5t-288.5 65.5h-257v-552z" />
    <glyph glyph-name="afii10019" unicode="&#x432;" horiz-adv-x="1139" vert-adv-y="2457" 
d="M158 0v1365h393q209 0 311 -70q136 -94 136 -266q0 -114 -62.5 -195.5t-178.5 -117.5q285 -65 285 -332q0 -180 -125 -282t-345 -102h-414zM280 760h196q161 0 245 31q72 27 113 87.5t41 139.5q0 150 -120 209q-65 32 -205 32h-270v-499zM280 106h258q186 0 269 55
q110 71 110 226q0 140 -91.5 205.5t-288.5 65.5h-257v-552z" />
    <glyph glyph-name="afii10020" unicode="&#x413;" horiz-adv-x="960" vert-adv-y="2457" 
d="M158 1365h753v-106h-631v-1259h-122v1365z" />
    <glyph glyph-name="afii10020" unicode="&#x433;" horiz-adv-x="960" vert-adv-y="2457" 
d="M158 1365h753v-106h-631v-1259h-122v1365z" />
    <glyph glyph-name="afii10021" unicode="&#x414;" horiz-adv-x="1156" vert-adv-y="2457" 
d="M342 1365h654v-1259h123v-311h-123v205h-857v-205h-122v311h17q170 0 193 206zM262 106h612v1153h-421l-104 -914q-11 -93 -30 -145.5t-57 -93.5z" />
    <glyph glyph-name="afii10021" unicode="&#x434;" horiz-adv-x="1156" vert-adv-y="2457" 
d="M342 1365h654v-1259h123v-311h-123v205h-857v-205h-122v311h17q170 0 193 206zM262 106h612v1153h-421l-104 -914q-11 -93 -30 -145.5t-57 -93.5z" />
    <glyph glyph-name="afii10022" unicode="&#x415;" horiz-adv-x="1038" vert-adv-y="2457" 
d="M158 0v1365h787v-106h-665v-499h622v-106h-622v-548h672v-106h-794z" />
    <glyph glyph-name="afii10022" unicode="&#x435;" horiz-adv-x="1038" vert-adv-y="2457" 
d="M158 0v1365h787v-106h-665v-499h622v-106h-622v-548h672v-106h-794z" />
    <glyph glyph-name="afii10024" unicode="&#x416;" horiz-adv-x="1735" vert-adv-y="2457" 
d="M1553 1365h138l-511 -636l560 -729h-139l-525 675h-150v-675h-118v675h-151l-525 -675h-138l559 729l-510 636h138l473 -592h154v592h118v-592h154z" />
    <glyph glyph-name="afii10024" unicode="&#x436;" horiz-adv-x="1735" vert-adv-y="2457" 
d="M1553 1365h138l-511 -636l560 -729h-139l-525 675h-150v-675h-118v675h-151l-525 -675h-138l559 729l-510 636h138l473 -592h154v592h118v-592h154z" />
    <glyph glyph-name="afii10025" unicode="&#x417;" horiz-adv-x="1102" vert-adv-y="2457" 
d="M474 760h68q147 0 226 49q122 75 122 222q0 121 -81 190.5t-221 69.5q-148 0 -236 -70.5t-131 -223.5h-124q29 187 160 293.5t333 106.5q200 0 313 -100q113 -99 113 -267q0 -130 -72.5 -211.5t-211.5 -107.5q118 -28 179 -82q106 -92 106 -260q0 -174 -116 -285
q-123 -117 -326 -117q-204 0 -335 129t-157 355h124q19 -157 102 -256q100 -121 267 -121q140 0 226 85q89 90 89 226q0 80 -37.5 142t-105.5 95q-40 20 -79.5 26t-126.5 6h-68v106z" />
    <glyph glyph-name="afii10025" unicode="&#x437;" horiz-adv-x="1102" vert-adv-y="2457" 
d="M474 760h68q147 0 226 49q122 75 122 222q0 121 -81 190.5t-221 69.5q-148 0 -236 -70.5t-131 -223.5h-124q29 187 160 293.5t333 106.5q200 0 313 -100q113 -99 113 -267q0 -130 -72.5 -211.5t-211.5 -107.5q118 -28 179 -82q106 -92 106 -260q0 -174 -116 -285
q-123 -117 -326 -117q-204 0 -335 129t-157 355h124q19 -157 102 -256q100 -121 267 -121q140 0 226 85q89 90 89 226q0 80 -37.5 142t-105.5 95q-40 20 -79.5 26t-126.5 6h-68v106z" />
    <glyph glyph-name="afii10026" unicode="&#x418;" horiz-adv-x="1225" vert-adv-y="2457" 
d="M158 1365h116v-1040l678 904v136h116v-1365h-116v1046l-678 -901v-145h-116v1365z" />
    <glyph glyph-name="afii10026" unicode="&#x438;" horiz-adv-x="1225" vert-adv-y="2457" 
d="M158 1365h116v-1040l678 904v136h116v-1365h-116v1046l-678 -901v-145h-116v1365z" />
    <glyph glyph-name="afii10027" unicode="&#x419;" horiz-adv-x="1225" vert-adv-y="2457" 
d="M158 1365h116v-1040l678 904v136h116v-1365h-116v1046l-678 -901v-145h-116v1365zM862 1734q-33 -259 -239 -259q-207 0 -239 259h83q15 -86 52 -125.5t104 -39.5t104 39.5t52 125.5h83z" />
    <glyph glyph-name="afii10027" unicode="&#x439;" horiz-adv-x="1225" vert-adv-y="2457" 
d="M158 1365h116v-1040l678 904v136h116v-1365h-116v1046l-678 -901v-145h-116v1365zM862 1734q-33 -259 -239 -259q-207 0 -239 259h83q15 -86 52 -125.5t104 -39.5t104 39.5t52 125.5h83z" />
    <glyph glyph-name="afii10028" unicode="&#x41a;" horiz-adv-x="1108" vert-adv-y="2457" 
d="M162 1365h118v-592h154l473 592h138l-511 -636l560 -729h-139l-525 675h-150v-675h-118v1365z" />
    <glyph glyph-name="afii10028" unicode="&#x43a;" horiz-adv-x="1108" vert-adv-y="2457" 
d="M162 1365h118v-592h154l473 592h138l-511 -636l560 -729h-139l-525 675h-150v-675h-118v1365z" />
    <glyph glyph-name="afii10029" unicode="&#x41b;" horiz-adv-x="1139" vert-adv-y="2457" 
d="M981 1365v-1365h-122v1259h-421l-104 -914q-15 -129 -42 -194t-84 -108q-72 -52 -191 -53v106q89 1 136 52.5t59 163.5l116 1053h653z" />
    <glyph glyph-name="afii10029" unicode="&#x43b;" horiz-adv-x="1139" vert-adv-y="2457" 
d="M981 1365v-1365h-122v1259h-421l-104 -914q-15 -129 -42 -194t-84 -108q-72 -52 -191 -53v106q89 1 136 52.5t59 163.5l116 1053h653z" />
    <glyph glyph-name="afii10030" unicode="&#x41c;" horiz-adv-x="1436" vert-adv-y="2457" 
d="M158 0v1365h159l405 -1191l397 1191h160v-1365h-116v1170l-387 -1170h-108l-394 1162v-1162h-116z" />
    <glyph glyph-name="afii10030" unicode="&#x43c;" horiz-adv-x="1436" vert-adv-y="2457" 
d="M158 0v1365h159l405 -1191l397 1191h160v-1365h-116v1170l-387 -1170h-108l-394 1162v-1162h-116z" />
    <glyph glyph-name="afii10031" unicode="&#x41d;" horiz-adv-x="1227" vert-adv-y="2457" 
d="M158 0v1365h122v-596h668v596h122v-1365h-122v663h-668v-663h-122z" />
    <glyph glyph-name="afii10031" unicode="&#x43d;" horiz-adv-x="1227" vert-adv-y="2457" 
d="M158 0v1365h122v-596h668v596h122v-1365h-122v663h-668v-663h-122z" />
    <glyph glyph-name="afii10032" unicode="&#x41e;" horiz-adv-x="1280" vert-adv-y="2457" 
d="M640 1396q243 0 393 -199q151 -201 151 -518q0 -281 -122 -474q-74 -118 -188 -180q-106 -58 -234 -58q-272 0 -422 238q-122 193 -122 488q0 312 150 504q155 199 394 199zM640 1290q-186 0 -303 -167q-117 -166 -117 -427q0 -262 100 -431q57 -97 154 -150
q76 -42 167 -42q124 0 224 80q106 86 158 255q37 121 37 272q0 269 -115 438q-116 172 -305 172z" />
    <glyph glyph-name="afii10032" unicode="&#x43e;" horiz-adv-x="1280" vert-adv-y="2457" 
d="M640 1396q243 0 393 -199q151 -201 151 -518q0 -281 -122 -474q-74 -118 -188 -180q-106 -58 -234 -58q-272 0 -422 238q-122 193 -122 488q0 312 150 504q155 199 394 199zM640 1290q-186 0 -303 -167q-117 -166 -117 -427q0 -262 100 -431q57 -97 154 -150
q76 -42 167 -42q124 0 224 80q106 86 158 255q37 121 37 272q0 269 -115 438q-116 172 -305 172z" />
    <glyph glyph-name="afii10033" unicode="&#x41f;" horiz-adv-x="1227" vert-adv-y="2457" 
d="M1070 1365v-1365h-122v1259h-668v-1259h-122v1365h912z" />
    <glyph glyph-name="afii10033" unicode="&#x43f;" horiz-adv-x="1227" vert-adv-y="2457" 
d="M1070 1365v-1365h-122v1259h-668v-1259h-122v1365h912z" />
    <glyph glyph-name="afii10034" unicode="&#x420;" horiz-adv-x="1069" vert-adv-y="2457" 
d="M158 0v1365h348q128 0 206.5 -20t136.5 -68q128 -106 128 -299q0 -216 -161 -322q-113 -74 -324 -74h-212v-582h-122zM280 688h222q179 0 257 64q93 75 93 222q0 165 -115 239q-42 27 -93 36.5t-148 9.5h-216v-571z" />
    <glyph glyph-name="afii10034" unicode="&#x440;" horiz-adv-x="1069" vert-adv-y="2457" 
d="M158 0v1365h348q128 0 206.5 -20t136.5 -68q128 -106 128 -299q0 -216 -161 -322q-113 -74 -324 -74h-212v-582h-122zM280 688h222q179 0 257 64q93 75 93 222q0 165 -115 239q-42 27 -93 36.5t-148 9.5h-216v-571z" />
    <glyph glyph-name="afii10035" unicode="&#x421;" horiz-adv-x="1202" vert-adv-y="2457" 
d="M995 451h124q-19 -165 -99 -284q-135 -200 -381 -200q-261 0 -416 230q-127 189 -127 480q0 324 151 523q150 197 395 197q180 0 307.5 -110.5t155.5 -289.5h-124q-34 119 -88 180q-101 113 -255 113q-180 0 -291 -153q-127 -177 -127 -456q0 -273 118 -445
q52 -76 130 -119q79 -44 173 -44q167 0 271 145q66 93 83 233z" />
    <glyph glyph-name="afii10035" unicode="&#x441;" horiz-adv-x="1202" vert-adv-y="2457" 
d="M995 451h124q-19 -165 -99 -284q-135 -200 -381 -200q-261 0 -416 230q-127 189 -127 480q0 324 151 523q150 197 395 197q180 0 307.5 -110.5t155.5 -289.5h-124q-34 119 -88 180q-101 113 -255 113q-180 0 -291 -153q-127 -177 -127 -456q0 -273 118 -445
q52 -76 130 -119q79 -44 173 -44q167 0 271 145q66 93 83 233z" />
    <glyph glyph-name="afii10036" unicode="&#x422;" horiz-adv-x="1006" vert-adv-y="2457" 
d="M564 0h-122v1259h-397v106h916v-106h-397v-1259z" />
    <glyph glyph-name="afii10036" unicode="&#x442;" horiz-adv-x="1006" vert-adv-y="2457" 
d="M564 0h-122v1259h-397v106h916v-106h-397v-1259z" />
    <glyph glyph-name="afii10037" unicode="&#x423;" horiz-adv-x="1013" vert-adv-y="2457" 
d="M527 492l367 873h129l-516 -1210q-43 -102 -96.5 -145t-136.5 -43q-39 0 -89 13v109q43 -16 81 -16q47 0 77.5 27t57.5 92l66 157l-456 1016h138z" />
    <glyph glyph-name="afii10037" unicode="&#x443;" horiz-adv-x="1013" vert-adv-y="2457" 
d="M527 492l367 873h129l-516 -1210q-43 -102 -96.5 -145t-136.5 -43q-39 0 -89 13v109q43 -16 81 -16q47 0 77.5 27t57.5 92l66 157l-456 1016h138z" />
    <glyph glyph-name="afii10038" unicode="&#x424;" horiz-adv-x="1504" vert-adv-y="2457" 
d="M812 1205q301 -12 454 -147q160 -140 160 -374q0 -351 -326 -470q-126 -47 -288 -53v-161h-119v160q-300 12 -454 147q-160 140 -160 375q0 240 159 375.5t455 147.5v160h119v-160zM812 263q253 15 366 113q128 111 128 307q0 392 -494 422v-842zM693 263v843
q-494 -30 -494 -422q0 -225 162 -334q111 -74 332 -87z" />
    <glyph glyph-name="afii10038" unicode="&#x444;" horiz-adv-x="1504" vert-adv-y="2457" 
d="M812 1205q301 -12 454 -147q160 -140 160 -374q0 -351 -326 -470q-126 -47 -288 -53v-161h-119v160q-300 12 -454 147q-160 140 -160 375q0 240 159 375.5t455 147.5v160h119v-160zM812 263q253 15 366 113q128 111 128 307q0 392 -494 422v-842zM693 263v843
q-494 -30 -494 -422q0 -225 162 -334q111 -74 332 -87z" />
    <glyph glyph-name="afii10039" unicode="&#x425;" horiz-adv-x="1026" vert-adv-y="2457" 
d="M31 0l415 702l-390 663h139l319 -564l327 564h132l-391 -663l413 -702h-141l-341 598l-347 -598h-135z" />
    <glyph glyph-name="afii10039" unicode="&#x445;" horiz-adv-x="1026" vert-adv-y="2457" 
d="M31 0l415 702l-390 663h139l319 -564l327 564h132l-391 -663l413 -702h-141l-341 598l-347 -598h-135z" />
    <glyph glyph-name="afii10040" unicode="&#x426;" horiz-adv-x="1229" vert-adv-y="2457" 
d="M1070 106h122v-311h-122v205h-912v1365h122v-1259h668v1259h122v-1259z" />
    <glyph glyph-name="afii10040" unicode="&#x446;" horiz-adv-x="1229" vert-adv-y="2457" 
d="M1070 106h122v-311h-122v205h-912v1365h122v-1259h668v1259h122v-1259z" />
    <glyph glyph-name="afii10041" unicode="&#x427;" horiz-adv-x="1191" vert-adv-y="2457" 
d="M1002 628q-50 -64 -136.5 -98.5t-192.5 -34.5q-120 0 -219 40t-157 111q-48 59 -67.5 132.5t-19.5 195.5v391h122v-396q0 -103 16 -163t56 -105q41 -46 114 -73t157 -27q169 0 248 100t79 313v351h122v-1365h-122v628z" />
    <glyph glyph-name="afii10041" unicode="&#x447;" horiz-adv-x="1191" vert-adv-y="2457" 
d="M1002 628q-50 -64 -136.5 -98.5t-192.5 -34.5q-120 0 -219 40t-157 111q-48 59 -67.5 132.5t-19.5 195.5v391h122v-396q0 -103 16 -163t56 -105q41 -46 114 -73t157 -27q169 0 248 100t79 313v351h122v-1365h-122v628z" />
    <glyph glyph-name="afii10042" unicode="&#x428;" horiz-adv-x="1661" vert-adv-y="2457" 
d="M1504 0h-1346v1365h122v-1259h490v1259h122v-1259h490v1259h122v-1365z" />
    <glyph glyph-name="afii10042" unicode="&#x448;" horiz-adv-x="1661" vert-adv-y="2457" 
d="M1504 0h-1346v1365h122v-1259h490v1259h122v-1259h490v1259h122v-1365z" />
    <glyph glyph-name="afii10043" unicode="&#x429;" horiz-adv-x="1664" vert-adv-y="2457" 
d="M1504 106h123v-311h-123v205h-1346v1365h122v-1259h490v1259h122v-1259h490v1259h122v-1259z" />
    <glyph glyph-name="afii10043" unicode="&#x449;" horiz-adv-x="1664" vert-adv-y="2457" 
d="M1504 106h123v-311h-123v205h-1346v1365h122v-1259h490v1259h122v-1259h490v1259h122v-1259z" />
    <glyph glyph-name="afii10044" unicode="&#x42a;" horiz-adv-x="1281" vert-adv-y="2457" 
d="M24 1365h481v-581h226q128 0 206.5 -20t136.5 -68q128 -106 128 -304q0 -215 -149 -320q-55 -39 -129.5 -55.5t-192.5 -16.5h-348v1259h-359v106zM505 678v-572h216q104 0 157.5 12t96.5 44q102 76 102 230q0 167 -115 240q-43 27 -93.5 36.5t-147.5 9.5h-216z" />
    <glyph glyph-name="afii10044" unicode="&#x44a;" horiz-adv-x="1281" vert-adv-y="2457" 
d="M24 1365h481v-581h226q128 0 206.5 -20t136.5 -68q128 -106 128 -304q0 -215 -149 -320q-55 -39 -129.5 -55.5t-192.5 -16.5h-348v1259h-359v106zM505 678v-572h216q104 0 157.5 12t96.5 44q102 76 102 230q0 167 -115 240q-43 27 -93.5 36.5t-147.5 9.5h-216z" />
    <glyph glyph-name="afii10045" unicode="&#x42b;" horiz-adv-x="1418" vert-adv-y="2457" 
d="M158 1365h122v-581h226q128 0 206.5 -20t136.5 -68q128 -106 128 -304q0 -215 -149 -320q-55 -39 -129.5 -55.5t-192.5 -16.5h-348v1365zM280 678v-572h216q104 0 157.5 12t96.5 44q102 76 102 230q0 166 -115 240q-42 27 -93 36.5t-148 9.5h-216zM1139 0v1365h122v-1365
h-122z" />
    <glyph glyph-name="afii10045" unicode="&#x44b;" horiz-adv-x="1418" vert-adv-y="2457" 
d="M158 1365h122v-581h226q128 0 206.5 -20t136.5 -68q128 -106 128 -304q0 -215 -149 -320q-55 -39 -129.5 -55.5t-192.5 -16.5h-348v1365zM280 678v-572h216q104 0 157.5 12t96.5 44q102 76 102 230q0 166 -115 240q-42 27 -93 36.5t-148 9.5h-216zM1139 0v1365h122v-1365
h-122z" />
    <glyph glyph-name="afii10046" unicode="&#x42c;" horiz-adv-x="1055" vert-adv-y="2457" 
d="M158 1365h122v-581h226q128 0 206.5 -20t136.5 -68q128 -106 128 -304q0 -215 -149 -320q-55 -39 -129.5 -55.5t-192.5 -16.5h-348v1365zM280 678v-572h216q104 0 157.5 12t96.5 44q102 76 102 230q0 166 -115 240q-42 27 -93 36.5t-148 9.5h-216z" />
    <glyph glyph-name="afii10046" unicode="&#x44c;" horiz-adv-x="1055" vert-adv-y="2457" 
d="M158 1365h122v-581h226q128 0 206.5 -20t136.5 -68q128 -106 128 -304q0 -215 -149 -320q-55 -39 -129.5 -55.5t-192.5 -16.5h-348v1365zM280 678v-572h216q104 0 157.5 12t96.5 44q102 76 102 230q0 166 -115 240q-42 27 -93 36.5t-148 9.5h-216z" />
    <glyph glyph-name="afii10047" unicode="&#x42d;" horiz-adv-x="1202" vert-adv-y="2457" 
d="M979 760q-13 171 -72 290q-119 240 -343 240q-171 0 -272 -134q-41 -54 -71 -159h-124q20 133 101 232q65 81 159.5 124.5t202.5 43.5q244 0 394 -197q152 -199 152 -523q0 -322 -155 -517q-152 -193 -388 -193q-195 0 -325 130.5t-155 353.5h124q19 -157 102 -257
q100 -121 252 -121q186 0 298 154.5t123 426.5h-508v106h505z" />
    <glyph glyph-name="afii10047" unicode="&#x44d;" horiz-adv-x="1202" vert-adv-y="2457" 
d="M979 760q-13 171 -72 290q-119 240 -343 240q-171 0 -272 -134q-41 -54 -71 -159h-124q20 133 101 232q65 81 159.5 124.5t202.5 43.5q244 0 394 -197q152 -199 152 -523q0 -322 -155 -517q-152 -193 -388 -193q-195 0 -325 130.5t-155 353.5h124q19 -157 102 -257
q100 -121 252 -121q186 0 298 154.5t123 426.5h-508v106h505z" />
    <glyph glyph-name="afii10048" unicode="&#x42e;" horiz-adv-x="1765" vert-adv-y="2457" 
d="M584 769q12 198 94 347q76 139 194 211q114 69 252 69q244 0 393 -199q151 -201 151 -517q0 -281 -122 -475q-74 -118 -188 -180q-106 -58 -235 -58q-240 0 -388 190t-154 506h-301v-663h-122v1365h122v-596h304zM1124 1290q-185 0 -302 -167q-117 -166 -117 -426
q0 -261 100 -431q57 -97 154 -150q76 -42 167 -42q123 0 223 80q106 86 158 255q37 121 37 272q0 268 -115 438q-116 171 -305 171z" />
    <glyph glyph-name="afii10048" unicode="&#x44e;" horiz-adv-x="1765" vert-adv-y="2457" 
d="M584 769q12 198 94 347q76 139 194 211q114 69 252 69q244 0 393 -199q151 -201 151 -517q0 -281 -122 -475q-74 -118 -188 -180q-106 -58 -235 -58q-240 0 -388 190t-154 506h-301v-663h-122v1365h122v-596h304zM1124 1290q-185 0 -302 -167q-117 -166 -117 -426
q0 -261 100 -431q57 -97 154 -150q76 -42 167 -42q123 0 223 80q106 86 158 255q37 121 37 272q0 268 -115 438q-116 171 -305 171z" />
    <glyph glyph-name="afii10049" unicode="&#x42f;" horiz-adv-x="1165" vert-adv-y="2457" 
d="M1008 0h-122v611h-222q-193 0 -275 -61q-46 -35 -66 -93.5t-26 -179.5q-8 -141 -15.5 -188.5t-30.5 -88.5h-138q25 38 34.5 88t18.5 198q13 197 57 272.5t162 100.5q-90 24 -149 88q-92 100 -92 257q0 192 135 289q100 72 286 72h443v-1365zM886 714v545h-318
q-151 0 -219 -58q-80 -69 -80 -201q0 -170 111 -242q68 -44 226 -44h280z" />
    <glyph glyph-name="afii10049" unicode="&#x44f;" horiz-adv-x="1165" vert-adv-y="2457" 
d="M1008 0h-122v611h-222q-193 0 -275 -61q-46 -35 -66 -93.5t-26 -179.5q-8 -141 -15.5 -188.5t-30.5 -88.5h-138q25 38 34.5 88t18.5 198q13 197 57 272.5t162 100.5q-90 24 -149 88q-92 100 -92 257q0 192 135 289q100 72 286 72h443v-1365zM886 714v545h-318
q-151 0 -219 -58q-80 -69 -80 -201q0 -170 111 -242q68 -44 226 -44h280z" />
    <glyph glyph-name="afii10050" unicode="&#x490;" horiz-adv-x="960" vert-adv-y="2457" 
d="M911 1488v-229h-631v-1259h-122v1365h631v123h122z" />
    <glyph glyph-name="afii10050" unicode="&#x491;" horiz-adv-x="960" vert-adv-y="2457" 
d="M911 1488v-229h-631v-1259h-122v1365h631v123h122z" />
    <glyph glyph-name="Fdotaccent" unicode="&#x1e1e;" horiz-adv-x="940" vert-adv-y="2457" 
d="M158 0v1365h731v-106h-609v-498h541v-106h-541v-655h-122zM412 1488v191h119v-191h-119z" />
    <glyph glyph-name="Fdotaccent" unicode="&#x1e1f;" horiz-adv-x="940" vert-adv-y="2457" 
d="M158 0v1365h731v-106h-609v-498h541v-106h-541v-655h-122zM412 1488v191h119v-191h-119z" />
    <glyph glyph-name="Wgrave" unicode="&#x1e80;" horiz-adv-x="1524" vert-adv-y="2457" 
d="M349 0l-314 1365h125l259 -1172l276 1172h136l278 -1172l260 1172h120l-315 -1365h-129l-284 1183l-282 -1183h-130zM535 1737h126l181 -258h-105z" />
    <glyph glyph-name="Wgrave" unicode="&#x1e81;" horiz-adv-x="1524" vert-adv-y="2457" 
d="M349 0l-314 1365h125l259 -1172l276 1172h136l278 -1172l260 1172h120l-315 -1365h-129l-284 1183l-282 -1183h-130zM535 1737h126l181 -258h-105z" />
    <glyph glyph-name="Wacute" unicode="&#x1e82;" horiz-adv-x="1524" vert-adv-y="2457" 
d="M349 0l-314 1365h125l259 -1172l276 1172h136l278 -1172l260 1172h120l-315 -1365h-129l-284 1183l-282 -1183h-130zM990 1737l-202 -258h-105l180 258h127z" />
    <glyph glyph-name="Wacute" unicode="&#x1e83;" horiz-adv-x="1524" vert-adv-y="2457" 
d="M349 0l-314 1365h125l259 -1172l276 1172h136l278 -1172l260 1172h120l-315 -1365h-129l-284 1183l-282 -1183h-130zM990 1737l-202 -258h-105l180 258h127z" />
    <glyph glyph-name="Wdieresis" unicode="&#x1e84;" horiz-adv-x="1524" vert-adv-y="2457" 
d="M349 0l-314 1365h125l259 -1172l276 1172h136l278 -1172l260 1172h120l-315 -1365h-129l-284 1183l-282 -1183h-130zM863 1488v191h119v-191h-119zM545 1488v191h119v-191h-119z" />
    <glyph glyph-name="Ygrave" unicode="&#x1ef2;" horiz-adv-x="1038" vert-adv-y="2457" 
d="M458 0v565l-450 800h141l373 -682l372 682h135l-449 -800v-565h-122zM291 1737h126l181 -258h-105z" />
    <glyph glyph-name="Ygrave" unicode="&#x1ef3;" horiz-adv-x="1038" vert-adv-y="2457" 
d="M458 0v565l-450 800h141l373 -682l372 682h135l-449 -800v-565h-122zM291 1737h126l181 -258h-105z" />
    <glyph glyph-name="endash" unicode="&#x2012;" horiz-adv-x="986" vert-adv-y="2457" 
d="M855 683v-106h-725v106h725z" />
    <glyph glyph-name="endash" unicode="&#x2013;" horiz-adv-x="986" vert-adv-y="2457" 
d="M855 683v-106h-725v106h725z" />
    <glyph glyph-name="emdash" unicode="&#x2014;" horiz-adv-x="1449" vert-adv-y="2457" 
d="M1304 683v-106h-1152v106h1152z" />
    <glyph glyph-name="emdash" unicode="&#x2015;" horiz-adv-x="1449" vert-adv-y="2457" 
d="M1304 683v-106h-1152v106h1152z" />
    <glyph glyph-name="underscoredbl" unicode="&#x2017;" horiz-adv-x="1044" vert-adv-y="2457" 
d="M10 -117h1024v-97h-1024v97zM10 -356h1024v-98h-1024v98z" />
    <glyph glyph-name="quoteleft" unicode="&#x2018;" horiz-adv-x="430" vert-adv-y="2457" 
d="M145 915v148q0 146 34.5 219t117.5 104v-82q-72 -39 -72 -161v-24h59v-204h-139z" />
    <glyph glyph-name="quoteright" unicode="&#x2019;" horiz-adv-x="430" vert-adv-y="2457" 
d="M284 1365v-148q0 -147 -33.5 -218.5t-117.5 -104.5v82q71 42 71 161v23h-59v205h139z" />
    <glyph glyph-name="quotesinglbase" unicode="&#x201a;" horiz-adv-x="430" vert-adv-y="2457" 
d="M284 205v-148q0 -147 -33.5 -218.5t-117.5 -104.5v82q71 42 71 161v23h-59v205h139z" />
    <glyph glyph-name="quotedblleft" unicode="&#x201c;" horiz-adv-x="682" vert-adv-y="2457" 
d="M145 915v148q0 146 34.5 219t117.5 104v-82q-72 -39 -72 -161v-24h59v-204h-139zM397 915v148q0 146 33.5 217.5t117.5 105.5v-82q-71 -42 -71 -161v-24h59v-204h-139z" />
    <glyph glyph-name="quotedblright" unicode="&#x201d;" horiz-adv-x="682" vert-adv-y="2457" 
d="M284 1365v-148q0 -147 -33.5 -218.5t-117.5 -104.5v82q71 42 71 161v23h-59v205h139zM536 1365v-148q0 -146 -33.5 -218t-117.5 -105v82q71 42 71 161v23h-59v205h139z" />
    <glyph glyph-name="quotedblbase" unicode="&#x201e;" horiz-adv-x="682" vert-adv-y="2457" 
d="M284 205v-148q0 -147 -33.5 -218.5t-117.5 -104.5v82q71 42 71 161v23h-59v205h139zM536 205v-148q0 -147 -33.5 -218.5t-117.5 -104.5v82q71 42 71 161v23h-59v205h139z" />
    <glyph glyph-name="dagger" unicode="&#x2020;" horiz-adv-x="986" vert-adv-y="2457" 
d="M864 961v-102h-324v-859h-102v859h-318v102h318v404h102v-404h324z" />
    <glyph glyph-name="daggerdbl" unicode="&#x2021;" horiz-adv-x="986" vert-adv-y="2457" 
d="M865 960v-102h-323v-342h323v-102h-323v-414h-102v414h-318v102h318v342h-318v102h318v405h102v-405h323z" />
    <glyph glyph-name="bullet" unicode="&#x2022;" horiz-adv-x="1324" vert-adv-y="2457" 
d="M881 878v-444h-444v444h444z" />
    <glyph glyph-name="ellipsis" unicode="&#x2026;" horiz-adv-x="1241" vert-adv-y="2457" 
d="M284 205v-205h-139v205h139zM690 205v-205h-139v205h139zM1095 205v-205h-139v205h139z" />
    <glyph glyph-name="perthousand" unicode="&#x2030;" horiz-adv-x="2472" vert-adv-y="2457" 
d="M2083 838q148 0 241 -120q92 -119 92 -310q0 -168 -74 -283q-92 -144 -259 -144t-259 144q-74 115 -74 292q0 186 91 301q96 120 242 120zM2083 747q-103 0 -169 -92t-66 -237q0 -147 56 -241q64 -105 180 -105q105 0 167 89q67 96 67 248q0 150 -65 244t-170 94z
M388 1384q148 0 241 -120q92 -120 92 -310q0 -168 -74 -284q-92 -144 -259 -144q-166 0 -259 144q-74 116 -74 292q0 187 91 302q96 120 242 120zM388 1293q-103 0 -169 -92t-66 -238t56 -240q64 -106 180 -106q105 0 167 89q67 97 67 248t-65 245t-170 94zM615 0h-99
l588 1365h95zM1327 838q149 0 242 -120q92 -120 92 -310q0 -168 -74 -283q-93 -144 -260 -144q-166 0 -259 144q-74 116 -74 292q0 186 91 301q96 120 242 120zM1327 747q-103 0 -169 -92q-66 -91 -66 -237q0 -147 56 -241q64 -105 180 -105q105 0 168 89q67 96 67 248
q0 150 -65 244t-171 94z" />
    <glyph glyph-name="guilsinglleft" unicode="&#x2039;" horiz-adv-x="462" vert-adv-y="2457" 
d="M321 321l-221 248v115l221 250v-131l-151 -176l151 -172v-134z" />
    <glyph glyph-name="guilsinglright" unicode="&#x203a;" horiz-adv-x="462" vert-adv-y="2457" 
d="M141 934l221 -248v-114l-221 -251v132l151 175l-151 173v133z" />
    <glyph glyph-name="uni203E" unicode="&#x203e;" horiz-adv-x="1044" vert-adv-y="2457" 
d="M79 1580h887v-105h-887v105z" />
    <glyph glyph-name="fraction" unicode="&#x2044;" horiz-adv-x="422" vert-adv-y="2457" 
d="M-33 0h-97l588 1365h94z" />
    <glyph glyph-name="franc" unicode="&#x20a3;" horiz-adv-x="1210" vert-adv-y="2457" 
d="M121 0v1365h727v-101h-609v-435h405v-101h-405v-728h-118zM780 0v829h106v-204q85 240 312 233v-118q-24 1 -31 1q-128 0 -205 -110q-41 -57 -55.5 -132t-14.5 -226v-273h-112z" />
    <glyph glyph-name="lira" unicode="&#x20a4;" horiz-adv-x="853" vert-adv-y="2457" 
d="M375 464h268v-100h-287q-41 -119 -140 -222q73 52 129 52q34 0 59.5 -12t89.5 -58q55 -40 99 -40q95 0 107 151h107q-7 -117 -54 -183q-58 -81 -163 -81q-43 0 -74.5 12t-84.5 49q-71 48 -123 48q-44 0 -88 -20t-117 -74l-52 77q148 135 188 301h-174v100h188q0 46 -8 91
h-180v100h148q-15 29 -71 125q-76 132 -76 259q0 163 113 264q98 89 250 89q235 0 324 -182q41 -85 43 -197h-116q-4 138 -68 210t-182 72q-115 0 -177 -68q-66 -74 -66 -180q0 -52 17 -102.5t61 -128.5q64 -114 82 -161h296v-100h-271q4 -34 4 -58q0 -15 -1 -33z" />
    <glyph glyph-name="peseta" unicode="&#x20a7;" horiz-adv-x="1922" vert-adv-y="2457" 
d="M158 0v1365h348q128 0 206.5 -20t136.5 -68q128 -106 128 -299q0 -216 -161 -322q-113 -74 -324 -74h-212v-582h-122zM280 688h222q179 0 257 64q93 75 93 222q0 165 -115 239q-42 27 -93 36.5t-148 9.5h-216v-571zM970 682v76h114v144l75 99h16v-243h137v-76h-137v-490
q0 -85 15 -111t63 -26q24 0 59 9v-76q-43 -13 -78 -13q-99 0 -132 64q-18 35 -18 162v481h-114zM1318 209h90q11 -78 58 -120t123 -42q74 0 117 39q47 41 47 109q0 73 -63 113q-32 20 -151 51q-208 56 -208 211q0 91 67.5 151t169.5 60q105 0 171.5 -55.5t79.5 -153.5h-91
q-24 134 -157 134q-67 0 -109.5 -37.5t-42.5 -97.5q0 -55 36.5 -84.5t136.5 -57.5q132 -36 172 -68q80 -62 80 -165q0 -96 -66 -158q-72 -67 -190 -67q-117 0 -187 61.5t-83 176.5z" />
    <glyph glyph-name="Euro" unicode="&#x20ac;" horiz-adv-x="1168" vert-adv-y="2457" 
d="M176 512h-136l37 100h91q-1 27 -1 50q0 42 3 89h-130l37 100h103q22 158 81 267q150 274 448 274q211 0 357 -130l-41 -111q-83 73 -145 101q-86 38 -179 38q-255 0 -367 -286q-25 -66 -38 -153h618l-37 -100h-590q-2 -26 -2 -67q0 -44 2 -72h539l-37 -100h-492
q15 -112 55 -195q115 -244 351 -244q99 0 166 39t143 140l85 -65q-65 -91 -121 -132q-115 -84 -281 -84q-190 0 -320 124q-162 157 -199 417z" />
    <glyph glyph-name="uni2101" unicode="&#x2101;" horiz-adv-x="1679" vert-adv-y="2457" 
d="M354 1365h94l273 -819h-102l-79 250h-281l-81 -250h-99zM286 881h227l-113 355zM1053 247h91q25 -179 190 -179q77 0 121 40q47 43 47 114q0 74 -60 113q-31 21 -154 55q-91 26 -135 56q-88 61 -88 172q0 89 61 150q69 70 186 70q82 0 145.5 -35.5t94.5 -99.5
q18 -36 26 -101h-97q-9 51 -21 74q-41 76 -146 76q-71 0 -113 -37t-42 -99q0 -57 37 -89t133 -59q137 -37 183 -71q89 -63 89 -175q0 -102 -70 -169q-74 -72 -195 -72q-126 0 -197.5 67t-85.5 199zM664 0h-97l588 1365h94z" />
    <glyph glyph-name="afii61289" unicode="&#x2113;" horiz-adv-x="1044" vert-adv-y="2457" 
d="M521 550q-66 -338 -66 -425q0 -52 37 -52q53 0 104 112q16 37 38 37q27 0 27 -31q0 -49 -54 -122q-72 -98 -156 -98q-63 0 -99.5 48t-36.5 132q0 70 20 261q-84 -79 -101 -79q-10 0 -19 10.5t-9 21.5q0 20 41 57q43 37 103 106q72 380 166 616q98 245 237 245
q58 0 93 -45t35 -121q0 -173 -125 -383q-70 -118 -235 -290zM544 683q133 146 196 289q59 135 59 242q0 41 -13 66t-35 25t-45 -25t-38 -66q-58 -162 -124 -531z" />
    <glyph glyph-name="afii61352" unicode="&#x2116;" horiz-adv-x="1717" vert-adv-y="2457" 
d="M158 0v1365h131l663 -1169v1169h116v-1365h-132l-662 1163v-1163h-116zM1680 227v-90h-505v90h505zM1428 939q124 0 192 -99q60 -87 60 -220q0 -137 -64 -226q-66 -93 -188 -93q-123 0 -189 93q-64 89 -64 230q0 130 60 216q69 99 193 99zM1427 846q-71 0 -113 -60
q-45 -64 -45 -164q0 -105 43 -167t116 -62q72 0 115 61.5t43 165.5q0 103 -45 166q-43 60 -114 60z" />
    <glyph glyph-name="trademark" unicode="&#x2122;" horiz-adv-x="1461" vert-adv-y="2457" 
d="M353 546h-94v736h-235v83h563v-83h-234v-736zM676 546v819h120l232 -679l227 679h121v-819h-90v655l-217 -655h-81l-222 652v-652h-90z" />
    <glyph glyph-name="partialdiff" unicode="&#x2202;" horiz-adv-x="970" vert-adv-y="2457" 
d="M646 915q-70 118 -97.5 158t-74.5 93q-75 83 -192 165l44 63q151 -73 286 -226q110 -124 185 -302q83 -198 83 -394q0 -216 -99 -355q-105 -146 -296 -146t-296 146q-99 139 -99 354q0 210 94 345q51 73 128 114t162 41q96 0 172 -56zM485 877q-127 0 -203 -108
q-80 -114 -80 -292q0 -190 78 -303q74 -109 205 -109t205 109q78 113 78 298t-80 297q-77 108 -203 108z" />
    <glyph glyph-name="emptyset" unicode="&#x2205;" horiz-adv-x="1287" vert-adv-y="2457" 
d="M909 1365l98 -51l-98 -181q231 -161 231 -416q0 -141 -75 -262q-65 -105 -170 -167q-119 -69 -263 -69q-94 0 -162 33l-128 -251l-100 51l126 249q-221 162 -221 414q0 228 171 376q140 121 328 121q82 0 166 -29zM524 353q66 -18 119 -18q168 0 283 123q100 108 100 257
q0 97 -44.5 181t-119.5 131zM759 1079q-57 17 -110 17q-184 0 -299 -138q-89 -107 -89 -242q0 -183 159 -310z" />
    <glyph glyph-name="Delta" unicode="&#x2206;" horiz-adv-x="1107" vert-adv-y="2457" 
d="M31 0l459 1365h133l454 -1365h-1046zM555 1230l-363 -1125h719z" />
    <glyph glyph-name="product" unicode="&#x220f;" horiz-adv-x="1369" vert-adv-y="2457" 
d="M51 1536h1266v-117h-152v-1814h152v-117h-441v117h162v1814h-708v-1814h160v-117h-439v117h153v1814h-153v117z" />
    <glyph glyph-name="summation" unicode="&#x2211;" horiz-adv-x="1386" vert-adv-y="2457" 
d="M1220 1536v-454h-107l-9 346h-895l515 -874l-515 -960h913l6 347h111v-453h-1158v124l506 942l-506 862v120h1139z" />
    <glyph glyph-name="minus" unicode="&#x2212;" horiz-adv-x="1044" vert-adv-y="2457" 
d="M79 742h887v-105h-887v105z" />
    <glyph glyph-name="uni2218" unicode="&#x2218;" horiz-adv-x="1044" vert-adv-y="2457" 
d="M527 982q112 0 194 -83q83 -84 83 -203q0 -118 -82 -202q-83 -84 -199 -84t-198 83q-84 84 -84 203q0 121 84 203q84 83 202 83zM525 885q-79 0 -133 -55q-55 -55 -55 -134q0 -78 54.5 -133.5t131.5 -55.5t131 55.5t54 133.5q0 80 -55 134q-55 55 -128 55z" />
    <glyph glyph-name="uni2218" unicode="&#x25e6;" horiz-adv-x="1044" vert-adv-y="2457" 
d="M527 982q112 0 194 -83q83 -84 83 -203q0 -118 -82 -202q-83 -84 -199 -84t-198 83q-84 84 -84 203q0 121 84 203q84 83 202 83zM525 885q-79 0 -133 -55q-55 -55 -55 -134q0 -78 54.5 -133.5t131.5 -55.5t131 55.5t54 133.5q0 80 -55 134q-55 55 -128 55z" />
    <glyph glyph-name="radical" unicode="&#x221a;" horiz-adv-x="1386" vert-adv-y="2457" 
d="M1375 1693v-98h-409l-489 -1595h-120l-189 625h-158v98h230l171 -576l469 1546h495z" />
    <glyph glyph-name="infinity" unicode="&#x221e;" horiz-adv-x="1386" vert-adv-y="2457" 
d="M695 634q-55 -78 -98 -125q-107 -117 -253 -117q-139 0 -223 99q-71 84 -71 211t77 209q85 91 219 91q99 0 179.5 -56.5t166.5 -185.5q52 77 96 124q110 117 254 117q141 0 225 -100q69 -84 69 -207q0 -133 -82 -216q-84 -85 -213 -85q-100 0 -180 56t-166 185zM744 697
q76 -119 142 -169t148 -50q90 0 147.5 61.5t57.5 159.5q0 104 -69 165q-59 52 -138 52q-81 0 -144 -47.5t-144 -171.5zM643 696q-77 121 -143.5 171t-149.5 50q-90 0 -147 -61.5t-57 -159.5q0 -106 69 -167q58 -52 139 -52t143.5 47t145.5 172z" />
    <glyph glyph-name="integral" unicode="&#x222b;" horiz-adv-x="1044" vert-adv-y="2457" 
d="M240 -490l28 107q42 -21 79 -21q81 0 106 58q15 34 15 186v1325q0 183 16 237q17 62 72.5 98t130.5 36q44 0 117 -23l-27 -107q-44 21 -81 21q-77 0 -103 -55q-17 -36 -17 -160v-1378q0 -124 -7 -170.5t-31 -82.5q-29 -42 -85 -67.5t-119 -25.5q-35 0 -94 22z" />
    <glyph glyph-name="similar" unicode="&#x223c;" horiz-adv-x="1044" vert-adv-y="2457" 
d="M120 540l-90 59q33 72 75 129q81 109 206 109q78 0 229 -71q90 -41 125.5 -53t72.5 -12q58 0 97.5 30t86.5 109l93 -54q-56 -113 -114 -163q-81 -69 -182 -69q-44 0 -96.5 18.5t-190.5 80.5q-81 37 -132 37q-53 0 -94.5 -34.5t-85.5 -115.5z" />
    <glyph glyph-name="uni2243" unicode="&#x2243;" horiz-adv-x="1044" vert-adv-y="2457" 
d="M102 712l-69 47q39 77 79 123q81 93 190 93q78 0 236 -82q89 -46 128 -60t78 -14q58 0 103.5 35.5t94.5 119.5l69 -47q-41 -80 -82 -127q-79 -90 -186 -90q-44 0 -92.5 17.5t-148.5 68.5q-137 70 -205 70q-105 0 -195 -154zM1011 612v-96h-978v96h978z" />
    <glyph glyph-name="approxequal" unicode="&#x2248;" horiz-adv-x="1044" vert-adv-y="2457" 
d="M102 712l-69 47q39 77 79 123q81 93 190 93q78 0 236 -82q89 -46 128 -60t78 -14q58 0 103.5 35.5t94.5 119.5l69 -47q-41 -80 -82 -127q-79 -90 -186 -90q-44 0 -92.5 17.5t-148.5 68.5q-137 70 -205 70q-105 0 -195 -154zM102 388l-69 47q39 76 79 123q80 93 191 93
q78 0 235 -81q88 -46 127.5 -60t78.5 -14q58 0 103 35t95 119l69 -47q-40 -79 -82 -127q-79 -90 -186 -90q-43 0 -93 17.5t-148 68.5q-83 42 -123.5 56t-81.5 14q-56 0 -101 -35.5t-94 -118.5z" />
    <glyph glyph-name="notequal" unicode="&#x2260;" horiz-adv-x="1044" vert-adv-y="2457" 
d="M346 279l-91 53l98 169h-274v105h334l97 168h-431v105h492l128 221l91 -52l-98 -169h274v-105h-334l-97 -168h431v-105h-492z" />
    <glyph glyph-name="lessequal" unicode="&#x2264;" horiz-adv-x="1044" vert-adv-y="2457" 
d="M966 1190v-116l-754 -305l754 -305v-116l-887 368v107zM966 288v-107h-887v107h887z" />
    <glyph glyph-name="greaterequal" unicode="&#x2265;" horiz-adv-x="1044" vert-adv-y="2457" 
d="M79 1190l887 -367v-107l-887 -368v116l754 305l-754 305v116zM79 288h887v-107h-887v107z" />
    <glyph glyph-name="glyph68" vert-adv-y="2457" 
 />
    <glyph glyph-name="glyph69" vert-adv-y="2457" 
 />
    <glyph glyph-name="glyph70" vert-adv-y="2457" 
 />
    <glyph glyph-name="glyph71" vert-adv-y="2457" 
 />
    <glyph glyph-name="glyph72" vert-adv-y="2457" 
 />
    <glyph glyph-name="glyph73" vert-adv-y="2457" 
 />
    <glyph glyph-name="glyph74" vert-adv-y="2457" 
 />
    <glyph glyph-name="glyph75" vert-adv-y="2457" 
 />
    <glyph glyph-name="glyph76" vert-adv-y="2457" 
 />
    <glyph glyph-name="glyph77" vert-adv-y="2457" 
 />
    <glyph glyph-name="glyph78" vert-adv-y="2457" 
 />
    <glyph glyph-name="glyph79" vert-adv-y="2457" 
 />
    <glyph glyph-name="glyph80" vert-adv-y="2457" 
 />
    <glyph glyph-name="glyph81" vert-adv-y="2457" 
 />
    <glyph glyph-name="glyph82" vert-adv-y="2457" 
 />
    <glyph glyph-name="glyph83" vert-adv-y="2457" 
 />
    <glyph glyph-name="glyph84" vert-adv-y="2457" 
 />
    <glyph glyph-name="glyph85" vert-adv-y="2457" 
 />
    <glyph glyph-name="glyph86" vert-adv-y="2457" 
 />
    <glyph glyph-name="glyph87" vert-adv-y="2457" 
 />
    <glyph glyph-name="glyph88" vert-adv-y="2457" 
 />
    <glyph glyph-name="glyph89" vert-adv-y="2457" 
 />
    <glyph glyph-name="glyph90" vert-adv-y="2457" 
 />
    <glyph glyph-name="glyph91" vert-adv-y="2457" 
 />
    <glyph glyph-name="glyph92" vert-adv-y="2457" 
 />
    <glyph glyph-name="glyph93" vert-adv-y="2457" 
 />
    <glyph glyph-name="glyph108" vert-adv-y="2457" 
 />
    <glyph glyph-name="glyph110" vert-adv-y="2457" 
 />
    <glyph glyph-name="glyph111" vert-adv-y="2457" 
 />
    <glyph glyph-name="glyph112" vert-adv-y="2457" 
 />
    <glyph glyph-name="glyph120" vert-adv-y="2457" 
 />
    <glyph glyph-name="glyph124" vert-adv-y="2457" 
 />
    <glyph glyph-name="glyph129" vert-adv-y="2457" 
 />
    <glyph glyph-name="glyph137" vert-adv-y="2457" 
 />
    <glyph glyph-name="glyph155" vert-adv-y="2457" 
 />
    <glyph glyph-name="glyph159" vert-adv-y="2457" 
 />
    <glyph glyph-name="glyph160" vert-adv-y="2457" 
 />
    <glyph glyph-name="glyph161" vert-adv-y="2457" 
 />
    <glyph glyph-name="glyph172" horiz-adv-x="983" vert-adv-y="983" 
 />
    <glyph glyph-name="glyph173" vert-adv-y="2457" 
 />
    <glyph glyph-name="glyph174" vert-adv-y="2457" 
 />
    <glyph glyph-name="glyph175" vert-adv-y="2457" 
 />
    <glyph glyph-name="glyph177" vert-adv-y="2457" 
 />
    <glyph glyph-name="glyph185" vert-adv-y="2457" 
 />
    <glyph glyph-name="glyph187" vert-adv-y="2457" 
 />
    <glyph glyph-name="glyph192" vert-adv-y="2457" 
 />
    <glyph glyph-name="glyph193" vert-adv-y="2457" 
 />
    <glyph glyph-name="glyph199" vert-adv-y="2457" 
 />
    <glyph glyph-name="glyph200" vert-adv-y="2457" 
 />
    <glyph glyph-name="glyph201" vert-adv-y="2457" 
 />
    <glyph glyph-name="glyph202" vert-adv-y="2457" 
 />
    <glyph glyph-name="glyph203" vert-adv-y="2457" 
 />
    <glyph glyph-name="glyph204" vert-adv-y="2457" 
 />
    <glyph glyph-name="glyph205" vert-adv-y="2457" 
 />
    <glyph glyph-name="glyph206" vert-adv-y="2457" 
 />
    <glyph glyph-name="glyph207" vert-adv-y="2457" 
 />
    <glyph glyph-name="glyph208" vert-adv-y="2457" 
 />
    <glyph glyph-name="glyph209" vert-adv-y="2457" 
 />
    <glyph glyph-name="glyph210" vert-adv-y="2457" 
 />
    <glyph glyph-name="glyph211" vert-adv-y="2457" 
 />
    <glyph glyph-name="glyph212" vert-adv-y="2457" 
 />
    <glyph glyph-name="glyph213" vert-adv-y="2457" 
 />
    <glyph glyph-name="glyph214" vert-adv-y="2457" 
 />
    <glyph glyph-name="glyph215" vert-adv-y="2457" 
 />
    <glyph glyph-name="eight.fitted" horiz-adv-x="992" vert-adv-y="2457" 
d="M338 757q-187 94 -187 298q0 161 110 257q90 80 235 80q146 0 239 -81q105 -92 105 -243q0 -106 -46.5 -184.5t-138.5 -126.5q231 -116 231 -375q0 -183 -113 -303q-101 -108 -275 -108q-177 0 -278 105q-113 116 -113 301q0 266 231 380zM498 1290q-105 0 -168 -62
q-66 -64 -66 -179q0 -114 62 -180q63 -68 173 -68q107 0 168 69q61 68 61 179q0 107 -55 170q-63 71 -175 71zM497 699q-123 0 -197 -84q-75 -84 -75 -226q0 -159 83 -247q71 -75 193 -75q128 0 201 96q66 87 66 222q0 141 -70 224q-76 90 -201 90z" />
    <glyph glyph-name="nine.fitted" horiz-adv-x="992" vert-adv-y="2457" 
d="M132 283h113q35 -210 224 -210q148 0 220 147t85 472q-97 -219 -304 -219q-148 0 -249 107q-122 129 -122 341q0 200 101 336q101 135 275 135q193 0 294 -154q59 -90 86 -210.5t27 -297.5q0 -389 -116 -581q-107 -178 -302 -178q-161 0 -254 113q-59 71 -78 199z
M479 1290q-128 0 -199 -116q-63 -104 -63 -245t65 -240q75 -115 205 -115t204 119q62 100 62 230q0 151 -71 254q-77 113 -203 113z" />
    <glyph glyph-name="zero.fitted" horiz-adv-x="992" vert-adv-y="2457" 
d="M496 1392q201 0 307 -200q90 -170 90 -504q0 -371 -107 -545q-106 -172 -287 -172q-400 0 -400 697q0 355 97 531q106 193 300 193zM500 1290q-168 0 -233 -209q-50 -162 -50 -410q0 -598 279 -598t279 609q0 310 -69 455q-74 153 -206 153z" />
    <glyph glyph-name="three.fitted" horiz-adv-x="992" vert-adv-y="2457" 
d="M93 389h109q1 -112 39 -185q67 -131 232 -131q124 0 199 81q81 86 81 227q0 160 -105 240q-77 58 -188 58q-16 0 -51 -3v102q26 -1 39 -1q103 0 169 51q96 74 96 213q0 114 -65 181.5t-174 67.5q-116 0 -179 -67.5t-68 -198.5h-108q4 144 69 235q96 133 291 133
q161 0 258 -97q94 -94 94 -247q0 -220 -194 -311q234 -82 234 -352q0 -188 -114 -306q-105 -108 -280 -108q-177 0 -279 104q-105 106 -105 314z" />
    <glyph glyph-name="two.fitted" horiz-adv-x="992" vert-adv-y="2457" 
d="M850 106v-106h-732q3 205 81 346q44 79 103.5 134t240.5 185q89 63 146 162q51 86 51 194q0 113 -58 185q-71 87 -195 87q-114 0 -181 -73.5t-72 -203.5h-118q13 162 93 258q102 122 280 122q181 0 283 -123q89 -107 89 -260q0 -184 -132 -323q-44 -47 -76.5 -72.5
t-181.5 -133.5q-114 -82 -165.5 -170.5t-54.5 -207.5h599z" />
    <glyph glyph-name="one.fitted" horiz-adv-x="992" vert-adv-y="2457" 
d="M450 0v1100q-42 -44 -82 -58t-129 -17v93q125 5 180 75q37 48 59 172h91v-1365h-119z" />
    <glyph glyph-name="Dieresis" horiz-adv-x="1107" vert-adv-y="2457" 
d="M653 1488v191h119v-191h-119zM335 1488v191h119v-191h-119z" />
    <glyph glyph-name="Dotaccent" horiz-adv-x="1107" vert-adv-y="2457" 
d="M492 1488v191h119v-191h-119z" />
    <glyph glyph-name="Ring" horiz-adv-x="1107" vert-adv-y="2457" 
d="M556 1727q-45 0 -76 -31.5t-31 -77.5q0 -45 30.5 -77t74.5 -32t74.5 31.5t30.5 77.5q0 45 -30.5 77t-72.5 32zM556 1803q76 0 130.5 -54.5t54.5 -130.5q0 -77 -55 -130.5t-133 -53.5t-132 54q-55 54 -55 130q0 77 55.5 131t134.5 54z" />
    <glyph glyph-name="Acute" horiz-adv-x="1107" vert-adv-y="2457" 
d="M782 1737l-202 -258h-105l180 258h127z" />
    <glyph glyph-name="Grave" horiz-adv-x="1107" vert-adv-y="2457" 
d="M326 1737h126l181 -258h-105z" />
    <glyph glyph-name="Circumflex" horiz-adv-x="1107" vert-adv-y="2457" 
d="M811 1475h-113l-148 189l-151 -189h-103l200 259h113z" />
    <glyph glyph-name="Caron" horiz-adv-x="1056" vert-adv-y="2457" 
d="M270 1734h114l147 -190l151 190h103l-200 -259h-113z" />
    <glyph glyph-name="Breve" horiz-adv-x="1107" vert-adv-y="2457" 
d="M793 1734q-33 -259 -239 -259q-207 0 -239 259h83q15 -86 52 -125.5t104 -39.5t104 39.5t52 125.5h83z" />
    <glyph glyph-name="Tilde" horiz-adv-x="1107" vert-adv-y="2457" 
d="M825 1703q-14 -93 -55.5 -143t-103.5 -50q-53 0 -130 55q-58 42 -92 42q-63 0 -82 -98h-80q13 90 55.5 141.5t103.5 51.5q59 0 127 -50q64 -47 92 -47q62 0 83 98h82z" />
    <glyph glyph-name="Comma.high" horiz-adv-x="960" vert-adv-y="2457" 
d="M721 1367v-110q0 -90 -33.5 -134.5t-117.5 -64.5v61q71 20 71 78v18h-59v152h139z" />
    <glyph glyph-name="Hungarumlaut" horiz-adv-x="1044" vert-adv-y="2457" 
d="M731 1737l-202 -258h-105l180 258h127zM977 1737l-202 -258h-105l180 258h127z" />
    <glyph glyph-name="Cedilla" horiz-adv-x="1044" vert-adv-y="2457" 
d="M471 0h75l-40 -108q20 6 42 6q64 0 105 -38.5t41 -98.5q0 -68 -43 -108.5t-114 -40.5q-59 0 -98.5 28t-45.5 74h86q9 -41 57 -41q72 0 72 82q0 38 -19.5 60t-52.5 22q-43 0 -53 -31h-87z" />
    <glyph glyph-name="Ogonek" horiz-adv-x="1057" vert-adv-y="2457" 
d="M927 0q-57 -45 -80 -83.5t-23 -90.5q0 -45 29.5 -73t77.5 -28q26 0 72 18v-72q-57 -22 -104 -22q-77 0 -123.5 41.5t-46.5 110.5q0 111 121 199h77z" />
    <glyph glyph-name="Macron" horiz-adv-x="1107" vert-adv-y="2457" 
d="M821 1588v-86h-535v86h535z" />
    <glyph glyph-name="Commaaccent" horiz-adv-x="960" vert-adv-y="2457" 
d="M580 -95v-110q0 -90 -33.5 -134.5t-117.5 -64.5v61q71 20 71 78v18h-59v152h139z" />
    <glyph glyph-name="four.fitted" horiz-adv-x="992" vert-adv-y="2457" 
d="M609 0v369h-515v113l524 883h95v-895h169v-101h-169v-369h-104zM609 470v703l-423 -703h423z" />
    <glyph glyph-name="Dieresis.alt" horiz-adv-x="440" vert-adv-y="2457" 
d="M282 1488v191h119v-191h-119zM39 1488v191h119v-191h-119z" />
    <glyph glyph-name="five.fitted" horiz-adv-x="992" vert-adv-y="2457" 
d="M251 1365h568v-106h-483l-78 -469q89 121 244 121q162 0 263 -116q111 -129 111 -338q0 -225 -127 -368q-104 -118 -277 -118q-163 0 -259.5 96t-103.5 265h110q8 -101 56 -164q72 -95 203 -95q122 0 198 101q82 110 82 275q0 159 -74 260q-73 100 -207 100
q-151 0 -239 -159l-95 15z" />
    <glyph glyph-name="six.fitted" horiz-adv-x="992" vert-adv-y="2457" 
d="M853 1081h-112q-34 209 -219 209q-182 0 -253 -239q-42 -142 -50 -380q32 73 76 120q95 100 227 100q148 0 249 -107q122 -130 122 -341q0 -200 -103 -337q-102 -135 -278 -135q-192 0 -291 154q-58 90 -84.5 210.5t-26.5 296.5q0 392 116 582q108 178 302 178
q158 0 250 -113q57 -70 75 -198zM505 790q-130 0 -204 -119q-62 -99 -62 -230q0 -149 69 -255q74 -113 200 -113q130 0 202 116q65 104 65 246t-65 240q-76 115 -205 115z" />
    <glyph glyph-name="seven.fitted" horiz-adv-x="992" vert-adv-y="2457" 
d="M429 0h-120q5 716 456 1254h-612v111h727v-108q-229 -280 -330 -564q-116 -324 -121 -693z" />
    </font>
</defs>
</svg>
