<?xml version="1.0" standalone="no"?>
<!DOCTYPE svg PUBLIC "-//W3C//DTD SVG 20010904//EN"
 "http://www.w3.org/TR/2001/REC-SVG-20010904/DTD/svg10.dtd">
<svg version="1.0" xmlns="http://www.w3.org/2000/svg"
 width="700.000000pt" height="700.000000pt" viewBox="0 0 700.000000 700.000000"
 preserveAspectRatio="xMidYMid meet">
<metadata>
Created by potrace 1.11, written by Peter Selinger 2001-2013
</metadata>
<g transform="translate(0.000000,700.000000) scale(0.100000,-0.100000)"
fill="#000000" stroke="none">
<path d="M4712 6980 c-262 -69 -432 -296 -430 -575 2 -156 48 -279 148 -388
55 -59 164 -136 217 -151 21 -7 30 -40 59 -216 3 -14 7 -36 9 -50 3 -14 8 -38
10 -55 8 -45 62 -345 85 -465 11 -58 21 -116 24 -130 2 -14 11 -63 20 -110 8
-47 17 -96 20 -110 2 -14 36 -200 75 -415 38 -214 72 -401 75 -415 2 -14 11
-63 20 -110 8 -47 17 -96 20 -110 2 -14 13 -74 25 -135 11 -60 23 -123 26
-140 5 -30 6 -38 20 -110 4 -22 9 -49 10 -60 2 -11 11 -60 20 -110 10 -49 19
-101 22 -115 2 -14 20 -113 39 -220 20 -107 38 -206 40 -220 3 -14 11 -61 19
-105 8 -44 17 -93 20 -110 2 -16 7 -39 9 -50 6 -28 34 -184 40 -220 3 -16 10
-55 16 -85 6 -30 13 -68 15 -85 3 -16 7 -41 10 -55 4 -22 9 -49 30 -165 2 -11
15 -85 30 -163 14 -79 24 -146 22 -148 -2 -3 -18 8 -34 23 -17 15 -43 39 -59
53 -46 40 -208 183 -220 195 -6 5 -40 35 -74 65 -35 30 -68 59 -74 65 -6 5
-49 44 -96 85 -47 41 -92 82 -100 90 -8 8 -44 40 -80 70 -36 30 -67 58 -70 61
-3 3 -48 43 -100 89 -52 46 -97 86 -100 89 -3 3 -39 35 -80 71 -41 36 -80 70
-86 75 -6 6 -41 37 -79 70 -92 81 -84 75 -141 125 -27 25 -65 59 -84 75 -19
17 -62 55 -95 84 -71 63 -103 92 -210 186 -44 38 -100 88 -124 110 -60 55 -48
44 -231 205 -91 79 -183 161 -205 181 -35 32 -296 263 -484 428 -34 31 -68 61
-75 67 -6 5 -36 32 -67 60 -152 135 -196 174 -219 194 -14 12 -54 47 -90 79
-36 32 -130 115 -210 186 -80 70 -180 160 -224 199 -43 39 -83 74 -87 77 -5 3
-7 23 -3 45 48 288 -111 570 -369 658 -78 26 -115 31 -232 30 -92 -1 -122 -5
-181 -26 -196 -71 -325 -214 -373 -415 -74 -316 111 -629 420 -709 71 -19 224
-22 280 -7 33 10 38 8 80 -31 38 -34 302 -268 367 -324 21 -19 160 -143 201
-180 14 -13 53 -47 86 -75 70 -61 148 -130 155 -137 3 -3 79 -71 170 -150 91
-80 167 -148 170 -151 3 -3 70 -63 150 -134 150 -132 211 -186 390 -345 58
-51 136 -121 174 -154 38 -34 74 -66 80 -71 11 -10 128 -113 271 -240 39 -34
115 -102 171 -151 55 -49 133 -118 174 -154 40 -36 78 -70 84 -75 6 -6 70 -62
141 -125 72 -63 132 -117 135 -120 3 -3 40 -36 83 -74 42 -38 76 -70 74 -72
-2 -2 -133 51 -292 117 -160 67 -342 142 -405 168 -380 157 -806 335 -812 340
-4 3 -10 22 -13 41 -33 200 -183 376 -373 439 -399 134 -790 -133 -794 -542
-1 -106 15 -184 58 -274 62 -130 180 -235 327 -289 63 -24 88 -27 192 -28 138
-1 212 16 308 72 32 19 66 32 75 29 9 -3 208 -84 442 -182 234 -97 488 -203
565 -235 180 -74 789 -327 835 -347 19 -8 44 -19 55 -24 21 -9 743 -308 761
-315 6 -3 19 -41 28 -84 36 -155 146 -296 294 -373 203 -107 482 -78 657 67
96 79 129 128 187 275 30 77 29 246 -2 351 -44 152 -152 285 -281 347 -32 15
-61 35 -63 43 -4 13 -14 68 -41 215 -2 17 -18 104 -35 195 -16 91 -32 179 -35
195 -174 961 -172 949 -179 981 -2 12 -7 37 -10 55 -3 19 -16 95 -30 169 -14
74 -27 149 -30 165 -3 17 -19 104 -36 195 -16 91 -32 179 -35 195 -3 17 -13
68 -21 115 -9 47 -18 96 -20 110 -3 14 -13 72 -24 130 -11 58 -22 121 -25 140
-15 89 -84 467 -90 495 -2 6 -5 26 -8 45 -4 19 -17 96 -31 170 -14 74 -27 149
-30 165 -3 17 -19 104 -36 195 -34 190 -35 195 -49 275 -11 61 -17 90 -26 135
-2 14 -7 41 -10 60 -5 28 -14 83 -20 110 -1 3 -5 25 -9 50 -5 25 -10 54 -12
65 -2 11 -8 45 -14 75 -6 30 -12 66 -15 79 -3 17 6 34 37 65 107 107 158 230
164 392 10 280 -147 508 -406 589 -84 26 -248 28 -338 5z"/>
</g>
</svg>
